<svg width="209" height="41" viewBox="0 0 209 41" fill="none" xmlns="http://www.w3.org/2000/svg">
<path d="M20.671 0.978027C9.65271 0.978027 0.723536 9.91779 0.73414 20.9361C0.73414 31.9544 9.67391 40.8836 20.6922 40.873C31.7105 40.873 40.6291 31.9438 40.6291 20.9255C40.6291 9.90719 31.6999 0.978027 20.671 0.978027C20.6816 0.978027 20.6816 0.978027 20.671 0.978027Z" fill="#1E2330"/>
<path d="M34.6067 29.7911C33.5356 30.3744 32.3479 30.7137 31.1283 30.8092C30.4814 30.8092 29.8557 30.6077 29.3255 30.2365C26.0911 28.0838 27.194 25.5174 29.3997 21.5194C30.4072 19.8863 31.2025 18.1259 31.7434 16.2807C32.21 14.34 32.6236 11.5192 30.9374 9.38764C29.9936 8.29536 28.7529 7.51062 27.3742 7.11824C25.3381 6.51377 23.2172 6.22745 21.0963 6.24866H20.2585C18.1375 6.22745 16.0166 6.51377 13.9805 7.11824C12.5913 7.51062 11.3611 8.29536 10.4173 9.38764C8.74177 11.5192 9.15535 14.34 9.62196 16.2807C10.1628 18.1259 10.9369 19.8863 11.9444 21.5194C14.1502 25.5068 15.2531 28.0838 12.0186 30.2365C11.4884 30.6077 10.8627 30.8092 10.2158 30.8092C9.00688 30.7137 7.84036 30.3744 6.76929 29.7911L6.96017 30.1199C8.51907 32.5059 10.5552 33.7785 12.8246 33.7785C13.9063 33.7467 14.9773 33.4922 15.953 33.0256C17.1513 32.4741 18.1375 31.5621 18.7844 30.4168C19.4419 29.3457 19.707 28.0838 19.5374 26.8324C19.1662 25.5068 18.7208 24.1918 18.1906 22.9193C16.5999 18.8046 14.4047 13.1841 16.3029 10.4375C17.0559 9.2816 18.5193 8.70894 20.6509 8.70894C22.7824 8.69834 24.214 9.2816 24.9988 10.4375C26.8758 13.1841 24.7019 18.8046 23.1111 22.9193C22.5703 24.2024 22.1143 25.5174 21.7431 26.8642C21.5735 28.1156 21.8386 29.3775 22.4961 30.4486C23.143 31.5939 24.1292 32.5165 25.3275 33.068C26.3032 33.5346 27.3742 33.7891 28.4559 33.8209C30.7253 33.8209 32.7827 32.5483 34.384 30.1411L34.6067 29.7911Z" fill="white"/>
<path d="M58.0179 33.5669H53.8396V6.37646H58.0285L58.0179 33.5669Z" fill="#1E2330"/>
<path d="M78.6652 33.567H74.4551V31.8066C73.1825 33.2064 71.3691 34.0018 69.4709 33.9806C65.2502 33.9806 62.949 31.1809 62.949 27.0769V14.9663H67.1378V26.3133C67.1378 28.5828 68.2301 30.0992 70.6162 30.0992C72.4402 30.131 74.0309 28.9009 74.4657 27.1299V14.9875H78.6652V33.567Z" fill="#1E2330"/>
<path d="M88.0089 33.5669H83.8201V6.37646H88.0089V33.5669Z" fill="#1E2330"/>
<path d="M108.636 33.567H104.447V31.8066C103.175 33.2064 101.361 34.0018 99.4631 33.9806C95.2424 33.9806 92.9412 31.1809 92.9412 27.0769V14.9663H97.13V26.3133C97.13 28.5828 98.2223 30.0992 100.608 30.0992C102.432 30.131 104.023 28.9009 104.458 27.1299V14.9875H108.647L108.636 33.567Z" fill="#1E2330"/>
<path d="M118.017 33.5669H113.828V6.37646H118.017V33.5669Z" fill="#1E2330"/>
<path d="M138.497 27.7872C137.872 31.467 135.157 33.9804 130.671 33.9804C125.485 33.9804 121.89 30.046 121.89 24.3195C121.89 18.7626 125.528 14.5737 130.597 14.5737C135.825 14.5737 138.667 18.296 138.667 23.7256V25.2421H125.994C126.122 28.5083 127.999 30.4702 130.682 30.4702C132.686 30.4702 134.192 29.59 134.658 27.7872H138.497ZM126.122 22.1667H134.531C134.489 19.8973 133.195 18.0627 130.639 18.0627C128.338 18.0839 126.62 19.5155 126.122 22.1667Z" fill="#1E2330"/>
<path d="M161.753 14.5949C165.539 14.5949 167.809 17.2779 167.809 21.4986V33.6092H163.62V22.1667C163.62 19.8973 162.612 18.3808 160.598 18.3808C158.964 18.349 157.554 19.5261 157.289 21.138V33.5561H153.047V22.1561C153.047 19.8867 152.04 18.3702 150.025 18.3702C148.392 18.3384 146.981 19.5155 146.716 21.1274V33.5455H142.527V14.9767H146.716V16.4932C147.872 15.1888 149.569 14.4889 151.308 14.5843C153.248 14.5631 155.072 15.4857 156.207 17.0552C157.575 15.4221 159.622 14.5101 161.753 14.5949Z" fill="#1E2330"/>
<path d="M180.237 33.9806C175.009 33.9806 171.414 29.9614 171.414 24.2773C171.414 18.5932 175.009 14.5952 180.237 14.5952C185.465 14.5952 189.06 18.6144 189.06 24.2985C189.06 29.9826 185.465 33.9806 180.237 33.9806ZM180.237 18.169C177.215 18.169 175.603 20.7672 175.603 24.2773C175.603 27.7875 177.236 30.3856 180.237 30.3856C183.238 30.3856 184.882 27.7875 184.882 24.2773C184.882 20.7672 183.249 18.169 180.237 18.169Z" fill="#1E2330"/>
<path d="M192.933 14.9983H197.122V16.7587C198.427 15.3589 200.261 14.5741 202.17 14.6059C206.391 14.6059 208.734 17.4056 208.734 21.5096V33.6202H204.546V22.1777C204.546 19.9083 203.421 18.3918 201.035 18.3918C199.211 18.36 197.599 19.5901 197.143 21.3611V33.5777H192.933V14.9983Z" fill="#1E2330"/>
</svg>
