<svg width="48" height="48" viewBox="0 0 48 48" fill="none" xmlns="http://www.w3.org/2000/svg">
<rect width="48" height="48" rx="16" fill="#FFC80C"/>
<g clip-path="url(#clip0_7209_33520)">
<path d="M18.7106 25.5L15 28.5V16.5C15 16.3011 15.079 16.1103 15.2197 15.9697C15.3603 15.829 15.5511 15.75 15.75 15.75H27.75C27.9489 15.75 28.1397 15.829 28.2803 15.9697C28.421 16.1103 28.5 16.3011 28.5 16.5V24.75C28.5 24.9489 28.421 25.1397 28.2803 25.2803C28.1397 25.421 27.9489 25.5 27.75 25.5H18.7106Z" stroke="black" stroke-width="1.5" stroke-linecap="round" stroke-linejoin="round"/>
<path d="M19.5 25.5V29.25C19.5 29.4489 19.579 29.6397 19.7197 29.7803C19.8603 29.921 20.0511 30 20.25 30H29.2894L33 33V21C33 20.8011 32.921 20.6103 32.7803 20.4697C32.6397 20.329 32.4489 20.25 32.25 20.25H28.5" stroke="black" stroke-width="1.5" stroke-linecap="round" stroke-linejoin="round"/>
</g>
<defs>
<clipPath id="clip0_7209_33520">
<rect width="24" height="24" fill="white" transform="translate(12 12)"/>
</clipPath>
</defs>
</svg>
