<svg width="64" height="64" viewBox="0 0 64 64" fill="none" xmlns="http://www.w3.org/2000/svg">
<rect width="64" height="64" rx="32" fill="#E9C0E9"/>
<path d="M26.4992 37.4953V37.5063M26.4992 26.4953V26.5063M37.4992 26.4953V26.5063M24.2992 23.1953H28.6992C29.3067 23.1953 29.7992 23.6878 29.7992 24.2953V28.6953C29.7992 29.3028 29.3067 29.7953 28.6992 29.7953H24.2992C23.6917 29.7953 23.1992 29.3028 23.1992 28.6953V24.2953C23.1992 23.6878 23.6917 23.1953 24.2992 23.1953ZM35.2992 23.1953H39.6992C40.3067 23.1953 40.7992 23.6878 40.7992 24.2953V28.6953C40.7992 29.3028 40.3067 29.7953 39.6992 29.7953H35.2992C34.6917 29.7953 34.1992 29.3028 34.1992 28.6953V24.2953C34.1992 23.6878 34.6917 23.1953 35.2992 23.1953ZM24.2992 34.1953H28.6992C29.3067 34.1953 29.7992 34.6878 29.7992 35.2953V39.6953C29.7992 40.3028 29.3067 40.7953 28.6992 40.7953H24.2992C23.6917 40.7953 23.1992 40.3028 23.1992 39.6953V35.2953C23.1992 34.6878 23.6917 34.1953 24.2992 34.1953ZM35.2992 34.1843H39.6992C40.3067 34.1843 40.7992 34.6768 40.7992 35.2843V39.6843C40.7992 40.2918 40.3067 40.7843 39.6992 40.7843H35.2992C34.6917 40.7843 34.1992 40.2918 34.1992 39.6843V35.2843C34.1992 34.6768 34.6917 34.1843 35.2992 34.1843Z" stroke="#421664" stroke-width="2.2" stroke-linecap="square"/>
</svg>
