<svg width="48" height="48" viewBox="0 0 48 48" fill="none" xmlns="http://www.w3.org/2000/svg">
<rect width="48" height="48" rx="16" fill="#FFC80C"/>
<g clip-path="url(#clip0_7209_33517)">
<path d="M21.75 22.5H29.25" stroke="black" stroke-width="1.5" stroke-linecap="round" stroke-linejoin="round"/>
<path d="M21.75 25.5H29.25" stroke="black" stroke-width="1.5" stroke-linecap="round" stroke-linejoin="round"/>
<path d="M15.75 30.75C16.1478 30.75 16.5294 30.592 16.8107 30.3107C17.092 30.0294 17.25 29.6478 17.25 29.25V18C17.25 17.8011 17.329 17.6103 17.4697 17.4697C17.6103 17.329 17.8011 17.25 18 17.25H33C33.1989 17.25 33.3897 17.329 33.5303 17.4697C33.671 17.6103 33.75 17.8011 33.75 18V29.25C33.75 29.6478 33.592 30.0294 33.3107 30.3107C33.0294 30.592 32.6478 30.75 32.25 30.75H15.75Z" stroke="black" stroke-width="1.5" stroke-linecap="round" stroke-linejoin="round"/>
<path d="M15.75 30.75C15.3522 30.75 14.9706 30.592 14.6893 30.3107C14.408 30.0294 14.25 29.6478 14.25 29.25V20.25" stroke="black" stroke-width="1.5" stroke-linecap="round" stroke-linejoin="round"/>
</g>
<defs>
<clipPath id="clip0_7209_33517">
<rect width="24" height="24" fill="white" transform="translate(12 12)"/>
</clipPath>
</defs>
</svg>
