<svg width="616" height="954" viewBox="0 0 616 954" fill="none" xmlns="http://www.w3.org/2000/svg">
<g clip-path="url(#clip0_2010_1450)">
<path d="M215.26 0.5L237.071 6.55387L236.609 7.20186C238.836 8.72799 241.162 10.1041 243.572 11.3208C244.264 11.6227 245.659 10.3446 246.884 9.70541C249.175 12.4306 256.164 14.2149 259.876 12.3685C263.81 10.4333 267.531 8.06319 271.492 6.15467C272.803 5.74764 274.219 5.85544 275.453 6.45634C279.005 8.05418 282.557 8.32929 286.394 8.8264C294.103 9.93644 301.651 11.9631 308.879 14.8629C311.312 15.8039 312.431 19.9846 314.332 22.5678C315.495 24.1656 315.993 28.5418 319.154 23.5885C320.859 20.9255 328.408 21.3252 331.063 23.8729C334.118 26.8022 336.738 30.1842 339.642 33.2733C341.08 34.7913 342.741 36.0964 344.775 37.925L339.375 38.9813C346.08 40.3838 351.728 41.0763 357.03 42.8251C361.275 44.2276 366.408 45.2217 367.633 50.9473C367.74 51.4178 368.388 52.1633 368.734 52.1367C371.585 51.9502 374.462 54.1694 376.229 54.0806C380.759 53.8587 381.877 57.4897 384.639 59.0609C386.042 59.8598 387.304 60.836 388.929 61.8834C386.522 64.8039 387.792 66.97 390.598 67.9464C394.905 69.4555 394.026 72.3314 393.484 75.536C393.307 76.5479 394.106 78.4124 394.959 78.7941C397.735 80.06 400.641 81.0182 403.626 81.6522C408.066 82.5399 407.4 86.8987 409.283 89.4819C411.947 93.1924 413.803 97.5421 416.236 101.466C416.947 102.629 418.465 103.285 420.108 104.555C419.682 105.025 418.918 105.895 418.163 106.747C422 112.961 425.685 119.175 424.104 127.075C423.874 128.256 424.566 129.605 424.744 130.892C425.099 133.476 426.476 136.573 425.543 138.562C422.169 145.663 426.733 150.634 429.389 156.165C430.348 158.144 431.591 160 432.426 162.033C432.692 162.689 432.044 163.719 431.822 164.58C430.987 164.234 429.833 164.118 429.38 163.497C428.338 161.888 427.403 160.213 426.582 158.482C423.403 162.92 423.536 163.808 427.257 165.521L424.948 167.598C426.387 167.953 427.719 167.989 428.705 168.584C430.685 169.791 433.145 170.909 434.202 172.765C437.212 178.135 437.869 184.153 437.496 190.287C437.403 191.767 437.438 193.252 437.603 194.726C437.878 197.193 437.123 198.214 434.415 198.028C430.481 197.753 429.681 199.084 430.809 202.635C431.227 203.949 430.738 205.529 430.987 206.931C431.342 208.893 431.991 210.811 432.71 213.483L427.879 219.998C426.778 228.387 425.534 238.391 421.662 247.827C417.48 257.974 413.057 268.031 409.043 278.239C408.101 280.706 407.855 283.384 408.333 285.98C410.792 297.769 405.109 304.541 394.284 310.418C392.704 311.187 391.333 312.326 390.287 313.738C384.16 323.503 377.757 333.072 372.313 343.183C366.79 353.418 363.196 364.581 361.71 376.116C361.017 381.442 357.713 386.386 355.635 391.526C355.248 392.451 355.005 393.43 354.916 394.429C354.641 399.098 354.454 403.785 354.259 407.744C358.504 411.827 363.211 415.573 366.923 420.172C371.096 425.294 370.901 431.25 367.962 437.233C365.493 442.24 363.424 447.441 361.204 452.563C360.448 454.256 360.134 456.112 360.289 457.959C360.444 459.806 361.064 461.584 362.092 463.127C366.305 470.268 368.812 478.284 369.418 486.553C369.534 487.937 371.709 489.686 373.299 490.308C376.567 491.586 380.163 491.995 383.476 493.157C398.475 498.404 402.8 509.429 401.717 524.653C401.61 526.126 401.361 527.582 401.113 529.038C399.39 538.855 402.001 546.427 409.674 553.706C418.98 562.477 427.523 571.939 437.869 579.724C444.219 584.518 448.863 591.531 454.512 597.318C470.266 613.492 486.73 628.876 504.634 642.706C519.581 654.308 532.806 667.973 543.912 683.291C552.038 694.414 558.627 706.663 565.883 718.425C570.758 726.308 575.651 734.173 580.402 742.144C581.821 744.535 582.928 747.098 583.697 749.769C589.372 769.299 595.366 788.677 600.375 808.357C604.362 824.033 607.985 839.914 610.188 855.928C612.799 874.88 614.122 894.045 615.223 913.166C615.996 926.402 615.445 939.717 615.481 952.996H15.8561C14.4974 947.768 13.3519 942.468 11.7267 937.311C6.49606 920.685 3.92946 903.712 4.95072 886.278C5.34642 879.92 4.12434 873.564 1.3985 867.805C-1.1147 862.408 -0.377614 858.378 4.72871 855.085C12.9166 849.759 15.0124 842.204 14.0533 833.283C11.9664 814.074 9.1691 794.926 7.72156 775.672C6.83351 763.36 7.30426 750.871 8.02358 738.514C8.84947 724.533 10.6345 710.605 12.0109 696.66C13.158 684.584 16.4668 672.812 21.7796 661.906C24.7368 655.852 27.7828 649.834 30.8644 643.842C35.2336 635.312 43.2971 630.696 50.597 625.201C59.291 618.659 67.923 612.001 76.8391 605.76C81.8563 602.141 87.2091 599.011 92.8241 596.413C106.935 590.119 121.322 584.429 135.522 578.34C144.988 574.274 154.322 569.906 163.744 565.743C166.808 564.394 167.589 562.628 166.852 559.13C165.964 555.056 166.533 550.697 166.213 546.481C166.026 543.951 165.831 541.243 164.819 538.979C162.154 533.059 161.915 527.369 164.899 521.546C167.723 516.042 170.431 510.476 173.389 504.52C167.927 500.481 163.362 495.811 163.211 488.728C163.087 483.011 161.435 477.915 159.331 472.625C157.439 467.876 157.483 462.354 156.595 456.647L149.411 457.827C139.136 459.514 128.852 460.18 118.675 457.286C105.559 453.558 98.2501 444.565 95.4794 431.463C93.8986 423.98 92.3178 416.47 90.2753 409.102C89.6092 406.723 87.7799 404.451 85.9594 402.658C81.8211 398.574 79.1569 393.541 79.743 388.073C80.6311 380.421 78.553 373.435 76.8213 366.36C73.8019 354.048 69.6635 342.002 66.9904 329.628C62.9054 310.675 64.0776 292.078 73.642 274.644C74.0682 273.872 74.459 273.073 74.8143 272.265C76.2707 268.972 78.9702 265.59 73.9793 263.025C77.4428 257.228 77.4428 257.228 72.745 254.378C73.3311 253.233 73.9351 252.062 74.7787 250.437C70.9689 250.526 66.8927 252.364 65.3474 247.712C65.0899 246.931 66.7241 245.519 67.4878 244.392C64.1132 242.022 64.4417 239.758 68.7932 237.077C68.2337 230.863 67.1502 224.65 67.3278 218.542C67.4983 214.617 68.699 210.806 70.8091 207.491C75.9776 199.502 77.3984 190.518 79.3966 181.641C81.8298 170.874 83.8369 159.999 86.3768 149.267C87.5668 144.261 89.7512 139.503 91.3053 134.567C91.5895 133.635 91.0034 132.437 90.2041 131.567C90.8435 129.516 91.3676 127.439 92.1314 125.442C92.8951 123.445 93.4189 121.003 94.8664 119.672C99.1646 115.624 99.7952 113.458 95.1684 109.268C91.9359 106.374 87.5666 104.643 83.5526 102.735C77.0609 99.6545 75.498 95.1273 78.9703 88.736C79.5831 87.5997 79.7874 86.2415 80.4091 85.1141C81.1126 83.6875 82.0091 82.3645 83.0732 81.182C85.4177 78.8296 87.9574 76.6724 90.435 74.4177L86.9895 69.0916L87.984 67.8489L93.2237 71.2397C99.6798 67.0321 103.125 61.2267 101.616 59.1939L106.989 51.6664C107.557 46.8729 108.125 42.0793 108.711 37.1526C104.928 37.268 103.383 40.0375 103.774 43.242C104.129 46.1359 105.87 48.8702 106.997 51.6664C102.495 50.1484 101.58 46.4467 101.873 42.4432C102.157 38.6084 104.386 35.9721 108.232 34.8181C114.057 33.0427 119.857 31.1874 125.673 29.4031C126.704 29.2303 127.746 29.1296 128.79 29.1015L126.384 30.9566L126.632 31.7823L135.611 29.7937L139.163 35.6967L140.77 34.809L138.55 30.6103L142.99 26.4648L148.123 27.6542L148.727 26.5892L145.681 23.6951L146.027 22.9141L151.853 25.2932C153.825 22.6302 155.858 19.5143 158.265 16.7358C159.464 15.3688 161.267 13.9308 162.954 13.7C166.835 13.1674 170.831 13.567 174.738 13.1409C176.367 12.8687 177.825 11.9741 178.806 10.6464C181.594 6.5453 185.91 6.08364 190.43 4.58345C189.054 7.61933 190.093 8.76419 192.42 8.31147C194.95 7.81436 197.375 6.77615 199.604 6.92706C200.927 7.19337 202.712 8.12544 203.494 7.59282C206.031 5.67177 208.448 3.59659 210.731 1.37902C210.794 2.35547 210.873 3.33153 210.953 4.29911L215.9 2.92337L215.26 0.5Z" fill="#D2E823"/>
</g>
<defs>
<clipPath id="clip0_2010_1450">
<rect width="616" height="953" fill="white" transform="translate(0 0.5)"/>
</clipPath>
</defs>
</svg>
