<svg width="48" height="48" viewBox="0 0 48 48" fill="none" xmlns="http://www.w3.org/2000/svg">
<rect width="48" height="48" rx="16" fill="#DFE1E2"/>
<g clip-path="url(#clip0_7209_33490)">
<path d="M27 19.5V30.8128C27.0001 30.9362 27.0306 31.0576 27.0888 31.1663C27.147 31.2751 27.2311 31.3678 27.3337 31.4363L28.365 32.1234C28.465 32.1901 28.5796 32.2318 28.6991 32.2449C28.8186 32.2581 28.9395 32.2423 29.0517 32.1989C29.1638 32.1555 29.2638 32.0858 29.3434 31.9957C29.4229 31.9055 29.4797 31.7976 29.5087 31.6809L30.75 27" stroke="black" stroke-width="1.5" stroke-linecap="round" stroke-linejoin="round"/>
<path d="M15.75 30.7489C15.75 30.8917 15.7909 31.0316 15.8677 31.152C15.9445 31.2724 16.054 31.3684 16.1835 31.4287C16.313 31.4889 16.457 31.511 16.5986 31.4922C16.7402 31.4734 16.8735 31.4146 16.9828 31.3226C21.8953 27.2014 27 26.9989 27 26.9989H30.75C31.7446 26.9989 32.6984 26.6038 33.4017 25.9005C34.1049 25.1973 34.5 24.2434 34.5 23.2489C34.5 22.2543 34.1049 21.3005 33.4017 20.5972C32.6984 19.894 31.7446 19.4989 30.75 19.4989H27C27 19.4989 21.8953 19.2964 16.9828 15.1761C16.8736 15.0842 16.7404 15.0254 16.5989 15.0065C16.4574 14.9877 16.3134 15.0097 16.184 15.0698C16.0545 15.13 15.9449 15.2258 15.868 15.3461C15.7912 15.4664 15.7502 15.6061 15.75 15.7489V30.7489Z" stroke="black" stroke-width="1.5" stroke-linecap="round" stroke-linejoin="round"/>
</g>
<defs>
<clipPath id="clip0_7209_33490">
<rect width="24" height="24" fill="white" transform="translate(12 12)"/>
</clipPath>
</defs>
</svg>
