<svg width="1219" height="473" viewBox="0 0 1219 473" fill="none" xmlns="http://www.w3.org/2000/svg">
<path d="M196.474 452.515C196.474 452.137 196.312 451.903 195.88 451.903C195.556 451.903 195.088 452.047 194.512 452.191C193.378 452.497 192.334 452.533 191.29 452.749C190.948 452.821 190.894 453.019 190.894 453.271C190.894 453.721 190.93 454.135 191.38 454.135C191.812 454.135 192.226 454.045 192.676 454.045C192.982 454.045 193.306 454.045 193.414 454.333C193.486 454.513 193.522 454.837 193.522 455.557V464.539C193.522 464.809 193.684 464.971 193.972 464.971H196.024C196.312 464.971 196.474 464.809 196.474 464.539V452.515Z" fill="#004C12"/>
<path d="M344.126 452.749C343.442 453.235 343.316 453.991 343.316 454.639C343.316 455.629 343.55 455.953 344.072 455.953C344.612 455.953 344.792 455.305 345.188 454.675C345.602 454.009 346.232 453.325 347.132 453.325C348.248 453.325 348.716 454.333 348.716 455.179C348.716 455.881 348.446 456.565 347.96 457.177C347.186 458.185 345.818 459.139 344.738 460.237C343.226 461.749 342.992 463.045 342.992 463.693C342.992 464.593 343.334 464.971 344.072 464.971H347.6C348.644 464.971 349.688 465.043 350.408 465.043C351.74 465.043 351.56 464.179 351.758 463.189C351.866 462.613 351.938 462.307 351.938 462.001C351.938 461.695 351.758 461.497 351.488 461.497C351.056 461.497 351.002 462.001 350.354 462.253C349.922 462.415 349.328 462.433 348.32 462.433H345.476C345.224 462.433 345.116 462.343 345.116 462.163C345.116 461.803 345.494 461.389 345.818 461.137C346.952 460.255 348.824 459.769 350.246 458.563C351.308 457.663 351.776 456.565 351.776 455.539C351.776 453.073 349.346 451.903 347.204 451.903C345.854 451.903 344.756 452.317 344.126 452.749Z" fill="#004C12"/>
<path d="M501.928 458.257C501.784 458.239 501.73 458.221 501.73 458.167C501.73 458.131 501.748 458.095 501.874 458.059C503.89 457.537 504.772 456.331 504.772 455.107C504.772 454.189 504.25 453.271 503.332 452.695C502.306 452.047 501.01 451.903 500.074 451.903C498.67 451.903 497.482 452.263 496.924 452.677C496.258 453.145 496.096 453.883 496.096 454.621C496.114 455.683 496.348 455.935 496.816 455.935C497.518 455.935 497.698 454.873 498.346 454.099C498.706 453.667 499.156 453.307 499.912 453.307C501.1 453.307 501.55 454.333 501.55 455.305C501.55 456.493 501.082 457.447 499.66 457.447C499.192 457.447 498.85 457.375 498.58 457.375C498.166 457.375 497.932 457.573 497.932 457.969V458.437C497.932 458.851 498.166 459.049 498.598 459.049C498.886 459.049 499.246 458.959 499.75 458.959C501.136 458.959 501.82 459.823 501.82 461.155C501.82 462.613 501.226 463.729 499.93 463.729C498.832 463.729 498.22 463.009 497.77 462.271C497.32 461.533 497.158 460.759 496.51 460.759C495.736 460.759 495.7 461.371 495.7 462.127C495.7 462.649 495.754 463.333 496.06 463.801C496.654 464.701 498.256 465.169 499.93 465.169C501.622 465.169 503.062 464.719 504.106 463.729C504.808 463.045 505.168 462.163 505.168 461.317C505.168 459.445 503.602 458.455 501.928 458.257Z" fill="#004C12"/>
<path d="M651.563 459.607C651.437 459.607 651.401 459.571 651.401 459.463V454.855C651.401 454.639 651.275 454.549 651.041 454.549H649.007C648.791 454.549 648.665 454.657 648.665 454.855V459.463C648.665 459.571 648.629 459.607 648.521 459.607H645.497C645.407 459.607 645.389 459.553 645.389 459.517C645.389 459.481 645.407 459.463 645.443 459.409C647.351 456.763 648.557 454.585 648.647 452.281V452.209C648.647 451.993 648.521 451.903 648.287 451.903H646.721C646.451 451.903 646.289 452.029 646.289 452.281C646.217 454.585 645.479 456.619 643.661 459.463C643.463 459.769 643.427 459.895 643.427 460.255V461.317C643.427 461.605 643.517 461.695 643.787 461.695H648.521C648.647 461.695 648.665 461.731 648.665 461.911C648.647 462.685 648.557 462.991 648.485 463.189C648.377 463.495 648.179 463.765 647.819 463.963C647.567 464.107 647.369 464.233 647.369 464.503C647.369 464.809 647.675 464.971 648.071 464.971H651.995C652.391 464.971 652.697 464.809 652.697 464.503C652.697 464.233 652.499 464.107 652.247 463.963C651.905 463.765 651.689 463.495 651.581 463.189C651.509 462.991 651.437 462.685 651.419 461.911C651.419 461.749 651.437 461.695 651.545 461.695H653.057C653.363 461.695 653.507 461.569 653.507 461.281V460.021C653.507 459.751 653.363 459.607 653.075 459.607H651.563Z" fill="#004C12"/>
<path d="M809.387 457.609C808.199 456.601 806.489 456.187 804.581 456.169C804.419 456.169 804.365 456.097 804.365 455.989C804.365 455.971 804.365 455.953 804.383 455.863L804.599 454.819C804.617 454.711 804.671 454.639 804.815 454.639C804.923 454.639 808.379 454.639 808.379 454.639C809.189 454.639 809.477 454.621 809.711 454.423C810.053 454.135 810.053 453.523 810.197 452.695C810.251 452.335 810.323 452.029 810.323 451.723C810.323 451.435 810.161 451.255 809.891 451.255C809.675 451.255 809.513 451.363 809.279 451.615C809.081 451.813 808.883 451.939 808.595 452.011C808.235 452.101 807.641 452.119 806.741 452.119C806.741 452.119 804.365 452.119 804.113 452.119C803.897 452.119 803.771 452.191 803.735 452.389L802.565 458.221C802.529 458.401 802.529 458.437 802.529 458.455C802.529 458.563 802.619 458.617 802.781 458.617H803.213C805.301 458.617 806.813 459.139 807.695 459.751C808.505 460.309 808.865 461.047 808.865 461.749C808.865 463.009 807.803 463.801 806.651 463.801C805.427 463.801 804.707 463.063 804.239 462.361C803.771 461.677 803.627 460.795 802.943 460.795C802.385 460.795 802.133 461.155 802.133 461.659C802.133 462.811 802.187 463.405 802.547 463.909C803.123 464.737 804.545 465.169 805.931 465.169C808.703 465.169 810.845 463.351 810.845 460.723C810.845 459.607 810.413 458.491 809.387 457.609Z" fill="#004C12"/>
<path d="M957.801 460.885C957.801 458.941 958.665 458.059 959.709 458.059C960.843 458.059 961.527 459.229 961.527 460.885C961.527 462.451 960.951 463.729 959.655 463.729C958.575 463.729 957.801 462.721 957.801 460.885ZM963.543 454.243C963.543 453.649 963.471 453.127 963.093 452.731C962.661 452.281 961.581 451.903 960.339 451.903C956.127 451.903 954.813 456.241 954.813 459.193C954.813 462.325 956.307 465.169 959.637 465.169C962.661 465.169 964.389 462.811 964.389 460.237C964.389 458.005 962.841 456.223 960.645 456.223C959.385 456.223 958.377 456.871 957.855 457.753C957.819 457.825 957.801 457.843 957.765 457.843C957.729 457.843 957.711 457.807 957.711 457.771C957.747 455.161 958.449 453.289 959.925 453.289C960.717 453.289 961.239 453.883 961.653 454.567C961.995 455.143 962.247 455.701 962.715 455.701C963.309 455.701 963.543 455.215 963.543 454.243Z" fill="#004C12"/>
<path d="M1117.03 452.389C1117.01 452.173 1116.87 452.119 1116.69 452.119C1116.51 452.119 1110.01 452.119 1110.01 452.119C1109.2 452.119 1108.91 452.137 1108.68 452.335C1108.32 452.641 1108.34 453.253 1108.19 454.081C1108.12 454.513 1108.05 454.801 1108.05 454.981C1108.05 455.233 1108.14 455.521 1108.5 455.521C1108.7 455.521 1108.86 455.413 1109.11 455.161C1109.31 454.963 1109.51 454.837 1109.78 454.765C1110.14 454.675 1110.75 454.657 1111.65 454.657C1111.65 454.657 1112.32 454.657 1114.84 454.657C1115 454.657 1115.12 454.693 1115.12 454.837C1115.12 454.855 1115.12 454.891 1115.09 454.999C1114.87 455.539 1114.57 456.007 1114.04 456.709C1113.22 457.825 1111.88 459.085 1110.82 460.399C1109.71 461.785 1109.27 463.099 1109.27 464.143C1109.27 464.845 1109.45 464.971 1109.94 464.971H1112.48C1112.82 464.971 1113.05 464.791 1113.05 464.557C1113.05 464.377 1112.98 464.269 1112.82 464.125C1112.53 463.873 1112.17 463.531 1112.17 462.793C1112.17 461.767 1112.75 460.741 1114.26 458.779C1115.84 456.709 1117.05 455.485 1117.05 452.893C1117.05 452.731 1117.05 452.569 1117.03 452.389Z" fill="#004C12"/>
<rect x="54" y="422.639" width="1165" height="1.33193" fill="#004C12"/>
<rect x="54" y="296.105" width="1165" height="1.33193" fill="#004C12"/>
<rect x="54" y="169.571" width="1165" height="1.33193" fill="#004C12"/>
<rect x="54" y="44.9707" width="1165" height="1.33193" fill="#004C12"/>
<path d="M16.8298 290.371C16.8298 290.047 16.6498 289.903 16.3798 289.903C16.1638 289.903 15.8758 289.993 15.4798 290.101C14.4178 290.389 13.4998 290.425 12.7438 290.533C12.4558 290.569 12.4018 290.749 12.4018 291.001C12.4018 291.307 12.5278 291.451 12.8878 291.451C13.3018 291.451 13.8058 291.415 14.2378 291.415C14.9938 291.415 15.0298 291.649 15.0298 292.891V302.683C15.0298 302.881 15.1558 302.971 15.3538 302.971H16.5238C16.7038 302.971 16.8298 302.881 16.8298 302.683V290.371ZM28.3836 296.599C28.3836 300.415 26.9976 302.233 25.1256 302.233C23.1816 302.233 21.8136 299.803 21.8136 296.401C21.8136 293.053 22.9656 290.821 25.0896 290.821C26.9256 290.821 28.3836 293.215 28.3836 296.599ZM30.3456 296.383C30.3456 292.495 28.4016 289.903 25.2876 289.903C22.1556 289.903 19.8336 292.909 19.8336 296.725C19.8336 300.163 21.4176 303.169 24.9456 303.169C28.0056 303.169 30.3456 300.361 30.3456 296.383ZM36.5721 293.359C36.5721 295.195 36.0681 296.113 35.2401 296.113C34.4301 296.113 33.8721 294.889 33.8721 293.359C33.8721 291.685 34.3041 290.605 35.1861 290.605C35.9961 290.605 36.5721 291.775 36.5721 293.359ZM38.0481 293.359C38.0481 291.343 37.0401 289.921 35.2221 289.921C33.5841 289.921 32.3961 291.433 32.3961 293.359C32.3961 295.213 33.2241 296.815 35.2221 296.815C36.8421 296.815 38.0481 295.339 38.0481 293.359ZM43.6281 299.713C43.6281 301.549 43.1241 302.467 42.2961 302.467C41.4861 302.467 40.9281 301.243 40.9281 299.713C40.9281 298.039 41.3601 296.959 42.2421 296.959C43.0521 296.959 43.6281 298.129 43.6281 299.713ZM45.1041 299.713C45.1041 297.697 44.0961 296.275 42.2781 296.275C40.6401 296.275 39.4521 297.787 39.4521 299.713C39.4521 301.567 40.2801 303.169 42.2781 303.169C43.8981 303.169 45.1041 301.693 45.1041 299.713ZM34.3401 302.971H35.4381L43.2861 290.119H42.1881L34.3401 302.971Z" fill="#004C12"/>
<path d="M12.1019 164.893C11.6879 165.253 11.5799 165.955 11.5799 166.495C11.5799 166.999 11.6339 167.521 12.0659 167.521C12.4799 167.521 12.6419 166.981 12.9839 166.387C13.4159 165.649 14.0639 164.839 15.3059 164.839C16.7279 164.839 17.5559 166.009 17.5559 167.233C17.5559 168.025 17.1959 168.835 16.4399 169.555C15.4499 170.527 14.2799 171.193 13.0379 172.327C11.4359 173.767 11.2199 175.243 11.2199 175.945C11.2199 176.755 11.4179 176.971 12.0659 176.971H15.7559C16.7819 176.971 17.6099 177.043 18.4379 177.043C19.4819 177.043 19.3919 176.611 19.5179 175.729C19.5719 175.333 19.6259 175.027 19.6259 174.793C19.6259 174.559 19.5359 174.415 19.3199 174.415C18.9239 174.415 18.8879 175.009 18.3839 175.189C18.0599 175.297 17.5019 175.315 16.4219 175.315H12.8039C12.5519 175.315 12.4439 175.207 12.4439 174.991C12.4439 174.685 12.6779 174.109 13.0739 173.641C14.3519 172.165 16.7279 171.481 18.2219 170.095C19.0859 169.285 19.4639 168.367 19.4639 167.431C19.4639 165.343 17.6459 163.903 15.2699 163.903C13.7399 163.903 12.5879 164.461 12.1019 164.893ZM30.1415 170.599C30.1415 174.415 28.7555 176.233 26.8835 176.233C24.9395 176.233 23.5715 173.803 23.5715 170.401C23.5715 167.053 24.7235 164.821 26.8475 164.821C28.6835 164.821 30.1415 167.215 30.1415 170.599ZM32.1035 170.383C32.1035 166.495 30.1595 163.903 27.0455 163.903C23.9135 163.903 21.5915 166.909 21.5915 170.725C21.5915 174.163 23.1755 177.169 26.7035 177.169C29.7635 177.169 32.1035 174.361 32.1035 170.383ZM38.3299 167.359C38.3299 169.195 37.8259 170.113 36.9979 170.113C36.1879 170.113 35.6299 168.889 35.6299 167.359C35.6299 165.685 36.0619 164.605 36.9439 164.605C37.7539 164.605 38.3299 165.775 38.3299 167.359ZM39.8059 167.359C39.8059 165.343 38.7979 163.921 36.9799 163.921C35.3419 163.921 34.1539 165.433 34.1539 167.359C34.1539 169.213 34.9819 170.815 36.9799 170.815C38.5999 170.815 39.8059 169.339 39.8059 167.359ZM45.3859 173.713C45.3859 175.549 44.8819 176.467 44.0539 176.467C43.2439 176.467 42.6859 175.243 42.6859 173.713C42.6859 172.039 43.1179 170.959 43.9999 170.959C44.8099 170.959 45.3859 172.129 45.3859 173.713ZM46.8619 173.713C46.8619 171.697 45.8539 170.275 44.0359 170.275C42.3979 170.275 41.2099 171.787 41.2099 173.713C41.2099 175.567 42.0379 177.169 44.0359 177.169C45.6559 177.169 46.8619 175.693 46.8619 173.713ZM36.0979 176.971H37.1959L45.0439 164.119H43.9459L36.0979 176.971Z" fill="#004C12"/>
<path d="M16.6225 45.2207C16.4965 45.2027 16.4605 45.1847 16.4605 45.1487C16.4605 45.1127 16.4965 45.0947 16.5865 45.0767C18.4765 44.6447 19.2865 43.4027 19.2865 42.1607C19.2865 40.4327 17.7925 38.9027 15.1465 38.9027C13.7425 38.9027 12.5725 39.3167 12.0685 39.7307C11.6005 40.1087 11.4205 40.5767 11.4205 41.4047C11.4205 41.9807 11.4565 42.5567 11.9065 42.5567C12.1585 42.5567 12.3025 42.3587 12.4465 42.1247C12.7345 41.5847 12.9685 41.0627 13.4545 40.5587C13.9945 40.0007 14.6425 39.8207 15.1825 39.8207C16.5865 39.8207 17.3785 40.8827 17.3785 42.1787C17.3785 43.7447 16.4245 44.6627 15.0025 44.6807C14.3005 44.6807 13.9225 44.5907 13.6525 44.5907C13.3645 44.5907 13.2205 44.7707 13.2205 45.0047V45.2027C13.2205 45.5987 13.4005 45.7427 13.7065 45.7427C13.9585 45.7427 14.2825 45.6707 14.8405 45.6707C16.7125 45.6707 17.7565 46.6787 17.7565 48.3347C17.7565 49.9727 16.7665 51.2147 15.2545 51.2147C13.7965 51.2147 13.0045 50.1707 12.5905 49.5047C12.1405 48.7667 12.1225 48.2267 11.5645 48.2267C11.1505 48.2267 11.0425 48.5327 11.0425 49.1267C11.0425 49.5947 11.0785 50.4047 11.3485 50.8547C11.8525 51.7187 13.3465 52.1687 14.8585 52.1687C18.1525 52.1687 19.7185 50.1707 19.7185 48.2987C19.7185 46.4987 18.2785 45.4007 16.6225 45.2207ZM30.2469 45.5987C30.2469 49.4147 28.8609 51.2327 26.9889 51.2327C25.0449 51.2327 23.6769 48.8027 23.6769 45.4007C23.6769 42.0527 24.8289 39.8207 26.9529 39.8207C28.7889 39.8207 30.2469 42.2147 30.2469 45.5987ZM32.2089 45.3827C32.2089 41.4947 30.2649 38.9027 27.1509 38.9027C24.0189 38.9027 21.6969 41.9087 21.6969 45.7247C21.6969 49.1627 23.2809 52.1687 26.8089 52.1687C29.8689 52.1687 32.2089 49.3607 32.2089 45.3827ZM38.4354 42.3587C38.4354 44.1947 37.9314 45.1127 37.1034 45.1127C36.2934 45.1127 35.7354 43.8887 35.7354 42.3587C35.7354 40.6847 36.1674 39.6047 37.0494 39.6047C37.8594 39.6047 38.4354 40.7747 38.4354 42.3587ZM39.9114 42.3587C39.9114 40.3427 38.9034 38.9207 37.0854 38.9207C35.4474 38.9207 34.2594 40.4327 34.2594 42.3587C34.2594 44.2127 35.0874 45.8147 37.0854 45.8147C38.7054 45.8147 39.9114 44.3387 39.9114 42.3587ZM45.4914 48.7127C45.4914 50.5487 44.9874 51.4667 44.1594 51.4667C43.3494 51.4667 42.7914 50.2427 42.7914 48.7127C42.7914 47.0387 43.2234 45.9587 44.1054 45.9587C44.9154 45.9587 45.4914 47.1287 45.4914 48.7127ZM46.9674 48.7127C46.9674 46.6967 45.9594 45.2747 44.1414 45.2747C42.5034 45.2747 41.3154 46.7867 41.3154 48.7127C41.3154 50.5667 42.1434 52.1687 44.1414 52.1687C45.7614 52.1687 46.9674 50.6927 46.9674 48.7127ZM36.2034 51.9707H37.3014L45.1494 39.1187H44.0514L36.2034 51.9707Z" fill="#004C12"/>
<path d="M159 22.9707C159 14.6864 165.716 7.9707 174 7.9707H214C222.284 7.9707 229 14.6864 229 22.9707V421.971H159V22.9707Z" fill="#CCFC51" stroke="#004C12" stroke-width="2"/>
<path d="M313 129.971C313 121.686 319.716 114.971 328 114.971H368C376.284 114.971 383 121.686 383 129.971V422.971H313V129.971Z" fill="#CCFC51" stroke="#004C12" stroke-width="2"/>
<path d="M465 181.971C465 173.686 471.716 166.971 480 166.971H520C528.284 166.971 535 173.686 535 181.971V422.971H465V181.971Z" fill="#CCFC51" stroke="#004C12" stroke-width="2"/>
<path d="M618 262.971C618 254.686 624.716 247.971 633 247.971H673C681.284 247.971 688 254.686 688 262.971V422.971H618V262.971Z" fill="#CCFC51" stroke="#004C12" stroke-width="2"/>
<path d="M772 312.971C772 304.686 778.716 297.971 787 297.971H827C835.284 297.971 842 304.686 842 312.971V422.971H772V312.971Z" fill="#CCFC51" stroke="#004C12" stroke-width="2"/>
<path d="M924 326.971C924 318.686 930.716 311.971 939 311.971H979C987.284 311.971 994 318.686 994 326.971V422.971H924V326.971Z" fill="#CCFC51" stroke="#004C12" stroke-width="2"/>
<path d="M1078 420.971C1078 412.686 1084.72 405.971 1093 405.971H1133C1141.28 405.971 1148 412.686 1148 420.971V422.971H1078V420.971Z" fill="#CCFC51" stroke="#004C12" stroke-width="2"/>
<rect x="117" y="247" width="156" height="108" rx="20" fill="#FFF8E0"/>
<path d="M154.883 275.2C154.883 274.948 154.743 274.836 154.533 274.836C154.365 274.836 154.141 274.906 153.833 274.99C153.007 275.214 152.293 275.242 151.705 275.326C151.481 275.354 151.439 275.494 151.439 275.69C151.439 275.928 151.537 276.04 151.817 276.04C152.139 276.04 152.531 276.012 152.867 276.012C153.455 276.012 153.483 276.194 153.483 277.16V284.776C153.483 284.93 153.581 285 153.735 285H154.645C154.785 285 154.883 284.93 154.883 284.776V275.2ZM162.451 275.494C162.451 275.172 161.779 274.486 161.457 274.486C161.135 274.486 160.463 275.172 160.463 275.494C160.463 275.802 161.135 276.488 161.457 276.488C161.779 276.488 162.451 275.802 162.451 275.494ZM162.157 282.55V277.902C162.157 277.65 162.031 277.538 161.863 277.538C161.779 277.538 161.695 277.566 161.597 277.608C161.177 277.79 160.785 277.902 160.267 278.014C159.931 278.084 159.875 278.196 159.875 278.336C159.875 278.476 160.015 278.546 160.211 278.616C160.421 278.686 160.589 278.77 160.673 278.91C160.813 279.134 160.813 279.456 160.813 280.058V282.55C160.813 283.236 160.785 283.698 160.645 283.978C160.421 284.426 159.931 284.44 159.931 284.734C159.931 284.93 160.099 285 160.309 285H162.647C162.857 285 163.039 284.93 163.039 284.734C163.039 284.44 162.577 284.468 162.325 283.978C162.185 283.698 162.157 283.25 162.157 282.55ZM171.027 280.31C171.027 279.33 170.859 278.826 170.551 278.406C170.173 277.888 169.515 277.538 168.717 277.538C167.667 277.538 166.883 278.112 166.449 278.756C166.421 278.798 166.407 278.826 166.379 278.826C166.351 278.826 166.337 278.798 166.337 278.756V277.93C166.337 277.664 166.211 277.538 166.029 277.538C165.945 277.538 165.861 277.566 165.763 277.608C165.399 277.776 164.979 277.916 164.461 278.028C164.139 278.098 164.069 278.196 164.069 278.35C164.069 278.658 164.657 278.588 164.881 278.924C165.007 279.106 165.021 279.358 165.021 279.806V282.536C165.021 283.222 164.979 283.698 164.853 283.978C164.643 284.426 164.139 284.44 164.139 284.734C164.139 284.93 164.307 285 164.517 285H166.841C167.051 285 167.219 284.93 167.219 284.734C167.219 284.482 166.771 284.44 166.533 284.034C166.379 283.768 166.337 283.25 166.337 282.536C166.337 280.38 166.463 279.624 166.995 279.092C167.331 278.756 167.779 278.602 168.199 278.602C169.025 278.602 169.669 279.134 169.669 280.352V282.536C169.669 283.236 169.627 283.74 169.487 284.006C169.263 284.44 168.787 284.454 168.787 284.734C168.787 284.93 168.969 285 169.179 285H171.531C171.741 285 171.923 284.93 171.923 284.734C171.923 284.482 171.475 284.426 171.237 284.062C171.069 283.796 171.027 283.264 171.027 282.536V280.31ZM180.176 279.75C180.078 279.736 180.05 279.722 180.05 279.694C180.05 279.666 180.078 279.652 180.148 279.638C181.618 279.302 182.248 278.336 182.248 277.37C182.248 276.026 181.086 274.836 179.028 274.836C177.936 274.836 177.026 275.158 176.634 275.48C176.27 275.774 176.13 276.138 176.13 276.782C176.13 277.23 176.158 277.678 176.508 277.678C176.704 277.678 176.816 277.524 176.928 277.342C177.152 276.922 177.334 276.516 177.712 276.124C178.132 275.69 178.636 275.55 179.056 275.55C180.148 275.55 180.764 276.376 180.764 277.384C180.764 278.602 180.022 279.316 178.916 279.33C178.37 279.33 178.076 279.26 177.866 279.26C177.642 279.26 177.53 279.4 177.53 279.582V279.736C177.53 280.044 177.67 280.156 177.908 280.156C178.104 280.156 178.356 280.1 178.79 280.1C180.246 280.1 181.058 280.884 181.058 282.172C181.058 283.446 180.288 284.412 179.112 284.412C177.978 284.412 177.362 283.6 177.04 283.082C176.69 282.508 176.676 282.088 176.242 282.088C175.92 282.088 175.836 282.326 175.836 282.788C175.836 283.152 175.864 283.782 176.074 284.132C176.466 284.804 177.628 285.154 178.804 285.154C181.366 285.154 182.584 283.6 182.584 282.144C182.584 280.744 181.464 279.89 180.176 279.75ZM192.77 283.488C192.77 283.348 192.672 283.222 192.518 283.222C192.196 283.222 191.72 284.16 190.474 284.16C188.878 284.16 188.164 282.676 188.164 281.136C188.164 279.358 189.088 278.294 190.18 278.294C190.922 278.294 191.356 278.812 191.566 279.162C191.776 279.512 191.846 279.848 192.168 279.848C192.434 279.848 192.574 279.652 192.574 278.994C192.574 278.658 192.518 278.266 192.308 278.056C191.944 277.678 191.132 277.538 190.572 277.538C188.234 277.538 186.764 279.61 186.764 281.78C186.764 283.88 188.178 285.154 189.956 285.154C191.804 285.154 192.77 283.866 192.77 283.488ZM197.88 277.538C196.984 277.538 196.228 278.42 195.934 279.022C195.92 279.05 195.906 279.092 195.878 279.092C195.85 279.092 195.85 279.064 195.85 279.036V277.93C195.85 277.678 195.738 277.538 195.528 277.538C195.43 277.538 195.318 277.566 195.192 277.622C194.786 277.804 194.506 277.902 194.044 278C193.75 278.056 193.666 278.154 193.666 278.308C193.666 278.616 194.212 278.56 194.464 278.924C194.59 279.106 194.646 279.442 194.646 280.044V282.55C194.646 283.236 194.604 283.684 194.492 283.95C194.268 284.454 193.764 284.44 193.764 284.734C193.764 284.93 193.932 285 194.156 285H196.466C196.69 285 196.858 284.93 196.858 284.734C196.858 284.426 196.396 284.482 196.144 283.978C196.004 283.698 195.976 283.236 195.976 282.55C195.976 280.464 196.214 279.806 196.55 279.302C196.788 278.938 197.082 278.812 197.348 278.812C197.768 278.812 197.95 279.12 198.286 279.12C198.65 279.12 198.762 278.812 198.762 278.476C198.762 277.916 198.426 277.538 197.88 277.538ZM200.465 280.212C200.633 279.176 201.347 278.224 202.467 278.224C203.461 278.224 204.021 278.994 204.021 279.638C204.021 280.282 203.657 280.45 202.845 280.45C202.845 280.45 200.661 280.45 200.563 280.45C200.479 280.45 200.451 280.436 200.451 280.366C200.451 280.352 200.451 280.324 200.465 280.212ZM204.987 283.194C204.651 283.194 204.091 284.146 202.719 284.146C201.235 284.146 200.395 282.83 200.395 281.36V281.29C200.395 281.192 200.451 281.15 200.549 281.15C200.647 281.15 204.343 281.15 204.343 281.15C205.029 281.136 205.449 281.01 205.449 280.156C205.449 279.176 204.609 277.538 202.593 277.538C200.423 277.538 198.967 279.512 198.967 281.556C198.967 283.474 200.227 285.154 202.369 285.154C204.231 285.154 205.295 283.88 205.295 283.488C205.295 283.292 205.155 283.194 204.987 283.194ZM210.656 281.29C210.656 282.144 210.642 282.76 210.362 283.348C210.026 284.034 209.396 284.342 208.85 284.342C208.108 284.342 207.73 283.838 207.73 283.278C207.73 282.886 207.926 282.452 208.43 282.116C209.102 281.668 210.026 281.43 210.516 281.052C210.572 281.01 210.586 280.996 210.614 280.996C210.642 280.996 210.656 281.024 210.656 281.052V281.29ZM212.462 284.146C212.182 284.146 212.014 283.922 212.014 283.432C212.014 282.312 212.056 281.024 212.056 279.932C212.056 278.546 211.132 277.538 209.34 277.538C208.542 277.538 207.408 277.734 207.03 278.224C206.862 278.434 206.792 278.882 206.792 279.246C206.792 279.61 206.848 279.932 207.184 279.932C207.492 279.932 207.534 279.68 207.814 279.288C208.164 278.798 208.598 278.252 209.438 278.252C210.194 278.252 210.656 278.728 210.656 279.4C210.656 280.156 210.04 280.562 209.48 280.814C208.71 281.178 207.842 281.332 207.114 281.822C206.526 282.2 206.246 282.788 206.246 283.348C206.246 284.314 207.072 285.154 208.43 285.154C209.298 285.154 210.166 284.79 210.67 284.034C210.698 283.992 210.698 283.978 210.726 283.978C210.754 283.978 210.754 284.02 210.754 284.048C210.838 284.874 211.356 285.154 211.818 285.154C212.434 285.154 212.868 284.636 212.868 284.37C212.868 284.23 212.756 284.146 212.63 284.146H212.462ZM218.319 283.53C218.053 283.53 217.787 284.076 217.059 284.076C216.513 284.076 216.051 283.768 215.953 282.662C215.897 282.018 215.897 281.556 215.897 281.038C215.897 280.618 215.939 279.078 215.939 278.896C215.939 278.784 215.995 278.728 216.107 278.728C216.359 278.728 216.583 278.728 216.863 278.742C217.199 278.756 217.507 278.798 217.759 278.798C218.123 278.798 218.305 278.7 218.361 278.364C218.375 278.266 218.403 278.168 218.403 278.098C218.403 277.916 218.263 277.846 217.955 277.846C217.661 277.846 217.269 277.888 216.975 277.916C216.653 277.944 216.471 277.944 216.261 277.944C216.009 277.944 215.953 277.874 215.953 277.622V276.166C215.953 276.068 215.897 276.012 215.785 276.012H215.211C215.099 276.012 215.057 276.068 215.029 276.18C214.931 276.642 214.875 277.02 214.707 277.3C214.539 277.58 214.231 277.776 213.615 277.944C213.517 277.972 213.475 278.028 213.475 278.112V278.56C213.475 278.672 213.531 278.728 213.629 278.728H214.511C214.609 278.728 214.651 278.77 214.651 278.868C214.651 280.254 214.553 281.514 214.553 282.746C214.553 283.46 214.665 284.034 214.945 284.412C215.281 284.874 215.785 285.154 216.471 285.154C217.129 285.154 217.689 284.888 218.067 284.552C218.361 284.3 218.571 283.978 218.571 283.768C218.571 283.628 218.459 283.53 218.319 283.53ZM224.998 281.71C224.998 283.082 224.396 284.426 223.01 284.426C221.638 284.426 220.728 282.816 220.728 280.884C220.728 279.33 221.484 278.238 222.716 278.238C224.284 278.238 224.998 280.1 224.998 281.71ZM222.912 277.538C220.784 277.538 219.3 279.288 219.3 281.402C219.3 283.684 220.742 285.154 222.87 285.154C224.956 285.154 226.426 283.404 226.426 281.304C226.426 279.19 225.138 277.538 222.912 277.538ZM231.674 277.538C230.778 277.538 230.022 278.42 229.728 279.022C229.714 279.05 229.7 279.092 229.672 279.092C229.644 279.092 229.644 279.064 229.644 279.036V277.93C229.644 277.678 229.532 277.538 229.322 277.538C229.224 277.538 229.112 277.566 228.986 277.622C228.58 277.804 228.3 277.902 227.838 278C227.544 278.056 227.46 278.154 227.46 278.308C227.46 278.616 228.006 278.56 228.258 278.924C228.384 279.106 228.44 279.442 228.44 280.044V282.55C228.44 283.236 228.398 283.684 228.286 283.95C228.062 284.454 227.558 284.44 227.558 284.734C227.558 284.93 227.726 285 227.95 285H230.26C230.484 285 230.652 284.93 230.652 284.734C230.652 284.426 230.19 284.482 229.938 283.978C229.798 283.698 229.77 283.236 229.77 282.55C229.77 280.464 230.008 279.806 230.344 279.302C230.582 278.938 230.876 278.812 231.142 278.812C231.562 278.812 231.744 279.12 232.08 279.12C232.444 279.12 232.556 278.812 232.556 278.476C232.556 277.916 232.22 277.538 231.674 277.538ZM232.896 283.124C232.896 283.558 232.98 284.174 233.274 284.468C233.638 284.832 234.548 285.154 235.528 285.154C237.278 285.154 238.454 284.104 238.454 282.816C238.454 281.542 237.46 281.066 236.452 280.73C235.43 280.38 234.394 280.184 234.394 279.316C234.394 278.658 235.024 278.266 235.612 278.266C236.312 278.266 236.718 278.686 236.998 279.092C237.292 279.526 237.32 279.82 237.656 279.82C238.062 279.82 238.076 279.33 238.076 279.008C238.076 278.658 237.992 278.21 237.628 277.944C237.306 277.706 236.648 277.538 235.962 277.538C234.422 277.538 233.162 278.448 233.162 279.806C233.162 282.298 237.208 281.416 237.208 283.25C237.208 283.88 236.648 284.426 235.794 284.426C234.926 284.426 234.422 283.894 234.058 283.39C233.75 282.956 233.596 282.522 233.274 282.522C232.952 282.522 232.896 282.816 232.896 283.124ZM141.96 304.454C140.784 304.454 139.958 303.362 139.958 301.416C139.958 299.568 140.728 298.546 141.89 298.546C142.982 298.546 143.934 299.61 143.934 301.486C143.934 303.236 143.206 304.454 141.96 304.454ZM142.436 297.538C141.526 297.538 140.7 298.028 140.14 298.714C140.084 298.784 140.056 298.784 140.028 298.784C139.986 298.784 139.958 298.742 139.958 298.672V297.902C139.958 297.65 139.846 297.538 139.678 297.538C139.594 297.538 139.496 297.566 139.398 297.608C138.978 297.79 138.6 297.902 138.082 298.014C137.76 298.084 137.69 298.182 137.69 298.308C137.69 298.658 138.25 298.546 138.488 298.91C138.628 299.134 138.628 299.4 138.628 299.918V305.252C138.628 305.896 138.6 306.358 138.502 306.624C138.334 307.114 137.746 307.128 137.746 307.436C137.746 307.632 137.928 307.702 138.138 307.702H140.462C140.672 307.702 140.84 307.618 140.84 307.422C140.84 307.114 140.35 307.156 140.126 306.68C140 306.414 139.958 305.952 139.958 305.294V304.636C139.958 304.594 139.986 304.566 140.014 304.566C140.126 304.566 140.784 305.154 141.96 305.154C144.158 305.154 145.306 302.928 145.306 300.996C145.306 298.84 144.018 297.538 142.436 297.538ZM150.545 297.538C149.649 297.538 148.893 298.42 148.599 299.022C148.585 299.05 148.571 299.092 148.543 299.092C148.515 299.092 148.515 299.064 148.515 299.036V297.93C148.515 297.678 148.403 297.538 148.193 297.538C148.095 297.538 147.983 297.566 147.857 297.622C147.451 297.804 147.171 297.902 146.709 298C146.415 298.056 146.331 298.154 146.331 298.308C146.331 298.616 146.877 298.56 147.129 298.924C147.255 299.106 147.311 299.442 147.311 300.044V302.55C147.311 303.236 147.269 303.684 147.157 303.95C146.933 304.454 146.429 304.44 146.429 304.734C146.429 304.93 146.597 305 146.821 305H149.131C149.355 305 149.523 304.93 149.523 304.734C149.523 304.426 149.061 304.482 148.809 303.978C148.669 303.698 148.641 303.236 148.641 302.55C148.641 300.464 148.879 299.806 149.215 299.302C149.453 298.938 149.747 298.812 150.013 298.812C150.433 298.812 150.615 299.12 150.951 299.12C151.315 299.12 151.427 298.812 151.427 298.476C151.427 297.916 151.091 297.538 150.545 297.538ZM157.33 301.71C157.33 303.082 156.728 304.426 155.342 304.426C153.97 304.426 153.06 302.816 153.06 300.884C153.06 299.33 153.816 298.238 155.048 298.238C156.616 298.238 157.33 300.1 157.33 301.71ZM155.244 297.538C153.116 297.538 151.632 299.288 151.632 301.402C151.632 303.684 153.074 305.154 155.202 305.154C157.288 305.154 158.758 303.404 158.758 301.304C158.758 299.19 157.47 297.538 155.244 297.538ZM163.247 304.16C162.029 304.16 161.217 302.858 161.217 301.206C161.217 299.82 161.721 298.252 163.191 298.252C164.367 298.252 165.193 299.344 165.193 301.276C165.193 303.012 164.479 304.16 163.247 304.16ZM166.523 294.906C166.523 294.654 166.397 294.542 166.229 294.542C166.117 294.542 166.033 294.584 165.921 294.626C165.501 294.794 165.165 294.906 164.647 295.018C164.311 295.088 164.255 295.186 164.255 295.326C164.255 295.634 164.773 295.564 165.039 295.9C165.179 296.082 165.193 296.376 165.193 296.74V298.07C165.193 298.112 165.179 298.14 165.137 298.14C165.109 298.14 165.081 298.126 165.039 298.098C164.493 297.748 163.863 297.538 163.191 297.538C161.105 297.538 159.845 299.638 159.845 301.71C159.845 304.132 161.371 305.154 162.715 305.154C163.625 305.154 164.451 304.664 165.011 303.978C165.053 303.936 165.081 303.922 165.109 303.922C165.151 303.922 165.193 303.964 165.193 304.034V304.79C165.193 305.056 165.305 305.154 165.487 305.154C165.571 305.154 165.655 305.14 165.809 305.07C166.145 304.93 166.537 304.804 167.069 304.678C167.391 304.608 167.461 304.496 167.461 304.356C167.461 304.048 166.831 304.118 166.621 303.74C166.537 303.572 166.523 303.292 166.523 302.928V294.906ZM175.235 303.796C175.095 303.572 175.095 303.25 175.095 302.648V297.902C175.095 297.65 174.969 297.524 174.787 297.524C174.703 297.524 174.619 297.552 174.521 297.594C174.143 297.762 173.751 297.874 173.205 298C172.897 298.07 172.827 298.168 172.827 298.322C172.827 298.658 173.387 298.56 173.625 298.91C173.765 299.12 173.765 299.498 173.765 300.17C173.765 302.312 173.597 303.096 173.079 303.614C172.743 303.95 172.309 304.09 171.903 304.09C170.895 304.09 170.447 303.334 170.447 302.368V297.902C170.447 297.65 170.321 297.538 170.139 297.538C170.027 297.538 169.957 297.566 169.817 297.622C169.439 297.776 169.117 297.874 168.557 298C168.277 298.056 168.179 298.154 168.179 298.294C168.179 298.658 168.753 298.56 168.977 298.91C169.117 299.12 169.117 299.442 169.117 300.044V302.396C169.117 303.236 169.243 303.894 169.635 304.37C170.069 304.902 170.685 305.154 171.385 305.154C172.365 305.154 173.191 304.65 173.653 303.936C173.681 303.894 173.695 303.866 173.723 303.866C173.751 303.866 173.765 303.88 173.765 303.908C173.765 303.95 173.765 304.776 173.765 304.776C173.765 305.042 173.877 305.154 174.073 305.154C174.143 305.154 174.227 305.14 174.367 305.084C174.717 304.944 175.109 304.818 175.655 304.692C175.935 304.636 176.033 304.538 176.033 304.37C176.033 304.048 175.431 304.104 175.235 303.796ZM182.99 303.488C182.99 303.348 182.892 303.222 182.738 303.222C182.416 303.222 181.94 304.16 180.694 304.16C179.098 304.16 178.384 302.676 178.384 301.136C178.384 299.358 179.308 298.294 180.4 298.294C181.142 298.294 181.576 298.812 181.786 299.162C181.996 299.512 182.066 299.848 182.388 299.848C182.654 299.848 182.794 299.652 182.794 298.994C182.794 298.658 182.738 298.266 182.528 298.056C182.164 297.678 181.352 297.538 180.792 297.538C178.454 297.538 176.984 299.61 176.984 301.78C176.984 303.88 178.398 305.154 180.176 305.154C182.024 305.154 182.99 303.866 182.99 303.488ZM185.355 300.212C185.523 299.176 186.237 298.224 187.357 298.224C188.351 298.224 188.911 298.994 188.911 299.638C188.911 300.282 188.547 300.45 187.735 300.45C187.735 300.45 185.551 300.45 185.453 300.45C185.369 300.45 185.341 300.436 185.341 300.366C185.341 300.352 185.341 300.324 185.355 300.212ZM189.877 303.194C189.541 303.194 188.981 304.146 187.609 304.146C186.125 304.146 185.285 302.83 185.285 301.36V301.29C185.285 301.192 185.341 301.15 185.439 301.15C185.537 301.15 189.233 301.15 189.233 301.15C189.919 301.136 190.339 301.01 190.339 300.156C190.339 299.176 189.499 297.538 187.483 297.538C185.313 297.538 183.857 299.512 183.857 301.556C183.857 303.474 185.117 305.154 187.259 305.154C189.121 305.154 190.185 303.88 190.185 303.488C190.185 303.292 190.045 303.194 189.877 303.194ZM199.491 301.696C199.491 303.026 199.001 304.076 198.021 304.076C196.621 304.076 196.285 301.78 196.285 300.8C196.285 299.386 196.817 298.574 197.769 298.574C199.197 298.574 199.491 300.688 199.491 301.696ZM197.993 297.538C195.739 297.538 194.059 299.288 194.059 301.388C194.059 303.684 195.641 305.154 197.881 305.154C200.065 305.154 201.731 303.404 201.731 301.304C201.731 299.12 200.233 297.538 197.993 297.538ZM210.992 304.216C210.726 304.062 210.544 303.852 210.474 303.628C210.418 303.432 210.334 303.124 210.334 302.144V300.422C210.334 299.666 210.236 299.036 209.914 298.56C209.466 297.86 208.696 297.538 207.954 297.538C207.086 297.538 206.26 297.902 205.686 298.714C205.658 298.756 205.63 298.784 205.602 298.784C205.574 298.784 205.546 298.756 205.546 298.686V298.014C205.546 297.636 205.364 297.538 205.182 297.538C205.042 297.538 204.93 297.566 204.776 297.622C204.244 297.818 203.558 298.028 202.914 298.182C202.592 298.252 202.438 298.378 202.438 298.574C202.438 298.812 202.732 298.896 202.886 298.966C203.152 299.078 203.292 299.204 203.376 299.428C203.46 299.652 203.474 299.946 203.474 300.352V302.144C203.474 303.124 203.404 303.432 203.334 303.628C203.264 303.852 203.096 304.062 202.816 304.216C202.634 304.328 202.48 304.426 202.48 304.636C202.48 304.874 202.704 305 203.012 305H206.008C206.316 305 206.554 304.874 206.554 304.636C206.554 304.426 206.386 304.328 206.204 304.216C205.924 304.062 205.756 303.852 205.686 303.628C205.616 303.432 205.546 303.124 205.546 302.144C205.546 300.716 205.7 299.96 206.176 299.498C206.456 299.218 206.806 299.12 207.1 299.12C207.884 299.12 208.234 299.68 208.234 300.422V302.144C208.234 303.124 208.164 303.432 208.094 303.628C208.01 303.852 207.856 304.048 207.576 304.216C207.394 304.328 207.226 304.426 207.226 304.636C207.226 304.874 207.464 305 207.772 305H210.796C211.104 305 211.342 304.874 211.342 304.636C211.342 304.426 211.188 304.328 210.992 304.216ZM215.578 304.23C215.312 304.076 215.144 303.866 215.06 303.628C214.99 303.432 214.92 303.124 214.92 302.158C214.92 301.696 214.92 295.018 214.92 295.018C214.92 294.64 214.738 294.542 214.556 294.542C214.416 294.542 214.276 294.598 214.192 294.626C213.688 294.808 212.89 295.032 212.246 295.186C211.924 295.27 211.784 295.368 211.784 295.564C211.784 295.816 212.064 295.886 212.218 295.956C212.498 296.068 212.652 296.194 212.736 296.418C212.82 296.642 212.834 296.936 212.834 297.342V302.158C212.834 303.138 212.764 303.432 212.694 303.628C212.61 303.866 212.442 304.076 212.176 304.23C211.98 304.342 211.826 304.426 211.826 304.636C211.826 304.874 212.064 305 212.372 305H215.382C215.69 305 215.928 304.874 215.928 304.636C215.928 304.412 215.76 304.342 215.578 304.23ZM224.296 297.692H222.042C221.776 297.692 221.496 297.79 221.496 298.07C221.496 298.504 222.238 298.378 222.238 299.218C222.238 299.484 222.168 299.89 221.902 300.52L221.048 302.564C221.02 302.634 221.006 302.648 220.978 302.648C220.95 302.648 220.936 302.634 220.908 302.564C220.908 302.564 219.704 299.834 219.536 299.456C219.452 299.26 219.382 299.078 219.382 298.938C219.382 298.644 219.592 298.504 219.76 298.42C219.928 298.336 220.082 298.252 220.082 298.042C220.082 297.818 219.872 297.692 219.592 297.692H216.596C216.19 297.692 216.064 297.874 216.064 298.07C216.064 298.238 216.176 298.336 216.316 298.406C216.456 298.476 216.638 298.546 216.764 298.672C217.002 298.91 217.086 299.092 217.352 299.722L219.718 305.28C219.746 305.35 219.746 305.392 219.746 305.406C219.746 305.42 219.746 305.476 219.676 305.588C219.466 305.91 219.2 306.176 218.78 306.176C217.954 306.176 217.786 305.336 217.254 305.336C216.694 305.336 216.554 305.882 216.554 306.288C216.554 307.156 217.156 307.702 218.08 307.702C219.83 307.702 220.824 306.064 221.398 304.678C221.86 303.558 222.504 301.892 223.022 300.702C223.232 300.198 223.47 299.624 223.764 299.19C224.128 298.658 224.422 298.546 224.632 298.392C224.758 298.308 224.842 298.21 224.842 298.056C224.842 297.804 224.59 297.692 224.296 297.692ZM233.299 301.696C233.299 303.026 232.809 304.076 231.829 304.076C230.429 304.076 230.093 301.78 230.093 300.8C230.093 299.386 230.625 298.574 231.577 298.574C233.005 298.574 233.299 300.688 233.299 301.696ZM231.801 297.538C229.547 297.538 227.867 299.288 227.867 301.388C227.867 303.684 229.449 305.154 231.689 305.154C233.873 305.154 235.539 303.404 235.539 301.304C235.539 299.12 234.041 297.538 231.801 297.538ZM244.799 304.216C244.533 304.062 244.351 303.852 244.281 303.628C244.225 303.432 244.141 303.124 244.141 302.144V300.422C244.141 299.666 244.043 299.036 243.721 298.56C243.273 297.86 242.503 297.538 241.761 297.538C240.893 297.538 240.067 297.902 239.493 298.714C239.465 298.756 239.437 298.784 239.409 298.784C239.381 298.784 239.353 298.756 239.353 298.686V298.014C239.353 297.636 239.171 297.538 238.989 297.538C238.849 297.538 238.737 297.566 238.583 297.622C238.051 297.818 237.365 298.028 236.721 298.182C236.399 298.252 236.245 298.378 236.245 298.574C236.245 298.812 236.539 298.896 236.693 298.966C236.959 299.078 237.099 299.204 237.183 299.428C237.267 299.652 237.281 299.946 237.281 300.352V302.144C237.281 303.124 237.211 303.432 237.141 303.628C237.071 303.852 236.903 304.062 236.623 304.216C236.441 304.328 236.287 304.426 236.287 304.636C236.287 304.874 236.511 305 236.819 305H239.815C240.123 305 240.361 304.874 240.361 304.636C240.361 304.426 240.193 304.328 240.011 304.216C239.731 304.062 239.563 303.852 239.493 303.628C239.423 303.432 239.353 303.124 239.353 302.144C239.353 300.716 239.507 299.96 239.983 299.498C240.263 299.218 240.613 299.12 240.907 299.12C241.691 299.12 242.041 299.68 242.041 300.422V302.144C242.041 303.124 241.971 303.432 241.901 303.628C241.817 303.852 241.663 304.048 241.383 304.216C241.201 304.328 241.033 304.426 241.033 304.636C241.033 304.874 241.271 305 241.579 305H244.603C244.911 305 245.149 304.874 245.149 304.636C245.149 304.426 244.995 304.328 244.799 304.216ZM247.845 300.044C247.999 299.162 248.559 298.588 249.343 298.588C250.057 298.588 250.477 299.162 250.477 299.68C250.477 300.212 250.099 300.296 249.595 300.296C249.595 300.296 247.999 300.296 247.971 300.296C247.873 300.296 247.831 300.24 247.831 300.17C247.831 300.142 247.831 300.128 247.845 300.044ZM252.101 303.152C251.765 303.152 251.373 303.726 250.267 303.726C249.427 303.726 248.699 303.418 248.223 302.676C247.929 302.214 247.873 301.766 247.859 301.626C247.845 301.514 247.845 301.486 247.845 301.458C247.845 301.36 247.915 301.332 247.999 301.332H251.359C252.185 301.332 252.549 301.206 252.549 300.394C252.549 298.644 250.995 297.538 249.413 297.538C247.229 297.538 245.675 299.442 245.675 301.542C245.675 303.74 247.215 305.154 249.259 305.154C250.099 305.154 250.939 304.902 251.569 304.482C251.989 304.202 252.409 303.754 252.409 303.446C252.409 303.278 252.255 303.152 252.101 303.152ZM149.594 323.334C149.3 323.334 149.076 323.768 148.516 323.768C148.208 323.768 147.774 323.6 147.578 322.998C147.41 322.48 147.368 321.36 147.368 320.324C147.368 319.904 147.368 319.498 147.382 319.162C147.382 319.064 147.438 319.008 147.536 319.008C147.746 319.008 148.04 319.008 148.264 319.022C148.516 319.036 148.768 319.064 148.978 319.064C149.426 319.064 149.538 318.91 149.622 318.546C149.65 318.406 149.706 318.238 149.706 318.126C149.706 317.86 149.384 317.846 149.216 317.846C148.95 317.846 148.67 317.888 148.418 317.916C148.18 317.944 148.012 317.958 147.774 317.958C147.438 317.958 147.41 317.916 147.41 317.538C147.41 317.51 147.41 316.222 147.41 316.222C147.41 316.096 147.326 316.012 147.2 316.012H146.29C146.15 316.012 146.08 316.082 146.052 316.236C145.996 316.516 145.954 316.908 145.716 317.244C145.492 317.566 145.1 317.832 144.386 317.944C144.218 317.972 144.148 318.056 144.148 318.182V318.784C144.148 318.924 144.232 319.008 144.358 319.008C144.358 319.008 144.89 319.008 145.212 319.008C145.324 319.008 145.366 319.05 145.366 319.162C145.338 320.436 145.226 321.374 145.226 322.298C145.226 323.054 145.31 323.614 145.548 324.062C145.87 324.664 146.542 325.154 147.578 325.154C148.432 325.154 149.258 324.748 149.692 324.104C149.804 323.95 149.874 323.768 149.874 323.628C149.874 323.46 149.748 323.334 149.594 323.334ZM158.14 317.692H155.886C155.62 317.692 155.34 317.79 155.34 318.07C155.34 318.504 156.082 318.378 156.082 319.218C156.082 319.484 156.012 319.89 155.746 320.52L154.892 322.564C154.864 322.634 154.85 322.648 154.822 322.648C154.794 322.648 154.78 322.634 154.752 322.564C154.752 322.564 153.548 319.834 153.38 319.456C153.296 319.26 153.226 319.078 153.226 318.938C153.226 318.644 153.436 318.504 153.604 318.42C153.772 318.336 153.926 318.252 153.926 318.042C153.926 317.818 153.716 317.692 153.436 317.692H150.44C150.034 317.692 149.908 317.874 149.908 318.07C149.908 318.238 150.02 318.336 150.16 318.406C150.3 318.476 150.482 318.546 150.608 318.672C150.846 318.91 150.93 319.092 151.196 319.722L153.562 325.28C153.59 325.35 153.59 325.392 153.59 325.406C153.59 325.42 153.59 325.476 153.52 325.588C153.31 325.91 153.044 326.176 152.624 326.176C151.798 326.176 151.63 325.336 151.098 325.336C150.538 325.336 150.398 325.882 150.398 326.288C150.398 327.156 151 327.702 151.924 327.702C153.674 327.702 154.668 326.064 155.242 324.678C155.704 323.558 156.348 321.892 156.866 320.702C157.076 320.198 157.314 319.624 157.608 319.19C157.972 318.658 158.266 318.546 158.476 318.392C158.602 318.308 158.686 318.21 158.686 318.056C158.686 317.804 158.434 317.692 158.14 317.692ZM163.352 324.076C162.47 324.076 161.77 323.194 161.756 321.486C161.756 319.862 162.442 319.064 163.352 319.064C164.248 319.064 164.92 320.044 164.92 321.598C164.92 322.942 164.472 324.076 163.352 324.076ZM165.592 317.93C165.13 317.664 164.654 317.538 164.206 317.538C163.324 317.538 162.512 318 161.994 318.644C161.952 318.7 161.91 318.728 161.868 318.728C161.812 318.728 161.77 318.672 161.77 318.574V318.014C161.77 317.636 161.588 317.538 161.406 317.538C161.266 317.538 161.126 317.594 161.042 317.622C160.538 317.804 159.768 318.028 159.124 318.182C158.802 318.266 158.662 318.378 158.662 318.588C158.662 318.812 158.942 318.882 159.096 318.952C159.376 319.064 159.544 319.19 159.614 319.414C159.684 319.638 159.698 319.932 159.698 320.338C159.698 320.338 159.698 323.95 159.698 324.902C159.698 325.84 159.628 326.134 159.558 326.33C159.474 326.568 159.32 326.764 159.054 326.932C158.872 327.044 158.704 327.114 158.704 327.338C158.704 327.576 158.942 327.702 159.236 327.702H162.232C162.526 327.702 162.764 327.576 162.764 327.338C162.764 327.114 162.596 327.044 162.414 326.932C162.148 326.764 161.994 326.568 161.91 326.33C161.84 326.148 161.77 325.868 161.77 325.028V324.874C161.77 324.818 161.798 324.804 161.826 324.804C161.924 324.804 162.498 325.154 163.464 325.154C165.802 325.154 167.118 323.026 167.118 320.968C167.118 319.75 166.656 318.56 165.592 317.93ZM170.047 320.044C170.201 319.162 170.761 318.588 171.545 318.588C172.259 318.588 172.679 319.162 172.679 319.68C172.679 320.212 172.301 320.296 171.797 320.296C171.797 320.296 170.201 320.296 170.173 320.296C170.075 320.296 170.033 320.24 170.033 320.17C170.033 320.142 170.033 320.128 170.047 320.044ZM174.303 323.152C173.967 323.152 173.575 323.726 172.469 323.726C171.629 323.726 170.901 323.418 170.425 322.676C170.131 322.214 170.075 321.766 170.061 321.626C170.047 321.514 170.047 321.486 170.047 321.458C170.047 321.36 170.117 321.332 170.201 321.332H173.561C174.387 321.332 174.751 321.206 174.751 320.394C174.751 318.644 173.197 317.538 171.615 317.538C169.431 317.538 167.877 319.442 167.877 321.542C167.877 323.74 169.417 325.154 171.461 325.154C172.301 325.154 173.141 324.902 173.771 324.482C174.191 324.202 174.611 323.754 174.611 323.446C174.611 323.278 174.457 323.152 174.303 323.152ZM184.168 321.71C184.168 323.082 183.566 324.426 182.18 324.426C180.808 324.426 179.898 322.816 179.898 320.884C179.898 319.33 180.654 318.238 181.886 318.238C183.454 318.238 184.168 320.1 184.168 321.71ZM182.082 317.538C179.954 317.538 178.47 319.288 178.47 321.402C178.47 323.684 179.912 325.154 182.04 325.154C184.126 325.154 185.596 323.404 185.596 321.304C185.596 319.19 184.308 317.538 182.082 317.538ZM191.698 314.78C191.488 314.626 191.18 314.542 190.802 314.542C189.752 314.542 187.792 315.116 187.666 317.804C187.666 317.902 187.624 317.944 187.512 317.944C187.344 317.944 186.644 317.944 186.644 317.944C186.532 317.944 186.476 317.986 186.476 318.098V318.574C186.476 318.686 186.546 318.728 186.644 318.728C186.644 318.728 187.428 318.728 187.512 318.728C187.61 318.728 187.652 318.756 187.652 318.84V322.55C187.652 323.208 187.624 323.642 187.512 323.922C187.274 324.482 186.77 324.412 186.77 324.734C186.77 324.93 186.938 325 187.162 325H189.472C189.682 325 189.864 324.93 189.864 324.734C189.864 324.426 189.374 324.482 189.15 323.978C189.024 323.698 188.982 323.25 188.982 322.55V318.896C188.982 318.77 189.024 318.728 189.164 318.728C189.388 318.728 189.626 318.728 189.892 318.742C190.228 318.756 190.508 318.784 190.774 318.784C191.11 318.784 191.32 318.756 191.39 318.35C191.404 318.266 191.432 318.154 191.432 318.07C191.432 317.846 191.18 317.846 191.04 317.846C190.746 317.846 190.368 317.916 190.032 317.93C189.696 317.944 189.374 317.944 189.122 317.944C189.024 317.944 188.982 317.902 188.982 317.804C188.982 316.88 189.066 315.368 190.13 315.368C190.956 315.368 191.236 316.334 191.67 316.334C191.964 316.334 192.048 316.11 192.048 315.746C192.048 315.48 192.006 315.018 191.698 314.78ZM201.269 323.488C201.269 323.348 201.171 323.222 201.017 323.222C200.695 323.222 200.219 324.16 198.973 324.16C197.377 324.16 196.663 322.676 196.663 321.136C196.663 319.358 197.587 318.294 198.679 318.294C199.421 318.294 199.855 318.812 200.065 319.162C200.275 319.512 200.345 319.848 200.667 319.848C200.933 319.848 201.073 319.652 201.073 318.994C201.073 318.658 201.017 318.266 200.807 318.056C200.443 317.678 199.631 317.538 199.071 317.538C196.733 317.538 195.263 319.61 195.263 321.78C195.263 323.88 196.677 325.154 198.455 325.154C200.303 325.154 201.269 323.866 201.269 323.488ZM207.848 321.71C207.848 323.082 207.246 324.426 205.86 324.426C204.488 324.426 203.578 322.816 203.578 320.884C203.578 319.33 204.334 318.238 205.566 318.238C207.134 318.238 207.848 320.1 207.848 321.71ZM205.762 317.538C203.634 317.538 202.15 319.288 202.15 321.402C202.15 323.684 203.592 325.154 205.72 325.154C207.806 325.154 209.276 323.404 209.276 321.304C209.276 319.19 207.988 317.538 205.762 317.538ZM217.268 320.31C217.268 319.33 217.1 318.826 216.792 318.406C216.414 317.888 215.756 317.538 214.958 317.538C213.908 317.538 213.124 318.112 212.69 318.756C212.662 318.798 212.648 318.826 212.62 318.826C212.592 318.826 212.578 318.798 212.578 318.756V317.93C212.578 317.664 212.452 317.538 212.27 317.538C212.186 317.538 212.102 317.566 212.004 317.608C211.64 317.776 211.22 317.916 210.702 318.028C210.38 318.098 210.31 318.196 210.31 318.35C210.31 318.658 210.898 318.588 211.122 318.924C211.248 319.106 211.262 319.358 211.262 319.806V322.536C211.262 323.222 211.22 323.698 211.094 323.978C210.884 324.426 210.38 324.44 210.38 324.734C210.38 324.93 210.548 325 210.758 325H213.082C213.292 325 213.46 324.93 213.46 324.734C213.46 324.482 213.012 324.44 212.774 324.034C212.62 323.768 212.578 323.25 212.578 322.536C212.578 320.38 212.704 319.624 213.236 319.092C213.572 318.756 214.02 318.602 214.44 318.602C215.266 318.602 215.91 319.134 215.91 320.352V322.536C215.91 323.236 215.868 323.74 215.728 324.006C215.504 324.44 215.028 324.454 215.028 324.734C215.028 324.93 215.21 325 215.42 325H217.772C217.982 325 218.164 324.93 218.164 324.734C218.164 324.482 217.716 324.426 217.478 324.062C217.31 323.796 217.268 323.264 217.268 322.536V320.31ZM223.649 323.53C223.383 323.53 223.117 324.076 222.389 324.076C221.843 324.076 221.381 323.768 221.283 322.662C221.227 322.018 221.227 321.556 221.227 321.038C221.227 320.618 221.269 319.078 221.269 318.896C221.269 318.784 221.325 318.728 221.437 318.728C221.689 318.728 221.913 318.728 222.193 318.742C222.529 318.756 222.837 318.798 223.089 318.798C223.453 318.798 223.635 318.7 223.691 318.364C223.705 318.266 223.733 318.168 223.733 318.098C223.733 317.916 223.593 317.846 223.285 317.846C222.991 317.846 222.599 317.888 222.305 317.916C221.983 317.944 221.801 317.944 221.591 317.944C221.339 317.944 221.283 317.874 221.283 317.622V316.166C221.283 316.068 221.227 316.012 221.115 316.012H220.541C220.429 316.012 220.387 316.068 220.359 316.18C220.261 316.642 220.205 317.02 220.037 317.3C219.869 317.58 219.561 317.776 218.945 317.944C218.847 317.972 218.805 318.028 218.805 318.112V318.56C218.805 318.672 218.861 318.728 218.959 318.728H219.841C219.939 318.728 219.981 318.77 219.981 318.868C219.981 320.254 219.883 321.514 219.883 322.746C219.883 323.46 219.995 324.034 220.275 324.412C220.611 324.874 221.115 325.154 221.801 325.154C222.459 325.154 223.019 324.888 223.397 324.552C223.691 324.3 223.901 323.978 223.901 323.768C223.901 323.628 223.789 323.53 223.649 323.53ZM226.129 320.212C226.297 319.176 227.011 318.224 228.131 318.224C229.125 318.224 229.685 318.994 229.685 319.638C229.685 320.282 229.321 320.45 228.509 320.45C228.509 320.45 226.325 320.45 226.227 320.45C226.143 320.45 226.115 320.436 226.115 320.366C226.115 320.352 226.115 320.324 226.129 320.212ZM230.651 323.194C230.315 323.194 229.755 324.146 228.383 324.146C226.899 324.146 226.059 322.83 226.059 321.36V321.29C226.059 321.192 226.115 321.15 226.213 321.15C226.311 321.15 230.007 321.15 230.007 321.15C230.693 321.136 231.113 321.01 231.113 320.156C231.113 319.176 230.273 317.538 228.257 317.538C226.087 317.538 224.631 319.512 224.631 321.556C224.631 323.474 225.891 325.154 228.033 325.154C229.895 325.154 230.959 323.88 230.959 323.488C230.959 323.292 230.819 323.194 230.651 323.194ZM239.037 320.31C239.037 319.33 238.869 318.826 238.561 318.406C238.183 317.888 237.525 317.538 236.727 317.538C235.677 317.538 234.893 318.112 234.459 318.756C234.431 318.798 234.417 318.826 234.389 318.826C234.361 318.826 234.347 318.798 234.347 318.756V317.93C234.347 317.664 234.221 317.538 234.039 317.538C233.955 317.538 233.871 317.566 233.773 317.608C233.409 317.776 232.989 317.916 232.471 318.028C232.149 318.098 232.079 318.196 232.079 318.35C232.079 318.658 232.667 318.588 232.891 318.924C233.017 319.106 233.031 319.358 233.031 319.806V322.536C233.031 323.222 232.989 323.698 232.863 323.978C232.653 324.426 232.149 324.44 232.149 324.734C232.149 324.93 232.317 325 232.527 325H234.851C235.061 325 235.229 324.93 235.229 324.734C235.229 324.482 234.781 324.44 234.543 324.034C234.389 323.768 234.347 323.25 234.347 322.536C234.347 320.38 234.473 319.624 235.005 319.092C235.341 318.756 235.789 318.602 236.209 318.602C237.035 318.602 237.679 319.134 237.679 320.352V322.536C237.679 323.236 237.637 323.74 237.497 324.006C237.273 324.44 236.797 324.454 236.797 324.734C236.797 324.93 236.979 325 237.189 325H239.541C239.751 325 239.933 324.93 239.933 324.734C239.933 324.482 239.485 324.426 239.247 324.062C239.079 323.796 239.037 323.264 239.037 322.536V320.31ZM245.418 323.53C245.152 323.53 244.886 324.076 244.158 324.076C243.612 324.076 243.15 323.768 243.052 322.662C242.996 322.018 242.996 321.556 242.996 321.038C242.996 320.618 243.038 319.078 243.038 318.896C243.038 318.784 243.094 318.728 243.206 318.728C243.458 318.728 243.682 318.728 243.962 318.742C244.298 318.756 244.606 318.798 244.858 318.798C245.222 318.798 245.404 318.7 245.46 318.364C245.474 318.266 245.502 318.168 245.502 318.098C245.502 317.916 245.362 317.846 245.054 317.846C244.76 317.846 244.368 317.888 244.074 317.916C243.752 317.944 243.57 317.944 243.36 317.944C243.108 317.944 243.052 317.874 243.052 317.622V316.166C243.052 316.068 242.996 316.012 242.884 316.012H242.31C242.198 316.012 242.156 316.068 242.128 316.18C242.03 316.642 241.974 317.02 241.806 317.3C241.638 317.58 241.33 317.776 240.714 317.944C240.616 317.972 240.574 318.028 240.574 318.112V318.56C240.574 318.672 240.63 318.728 240.728 318.728H241.61C241.708 318.728 241.75 318.77 241.75 318.868C241.75 320.254 241.652 321.514 241.652 322.746C241.652 323.46 241.764 324.034 242.044 324.412C242.38 324.874 242.884 325.154 243.57 325.154C244.228 325.154 244.788 324.888 245.166 324.552C245.46 324.3 245.67 323.978 245.67 323.768C245.67 323.628 245.558 323.53 245.418 323.53Z" fill="#004C12"/>
<rect x="271" y="0.970703" width="472" height="68" rx="20" fill="#FFF8E0"/>
<path d="M363.095 33.7067C362.339 32.9367 361.051 32.3767 358.965 32.3767C358.895 32.3767 358.881 32.3347 358.881 32.2927C358.881 32.2927 358.881 32.2787 358.895 32.1947L359.273 30.3187C359.287 30.2487 359.315 30.2347 359.385 30.2347H362.689C363.011 30.2347 363.165 30.2207 363.277 30.1367C363.459 29.9967 363.459 29.7587 363.529 29.2407C363.557 29.0027 363.599 28.8207 363.599 28.6947C363.599 28.4987 363.501 28.4007 363.333 28.4007C363.067 28.4007 363.025 28.7647 362.675 28.8767C362.395 28.9607 361.919 28.9747 361.121 28.9747C361.121 28.9747 359.063 28.9747 358.979 28.9747C358.895 28.9747 358.853 29.0027 358.839 29.0867L357.971 33.3847C357.957 33.4547 357.957 33.4687 357.957 33.4827C357.957 33.5527 357.999 33.5807 358.083 33.5807H358.167C360.589 33.5807 361.597 34.1687 362.199 34.7707C362.633 35.2047 362.857 35.7927 362.857 36.3527C362.857 37.4867 362.073 38.3827 360.855 38.3827C359.903 38.3827 359.231 37.8367 358.881 37.2627C358.447 36.5487 358.405 36.0307 357.971 36.0307C357.635 36.0307 357.537 36.2687 357.537 36.8147C357.537 37.2347 357.593 37.8227 357.817 38.1587C358.237 38.7887 359.315 39.1247 360.379 39.1247C362.675 39.1247 363.991 37.5707 363.991 35.8767C363.991 35.1067 363.711 34.3367 363.095 33.7067ZM370.73 31.3407C370.73 32.5027 369.96 33.2167 369.078 33.2167C368.336 33.2167 367.328 32.7127 367.328 31.3547C367.328 30.2207 368.042 29.5207 369.064 29.5207C370.17 29.5207 370.73 30.3327 370.73 31.3407ZM366.922 36.3527C366.922 34.7987 368.112 34.0287 369.064 34.0287C370.016 34.0287 371.136 34.7847 371.136 36.2267C371.136 37.6687 370.072 38.4247 369.036 38.4247C367.79 38.4247 366.922 37.5007 366.922 36.3527ZM372.228 31.1587C372.228 29.6887 370.842 28.8067 369.05 28.8067C367.188 28.8067 365.816 29.8987 365.816 31.3827C365.816 32.5727 366.782 33.3847 367.72 33.6787C367.804 33.7067 367.832 33.7347 367.832 33.7767C367.832 33.8327 367.79 33.8747 367.692 33.8887C366.404 34.1547 365.41 35.0087 365.41 36.3807C365.41 37.9767 366.936 39.1247 368.994 39.1247C371.15 39.1247 372.662 37.8507 372.662 36.1847C372.662 34.7287 371.528 33.8747 370.366 33.5947C370.24 33.5667 370.212 33.5387 370.212 33.4967C370.212 33.4407 370.254 33.4127 370.366 33.3847C371.43 33.0627 372.228 32.2927 372.228 31.1587ZM377.392 31.4947C377.392 32.9227 377 33.6367 376.356 33.6367C375.726 33.6367 375.292 32.6847 375.292 31.4947C375.292 30.1927 375.628 29.3527 376.314 29.3527C376.944 29.3527 377.392 30.2627 377.392 31.4947ZM378.54 31.4947C378.54 29.9267 377.756 28.8207 376.342 28.8207C375.068 28.8207 374.144 29.9967 374.144 31.4947C374.144 32.9367 374.788 34.1827 376.342 34.1827C377.602 34.1827 378.54 33.0347 378.54 31.4947ZM382.88 36.4367C382.88 37.8647 382.488 38.5787 381.844 38.5787C381.214 38.5787 380.78 37.6267 380.78 36.4367C380.78 35.1347 381.116 34.2947 381.802 34.2947C382.432 34.2947 382.88 35.2047 382.88 36.4367ZM384.028 36.4367C384.028 34.8687 383.244 33.7627 381.83 33.7627C380.556 33.7627 379.632 34.9387 379.632 36.4367C379.632 37.8787 380.276 39.1247 381.83 39.1247C383.09 39.1247 384.028 37.9767 384.028 36.4367ZM375.656 38.9707H376.51L382.614 28.9747H381.76L375.656 38.9707ZM393.788 35.6807C393.788 37.0527 393.186 38.3967 391.8 38.3967C390.428 38.3967 389.518 36.7867 389.518 34.8547C389.518 33.3007 390.274 32.2087 391.506 32.2087C393.074 32.2087 393.788 34.0707 393.788 35.6807ZM391.702 31.5087C389.574 31.5087 388.09 33.2587 388.09 35.3727C388.09 37.6547 389.532 39.1247 391.66 39.1247C393.746 39.1247 395.216 37.3747 395.216 35.2747C395.216 33.1607 393.928 31.5087 391.702 31.5087ZM401.318 28.7507C401.108 28.5967 400.8 28.5127 400.422 28.5127C399.372 28.5127 397.412 29.0867 397.286 31.7747C397.286 31.8727 397.244 31.9147 397.132 31.9147C396.964 31.9147 396.264 31.9147 396.264 31.9147C396.152 31.9147 396.096 31.9567 396.096 32.0687V32.5447C396.096 32.6567 396.166 32.6987 396.264 32.6987C396.264 32.6987 397.048 32.6987 397.132 32.6987C397.23 32.6987 397.272 32.7267 397.272 32.8107V36.5207C397.272 37.1787 397.244 37.6127 397.132 37.8927C396.894 38.4527 396.39 38.3827 396.39 38.7047C396.39 38.9007 396.558 38.9707 396.782 38.9707H399.092C399.302 38.9707 399.484 38.9007 399.484 38.7047C399.484 38.3967 398.994 38.4527 398.77 37.9487C398.644 37.6687 398.602 37.2207 398.602 36.5207V32.8667C398.602 32.7407 398.644 32.6987 398.784 32.6987C399.008 32.6987 399.246 32.6987 399.512 32.7127C399.848 32.7267 400.128 32.7547 400.394 32.7547C400.73 32.7547 400.94 32.7267 401.01 32.3207C401.024 32.2367 401.052 32.1247 401.052 32.0407C401.052 31.8167 400.8 31.8167 400.66 31.8167C400.366 31.8167 399.988 31.8867 399.652 31.9007C399.316 31.9147 398.994 31.9147 398.742 31.9147C398.644 31.9147 398.602 31.8727 398.602 31.7747C398.602 30.8507 398.686 29.3387 399.75 29.3387C400.576 29.3387 400.856 30.3047 401.29 30.3047C401.584 30.3047 401.668 30.0807 401.668 29.7167C401.668 29.4507 401.626 28.9887 401.318 28.7507ZM410.89 37.4587C410.89 37.3187 410.792 37.1927 410.638 37.1927C410.316 37.1927 409.84 38.1307 408.594 38.1307C406.998 38.1307 406.284 36.6467 406.284 35.1067C406.284 33.3287 407.208 32.2647 408.3 32.2647C409.042 32.2647 409.476 32.7827 409.686 33.1327C409.896 33.4827 409.966 33.8187 410.288 33.8187C410.554 33.8187 410.694 33.6227 410.694 32.9647C410.694 32.6287 410.638 32.2367 410.428 32.0267C410.064 31.6487 409.252 31.5087 408.692 31.5087C406.354 31.5087 404.884 33.5807 404.884 35.7507C404.884 37.8507 406.298 39.1247 408.076 39.1247C409.924 39.1247 410.89 37.8367 410.89 37.4587ZM415.999 31.5087C415.103 31.5087 414.347 32.3907 414.053 32.9927C414.039 33.0207 414.025 33.0627 413.997 33.0627C413.969 33.0627 413.969 33.0347 413.969 33.0067V31.9007C413.969 31.6487 413.857 31.5087 413.647 31.5087C413.549 31.5087 413.437 31.5367 413.311 31.5927C412.905 31.7747 412.625 31.8727 412.163 31.9707C411.869 32.0267 411.785 32.1247 411.785 32.2787C411.785 32.5867 412.331 32.5307 412.583 32.8947C412.709 33.0767 412.765 33.4127 412.765 34.0147V36.5207C412.765 37.2067 412.723 37.6547 412.611 37.9207C412.387 38.4247 411.883 38.4107 411.883 38.7047C411.883 38.9007 412.051 38.9707 412.275 38.9707H414.585C414.809 38.9707 414.977 38.9007 414.977 38.7047C414.977 38.3967 414.515 38.4527 414.263 37.9487C414.123 37.6687 414.095 37.2067 414.095 36.5207C414.095 34.4347 414.333 33.7767 414.669 33.2727C414.907 32.9087 415.201 32.7827 415.467 32.7827C415.887 32.7827 416.069 33.0907 416.405 33.0907C416.769 33.0907 416.881 32.7827 416.881 32.4467C416.881 31.8867 416.545 31.5087 415.999 31.5087ZM418.584 34.1827C418.752 33.1467 419.466 32.1947 420.586 32.1947C421.58 32.1947 422.14 32.9647 422.14 33.6087C422.14 34.2527 421.776 34.4207 420.964 34.4207C420.964 34.4207 418.78 34.4207 418.682 34.4207C418.598 34.4207 418.57 34.4067 418.57 34.3367C418.57 34.3227 418.57 34.2947 418.584 34.1827ZM423.106 37.1647C422.77 37.1647 422.21 38.1167 420.838 38.1167C419.354 38.1167 418.514 36.8007 418.514 35.3307V35.2607C418.514 35.1627 418.57 35.1207 418.668 35.1207C418.766 35.1207 422.462 35.1207 422.462 35.1207C423.148 35.1067 423.568 34.9807 423.568 34.1267C423.568 33.1467 422.728 31.5087 420.712 31.5087C418.542 31.5087 417.086 33.4827 417.086 35.5267C417.086 37.4447 418.346 39.1247 420.488 39.1247C422.35 39.1247 423.414 37.8507 423.414 37.4587C423.414 37.2627 423.274 37.1647 423.106 37.1647ZM428.775 35.2607C428.775 36.1147 428.761 36.7307 428.481 37.3187C428.145 38.0047 427.515 38.3127 426.969 38.3127C426.227 38.3127 425.849 37.8087 425.849 37.2487C425.849 36.8567 426.045 36.4227 426.549 36.0867C427.221 35.6387 428.145 35.4007 428.635 35.0227C428.691 34.9807 428.705 34.9667 428.733 34.9667C428.761 34.9667 428.775 34.9947 428.775 35.0227V35.2607ZM430.581 38.1167C430.301 38.1167 430.133 37.8927 430.133 37.4027C430.133 36.2827 430.175 34.9947 430.175 33.9027C430.175 32.5167 429.251 31.5087 427.459 31.5087C426.661 31.5087 425.527 31.7047 425.149 32.1947C424.981 32.4047 424.911 32.8527 424.911 33.2167C424.911 33.5807 424.967 33.9027 425.303 33.9027C425.611 33.9027 425.653 33.6507 425.933 33.2587C426.283 32.7687 426.717 32.2227 427.557 32.2227C428.313 32.2227 428.775 32.6987 428.775 33.3707C428.775 34.1267 428.159 34.5327 427.599 34.7847C426.829 35.1487 425.961 35.3027 425.233 35.7927C424.645 36.1707 424.365 36.7587 424.365 37.3187C424.365 38.2847 425.191 39.1247 426.549 39.1247C427.417 39.1247 428.285 38.7607 428.789 38.0047C428.817 37.9627 428.817 37.9487 428.845 37.9487C428.873 37.9487 428.873 37.9907 428.873 38.0187C428.957 38.8447 429.475 39.1247 429.937 39.1247C430.553 39.1247 430.987 38.6067 430.987 38.3407C430.987 38.2007 430.875 38.1167 430.749 38.1167H430.581ZM436.438 37.5007C436.172 37.5007 435.906 38.0467 435.178 38.0467C434.632 38.0467 434.17 37.7387 434.072 36.6327C434.016 35.9887 434.016 35.5267 434.016 35.0087C434.016 34.5887 434.058 33.0487 434.058 32.8667C434.058 32.7547 434.114 32.6987 434.226 32.6987C434.478 32.6987 434.702 32.6987 434.982 32.7127C435.318 32.7267 435.626 32.7687 435.878 32.7687C436.242 32.7687 436.424 32.6707 436.48 32.3347C436.494 32.2367 436.522 32.1387 436.522 32.0687C436.522 31.8867 436.382 31.8167 436.074 31.8167C435.78 31.8167 435.388 31.8587 435.094 31.8867C434.772 31.9147 434.59 31.9147 434.38 31.9147C434.128 31.9147 434.072 31.8447 434.072 31.5927V30.1367C434.072 30.0387 434.016 29.9827 433.904 29.9827H433.33C433.218 29.9827 433.176 30.0387 433.148 30.1507C433.05 30.6127 432.994 30.9907 432.826 31.2707C432.658 31.5507 432.35 31.7467 431.734 31.9147C431.636 31.9427 431.594 31.9987 431.594 32.0827V32.5307C431.594 32.6427 431.65 32.6987 431.748 32.6987H432.63C432.728 32.6987 432.77 32.7407 432.77 32.8387C432.77 34.2247 432.672 35.4847 432.672 36.7167C432.672 37.4307 432.784 38.0047 433.064 38.3827C433.4 38.8447 433.904 39.1247 434.59 39.1247C435.248 39.1247 435.808 38.8587 436.186 38.5227C436.48 38.2707 436.69 37.9487 436.69 37.7387C436.69 37.5987 436.578 37.5007 436.438 37.5007ZM443.118 35.6807C443.118 37.0527 442.516 38.3967 441.13 38.3967C439.758 38.3967 438.848 36.7867 438.848 34.8547C438.848 33.3007 439.604 32.2087 440.836 32.2087C442.404 32.2087 443.118 34.0707 443.118 35.6807ZM441.032 31.5087C438.904 31.5087 437.42 33.2587 437.42 35.3727C437.42 37.6547 438.862 39.1247 440.99 39.1247C443.076 39.1247 444.546 37.3747 444.546 35.2747C444.546 33.1607 443.258 31.5087 441.032 31.5087ZM449.793 31.5087C448.897 31.5087 448.141 32.3907 447.847 32.9927C447.833 33.0207 447.819 33.0627 447.791 33.0627C447.763 33.0627 447.763 33.0347 447.763 33.0067V31.9007C447.763 31.6487 447.651 31.5087 447.441 31.5087C447.343 31.5087 447.231 31.5367 447.105 31.5927C446.699 31.7747 446.419 31.8727 445.957 31.9707C445.663 32.0267 445.579 32.1247 445.579 32.2787C445.579 32.5867 446.125 32.5307 446.377 32.8947C446.503 33.0767 446.559 33.4127 446.559 34.0147V36.5207C446.559 37.2067 446.517 37.6547 446.405 37.9207C446.181 38.4247 445.677 38.4107 445.677 38.7047C445.677 38.9007 445.845 38.9707 446.069 38.9707H448.379C448.603 38.9707 448.771 38.9007 448.771 38.7047C448.771 38.3967 448.309 38.4527 448.057 37.9487C447.917 37.6687 447.889 37.2067 447.889 36.5207C447.889 34.4347 448.127 33.7767 448.463 33.2727C448.701 32.9087 448.995 32.7827 449.261 32.7827C449.681 32.7827 449.863 33.0907 450.199 33.0907C450.563 33.0907 450.675 32.7827 450.675 32.4467C450.675 31.8867 450.339 31.5087 449.793 31.5087ZM451.016 37.0947C451.016 37.5287 451.1 38.1447 451.394 38.4387C451.758 38.8027 452.668 39.1247 453.648 39.1247C455.398 39.1247 456.574 38.0747 456.574 36.7867C456.574 35.5127 455.58 35.0367 454.572 34.7007C453.55 34.3507 452.514 34.1547 452.514 33.2867C452.514 32.6287 453.144 32.2367 453.732 32.2367C454.432 32.2367 454.838 32.6567 455.118 33.0627C455.412 33.4967 455.44 33.7907 455.776 33.7907C456.182 33.7907 456.196 33.3007 456.196 32.9787C456.196 32.6287 456.112 32.1807 455.748 31.9147C455.426 31.6767 454.768 31.5087 454.082 31.5087C452.542 31.5087 451.282 32.4187 451.282 33.7767C451.282 36.2687 455.328 35.3867 455.328 37.2207C455.328 37.8507 454.768 38.3967 453.914 38.3967C453.046 38.3967 452.542 37.8647 452.178 37.3607C451.87 36.9267 451.716 36.4927 451.394 36.4927C451.072 36.4927 451.016 36.7867 451.016 37.0947ZM464.628 38.4247C463.452 38.4247 462.626 37.3327 462.626 35.3867C462.626 33.5387 463.396 32.5167 464.558 32.5167C465.65 32.5167 466.602 33.5807 466.602 35.4567C466.602 37.2067 465.874 38.4247 464.628 38.4247ZM465.104 31.5087C464.194 31.5087 463.368 31.9987 462.808 32.6847C462.752 32.7547 462.724 32.7547 462.696 32.7547C462.654 32.7547 462.626 32.7127 462.626 32.6427V31.8727C462.626 31.6207 462.514 31.5087 462.346 31.5087C462.262 31.5087 462.164 31.5367 462.066 31.5787C461.646 31.7607 461.268 31.8727 460.75 31.9847C460.428 32.0547 460.358 32.1527 460.358 32.2787C460.358 32.6287 460.918 32.5167 461.156 32.8807C461.296 33.1047 461.296 33.3707 461.296 33.8887V39.2227C461.296 39.8667 461.268 40.3287 461.17 40.5947C461.002 41.0847 460.414 41.0987 460.414 41.4067C460.414 41.6027 460.596 41.6727 460.806 41.6727H463.13C463.34 41.6727 463.508 41.5887 463.508 41.3927C463.508 41.0847 463.018 41.1267 462.794 40.6507C462.668 40.3847 462.626 39.9227 462.626 39.2647V38.6067C462.626 38.5647 462.654 38.5367 462.682 38.5367C462.794 38.5367 463.452 39.1247 464.628 39.1247C466.826 39.1247 467.974 36.8987 467.974 34.9667C467.974 32.8107 466.686 31.5087 465.104 31.5087ZM473.214 31.5087C472.318 31.5087 471.562 32.3907 471.268 32.9927C471.254 33.0207 471.24 33.0627 471.212 33.0627C471.184 33.0627 471.184 33.0347 471.184 33.0067V31.9007C471.184 31.6487 471.072 31.5087 470.862 31.5087C470.764 31.5087 470.652 31.5367 470.526 31.5927C470.12 31.7747 469.84 31.8727 469.378 31.9707C469.084 32.0267 469 32.1247 469 32.2787C469 32.5867 469.546 32.5307 469.798 32.8947C469.924 33.0767 469.98 33.4127 469.98 34.0147V36.5207C469.98 37.2067 469.938 37.6547 469.826 37.9207C469.602 38.4247 469.098 38.4107 469.098 38.7047C469.098 38.9007 469.266 38.9707 469.49 38.9707H471.8C472.024 38.9707 472.192 38.9007 472.192 38.7047C472.192 38.3967 471.73 38.4527 471.478 37.9487C471.338 37.6687 471.31 37.2067 471.31 36.5207C471.31 34.4347 471.548 33.7767 471.884 33.2727C472.122 32.9087 472.416 32.7827 472.682 32.7827C473.102 32.7827 473.284 33.0907 473.62 33.0907C473.984 33.0907 474.096 32.7827 474.096 32.4467C474.096 31.8867 473.76 31.5087 473.214 31.5087ZM479.998 35.6807C479.998 37.0527 479.396 38.3967 478.01 38.3967C476.638 38.3967 475.728 36.7867 475.728 34.8547C475.728 33.3007 476.484 32.2087 477.716 32.2087C479.284 32.2087 479.998 34.0707 479.998 35.6807ZM477.912 31.5087C475.784 31.5087 474.3 33.2587 474.3 35.3727C474.3 37.6547 475.742 39.1247 477.87 39.1247C479.956 39.1247 481.426 37.3747 481.426 35.2747C481.426 33.1607 480.138 31.5087 477.912 31.5087ZM485.916 38.1307C484.698 38.1307 483.886 36.8287 483.886 35.1767C483.886 33.7907 484.39 32.2227 485.86 32.2227C487.036 32.2227 487.862 33.3147 487.862 35.2467C487.862 36.9827 487.148 38.1307 485.916 38.1307ZM489.192 28.8767C489.192 28.6247 489.066 28.5127 488.898 28.5127C488.786 28.5127 488.702 28.5547 488.59 28.5967C488.17 28.7647 487.834 28.8767 487.316 28.9887C486.98 29.0587 486.924 29.1567 486.924 29.2967C486.924 29.6047 487.442 29.5347 487.708 29.8707C487.848 30.0527 487.862 30.3467 487.862 30.7107V32.0407C487.862 32.0827 487.848 32.1107 487.806 32.1107C487.778 32.1107 487.75 32.0967 487.708 32.0687C487.162 31.7187 486.532 31.5087 485.86 31.5087C483.774 31.5087 482.514 33.6087 482.514 35.6807C482.514 38.1027 484.04 39.1247 485.384 39.1247C486.294 39.1247 487.12 38.6347 487.68 37.9487C487.722 37.9067 487.75 37.8927 487.778 37.8927C487.82 37.8927 487.862 37.9347 487.862 38.0047V38.7607C487.862 39.0267 487.974 39.1247 488.156 39.1247C488.24 39.1247 488.324 39.1107 488.478 39.0407C488.814 38.9007 489.206 38.7747 489.738 38.6487C490.06 38.5787 490.13 38.4667 490.13 38.3267C490.13 38.0187 489.5 38.0887 489.29 37.7107C489.206 37.5427 489.192 37.2627 489.192 36.8987V28.8767ZM497.903 37.7667C497.763 37.5427 497.763 37.2207 497.763 36.6187V31.8727C497.763 31.6207 497.637 31.4947 497.455 31.4947C497.371 31.4947 497.287 31.5227 497.189 31.5647C496.811 31.7327 496.419 31.8447 495.873 31.9707C495.565 32.0407 495.495 32.1387 495.495 32.2927C495.495 32.6287 496.055 32.5307 496.293 32.8807C496.433 33.0907 496.433 33.4687 496.433 34.1407C496.433 36.2827 496.265 37.0667 495.747 37.5847C495.411 37.9207 494.977 38.0607 494.571 38.0607C493.563 38.0607 493.115 37.3047 493.115 36.3387V31.8727C493.115 31.6207 492.989 31.5087 492.807 31.5087C492.695 31.5087 492.625 31.5367 492.485 31.5927C492.107 31.7467 491.785 31.8447 491.225 31.9707C490.945 32.0267 490.847 32.1247 490.847 32.2647C490.847 32.6287 491.421 32.5307 491.645 32.8807C491.785 33.0907 491.785 33.4127 491.785 34.0147V36.3667C491.785 37.2067 491.911 37.8647 492.303 38.3407C492.737 38.8727 493.353 39.1247 494.053 39.1247C495.033 39.1247 495.859 38.6207 496.321 37.9067C496.349 37.8647 496.363 37.8367 496.391 37.8367C496.419 37.8367 496.433 37.8507 496.433 37.8787C496.433 37.9207 496.433 38.7467 496.433 38.7467C496.433 39.0127 496.545 39.1247 496.741 39.1247C496.811 39.1247 496.895 39.1107 497.035 39.0547C497.385 38.9147 497.777 38.7887 498.323 38.6627C498.603 38.6067 498.701 38.5087 498.701 38.3407C498.701 38.0187 498.099 38.0747 497.903 37.7667ZM505.658 37.4587C505.658 37.3187 505.56 37.1927 505.406 37.1927C505.084 37.1927 504.608 38.1307 503.362 38.1307C501.766 38.1307 501.052 36.6467 501.052 35.1067C501.052 33.3287 501.976 32.2647 503.068 32.2647C503.81 32.2647 504.244 32.7827 504.454 33.1327C504.664 33.4827 504.734 33.8187 505.056 33.8187C505.322 33.8187 505.462 33.6227 505.462 32.9647C505.462 32.6287 505.406 32.2367 505.196 32.0267C504.832 31.6487 504.02 31.5087 503.46 31.5087C501.122 31.5087 499.652 33.5807 499.652 35.7507C499.652 37.8507 501.066 39.1247 502.844 39.1247C504.692 39.1247 505.658 37.8367 505.658 37.4587ZM508.023 34.1827C508.191 33.1467 508.905 32.1947 510.025 32.1947C511.019 32.1947 511.579 32.9647 511.579 33.6087C511.579 34.2527 511.215 34.4207 510.403 34.4207C510.403 34.4207 508.219 34.4207 508.121 34.4207C508.037 34.4207 508.009 34.4067 508.009 34.3367C508.009 34.3227 508.009 34.2947 508.023 34.1827ZM512.545 37.1647C512.209 37.1647 511.649 38.1167 510.277 38.1167C508.793 38.1167 507.953 36.8007 507.953 35.3307V35.2607C507.953 35.1627 508.009 35.1207 508.107 35.1207C508.205 35.1207 511.901 35.1207 511.901 35.1207C512.587 35.1067 513.007 34.9807 513.007 34.1267C513.007 33.1467 512.167 31.5087 510.151 31.5087C507.981 31.5087 506.525 33.4827 506.525 35.5267C506.525 37.4447 507.785 39.1247 509.927 39.1247C511.789 39.1247 512.853 37.8507 512.853 37.4587C512.853 37.2627 512.713 37.1647 512.545 37.1647ZM517.82 29.4647C517.288 29.8427 517.19 30.4307 517.19 30.9347C517.19 31.7047 517.372 31.9567 517.778 31.9567C518.198 31.9567 518.338 31.4527 518.646 30.9627C518.968 30.4447 519.458 29.9127 520.158 29.9127C521.026 29.9127 521.39 30.6967 521.39 31.3547C521.39 31.9007 521.18 32.4327 520.802 32.9087C520.2 33.6927 519.136 34.4347 518.296 35.2887C517.12 36.4647 516.938 37.4727 516.938 37.9767C516.938 38.6767 517.204 38.9707 517.778 38.9707H520.522C521.334 38.9707 522.146 39.0267 522.706 39.0267C523.742 39.0267 523.602 38.3547 523.756 37.5847C523.84 37.1367 523.896 36.8987 523.896 36.6607C523.896 36.4227 523.756 36.2687 523.546 36.2687C523.21 36.2687 523.168 36.6607 522.664 36.8567C522.328 36.9827 521.866 36.9967 521.082 36.9967H518.87C518.674 36.9967 518.59 36.9267 518.59 36.7867C518.59 36.5067 518.884 36.1847 519.136 35.9887C520.018 35.3027 521.474 34.9247 522.58 33.9867C523.406 33.2867 523.77 32.4327 523.77 31.6347C523.77 29.7167 521.88 28.8067 520.214 28.8067C519.164 28.8067 518.31 29.1287 517.82 29.4647ZM524.436 35.7227C524.436 35.8767 524.506 35.9327 524.646 35.9327H528.006C528.132 35.9327 528.216 35.8627 528.216 35.7227V34.5887C528.216 34.4487 528.146 34.3787 528.006 34.3787H524.646C524.506 34.3787 524.436 34.4487 524.436 34.5887V35.7227ZM535.535 34.7987C535.437 34.7987 535.409 34.7707 535.409 34.6867V31.1027C535.409 30.9347 535.311 30.8647 535.129 30.8647H533.547C533.379 30.8647 533.281 30.9487 533.281 31.1027V34.6867C533.281 34.7707 533.253 34.7987 533.169 34.7987H530.817C530.747 34.7987 530.733 34.7567 530.733 34.7287C530.733 34.7007 530.747 34.6867 530.775 34.6447C532.259 32.5867 533.197 30.8927 533.267 29.1007V29.0447C533.267 28.8767 533.169 28.8067 532.987 28.8067H531.769C531.559 28.8067 531.433 28.9047 531.433 29.1007C531.377 30.8927 530.803 32.4747 529.389 34.6867C529.235 34.9247 529.207 35.0227 529.207 35.3027V36.1287C529.207 36.3527 529.277 36.4227 529.487 36.4227H533.169C533.267 36.4227 533.281 36.4507 533.281 36.5907C533.267 37.1927 533.197 37.4307 533.141 37.5847C533.057 37.8227 532.903 38.0327 532.623 38.1867C532.427 38.2987 532.273 38.3967 532.273 38.6067C532.273 38.8447 532.511 38.9707 532.819 38.9707H535.871C536.179 38.9707 536.417 38.8447 536.417 38.6067C536.417 38.3967 536.263 38.2987 536.067 38.1867C535.801 38.0327 535.633 37.8227 535.549 37.5847C535.493 37.4307 535.437 37.1927 535.423 36.5907C535.423 36.4647 535.437 36.4227 535.521 36.4227H536.697C536.935 36.4227 537.047 36.3247 537.047 36.1007V35.1207C537.047 34.9107 536.935 34.7987 536.711 34.7987H535.535ZM545.972 37.3047C545.678 37.3047 545.454 37.7387 544.894 37.7387C544.586 37.7387 544.152 37.5707 543.956 36.9687C543.788 36.4507 543.746 35.3307 543.746 34.2947C543.746 33.8747 543.746 33.4687 543.76 33.1327C543.76 33.0347 543.816 32.9787 543.914 32.9787C544.124 32.9787 544.418 32.9787 544.642 32.9927C544.894 33.0067 545.146 33.0347 545.356 33.0347C545.804 33.0347 545.916 32.8807 546 32.5167C546.028 32.3767 546.084 32.2087 546.084 32.0967C546.084 31.8307 545.762 31.8167 545.594 31.8167C545.328 31.8167 545.048 31.8587 544.796 31.8867C544.558 31.9147 544.39 31.9287 544.152 31.9287C543.816 31.9287 543.788 31.8867 543.788 31.5087C543.788 31.4807 543.788 30.1927 543.788 30.1927C543.788 30.0667 543.704 29.9827 543.578 29.9827H542.668C542.528 29.9827 542.458 30.0527 542.43 30.2067C542.374 30.4867 542.332 30.8787 542.094 31.2147C541.87 31.5367 541.478 31.8027 540.764 31.9147C540.596 31.9427 540.526 32.0267 540.526 32.1527V32.7547C540.526 32.8947 540.61 32.9787 540.736 32.9787C540.736 32.9787 541.268 32.9787 541.59 32.9787C541.702 32.9787 541.744 33.0207 541.744 33.1327C541.716 34.4067 541.604 35.3447 541.604 36.2687C541.604 37.0247 541.688 37.5847 541.926 38.0327C542.248 38.6347 542.92 39.1247 543.956 39.1247C544.81 39.1247 545.636 38.7187 546.07 38.0747C546.182 37.9207 546.252 37.7387 546.252 37.5987C546.252 37.4307 546.126 37.3047 545.972 37.3047ZM554.519 31.6627H552.265C551.999 31.6627 551.719 31.7607 551.719 32.0407C551.719 32.4747 552.461 32.3487 552.461 33.1887C552.461 33.4547 552.391 33.8607 552.125 34.4907L551.271 36.5347C551.243 36.6047 551.229 36.6187 551.201 36.6187C551.173 36.6187 551.159 36.6047 551.131 36.5347C551.131 36.5347 549.927 33.8047 549.759 33.4267C549.675 33.2307 549.605 33.0487 549.605 32.9087C549.605 32.6147 549.815 32.4747 549.983 32.3907C550.151 32.3067 550.305 32.2227 550.305 32.0127C550.305 31.7887 550.095 31.6627 549.815 31.6627H546.819C546.413 31.6627 546.287 31.8447 546.287 32.0407C546.287 32.2087 546.399 32.3067 546.539 32.3767C546.679 32.4467 546.861 32.5167 546.987 32.6427C547.225 32.8807 547.309 33.0627 547.575 33.6927L549.941 39.2507C549.969 39.3207 549.969 39.3627 549.969 39.3767C549.969 39.3907 549.969 39.4467 549.899 39.5587C549.689 39.8807 549.423 40.1467 549.003 40.1467C548.177 40.1467 548.009 39.3067 547.477 39.3067C546.917 39.3067 546.777 39.8527 546.777 40.2587C546.777 41.1267 547.379 41.6727 548.303 41.6727C550.053 41.6727 551.047 40.0347 551.621 38.6487C552.083 37.5287 552.727 35.8627 553.245 34.6727C553.455 34.1687 553.693 33.5947 553.987 33.1607C554.351 32.6287 554.645 32.5167 554.855 32.3627C554.981 32.2787 555.065 32.1807 555.065 32.0267C555.065 31.7747 554.813 31.6627 554.519 31.6627ZM559.731 38.0467C558.849 38.0467 558.149 37.1647 558.135 35.4567C558.135 33.8327 558.821 33.0347 559.731 33.0347C560.627 33.0347 561.299 34.0147 561.299 35.5687C561.299 36.9127 560.851 38.0467 559.731 38.0467ZM561.971 31.9007C561.509 31.6347 561.033 31.5087 560.585 31.5087C559.703 31.5087 558.891 31.9707 558.373 32.6147C558.331 32.6707 558.289 32.6987 558.247 32.6987C558.191 32.6987 558.149 32.6427 558.149 32.5447V31.9847C558.149 31.6067 557.967 31.5087 557.785 31.5087C557.645 31.5087 557.505 31.5647 557.421 31.5927C556.917 31.7747 556.147 31.9987 555.503 32.1527C555.181 32.2367 555.041 32.3487 555.041 32.5587C555.041 32.7827 555.321 32.8527 555.475 32.9227C555.755 33.0347 555.923 33.1607 555.993 33.3847C556.063 33.6087 556.077 33.9027 556.077 34.3087C556.077 34.3087 556.077 37.9207 556.077 38.8727C556.077 39.8107 556.007 40.1047 555.937 40.3007C555.853 40.5387 555.699 40.7347 555.433 40.9027C555.251 41.0147 555.083 41.0847 555.083 41.3087C555.083 41.5467 555.321 41.6727 555.615 41.6727H558.611C558.905 41.6727 559.143 41.5467 559.143 41.3087C559.143 41.0847 558.975 41.0147 558.793 40.9027C558.527 40.7347 558.373 40.5387 558.289 40.3007C558.219 40.1187 558.149 39.8387 558.149 38.9987V38.8447C558.149 38.7887 558.177 38.7747 558.205 38.7747C558.303 38.7747 558.877 39.1247 559.843 39.1247C562.181 39.1247 563.497 36.9967 563.497 34.9387C563.497 33.7207 563.035 32.5307 561.971 31.9007ZM566.426 34.0147C566.58 33.1327 567.14 32.5587 567.924 32.5587C568.638 32.5587 569.058 33.1327 569.058 33.6507C569.058 34.1827 568.68 34.2667 568.176 34.2667C568.176 34.2667 566.58 34.2667 566.552 34.2667C566.454 34.2667 566.412 34.2107 566.412 34.1407C566.412 34.1127 566.412 34.0987 566.426 34.0147ZM570.682 37.1227C570.346 37.1227 569.954 37.6967 568.848 37.6967C568.008 37.6967 567.28 37.3887 566.804 36.6467C566.51 36.1847 566.454 35.7367 566.44 35.5967C566.426 35.4847 566.426 35.4567 566.426 35.4287C566.426 35.3307 566.496 35.3027 566.58 35.3027H569.94C570.766 35.3027 571.13 35.1767 571.13 34.3647C571.13 32.6147 569.576 31.5087 567.994 31.5087C565.81 31.5087 564.256 33.4127 564.256 35.5127C564.256 37.7107 565.796 39.1247 567.84 39.1247C568.68 39.1247 569.52 38.8727 570.15 38.4527C570.57 38.1727 570.99 37.7247 570.99 37.4167C570.99 37.2487 570.836 37.1227 570.682 37.1227ZM571.771 37.0247C571.771 37.5427 571.883 38.1867 572.247 38.5087C572.639 38.8307 573.549 39.1247 574.543 39.1247C575.327 39.1247 576.153 38.9427 576.825 38.4667C577.539 37.9627 577.833 37.2907 577.833 36.6467C577.833 33.9727 573.871 34.5327 573.871 33.3147C573.871 32.8807 574.249 32.5587 574.837 32.5587C575.677 32.5587 576.125 33.1607 576.405 33.5807C576.601 33.8747 576.741 33.9447 576.923 33.9447C577.399 33.9447 577.483 33.6647 577.483 33.0627C577.483 32.6567 577.371 32.1247 576.853 31.8447C576.545 31.6907 575.873 31.5087 575.117 31.5087C573.521 31.5087 572.009 32.3767 572.009 34.0007C572.009 36.6327 575.859 35.9047 575.859 37.2207C575.859 37.7667 575.243 38.0047 574.809 38.0047C574.235 38.0047 573.661 37.7107 573.157 37.0667C572.779 36.5907 572.611 36.3247 572.303 36.3247C571.883 36.3247 571.771 36.6747 571.771 37.0247ZM587.311 35.6807C587.311 37.0527 586.709 38.3967 585.323 38.3967C583.951 38.3967 583.041 36.7867 583.041 34.8547C583.041 33.3007 583.797 32.2087 585.029 32.2087C586.597 32.2087 587.311 34.0707 587.311 35.6807ZM585.225 31.5087C583.097 31.5087 581.613 33.2587 581.613 35.3727C581.613 37.6547 583.055 39.1247 585.183 39.1247C587.269 39.1247 588.739 37.3747 588.739 35.2747C588.739 33.1607 587.451 31.5087 585.225 31.5087ZM594.841 28.7507C594.631 28.5967 594.323 28.5127 593.945 28.5127C592.895 28.5127 590.935 29.0867 590.809 31.7747C590.809 31.8727 590.767 31.9147 590.655 31.9147C590.487 31.9147 589.787 31.9147 589.787 31.9147C589.675 31.9147 589.619 31.9567 589.619 32.0687V32.5447C589.619 32.6567 589.689 32.6987 589.787 32.6987C589.787 32.6987 590.571 32.6987 590.655 32.6987C590.753 32.6987 590.795 32.7267 590.795 32.8107V36.5207C590.795 37.1787 590.767 37.6127 590.655 37.8927C590.417 38.4527 589.913 38.3827 589.913 38.7047C589.913 38.9007 590.081 38.9707 590.305 38.9707H592.615C592.825 38.9707 593.007 38.9007 593.007 38.7047C593.007 38.3967 592.517 38.4527 592.293 37.9487C592.167 37.6687 592.125 37.2207 592.125 36.5207V32.8667C592.125 32.7407 592.167 32.6987 592.307 32.6987C592.531 32.6987 592.769 32.6987 593.035 32.7127C593.371 32.7267 593.651 32.7547 593.917 32.7547C594.253 32.7547 594.463 32.7267 594.533 32.3207C594.547 32.2367 594.575 32.1247 594.575 32.0407C594.575 31.8167 594.323 31.8167 594.183 31.8167C593.889 31.8167 593.511 31.8867 593.175 31.9007C592.839 31.9147 592.517 31.9147 592.265 31.9147C592.167 31.9147 592.125 31.8727 592.125 31.7747C592.125 30.8507 592.209 29.3387 593.273 29.3387C594.099 29.3387 594.379 30.3047 594.813 30.3047C595.107 30.3047 595.191 30.0807 595.191 29.7167C595.191 29.4507 595.149 28.9887 594.841 28.7507ZM604.412 37.4587C604.412 37.3187 604.314 37.1927 604.16 37.1927C603.838 37.1927 603.362 38.1307 602.116 38.1307C600.52 38.1307 599.806 36.6467 599.806 35.1067C599.806 33.3287 600.73 32.2647 601.822 32.2647C602.564 32.2647 602.998 32.7827 603.208 33.1327C603.418 33.4827 603.488 33.8187 603.81 33.8187C604.076 33.8187 604.216 33.6227 604.216 32.9647C604.216 32.6287 604.16 32.2367 603.95 32.0267C603.586 31.6487 602.774 31.5087 602.214 31.5087C599.876 31.5087 598.406 33.5807 598.406 35.7507C598.406 37.8507 599.82 39.1247 601.598 39.1247C603.446 39.1247 604.412 37.8367 604.412 37.4587ZM610.991 35.6807C610.991 37.0527 610.389 38.3967 609.003 38.3967C607.631 38.3967 606.721 36.7867 606.721 34.8547C606.721 33.3007 607.477 32.2087 608.709 32.2087C610.277 32.2087 610.991 34.0707 610.991 35.6807ZM608.905 31.5087C606.777 31.5087 605.293 33.2587 605.293 35.3727C605.293 37.6547 606.735 39.1247 608.863 39.1247C610.949 39.1247 612.419 37.3747 612.419 35.2747C612.419 33.1607 611.131 31.5087 608.905 31.5087ZM620.411 34.2807C620.411 33.3007 620.243 32.7967 619.935 32.3767C619.557 31.8587 618.899 31.5087 618.101 31.5087C617.051 31.5087 616.267 32.0827 615.833 32.7267C615.805 32.7687 615.791 32.7967 615.763 32.7967C615.735 32.7967 615.721 32.7687 615.721 32.7267V31.9007C615.721 31.6347 615.595 31.5087 615.413 31.5087C615.329 31.5087 615.245 31.5367 615.147 31.5787C614.783 31.7467 614.363 31.8867 613.845 31.9987C613.523 32.0687 613.453 32.1667 613.453 32.3207C613.453 32.6287 614.041 32.5587 614.265 32.8947C614.391 33.0767 614.405 33.3287 614.405 33.7767V36.5067C614.405 37.1927 614.363 37.6687 614.237 37.9487C614.027 38.3967 613.523 38.4107 613.523 38.7047C613.523 38.9007 613.691 38.9707 613.901 38.9707H616.225C616.435 38.9707 616.603 38.9007 616.603 38.7047C616.603 38.4527 616.155 38.4107 615.917 38.0047C615.763 37.7387 615.721 37.2207 615.721 36.5067C615.721 34.3507 615.847 33.5947 616.379 33.0627C616.715 32.7267 617.163 32.5727 617.583 32.5727C618.409 32.5727 619.053 33.1047 619.053 34.3227V36.5067C619.053 37.2067 619.011 37.7107 618.871 37.9767C618.647 38.4107 618.171 38.4247 618.171 38.7047C618.171 38.9007 618.353 38.9707 618.563 38.9707H620.915C621.125 38.9707 621.307 38.9007 621.307 38.7047C621.307 38.4527 620.859 38.3967 620.621 38.0327C620.453 37.7667 620.411 37.2347 620.411 36.5067V34.2807ZM626.792 37.5007C626.526 37.5007 626.26 38.0467 625.532 38.0467C624.986 38.0467 624.524 37.7387 624.426 36.6327C624.37 35.9887 624.37 35.5267 624.37 35.0087C624.37 34.5887 624.412 33.0487 624.412 32.8667C624.412 32.7547 624.468 32.6987 624.58 32.6987C624.832 32.6987 625.056 32.6987 625.336 32.7127C625.672 32.7267 625.98 32.7687 626.232 32.7687C626.596 32.7687 626.778 32.6707 626.834 32.3347C626.848 32.2367 626.876 32.1387 626.876 32.0687C626.876 31.8867 626.736 31.8167 626.428 31.8167C626.134 31.8167 625.742 31.8587 625.448 31.8867C625.126 31.9147 624.944 31.9147 624.734 31.9147C624.482 31.9147 624.426 31.8447 624.426 31.5927V30.1367C624.426 30.0387 624.37 29.9827 624.258 29.9827H623.684C623.572 29.9827 623.53 30.0387 623.502 30.1507C623.404 30.6127 623.348 30.9907 623.18 31.2707C623.012 31.5507 622.704 31.7467 622.088 31.9147C621.99 31.9427 621.948 31.9987 621.948 32.0827V32.5307C621.948 32.6427 622.004 32.6987 622.102 32.6987H622.984C623.082 32.6987 623.124 32.7407 623.124 32.8387C623.124 34.2247 623.026 35.4847 623.026 36.7167C623.026 37.4307 623.138 38.0047 623.418 38.3827C623.754 38.8447 624.258 39.1247 624.944 39.1247C625.602 39.1247 626.162 38.8587 626.54 38.5227C626.834 38.2707 627.044 37.9487 627.044 37.7387C627.044 37.5987 626.932 37.5007 626.792 37.5007ZM629.272 34.1827C629.44 33.1467 630.154 32.1947 631.274 32.1947C632.268 32.1947 632.828 32.9647 632.828 33.6087C632.828 34.2527 632.464 34.4207 631.652 34.4207C631.652 34.4207 629.468 34.4207 629.37 34.4207C629.286 34.4207 629.258 34.4067 629.258 34.3367C629.258 34.3227 629.258 34.2947 629.272 34.1827ZM633.794 37.1647C633.458 37.1647 632.898 38.1167 631.526 38.1167C630.042 38.1167 629.202 36.8007 629.202 35.3307V35.2607C629.202 35.1627 629.258 35.1207 629.356 35.1207C629.454 35.1207 633.15 35.1207 633.15 35.1207C633.836 35.1067 634.256 34.9807 634.256 34.1267C634.256 33.1467 633.416 31.5087 631.4 31.5087C629.23 31.5087 627.774 33.4827 627.774 35.5267C627.774 37.4447 629.034 39.1247 631.176 39.1247C633.038 39.1247 634.102 37.8507 634.102 37.4587C634.102 37.2627 633.962 37.1647 633.794 37.1647ZM642.18 34.2807C642.18 33.3007 642.012 32.7967 641.704 32.3767C641.326 31.8587 640.668 31.5087 639.87 31.5087C638.82 31.5087 638.036 32.0827 637.602 32.7267C637.574 32.7687 637.56 32.7967 637.532 32.7967C637.504 32.7967 637.49 32.7687 637.49 32.7267V31.9007C637.49 31.6347 637.364 31.5087 637.182 31.5087C637.098 31.5087 637.014 31.5367 636.916 31.5787C636.552 31.7467 636.132 31.8867 635.614 31.9987C635.292 32.0687 635.222 32.1667 635.222 32.3207C635.222 32.6287 635.81 32.5587 636.034 32.8947C636.16 33.0767 636.174 33.3287 636.174 33.7767V36.5067C636.174 37.1927 636.132 37.6687 636.006 37.9487C635.796 38.3967 635.292 38.4107 635.292 38.7047C635.292 38.9007 635.46 38.9707 635.67 38.9707H637.994C638.204 38.9707 638.372 38.9007 638.372 38.7047C638.372 38.4527 637.924 38.4107 637.686 38.0047C637.532 37.7387 637.49 37.2207 637.49 36.5067C637.49 34.3507 637.616 33.5947 638.148 33.0627C638.484 32.7267 638.932 32.5727 639.352 32.5727C640.178 32.5727 640.822 33.1047 640.822 34.3227V36.5067C640.822 37.2067 640.78 37.7107 640.64 37.9767C640.416 38.4107 639.94 38.4247 639.94 38.7047C639.94 38.9007 640.122 38.9707 640.332 38.9707H642.684C642.894 38.9707 643.076 38.9007 643.076 38.7047C643.076 38.4527 642.628 38.3967 642.39 38.0327C642.222 37.7667 642.18 37.2347 642.18 36.5067V34.2807ZM648.561 37.5007C648.295 37.5007 648.029 38.0467 647.301 38.0467C646.755 38.0467 646.293 37.7387 646.195 36.6327C646.139 35.9887 646.139 35.5267 646.139 35.0087C646.139 34.5887 646.181 33.0487 646.181 32.8667C646.181 32.7547 646.237 32.6987 646.349 32.6987C646.601 32.6987 646.825 32.6987 647.105 32.7127C647.441 32.7267 647.749 32.7687 648.001 32.7687C648.365 32.7687 648.547 32.6707 648.603 32.3347C648.617 32.2367 648.645 32.1387 648.645 32.0687C648.645 31.8867 648.505 31.8167 648.197 31.8167C647.903 31.8167 647.511 31.8587 647.217 31.8867C646.895 31.9147 646.713 31.9147 646.503 31.9147C646.251 31.9147 646.195 31.8447 646.195 31.5927V30.1367C646.195 30.0387 646.139 29.9827 646.027 29.9827H645.453C645.341 29.9827 645.299 30.0387 645.271 30.1507C645.173 30.6127 645.117 30.9907 644.949 31.2707C644.781 31.5507 644.473 31.7467 643.857 31.9147C643.759 31.9427 643.717 31.9987 643.717 32.0827V32.5307C643.717 32.6427 643.773 32.6987 643.871 32.6987H644.753C644.851 32.6987 644.893 32.7407 644.893 32.8387C644.893 34.2247 644.795 35.4847 644.795 36.7167C644.795 37.4307 644.907 38.0047 645.187 38.3827C645.523 38.8447 646.027 39.1247 646.713 39.1247C647.371 39.1247 647.931 38.8587 648.309 38.5227C648.603 38.2707 648.813 37.9487 648.813 37.7387C648.813 37.5987 648.701 37.5007 648.561 37.5007Z" fill="#004C12"/>
</svg>
