<svg width="65" height="65" viewBox="0 0 65 65" fill="none" xmlns="http://www.w3.org/2000/svg">
<rect x="0.664062" y="0.277344" width="64" height="64" rx="32" fill="#D2E823"/>
<path d="M32.436 44.448C30.7933 44.448 29.356 44.168 28.124 43.608C26.892 43.0293 25.9493 42.2173 25.296 41.172C24.6427 40.1267 24.3253 38.8947 24.344 37.476H28.32C28.32 38.5213 28.6933 39.352 29.44 39.968C30.2053 40.5653 31.2227 40.864 32.492 40.864C33.332 40.8453 34.06 40.7147 34.676 40.472C35.3107 40.2293 35.7867 39.884 36.104 39.436C36.44 38.9693 36.608 38.4187 36.608 37.784C36.608 37.112 36.3747 36.524 35.908 36.02C35.4413 35.516 34.76 35.124 33.864 34.844C32.9867 34.564 31.9507 34.424 30.756 34.424V31.344C31.8013 31.344 32.688 31.232 33.416 31.008C34.1627 30.7653 34.732 30.42 35.124 29.972C35.516 29.524 35.712 28.9827 35.712 28.348C35.712 27.62 35.404 27.0133 34.788 26.528C34.172 26.0427 33.3973 25.8 32.464 25.8C31.3813 25.8 30.504 26.0613 29.832 26.584C29.16 27.1067 28.8147 27.788 28.796 28.628H24.988C24.9693 27.396 25.2773 26.2947 25.912 25.324C26.5467 24.3533 27.424 23.5973 28.544 23.056C29.6827 22.5147 30.9707 22.244 32.408 22.244C33.752 22.244 34.9747 22.5053 36.076 23.028C37.196 23.5507 38.064 24.2693 38.68 25.184C39.3147 26.0987 39.632 27.116 39.632 28.236C39.632 29.2253 39.408 30.0933 38.96 30.84C38.5307 31.5867 37.896 32.1747 37.056 32.604C36.216 33.0147 35.208 33.2573 34.032 33.332V32.072C35.3573 32.0907 36.5147 32.352 37.504 32.856C38.4933 33.3413 39.2493 34.0133 39.772 34.872C40.3133 35.7307 40.584 36.7387 40.584 37.896C40.584 39.2027 40.248 40.3507 39.576 41.34C38.904 42.3293 37.952 43.0947 36.72 43.636C35.5067 44.1773 34.0787 44.448 32.436 44.448Z" fill="#1E2330"/>
</svg>
