<svg width="160" height="159" viewBox="0 0 160 159" fill="none" xmlns="http://www.w3.org/2000/svg">
<g filter="url(#filter0_d_7209_33450)">
<mask id="mask0_7209_33450" style="mask-type:alpha" maskUnits="userSpaceOnUse" x="9" y="5" width="142" height="148">
<path d="M68.4805 10.3261C74.7202 4.28986 84.6227 4.28987 90.8624 10.3261L93.7125 13.0834C97.2806 16.5352 102.242 18.1472 107.158 17.4519L111.084 16.8965C119.68 15.6807 127.691 21.5013 129.191 30.0523L129.876 33.9582C130.734 38.848 133.801 43.0684 138.186 45.3952L141.689 47.2538C149.358 51.3228 152.418 60.7407 148.605 68.5403L146.864 72.1029C144.684 76.5631 144.684 81.7798 146.864 86.2399L148.605 89.8026C152.418 97.6022 149.358 107.02 141.689 111.089L138.186 112.948C133.801 115.274 130.734 119.495 129.876 124.385L129.191 128.291C127.691 136.842 119.68 142.662 111.084 141.446L107.158 140.891C102.242 140.196 97.2806 141.808 93.7125 145.26L90.8624 148.017C84.6227 154.053 74.7202 154.053 68.4805 148.017L65.6304 145.26C62.0622 141.808 57.1009 140.196 52.1853 140.891L48.2588 141.446C39.6628 142.662 31.6515 136.842 30.1515 128.291L29.4664 124.385C28.6086 119.495 25.5423 115.274 21.1569 112.948L17.6538 111.089C9.98485 107.02 6.92481 97.6022 10.7375 89.8026L12.479 86.2399C14.6593 81.7798 14.6592 76.5631 12.479 72.1029L10.7375 68.5403C6.9248 60.7407 9.98486 51.3228 17.6539 47.2538L21.1569 45.3952C25.5423 43.0684 28.6086 38.848 29.4664 33.9582L30.1515 30.0523C31.6515 21.5012 39.6628 15.6807 48.2588 16.8965L52.1853 17.4519C57.1009 18.1472 62.0622 16.5351 65.6304 13.0833L68.4805 10.3261Z" fill="#E0E2D9"/>
</mask>
<g mask="url(#mask0_7209_33450)">
<circle cx="81.6493" cy="78.9539" r="79.9539" fill="#43E660"/>
<rect x="124.3" y="6.28125" width="44.2633" height="181.38" transform="rotate(45 124.3 6.28125)" fill="#43EE63"/>
<rect x="167.13" y="34.9844" width="15.5823" height="181.38" transform="rotate(45 167.13 34.9844)" fill="#43EE63"/>
<path d="M43.1015 90.4499C41.042 90.4499 39.2425 89.96 37.7029 88.9803C36.1633 88.0005 34.9736 86.6209 34.1338 84.8413C33.314 83.0418 32.9041 80.9423 32.9041 78.5429C32.9041 76.1635 33.384 74.084 34.3437 72.3045C35.3035 70.505 36.6631 69.1253 38.4227 68.1655C40.2022 67.1858 42.2717 66.6959 44.6311 66.6959C46.6706 66.6959 48.4901 67.0658 50.0897 67.8056C51.7093 68.5255 52.999 69.5352 53.9587 70.8349C54.9185 72.1345 55.4684 73.6342 55.6083 75.3337H48.2302C48.0702 74.4739 47.6603 73.8041 47.0005 73.3242C46.3607 72.8244 45.5709 72.5744 44.6311 72.5744C43.7513 72.5744 42.9815 72.8144 42.3217 73.2942C41.6819 73.7741 41.192 74.4639 40.8521 75.3637C40.5122 76.2435 40.3422 77.3032 40.3422 78.5429C40.3422 79.8026 40.5322 80.8823 40.9121 81.7821C41.312 82.6619 41.8818 83.3417 42.6216 83.8216C43.3614 84.2815 44.2412 84.5114 45.261 84.5114C46.0008 84.5114 46.6606 84.3814 47.2405 84.1215C47.8203 83.8616 48.2702 83.4917 48.5901 83.0118C48.91 82.5319 49.07 81.972 49.07 81.3322H50.1197C50.1197 83.3117 49.8498 84.9813 49.3099 86.3409C48.7701 87.6806 47.9803 88.7003 46.9405 89.4002C45.9008 90.1 44.6211 90.4499 43.1015 90.4499ZM49.5499 80.3425L50.8995 81.7221H43.9413V76.8333H55.6683V90H49.5499V80.3425ZM62.4246 81.6621C62.4246 79.8426 62.6645 78.273 63.1444 76.9533C63.6243 75.6336 64.3041 74.6239 65.1839 73.9241C66.0836 73.2243 67.1434 72.8743 68.3631 72.8743C68.8229 72.8743 69.2328 72.9143 69.5927 72.9943C69.9726 73.0743 70.2626 73.1843 70.4625 73.3242V78.9928C70.2426 78.8328 69.8927 78.7029 69.4128 78.6029C68.9529 78.5029 68.523 78.4529 68.1231 78.4529C66.7035 78.4529 65.6537 78.8728 64.9739 79.7126C64.3141 80.5324 63.9842 81.8121 63.9842 83.5516L62.4246 81.6621ZM57.4458 73.3242H63.9842V77.6431V90H57.4458V73.3242ZM79.5148 90.4499C77.5353 90.4499 75.8558 90.09 74.4761 89.3702C73.0965 88.6303 72.0467 87.6006 71.3269 86.2809C70.6071 84.9413 70.2472 83.4017 70.2472 81.6621C70.2472 80.0025 70.5871 78.5129 71.2669 77.1933C71.9667 75.8736 73.0065 74.8239 74.3861 74.0441C75.7658 73.2643 77.4554 72.8743 79.4548 72.8743C81.2344 72.8743 82.804 73.1943 84.1637 73.8341C85.5433 74.4539 86.633 75.4637 87.4328 76.8633C88.2326 78.243 88.6325 80.0125 88.6325 82.172V82.7718H75.2559V79.9825H82.874L81.9442 80.6724C81.9442 80.0725 81.8442 79.5427 81.6443 79.0828C81.4443 78.6229 81.1444 78.253 80.7445 77.9731C80.3646 77.6931 79.9247 77.5532 79.4249 77.5532C78.865 77.5532 78.3951 77.7231 78.0152 78.063C77.6353 78.4029 77.3454 78.8828 77.1454 79.5027C76.9455 80.1025 76.8455 80.8223 76.8455 81.6621C76.8455 82.5019 76.9455 83.2017 77.1454 83.7616C77.3654 84.3014 77.6753 84.7213 78.0752 85.0213C78.4951 85.3012 79.005 85.4412 79.6048 85.4412C80.2646 85.4412 80.8045 85.2912 81.2244 84.9913C81.6643 84.6714 81.9342 84.2415 82.0342 83.7016H88.4526C88.5325 84.9013 88.2226 86.021 87.5228 87.0607C86.843 88.0805 85.8132 88.9003 84.4336 89.5201C83.0739 90.14 81.4343 90.4499 79.5148 90.4499ZM98.6268 90.4499C96.6473 90.4499 94.9677 90.09 93.5881 89.3702C92.2084 88.6303 91.1587 87.6006 90.4389 86.2809C89.719 84.9413 89.3591 83.4017 89.3591 81.6621C89.3591 80.0025 89.699 78.5129 90.3789 77.1933C91.0787 75.8736 92.1184 74.8239 93.4981 74.0441C94.8777 73.2643 96.5673 72.8743 98.5668 72.8743C100.346 72.8743 101.916 73.1943 103.276 73.8341C104.655 74.4539 105.745 75.4637 106.545 76.8633C107.345 78.243 107.744 80.0125 107.744 82.172V82.7718H94.3679V79.9825H101.986L101.056 80.6724C101.056 80.0725 100.956 79.5427 100.756 79.0828C100.556 78.6229 100.256 78.253 99.8565 77.9731C99.4766 77.6931 99.0367 77.5532 98.5368 77.5532C97.9769 77.5532 97.5071 77.7231 97.1272 78.063C96.7473 78.4029 96.4573 78.8828 96.2574 79.5027C96.0574 80.1025 95.9575 80.8223 95.9575 81.6621C95.9575 82.5019 96.0574 83.2017 96.2574 83.7616C96.4773 84.3014 96.7872 84.7213 97.1871 85.0213C97.607 85.3012 98.1169 85.4412 98.7168 85.4412C99.3766 85.4412 99.9164 85.2912 100.336 84.9913C100.776 84.6714 101.046 84.2415 101.146 83.7016H107.565C107.644 84.9013 107.335 86.021 106.635 87.0607C105.955 88.0805 104.925 88.9003 103.546 89.5201C102.186 90.14 100.546 90.4499 98.6268 90.4499ZM120.588 81.0323C120.588 80.0125 120.378 79.2427 119.958 78.7229C119.538 78.183 118.918 77.9131 118.099 77.9131C117.259 77.9131 116.629 78.183 116.209 78.7229C115.789 79.2427 115.579 80.0325 115.579 81.0923L113.93 80.7623C113.93 79.1228 114.19 77.7131 114.709 76.5334C115.229 75.3337 115.979 74.424 116.959 73.8041C117.959 73.1843 119.148 72.8743 120.528 72.8743C121.908 72.8743 123.087 73.1943 124.067 73.8341C125.047 74.4739 125.797 75.4037 126.317 76.6234C126.836 77.8431 127.096 79.3227 127.096 81.0623V90H120.588V81.0323ZM109.041 73.3242H115.579V76.7734V90H109.041V73.3242Z" fill="#254F1A"/>
</g>
</g>
<defs>
<filter id="filter0_d_7209_33450" x="0" y="-0.5" width="163.343" height="163.344" filterUnits="userSpaceOnUse" color-interpolation-filters="sRGB">
<feFlood flood-opacity="0" result="BackgroundImageFix"/>
<feColorMatrix in="SourceAlpha" type="matrix" values="0 0 0 0 0 0 0 0 0 0 0 0 0 0 0 0 0 0 127 0" result="hardAlpha"/>
<feOffset dx="4" dy="4"/>
<feComposite in2="hardAlpha" operator="out"/>
<feColorMatrix type="matrix" values="0 0 0 0 0 0 0 0 0 0 0 0 0 0 0 0 0 0 0.25 0"/>
<feBlend mode="normal" in2="BackgroundImageFix" result="effect1_dropShadow_7209_33450"/>
<feBlend mode="normal" in="SourceGraphic" in2="effect1_dropShadow_7209_33450" result="shape"/>
</filter>
</defs>
</svg>
