<svg width="600" height="709" viewBox="0 0 600 709" fill="none" xmlns="http://www.w3.org/2000/svg">
<path d="M421.012 468.461C423.589 473.222 427.141 477.257 431.35 480.204C434.055 482.31 436.522 484.79 438.687 487.582C437.02 489.086 435.688 491.004 434.787 493.199C433.885 495.394 433.436 497.813 433.471 500.287C425.192 500.147 419.939 494.325 413.053 492.297C406.675 490.087 400.59 486.768 395.028 482.465C394.188 483.061 393.534 483.928 393.145 484.962C392.756 485.995 392.649 487.151 392.836 488.29C395.406 509.814 398.428 531.263 400.312 552.936C402.218 566.293 400.117 579.716 394.345 591.064C393.858 591.516 393.289 591.85 392.673 592.047C392.058 592.244 391.406 592.3 390.755 592.211C390.105 592.123 389.47 591.892 388.885 591.532C388.299 591.172 387.776 590.689 387.345 590.112C385.346 587.773 383.533 585.243 381.93 582.555C374.185 568.716 368.808 553.481 366.095 537.689C365.687 536.011 365.107 534.38 364.369 532.832C360.682 535.24 359.149 540.428 353.572 540.473C350.31 535.694 351.369 529.776 351.405 524.202C351.44 518.63 352.319 513.763 352.799 508.75C353.417 507.637 353.805 506.373 353.937 505.043C354.069 503.714 353.941 502.351 353.562 501.048C352.031 502.974 351.072 505.402 350.805 508.025C347.612 513.905 344.807 520.058 342.412 526.436C341.229 529.234 339.486 531.66 337.31 533.534C335.134 535.408 332.581 536.681 329.84 537.261C327.18 532.803 325.322 527.838 324.379 522.666C322.247 524.167 320.765 526.572 320.238 529.378C318.025 539.229 313.692 548.191 307.61 555.504C303.994 560.333 302.06 561.464 294.661 563.081C291.176 566.76 291.865 571.719 290.76 576.025C288.541 585.272 287.488 594.784 285.686 604.103C283.991 612.911 281.663 621.51 278.722 629.818C277.2 634.052 273.209 636.828 272.52 641.206C270.782 641.662 268.923 641.436 267.244 640.564C265.564 639.692 264.162 638.225 263.265 636.401C257.611 628.154 254.552 618.134 254.603 608.032C254.191 596.422 255.25 584.905 257.749 573.825C258.735 569.715 259.106 565.461 259.759 561.23C262.631 555.291 264.537 548.776 265.391 541.973L257.565 560.432C256.148 563.506 254.567 566.475 252.83 569.322C249.186 574.659 243.998 578.382 238.075 579.911C236.479 579.33 235.15 578.847 234.886 577.234C233.796 571.859 233.548 566.366 234.153 561.008C235.912 549.758 239.435 538.99 242.094 527.908C244.259 518.881 247.626 509.971 249.259 500.75C249.968 498.31 250.915 495.979 252.084 493.799L256.211 484.129C254.344 482.572 253.597 483.576 252.517 484.46C248.417 487.995 245.074 492.285 241.285 496.332C236.024 502.646 229.228 507.103 221.642 509.212C218.623 507.635 220.806 503.96 218.716 501.524C215.076 501.392 211.499 502.13 208.222 503.69C201.549 505.116 194.617 505.059 187.807 503.52C185.405 503.285 184.228 501.261 182.737 499.042C188.56 485.92 200.398 479.057 212.013 471.314L215.196 463.774C217.047 463.889 217.657 463.154 216.977 461.47C216.539 461.649 216.151 461.944 215.845 462.332C215.539 462.719 215.322 463.189 215.213 463.701C209.159 464.529 205.872 469.797 201.408 473.04C192.718 479.134 186.069 487.566 177.032 493.295C163.806 501.728 151.103 510.99 137.516 518.812C130.82 523.369 123.304 526.33 115.405 527.522C112.313 527.754 110.634 527.222 109.739 524.024C114.285 513.654 120.811 504.629 128.883 497.556C137.25 489.19 146.164 481.262 155.29 473.651C158.297 470.911 161.097 467.902 163.666 464.649C168.95 458.593 173.836 452.391 179.518 446.48C186.71 439.232 194.701 433.032 203.32 428.01C204.458 427.47 205.422 426.579 206.107 425.434L208.191 424.277C209.256 424.249 210.261 423.828 211.055 423.079C211.848 422.33 212.385 421.294 212.583 420.13C210.109 421.704 207.486 420.589 206.431 423.477C206.389 423.691 206.3 423.888 206.173 424.05C206.046 424.212 205.885 424.335 205.702 424.408C198.756 425.696 191.985 427.777 185.492 430.619C181.302 432.31 177.008 433.705 172.635 434.797C172.649 432.329 171.773 430.254 172.855 427.855C178.348 425.957 183.652 423.508 188.705 420.537C189.837 420.953 191.042 420.887 192.081 420.349C193.121 419.81 193.919 418.841 194.317 417.632C193.444 417.352 192.536 417.311 191.67 417.51C190.805 417.709 190.007 418.142 189.345 418.774L184.625 417.056C183.91 412.806 187.393 410.642 189.571 407.286C186.514 406.588 183.397 407.057 180.723 408.614C171.738 413.004 163.192 418.363 155.199 424.621C146.456 430.934 137.166 435.613 128.214 441.292C127.575 441.837 126.801 442.155 125.98 442.211C125.16 442.265 124.33 442.055 123.586 441.603C120.82 434.452 124.106 427.986 128.375 421.64C136.647 410.587 146.708 401.411 158.078 394.546C159.235 392.733 156.899 391.324 158.823 389.63C163.427 386.438 168.477 384.079 173.801 382.634C179.363 382.137 184.708 380.362 189.509 377.418C190.373 377.733 191.304 378.071 192.246 377.457C191.943 376.309 190.943 376.264 190.025 376.169C187.764 374.149 184.664 375.016 182.193 375.074C180.648 375.229 179.07 374.984 177.58 374.359C176.09 373.734 174.725 372.744 173.59 371.464C157.301 379.101 141.048 386.592 125.074 394.424C113.385 400.064 101.86 405.925 90.2857 411.687C84.4488 414.178 78.3545 415.946 72.1064 416.961C70.8541 417.24 69.5298 417.039 68.3408 416.388C65.7367 413.685 67.8623 410.548 69.5597 408.293C72.6483 403.341 76.6629 399.23 81.3462 396.224C83.0314 395.439 84.4853 394.172 85.5714 392.544C86.6576 390.915 87.3403 388.978 87.5554 386.913C88.5938 381.085 90.1687 375.428 92.256 370.03C94.0168 362.691 97.8385 356.102 99.3334 348.666C102.606 336.249 107.063 324.336 112.63 313.127C108.667 311.139 105.099 308.204 102.186 304.538C104.159 300.229 104.159 300.229 111.281 296.756C111.658 296.423 111.993 296.035 112.28 295.603C114.56 288.717 118.486 282.76 123.647 278.354C124.324 277.643 124.885 276.81 125.513 276.001C126.193 276.009 126.837 275.741 127.328 275.245C127.819 274.749 128.123 274.059 128.184 273.302L129.437 273.2L129.13 272.37L128.135 273.204C127.772 273.003 127.361 272.965 126.991 273.099C126.621 273.233 126.321 273.528 126.156 273.92C119.015 275.097 112.308 278.115 106.547 282.744C95.9972 290.001 85.9754 298.142 76.5615 307.102C74.5987 309.726 71.9133 311.54 68.8848 312.287C66.9648 310.95 66.7848 309.289 67.5301 307.086C70.0361 299.77 74.0602 293.311 79.2839 288.222C86.2761 280.626 94.5706 274.682 103.726 270.705C108.39 268.762 113.284 267.488 118.297 266.911C124.555 265.522 131.017 265.184 137.474 265.911C138.107 266.048 138.75 266.034 139.362 265.872C139.974 265.71 140.54 265.402 141.025 264.969C145.86 262.034 150.542 258.81 155.052 255.311C152.411 251.557 149.549 248.121 147.506 244.584C146.798 243.362 145.735 242.443 144.512 241.998C143.29 241.553 141.992 241.612 140.858 242.165C134.301 243.796 127.589 244.746 120.806 245.001C117.028 245.44 113.151 244.504 109.738 242.329C114.164 231.412 124.635 228.44 134.08 223.419L131.406 215.582L117.646 210.574C116.805 208.353 117.822 207.127 119.539 205.997C126.439 201.697 134.716 200.675 142.629 203.149C147.016 204.746 151.337 206.319 155.26 207.746C156.928 206.518 156.908 205.394 156.034 204.517C151.347 197.813 147.414 190.508 144.335 182.782C138.158 171.46 132.562 159.777 127.575 147.794C126.223 144.889 125.566 141.676 125.67 138.488C125.774 135.299 126.637 132.251 128.168 129.657C129.497 130.14 130.739 130.991 132.298 130.521C131.918 128.787 131.353 127.225 129.338 126.89C124.91 121.847 120.278 117.049 116.12 111.785C112.107 107.293 109.099 101.808 107.37 95.8319C107.761 94.7084 108.453 93.7643 109.355 93.1237C110.256 92.4837 111.326 92.1772 112.423 92.2451C119.03 91.6661 125.756 93.4173 131.676 97.2578C140.562 103.728 148.669 111.514 155.762 120.388C157.178 122.021 158.12 124.119 160.212 125.04C160.174 125.236 160.172 125.44 160.204 125.642C160.237 125.844 160.305 126.039 160.404 126.216C160.502 126.392 160.63 126.548 160.779 126.673C160.928 126.797 161.096 126.889 161.274 126.943C160.781 128.998 160.463 130.318 163.422 130.039C163.446 128.132 163.483 126.47 162.011 125.376C161.664 125.164 161.336 124.912 161.035 124.621C161.521 123.514 161.73 122.263 161.64 120.998C161.55 119.732 161.165 118.495 160.524 117.413C157.189 109.777 154.767 101.728 153.326 93.4861C151.908 80.3204 152.134 67.1058 153.998 54.2299C155.559 47.0606 159.368 40.8977 164.749 36.8361C165.973 36.7636 167.209 37.1513 168.263 37.9389C169.316 38.727 170.128 39.8698 170.571 41.1897C174.348 49.744 176.466 59.0112 176.777 68.3465L177.458 73.9411C183.616 77.4083 189.028 82.4434 193.236 88.6209C192.708 90.8226 192.68 93.047 195.84 94.0375C196.368 91.8358 196.685 90.5149 195.15 89.0785C195.696 86.8031 196.224 84.6014 196.752 82.3997C198.812 73.8126 201.439 65.2729 203.933 56.6844C205.447 51.9476 208.504 48.1141 212.515 45.9224L217.581 45.2924C221.298 43.0546 222.097 37.9188 226.346 35.8747C227.26 35.8467 228.179 36.0876 229.013 36.573C229.847 37.0583 230.567 37.7716 231.103 38.6432C235.133 45.6236 237.659 53.4963 238.463 61.5911C240.533 83.0924 243.258 104.274 243.472 125.977C243.865 136.559 243.533 147.109 242.478 157.536C246.352 153.089 251.271 149.95 256.732 148.44C258.621 148.411 260.513 148.961 262.204 150.033C262.081 150.546 262.657 151.155 262.552 151.595C258.346 163.528 252.771 174.719 245.96 184.898C241.639 190.351 238.279 196.698 236.045 203.633C240.117 200.161 245.144 198.302 250.401 198.325C250.906 197.982 251.329 197.511 251.64 196.947C251.95 196.384 252.14 195.741 252.195 195.068C254.784 184.029 258.782 173.554 264.067 163.957C267.095 157.897 270.66 152.219 274.713 147.004C279.644 141.365 286.106 137.693 293.207 136.499C293.728 136.76 294.163 137.213 294.436 137.778C294.709 138.344 294.804 138.987 294.705 139.598C292.722 148.86 289.334 157.583 284.684 165.397C280.606 171.871 277.508 179.092 275.503 186.793C274.104 190.195 273.224 193.863 272.897 197.655C275.48 194.987 277.629 191.834 279.257 188.319C282.408 180.608 286.157 173.115 288.909 165.258C291.089 159.189 292.718 152.999 295.097 147.002C298.831 138.929 303.269 131.326 308.35 124.295C312.694 118.425 318.729 114.45 325.519 112.988C329.169 116.152 328.379 120.652 327.166 124.201C325.72 130.248 323.849 136.13 321.572 141.795C319.42 144.627 317.62 147.78 316.213 151.176C314.452 158.516 311.385 166.178 309.253 173.86C306.79 182.856 303.815 191.635 300.345 200.144C293.391 215.708 285.033 230.362 275.394 243.89C272.483 248.553 269.357 253.035 266.027 257.319L264.577 285.359C267.94 285.157 271.339 286.089 274.344 288.036C275.017 282.217 270.878 278.077 273.993 273.225C277.061 272.188 278.979 275.04 281.703 274.834C282.141 274.515 282.712 274.244 282.866 273.902C284.467 268.819 286.683 264.043 289.454 259.701C297.705 248.299 306.958 237.879 317.086 228.582L320.745 225.683C323.357 222.984 326.617 221.18 330.176 220.465C333.735 219.75 337.458 220.151 340.946 221.625C344.767 220.462 348.275 217.589 352.715 218.965C356.129 212.867 352.898 205.546 358.444 199.904C360.399 201.548 362.06 203.603 363.325 205.943C364.59 208.282 365.434 210.859 365.804 213.515C367.428 220.49 368.486 227.58 368.963 234.695C370.291 248.744 371.016 262.893 371.675 277.018C371.95 285.744 371.792 294.452 371.2 303.1C370.979 307.604 372.007 312.159 374.143 316.141C377.185 313.345 379.755 309.964 381.747 306.14C385.016 300.947 388.916 296.141 392.55 291.239C398.702 282.731 402.709 272.457 404.19 261.401C405.419 253.869 406.249 246.191 407.239 239.05C408.037 234.721 409.809 230.755 412.391 227.519C416.381 233.369 418.909 240.257 419.69 247.412C420.633 254.503 420.718 261.649 419.943 268.651C422.076 270.305 423.615 268.711 425.16 267.997C430.598 265.543 436.268 263.705 442.089 262.507C444.059 262.039 446.15 262.323 448.039 263.316C448.875 265.424 449.3 267.686 449.284 269.941C449.267 272.196 448.809 274.39 447.943 276.369C445.095 285.872 440.215 294.33 433.713 301.035C423.365 312.322 413.692 324.367 404.751 337.096L394.124 351.264C393.836 351.605 393.686 352.066 393.706 352.55C393.724 353.034 393.91 353.502 394.225 353.854C398.566 351.125 402.862 347.98 407.584 345.47C415.542 340.109 424.029 335.736 432.905 332.421C442.236 329.796 451.986 328.975 461.75 329.993C464.541 330.48 467.324 329.714 469.489 327.862C477.216 322.105 485.606 317.492 494.468 314.13C496.44 313.417 498.474 312.902 500.547 312.592C502.846 312.951 502.5 315.298 504.002 315.366C503.486 321.885 501.973 328.19 499.53 334.007C497.788 338.729 495.178 342.94 491.863 346.379C483.424 357.598 474.102 367.928 464 377.255C464 377.255 463.877 377.769 463.718 378.429C468.622 381.491 474.877 381.932 479.798 384.92C484.683 387.078 489.17 390.343 492.967 394.501C493.236 399.706 489.212 401.114 485.643 402.13C484.314 401.646 483.434 402.603 481.482 403.808C483.285 403.825 484.208 404.8 485.162 403.232C489.55 404.829 493.937 406.426 498.458 408.071C507.009 411.748 514.512 418.21 519.963 426.591C519.606 428.989 518.581 431.156 517.032 432.786C513.348 434.029 509.326 433.828 505.603 432.217C500.178 430.162 494.461 429.645 488.977 430.715C482.209 431.817 475.275 431.793 468.394 430.645C468.061 430.524 467.62 431.16 466.845 431.677C472.648 437.619 478.468 443.488 484.27 449.43C488.186 453.557 491.432 458.417 493.842 463.766C494.637 465.572 494.267 467.114 492.644 468.757C486.616 467.068 481.004 463.621 476.391 458.772C472.608 455.56 468.927 452.225 464.891 449.16C464.137 448.421 463.244 447.891 462.291 447.614C461.337 447.336 460.351 447.32 459.419 447.567C456.921 448.349 454.257 448.429 451.652 447.801C449.047 447.172 446.578 445.853 444.456 443.957C441.083 441.356 437.489 439.164 433.736 437.422C431.978 438.673 429.96 439.428 427.842 439.627C425.724 439.825 423.564 439.462 421.535 438.567C419.757 437.524 417.824 436.908 415.865 436.759C413.907 436.61 411.967 436.933 410.177 437.704C417.25 440.758 425.159 442.44 428.39 449.76C428.435 452.889 426.157 454.853 425.62 457.689C433.06 462.232 440.429 467.069 448.12 471.465C449.261 471.978 450.257 472.858 450.979 473.989C451.701 475.12 452.114 476.45 452.164 477.805C450.463 480.377 448.399 479.945 446.17 479.294C440.154 476.992 434.329 474.016 428.784 470.412C426.433 469.129 424.028 467.987 421.582 466.992C421.578 464.597 419.859 464.53 418.039 464.586C418.055 465.499 418.366 466.394 418.912 467.106C419.459 467.819 420.204 468.3 421.012 468.461ZM136.22 347.967C143.099 342.491 151.434 344.807 159.156 342.749C159.888 339.809 161.129 337.09 162.812 334.743C165.412 332.338 164.079 329.459 166.082 326.836C170.082 324.969 173.39 321.71 175.546 317.513C178.017 313.544 183.6 311.666 183.821 305.922L171.19 301.324C162.16 306.38 152.49 310.001 142.443 312.088C137.014 318.445 132.758 325.964 129.896 334.255C127.588 341.96 124.823 349.457 121.62 356.698C119.328 361.8 117.762 367.312 116.977 373.043C122.666 374.635 125.75 369.613 130.017 367.495C128.4 364.593 125.921 362.573 126.7 359.026C128.812 355.645 133.082 355.923 136.006 353.076C135.574 351.562 134.691 350.124 136.22 347.967ZM213.562 55.7199C208.886 59.8438 210.053 64.0192 208.423 67.4959C204.681 76.6946 202.174 86.5338 200.982 96.7072C199.855 102.445 200.363 108.539 202.434 114.153C204.228 118.961 205.653 123.913 206.69 128.95C209.149 140.697 211.204 152.617 213.277 164.464C213.496 165.661 213.83 166.979 216.11 166.213C216.782 149.371 215.841 132.387 213.301 115.555C211.275 101.561 210.589 87.4527 211.253 73.4735C211.503 68.2176 212.69 62.6646 213.694 55.7682L213.562 55.7199ZM244.458 222.496C242.392 220.83 240.018 219.746 237.552 219.344C232.82 224.005 230.354 230.37 225.643 234.64C226.969 239.513 229.074 244.121 231.851 248.231C233.903 252.33 234.323 257.51 238.714 261.502C241.939 248.871 243.866 235.787 244.458 222.496ZM401.286 375.337C401.403 376.656 402.148 377.166 402.786 376.92C410.859 373.772 418.6 369.75 425.907 364.907C426.518 364.617 427 364.077 427.258 363.391C427.516 362.704 427.532 361.918 427.305 361.186C417.934 364.271 409.151 369.047 401.286 375.337ZM263.878 294.601C262.913 301.033 262.146 306.34 265.874 311.287C267.626 309.534 268.821 307.182 269.296 304.553C267.905 301.014 267.465 297.423 263.948 294.307L263.878 294.601ZM180.446 247.077C178.588 242.171 176.906 240.442 170.284 237.314C173.531 240.651 173.806 246.735 180.446 247.077ZM251.79 277.194C246.618 280.977 245.414 283.891 247.765 286.741C248.954 285.1 251.133 284.456 251.864 282.009L251.79 277.194ZM238.127 263.044C238.127 263.044 238.127 263.044 238.459 263.165C238.791 263.286 239.013 262.968 238.964 262.87C238.915 262.772 239.123 262.209 238.299 262.628L238.127 263.044ZM215.221 418.776L214.632 419.121C214.632 419.121 214.545 419.487 214.842 419.755L215.549 419.215L215.221 418.776Z" fill="#D2E823"/>
</svg>
