<svg width="120" height="26" viewBox="0 0 120 26" fill="none" xmlns="http://www.w3.org/2000/svg">
<path d="M0 2.59035H3.38947V20.4471H12.7587V23.5867H0V2.59035ZM16.0931 2.59035C16.3681 2.58671 16.6412 2.63728 16.8967 2.73918C17.1522 2.84107 17.3851 2.9923 17.5821 3.18422C17.7791 3.37614 17.9364 3.60499 18.045 3.85771C18.1536 4.11043 18.2113 4.38207 18.2149 4.6571C18.2149 5.21985 17.9914 5.75956 17.5935 6.15748C17.1955 6.55541 16.6558 6.77896 16.0931 6.77896C15.5303 6.77896 14.9906 6.55541 14.5927 6.15748C14.1948 5.75956 13.9712 5.21985 13.9712 4.6571C13.9724 4.38135 14.0284 4.10859 14.1362 3.85476C14.2439 3.60092 14.4011 3.37109 14.5987 3.17868C14.7962 2.98628 15.0301 2.83516 15.2867 2.73415C15.5433 2.63313 15.8174 2.58425 16.0931 2.59035ZM14.4397 8.45992H17.6914V23.5867H14.4397V8.45992ZM19.5928 8.45992H22.8445V10.5542C23.8071 8.95594 25.4605 8.04657 27.6375 8.04657C31.1647 8.04657 33.3693 10.8022 33.3693 15.1837V23.5867H30.1176V15.4593C30.1176 12.621 28.8775 11.0227 26.6381 11.0227C24.1874 11.0227 22.8371 12.7036 22.8371 15.7349V23.5867H19.5854L19.5928 8.45992ZM35.0778 2.59035H38.3295V15.8727L44.3919 8.45992H48.4703L41.9945 16.038L48.4703 23.5867H44.3919L38.3295 16.2033V23.5867H35.0778V2.59035ZM49.7379 4.61117H53.0447V8.4691H56.9026V11.1697H53.0447V18.9663C53.0447 19.9602 53.651 20.5665 54.5879 20.5665H56.7667V23.5959H54.147C51.3086 23.5959 49.7379 21.9149 49.7379 18.9406V4.61117ZM58.3356 8.4691H61.5873V10.343C62.3864 8.91001 63.7367 8.05575 65.3901 8.05575C65.7717 8.03837 66.1536 8.08494 66.5199 8.19354V11.2248C66.122 11.1373 65.7146 11.1003 65.3074 11.1145C62.91 11.1145 61.5873 13.1354 61.5873 16.5983V23.5959H58.3356V8.4691ZM74.1237 8.05575C77.7061 8.05575 81.5916 10.2327 81.5916 16.3779V16.8188H69.9351C70.1849 19.5175 71.7538 21.0055 74.3717 21.0055C76.2456 21.0055 77.8438 19.9859 78.2021 18.5824H81.5089C81.1782 21.6118 78.0367 24.0092 74.3717 24.0092C69.6871 24.0092 66.7404 20.9504 66.7404 16.0196C66.7404 11.6289 69.5787 8.04657 74.1237 8.04657V8.05575ZM78.1194 14.1182C77.651 12.2444 76.1905 11.0594 74.1237 11.0594C72.1396 11.0594 70.7361 12.2719 70.1849 14.1182H78.1194ZM90.4097 8.05575C93.992 8.05575 97.8775 10.2327 97.8775 16.3779V16.8188H86.2211C86.4691 19.5175 88.0398 21.0055 90.6577 21.0055C92.5315 21.0055 94.1298 19.9859 94.4881 18.5824H97.7949C97.4642 21.6118 94.3227 24.0092 90.6577 24.0092C85.9731 24.0092 83.0245 20.9504 83.0245 16.0196C83.0245 11.6289 85.8628 8.04657 90.4097 8.04657V8.05575ZM94.4054 14.1182C93.9369 12.2444 92.4764 11.0594 90.4097 11.0594C88.4256 11.0594 87.0202 12.2719 86.4691 14.1182H94.4054Z" fill="black"/>
<path d="M98.6768 8.00061H104.491L100.358 4.06001L102.645 1.70851L106.586 5.75934V0H110.003V5.75934L113.943 1.7177L116.229 4.06001L112.097 7.99143H117.909V11.2431H112.064L116.223 15.2848L113.943 17.5811L108.294 11.9045L102.645 17.5811L100.358 15.2939L104.519 11.2523H98.6768V8.00061ZM106.576 15.9094H109.993V23.6252H106.576V15.9094Z" fill="black"/>
</svg>
