<svg xmlns="http://www.w3.org/2000/svg" viewBox="0 0 40 40" fill="none">
  <path stroke="#502274" stroke-linecap="round" stroke-linejoin="round" stroke-width="2.5" d="M13.107 7.071A12.442 12.442 0 0120 5c6.904 0 12.5 5.596 12.5 12.5 0 4.866-.926 9.515-2.613 13.78M9.571 10.607A12.442 12.442 0 007.5 17.5c0 2.446-.702 4.728-1.917 6.655m3.315 5.932A18.681 18.681 0 0013.75 17.5a6.25 6.25 0 1112.5 0c0 .878-.036 1.748-.107 2.608M20 17.5c0 6.204-2.26 11.88-6.001 16.251m11.056-7.66a31.11 31.11 0 01-4.142 8.882"/>
</svg>