<svg width="48" height="48" viewBox="0 0 48 48" fill="none" xmlns="http://www.w3.org/2000/svg">
<rect width="48" height="48" rx="16" fill="#DFE1E2"/>
<g clip-path="url(#clip0_7209_33484)">
<path d="M24 14.25V33.75" stroke="black" stroke-width="1.5" stroke-linecap="round" stroke-linejoin="round"/>
<path d="M29.25 20.25C29.25 19.7575 29.153 19.2699 28.9645 18.8149C28.7761 18.36 28.4999 17.9466 28.1517 17.5983C27.8034 17.2501 27.39 16.9739 26.9351 16.7855C26.4801 16.597 25.9925 16.5 25.5 16.5H22.5C21.5054 16.5 20.5516 16.8951 19.8483 17.5983C19.1451 18.3016 18.75 19.2554 18.75 20.25C18.75 21.2446 19.1451 22.1984 19.8483 22.9017C20.5516 23.6049 21.5054 24 22.5 24H26.25C27.2446 24 28.1984 24.3951 28.9017 25.0983C29.6049 25.8016 30 26.7554 30 27.75C30 28.7446 29.6049 29.6984 28.9017 30.4017C28.1984 31.1049 27.2446 31.5 26.25 31.5H21.75C20.7554 31.5 19.8016 31.1049 19.0983 30.4017C18.3951 29.6984 18 28.7446 18 27.75" stroke="black" stroke-width="1.5" stroke-linecap="round" stroke-linejoin="round"/>
</g>
<defs>
<clipPath id="clip0_7209_33484">
<rect width="24" height="24" fill="white" transform="translate(12 12)"/>
</clipPath>
</defs>
</svg>
