<svg width="65" height="65" viewBox="0 0 65 65" fill="none" xmlns="http://www.w3.org/2000/svg">
<rect x="0.333496" y="0.744141" width="64" height="64" rx="32" fill="#D2E823"/>
<path d="M35.6381 28.3492H35.6491M23.5381 36.0492L27.9381 31.6492C28.4397 31.1664 29.0088 30.9123 29.5881 30.9123C30.1674 30.9123 30.7364 31.1664 31.2381 31.6492L36.7381 37.1492M34.5381 34.9492L35.6381 33.8492C36.1397 33.3664 36.7088 33.1123 37.2881 33.1123C37.8674 33.1123 38.4364 33.3664 38.9381 33.8492L41.1381 36.0492M26.8381 23.9492H37.8381C39.6606 23.9492 41.1381 25.4267 41.1381 27.2492V38.2492C41.1381 40.0718 39.6606 41.5492 37.8381 41.5492H26.8381C25.0155 41.5492 23.5381 40.0718 23.5381 38.2492V27.2492C23.5381 25.4267 25.0155 23.9492 26.8381 23.9492Z" stroke="#1E2330" stroke-width="2.2" stroke-linecap="square"/>
</svg>
