<svg width="197" height="26" viewBox="0 0 197 26" fill="none" xmlns="http://www.w3.org/2000/svg">
<path d="M97.6516 10.284H85.3348V0.769821H81.6084V24.9304H85.3348V13.4818H97.6516V24.9304H101.339V0.769821H97.6516M61.3093 0.690866C59.956 0.651388 57.2102 0.651386 54.7783 0.651386V24.9107H58.5439V15.7123C59.4853 15.7123 61.427 15.6333 62.996 15.5938C65.1926 15.5544 70.9195 14.449 70.8803 7.79692C70.9391 0.296086 62.6822 0.690866 61.3093 0.690866ZM61.1132 12.4948H58.6223V3.75042H60.7405C61.7212 3.75042 67.5069 3.31615 67.6834 7.83639C67.9188 12.2777 63.349 12.4948 61.1132 12.4948ZM26.5556 0.651386L26.5948 24.9107H41.7162V21.7524H30.3605V13.5212H38.4017C38.4017 12.8304 38.3624 11.8237 38.4017 10.5012H30.3605V3.88859H41.7162C41.677 1.9739 41.7162 0.651386 41.7162 0.651386H26.5556ZM4.56976 6.5731C4.56976 2.60555 9.78673 2.44764 12.8659 4.99397C13.925 1.93442 14.0035 1.71729 14.0035 1.71729C5.02085 -2.6253 0.921794 3.11877 0.921794 6.79023C0.921794 15.5741 13.2974 13.6989 11.5126 19.8772C10.885 22.1275 6.90367 23.4105 2.3143 20.6075C1.98088 21.555 1.43172 22.6999 0.882568 23.8448C6.94289 27.0425 14.8076 25.5028 15.0625 18.91C15.4156 10.6196 4.56976 11.2118 4.56976 6.5731ZM163.511 7.46135C162.962 0.256605 156.019 0.809297 154.489 0.730341C153.214 0.690863 150.508 0.651386 148.174 0.651386V24.8712H151.94V14.6858C153.214 14.6858 153.626 14.6858 155.548 14.6069L162.413 24.8712H166.982L159.392 13.9752C161.432 13.2251 163.805 11.4684 163.511 7.46135ZM154.273 11.8434C153.43 11.8434 152.783 11.8434 151.94 11.8039V3.61224H153.92C154.862 3.61224 159.804 3.31616 160.236 7.2837C160.765 11.9816 155.293 11.8434 154.273 11.8434ZM188.36 0.690866H184.006L176.122 24.9501H179.848C181.025 20.5681 181.417 19.3245 181.417 19.3245L191.165 19.285C192.302 22.5222 193.146 24.9896 193.146 24.9896H197.01L188.36 0.690866ZM182.28 16.5413L186.085 4.55971H186.124L190.106 16.5018L182.28 16.5413ZM124.717 0C117.049 0 112.047 5.70458 112.047 12.7909C112.047 19.8772 117.049 25.5818 124.717 25.5818C132.386 25.5818 137.387 19.8772 137.387 12.7909C137.387 5.70458 132.386 0 124.717 0ZM124.717 22.088C119.088 22.088 115.911 17.9625 115.911 12.7909C115.911 7.67848 119.088 3.49381 124.717 3.49381C130.307 3.49381 133.523 7.61926 133.523 12.7909C133.523 17.9033 130.346 22.088 124.717 22.088Z" fill="#1E2330"/>
</svg>
