<svg width="86" height="29" viewBox="0 0 86 29" fill="none" xmlns="http://www.w3.org/2000/svg">
<path d="M1.288 20H2.772V11.068L6.216 20H7.994L11.424 11.096V20H12.908V9.332H10.598L7.112 18.558L3.612 9.332H1.288V20ZM16.8235 20.21C18.0555 20.21 19.0915 19.664 19.7635 18.754V20H21.1915V15.618C21.1915 13.434 19.8055 12.118 17.6915 12.118C15.7875 12.118 14.4435 13.294 14.2195 14.694H15.6895C15.8855 13.868 16.5995 13.406 17.5795 13.406C18.9655 13.406 19.7215 14.162 19.7635 15.492H17.2295C15.1995 15.492 13.9955 16.36 13.9955 17.928C13.9955 19.342 15.0735 20.21 16.8235 20.21ZM15.4095 17.816C15.4095 17.074 16.0255 16.668 17.4955 16.668H19.7215C19.4835 18.11 18.2515 18.95 17.0055 18.95C16.0395 18.95 15.4095 18.502 15.4095 17.816ZM22.7097 20H24.1377V16.29C24.1377 14.568 24.8657 13.462 26.2377 13.462C26.6717 13.462 27.0637 13.602 27.2457 13.77V12.328C26.9657 12.188 26.6997 12.118 26.2237 12.118C25.3557 12.118 24.5717 12.622 24.1377 13.406V12.328H22.7097V20ZM28.1889 20H29.6169V18.04L31.2549 16.374L33.7749 20H35.4269L32.1789 15.436L35.2589 12.328H33.3969L29.6169 16.192V9.332H28.1889V20ZM39.3839 20.21C41.2039 20.21 42.7159 19.006 42.9539 17.48H41.4979C41.2459 18.334 40.3919 18.908 39.3839 18.908C37.9419 18.908 37.0179 17.984 36.9059 16.486H43.0379V16.22C43.0379 13.434 41.2319 12.118 39.2579 12.118C36.9899 12.118 35.5199 13.882 35.5199 16.164C35.5199 18.614 37.0599 20.21 39.3839 20.21ZM36.9899 15.296C37.2699 14.162 38.1099 13.406 39.2579 13.406C40.4619 13.406 41.3159 14.148 41.4979 15.296H36.9899ZM46.6551 20.21C47.2291 20.21 47.7891 19.986 48.0551 19.65V18.474C47.7891 18.726 47.4251 18.894 47.0191 18.894C46.3891 18.894 46.1371 18.558 46.1371 17.746V13.518H48.1391V12.328H46.1371V10.396H44.7091V12.328H43.4211V13.518H44.7091V18.068C44.7091 19.412 45.4371 20.21 46.6551 20.21ZM53.1424 20.21C55.3124 20.21 56.7824 18.46 56.7824 16.15C56.7824 13.84 55.3124 12.118 53.1424 12.118C52.0644 12.118 51.1824 12.552 50.5524 13.28V12.328H49.1244V23.332H50.5524V19.034C51.1824 19.762 52.0644 20.21 53.1424 20.21ZM50.5524 16.15C50.5524 14.54 51.5184 13.392 52.9604 13.392C54.4164 13.392 55.4244 14.582 55.4244 16.15C55.4244 17.732 54.4164 18.922 52.9604 18.922C51.5184 18.922 50.5524 17.774 50.5524 16.15ZM58.035 20H59.463V9.332H58.035V20ZM63.586 20.21C64.818 20.21 65.854 19.664 66.526 18.754V20H67.954V15.618C67.954 13.434 66.568 12.118 64.454 12.118C62.55 12.118 61.206 13.294 60.982 14.694H62.452C62.648 13.868 63.362 13.406 64.342 13.406C65.728 13.406 66.484 14.162 66.526 15.492H63.992C61.962 15.492 60.758 16.36 60.758 17.928C60.758 19.342 61.836 20.21 63.586 20.21ZM62.172 17.816C62.172 17.074 62.788 16.668 64.258 16.668H66.484C66.246 18.11 65.014 18.95 63.768 18.95C62.802 18.95 62.172 18.502 62.172 17.816ZM72.918 20.21C74.766 20.21 76.18 19.048 76.516 17.354H75.06C74.822 18.32 73.968 18.908 72.918 18.908C71.504 18.908 70.454 17.774 70.454 16.15C70.454 14.554 71.49 13.406 72.918 13.406C73.94 13.406 74.794 13.98 75.046 14.918H76.516C76.18 13.21 74.724 12.118 72.918 12.118C70.664 12.118 69.082 13.868 69.082 16.15C69.082 18.544 70.734 20.21 72.918 20.21ZM81.186 20.21C83.006 20.21 84.518 19.006 84.756 17.48H83.3C83.048 18.334 82.194 18.908 81.186 18.908C79.744 18.908 78.82 17.984 78.708 16.486H84.84V16.22C84.84 13.434 83.034 12.118 81.06 12.118C78.792 12.118 77.322 13.882 77.322 16.164C77.322 18.614 78.862 20.21 81.186 20.21ZM78.792 15.296C79.072 14.162 79.912 13.406 81.06 13.406C82.264 13.406 83.118 14.148 83.3 15.296H78.792Z" fill="black"/>
</svg>
