<svg width="151" height="47" viewBox="0 0 151 47" fill="none" xmlns="http://www.w3.org/2000/svg">
<g clip-path="url(#clip0_9742_71734)">
<path d="M32.3465 5.4083C33.5212 2.82602 35.3349 1.28513 38.1974 1.14561C41.3652 0.991151 43.3221 2.64665 44.5454 5.52539C44.7235 5.17661 44.8406 4.94367 44.9602 4.71197C47.0803 0.586308 53.1019 -0.127461 56.0778 3.39031C57.1578 4.66713 57.4867 6.1993 57.5103 7.7975C57.5527 10.6414 57.524 13.4852 57.524 16.3291C57.524 19.5056 57.524 22.6808 57.5215 25.8572C57.5215 26.8314 57.245 27.1029 56.2559 27.1054C54.948 27.1079 53.64 27.1104 52.3321 27.1054C51.4676 27.1017 51.1798 26.8114 51.1798 25.9457C51.1798 21.2121 51.1885 16.4798 51.1836 11.7463C51.1836 11.0213 51.1699 10.2913 51.0877 9.57258C50.8323 7.36774 48.7184 6.36996 46.8063 7.52843C45.7487 8.16871 45.3264 9.17646 45.2118 10.3374C45.1296 11.1621 45.086 11.9929 45.0835 12.8225C45.0711 17.1612 45.0785 21.4999 45.0773 25.8386C45.0773 26.8376 44.8182 27.1042 43.8391 27.1066C42.51 27.1104 41.1821 27.1129 39.8529 27.1054C39.0333 27.1004 38.7368 26.7965 38.7368 25.9681C38.7356 21.1934 38.7505 16.4188 38.7269 11.6441C38.7231 10.8008 38.6397 9.94005 38.4578 9.11791C38.1725 7.82989 37.3454 7.13605 36.2031 7.05632C34.7008 6.95169 33.6582 7.45494 33.221 8.76289C32.8859 9.76815 32.6816 10.8631 32.6667 11.9219C32.6044 16.5297 32.633 21.1386 32.628 25.7476C32.628 26.8949 32.4101 27.1066 31.2366 27.1079C29.9698 27.1079 28.7042 27.1129 27.4373 27.1066C26.5791 27.1029 26.2863 26.8052 26.2863 25.9395C26.2851 18.2375 26.2851 10.5367 26.2863 2.83474C26.2863 1.92291 26.5604 1.64015 27.471 1.63267C28.6955 1.62271 29.92 1.62395 31.1457 1.63267C32.0638 1.63765 32.3403 1.91793 32.3453 2.82353C32.349 3.68554 32.3453 4.54754 32.3453 5.4083H32.3465Z" fill="#1E2330"/>
<path d="M76.1413 24.1837C75.4163 24.7741 74.71 25.4605 73.8991 25.9886C71.343 27.6541 68.549 27.8559 65.7263 26.9092C63.3408 26.1095 62.135 24.2285 61.7214 21.7957C61.0675 17.9578 62.6818 14.4849 66.0265 12.8966C67.2261 12.3274 68.5564 11.9698 69.8656 11.7058C71.4464 11.3869 73.0658 11.2436 74.6752 11.0842C75.1747 11.0344 75.3117 10.86 75.2768 10.3991C75.2407 9.92446 75.2718 9.44487 75.2507 8.96778C75.1485 6.748 73.7397 5.56336 71.5373 5.83616C69.8681 6.04295 68.8292 6.93485 68.3671 8.55796C68.1591 9.28792 67.8975 9.48349 67.1613 9.41C65.9231 9.28667 64.6849 9.15712 63.4492 9.01138C62.4614 8.89553 62.2334 8.55297 62.4639 7.58882C63.0717 5.04392 64.5379 3.15423 66.9308 2.10289C70.4062 0.57694 73.9739 0.446144 77.524 1.83382C80.1922 2.87645 81.5999 4.93679 81.6883 7.77443C81.7942 11.1552 81.8017 14.5397 81.7643 17.9217C81.7456 19.6033 82.199 21.0508 83.2354 22.3625C84.0264 23.3628 83.9729 23.5683 83.0075 24.3992C82.0794 25.1976 81.1589 26.0061 80.2321 26.8058C79.5146 27.4249 79.1222 27.456 78.462 26.7809C77.6548 25.955 76.9199 25.0594 76.1426 24.1824L76.1413 24.1837ZM75.2656 14.5783C73.9664 14.7813 72.7593 14.8561 71.6183 15.1712C69.2229 15.8314 68.1665 17.4446 68.382 19.921C68.478 21.0259 68.8865 21.9975 69.9578 22.4995C71.0503 23.0115 72.144 22.857 73.062 22.1271C73.6288 21.6774 74.1233 21.072 74.4883 20.4429C75.5098 18.679 75.232 16.7146 75.2656 14.5783Z" fill="#1E2330"/>
<path d="M15.3224 24.0749C14.8341 24.5134 14.3993 24.9207 13.9459 25.3069C11.3861 27.4881 8.41514 27.868 5.2885 27.0633C2.55301 26.3595 0.852669 23.9205 0.74305 20.9059C0.569902 16.1587 3.06872 12.9187 7.78358 11.9495C9.76794 11.5422 11.7959 11.3305 13.8101 11.0838C14.3047 11.0228 14.4517 10.8596 14.4155 10.3962C14.3732 9.85931 14.4056 9.3162 14.3545 8.78056C14.1502 6.63801 12.7289 5.52687 10.5938 5.847C8.98815 6.08742 7.8932 6.92949 7.47341 8.55509C7.27784 9.31371 7.02622 9.48561 6.28006 9.41087C5.02193 9.28506 3.76256 9.15551 2.50692 9.00229C1.5789 8.88893 1.36589 8.55883 1.57142 7.65946C2.27273 4.59386 4.19605 2.62819 7.12836 1.6628C10.2986 0.620169 13.4925 0.571587 16.6278 1.82473C19.2039 2.85366 20.6701 4.7994 20.7784 7.56977C20.908 10.8646 20.9354 14.1668 20.8743 17.4629C20.8382 19.4024 21.268 21.0965 22.5199 22.5951C23.1053 23.2964 23.0244 23.6265 22.3405 24.2182C21.3365 25.0864 20.3362 25.9609 19.3272 26.8241C18.6346 27.417 18.2435 27.442 17.6045 26.8029C16.9629 26.1614 16.3924 25.4464 15.802 24.755C15.6313 24.5557 15.498 24.324 15.3224 24.0724V24.0749ZM14.4081 16.6208C14.4081 16.1437 14.3894 15.6654 14.4143 15.1895C14.4342 14.7984 14.2723 14.6664 13.9011 14.705C13.1175 14.7884 12.3228 14.8021 11.5517 14.9479C8.45251 15.5321 6.99258 17.5738 7.58054 20.4376C7.96421 22.3073 9.60974 23.2229 11.401 22.5614C12.4088 22.189 13.0777 21.4503 13.5872 20.536C14.2673 19.314 14.3807 17.9774 14.4093 16.6208H14.4081Z" fill="#1E2330"/>
<path d="M137.729 5.99019C138.041 5.37109 138.258 4.9077 138.503 4.45801C140.058 1.60543 142.434 0.782039 145.486 1.26661C148.24 1.70259 150.095 3.74051 150.448 6.66908C150.633 8.20873 150.707 9.76956 150.717 11.3217C150.75 16.1798 150.73 21.0367 150.729 25.8948C150.729 26.8427 150.468 27.1031 149.507 27.1056C148.22 27.1093 146.932 27.1081 145.646 27.1056C144.648 27.1043 144.383 26.844 144.383 25.8636C144.383 21.1101 144.395 16.3554 144.369 11.6019C144.364 10.7586 144.267 9.89911 144.08 9.07821C143.846 8.05302 143.26 7.26825 142.134 7.05026C140.931 6.81732 139.955 7.21593 139.227 8.17012C138.498 9.1243 138.2 10.2616 138.142 11.43C138.053 13.1702 138.041 14.9142 138.032 16.6569C138.016 19.7287 138.028 22.8018 138.027 25.8736C138.027 26.824 137.753 27.1018 136.815 27.1043C135.486 27.1093 134.158 27.1105 132.829 27.1043C132.006 27.1006 131.687 26.7917 131.685 25.9832C131.68 18.2189 131.679 10.4547 131.68 2.69041C131.68 1.97166 131.976 1.64903 132.693 1.63657C134.021 1.61415 135.35 1.61664 136.679 1.63408C137.408 1.64404 137.678 1.943 137.685 2.67671C137.692 3.5275 137.685 4.37954 137.688 5.23033C137.688 5.4259 137.709 5.62272 137.729 5.98895V5.99019Z" fill="#1E2330"/>
<path d="M128.316 14.4326C128.187 17.5891 127.551 20.5563 125.764 23.1884C121.467 29.5176 112.336 29.0455 108.934 22.2018C106.381 17.0634 106.386 11.702 108.894 6.535C112.103 -0.0720407 119.79 0.116056 123.525 3.04961C125.768 4.81224 127.025 7.18026 127.638 9.89582C127.973 11.3844 128.096 12.9203 128.316 14.4338V14.4326ZM113.794 14.5185C113.843 14.526 113.894 14.5335 113.944 14.5409C113.997 15.4727 114.017 16.4082 114.11 17.335C114.246 18.679 114.458 20.0144 115.155 21.2065C116.29 23.146 118.854 23.2482 120.085 21.3647C120.484 20.7543 120.767 20.0294 120.936 19.3168C121.54 16.7844 121.426 14.2021 121.238 11.6385C121.148 10.4103 120.885 9.17582 120.539 7.99119C120.155 6.6795 119.152 6.02677 117.776 5.98441C116.484 5.9458 115.539 6.51382 114.953 7.65237C114.747 8.05472 114.526 8.48323 114.466 8.92171C114.211 10.7827 114.013 12.6525 113.794 14.5198V14.5185Z" fill="#1E2330"/>
<path d="M61.4257 46.0096C49.5033 45.9087 38.519 42.6924 28.6259 35.9845C26.4348 34.4984 24.4305 32.7358 22.344 31.094C22.0276 30.8448 21.771 30.4562 22.0836 30.146C22.2655 29.9654 22.8011 29.9479 23.0677 30.08C24.702 30.8897 26.2828 31.809 27.9233 32.6062C34.5453 35.8263 41.5024 38.0174 48.7559 39.2718C52.3721 39.8971 56.0107 40.2596 59.6817 40.4016C69.4104 40.7766 78.8352 39.2357 88.0108 36.058C89.4396 35.5634 90.8397 34.9817 92.2535 34.4436C92.4852 34.3551 92.7194 34.253 92.9611 34.2106C93.4743 34.1209 93.9028 34.2891 94.1856 34.7413C94.4696 35.1947 94.3126 35.6207 93.9626 35.9135C93.3609 36.418 92.7231 36.8863 92.0642 37.3161C86.3615 41.0394 80.0908 43.3588 73.4551 44.739C68.9894 45.6683 65.1751 46.0171 61.4244 46.0059L61.4257 46.0096Z" fill="#1E2330"/>
<path d="M96.2848 6.68398C93.6925 6.68398 91.2249 6.68398 88.7572 6.68398C87.6635 6.68398 87.443 6.46474 87.4418 5.3835C87.4418 4.44925 87.4343 3.51624 87.4442 2.58199C87.4517 1.88939 87.7432 1.59043 88.4271 1.58919C93.4272 1.5842 98.4286 1.5842 103.429 1.58919C104.126 1.58919 104.404 1.86573 104.419 2.57327C104.436 3.44399 104.526 4.3334 104.389 5.1817C104.286 5.82322 103.959 6.47222 103.586 7.01907C101.857 9.55525 100.078 12.0566 98.3165 14.5703C97.4719 15.7761 96.6261 16.9819 95.784 18.189C95.6694 18.3522 95.5685 18.5241 95.4552 18.701C96.7307 18.8131 97.9652 18.8853 99.1897 19.0398C100.828 19.2466 102.374 19.7648 103.845 20.5246C104.546 20.8871 104.896 21.414 104.882 22.21C104.864 23.2888 104.889 24.3675 104.874 25.4463C104.862 26.312 104.341 26.6347 103.562 26.2684C98.2965 23.797 93.0423 23.7883 87.7943 26.3282C87.1939 26.6185 86.6072 26.332 86.5935 25.668C86.5636 24.1969 86.5436 22.7195 86.662 21.2546C86.7106 20.6542 87.0332 20.0201 87.3857 19.5069C90.1835 15.4411 93.0186 11.4001 95.8413 7.35166C95.9696 7.16855 96.088 6.97921 96.2835 6.68149L96.2848 6.68398Z" fill="#1E2330"/>
<path d="M93.1286 31.1022C91.4407 31.2666 89.5062 31.456 87.5717 31.6453C87.5306 31.6491 87.4845 31.6702 87.4483 31.659C87.1905 31.5793 86.9339 31.4946 86.676 31.4111C86.7981 31.1894 86.8666 30.8942 87.0522 30.7584C87.5343 30.4046 88.0438 30.0695 88.5844 29.8154C91.493 28.4502 94.5661 28.0715 97.7363 28.4078C98.5548 28.495 99.3732 28.6594 100.165 28.8812C101.085 29.139 101.303 29.5053 101.329 30.4731C101.376 32.2383 100.989 33.9299 100.451 35.5916C99.7593 37.7217 98.7777 39.7011 97.2617 41.3765C96.8606 41.82 96.4022 42.2148 95.9363 42.5923C95.8043 42.6994 95.4555 42.7517 95.3845 42.672C95.2637 42.535 95.2014 42.2472 95.2587 42.0691C95.468 41.4189 95.7781 40.801 95.9762 40.1483C96.5878 38.1303 97.2418 36.121 97.7314 34.0744C98.1499 32.323 97.471 31.5008 95.6785 31.304C94.9186 31.2205 94.1525 31.1819 93.1298 31.1035L93.1286 31.1022Z" fill="#1E2330"/>
</g>
<defs>
<clipPath id="clip0_9742_71734">
<rect width="150" height="45.1381" fill="white" transform="translate(0.734619 0.872559)"/>
</clipPath>
</defs>
</svg>
