<svg width="110" height="56" viewBox="0 0 110 56" fill="none" xmlns="http://www.w3.org/2000/svg">
<path d="M33.024 30.0292L43.6732 0.872559H36.6339L31.7605 13.5254L32.8435 0.872559H25.4432L14.794 30.0292H21.6528L26.8872 15.9093L25.9847 29.6624L33.024 30.0292ZM41.3268 30.0292L51.976 0.872559H45.2977L34.468 30.0292H41.3268ZM60.6397 28.1954L60.2787 13.5254L70.3865 1.60606L60.6397 28.1954ZM109.734 17.9264L75.4403 26.9118L76.3428 24.1612H69.123L71.4694 17.1929H77.6063L79.4112 11.875L73.2744 12.2418L75.4403 6.3738H81.3967L83.3821 1.05593H64.0691L57.0298 9.49117L60.4592 0.872559H53.6004L42.9512 30.0292H49.9905L54.5029 17.5597V30.0292H63.5277L31.219 38.6478C27.8497 39.6257 24.8414 40.0537 22.1943 39.9314C19.547 39.8091 17.5014 39.0756 16.0575 37.7309C12.8086 35.286 11.6653 31.5572 12.6281 26.545C13.2296 23.2443 14.5532 20.0658 16.5989 17.0095C11.7857 22.144 8.23589 26.484 5.94974 30.0292C3.42281 33.819 1.79836 37.5475 1.07638 41.215C0.354398 44.8825 0.775493 47.8776 2.33984 50.2004C6.55133 57.2909 15.7566 57.7798 29.9556 51.6674L109.734 17.9264Z" fill="#1E2330"/>
</svg>
