<svg width="64" height="64" viewBox="0 0 64 64" fill="none" xmlns="http://www.w3.org/2000/svg">
<rect width="64" height="64" rx="32" fill="#D2E823"/>
<path fill-rule="evenodd" clip-rule="evenodd" d="M39.8738 25.8278L39.5224 26.267L30.5224 37.517L29.6628 37.5393L25.1628 32.4768L24.7891 32.0564L25.6299 31.309L26.0036 31.7294L30.0605 36.2935L38.6439 25.5642L38.9953 25.125L39.8738 25.8278Z" fill="black"/>
<path d="M39.5224 26.267L39.9617 26.6184V26.6184L39.5224 26.267ZM39.8738 25.8278L40.3131 26.1792L40.6644 25.7399L40.2252 25.3885L39.8738 25.8278ZM30.5224 37.517L30.537 38.0793L30.7984 38.0725L30.9617 37.8684L30.5224 37.517ZM29.6628 37.5393L29.2423 37.913L29.416 38.1084L29.6774 38.1016L29.6628 37.5393ZM25.1628 32.4768L25.5832 32.1031H25.5832L25.1628 32.4768ZM24.7891 32.0564L24.4154 31.636L23.9949 32.0097L24.3686 32.4301L24.7891 32.0564ZM25.6299 31.309L26.0503 30.9353L25.6766 30.5149L25.2562 30.8886L25.6299 31.309ZM26.0036 31.7294L25.5832 32.1031H25.5832L26.0036 31.7294ZM30.0605 36.2935L29.6401 36.6672L30.0832 37.1656L30.4998 36.6449L30.0605 36.2935ZM38.6439 25.5642L39.0832 25.9156V25.9156L38.6439 25.5642ZM38.9953 25.125L39.3467 24.6858L38.9075 24.3344L38.5561 24.7736L38.9953 25.125ZM39.9617 26.6184L40.3131 26.1792L39.4346 25.4764L39.0832 25.9156L39.9617 26.6184ZM30.9617 37.8684L39.9617 26.6184L39.0832 25.9156L30.0832 37.1656L30.9617 37.8684ZM29.6774 38.1016L30.537 38.0793L30.5078 36.9547L29.6482 36.977L29.6774 38.1016ZM24.7423 32.8505L29.2423 37.913L30.0832 37.1656L25.5832 32.1031L24.7423 32.8505ZM24.3686 32.4301L24.7423 32.8505L25.5832 32.1031L25.2095 31.6827L24.3686 32.4301ZM25.2562 30.8886L24.4154 31.636L25.1628 32.4768L26.0036 31.7294L25.2562 30.8886ZM26.424 31.3557L26.0503 30.9353L25.2095 31.6827L25.5832 32.1031L26.424 31.3557ZM30.481 35.9198L26.424 31.3557L25.5832 32.1031L29.6401 36.6672L30.481 35.9198ZM38.2047 25.2128L29.6213 35.9421L30.4998 36.6449L39.0832 25.9156L38.2047 25.2128ZM38.5561 24.7736L38.2047 25.2128L39.0832 25.9156L39.4346 25.4764L38.5561 24.7736ZM40.2252 25.3885L39.3467 24.6858L38.6439 25.5642L39.5224 26.267L40.2252 25.3885Z" fill="black"/>
</svg>
