<svg width="65" height="64" viewBox="0 0 65 64" fill="none" xmlns="http://www.w3.org/2000/svg">
<rect x="0.667969" width="64" height="64" rx="32" fill="#D2E823"/>
<path fill-rule="evenodd" clip-rule="evenodd" d="M28.5 27.5C28.5 25.0147 30.5147 23 33 23C35.4853 23 37.5 25.0147 37.5 27.5V28.625H40.3125L40.875 29.1875V40.4375L40.3125 41H25.6875L25.125 40.4375V29.1875L25.6875 28.625H28.5V27.5ZM36.375 27.5V28.625H29.625V27.5C29.625 25.636 31.136 24.125 33 24.125C34.864 24.125 36.375 25.636 36.375 27.5ZM26.25 29.75V39.875H39.75V29.75H26.25ZM34.125 34.8125C34.125 35.4338 33.6213 35.9375 33 35.9375C32.3787 35.9375 31.875 35.4338 31.875 34.8125C31.875 34.1912 32.3787 33.6875 33 33.6875C33.6213 33.6875 34.125 34.1912 34.125 34.8125Z" fill="black"/>
<path d="M37.5 28.625H36.9375C36.9375 28.9357 37.1893 29.1875 37.5 29.1875V28.625ZM40.3125 28.625L40.7102 28.2273C40.6048 28.1218 40.4617 28.0625 40.3125 28.0625V28.625ZM40.875 29.1875H41.4375C41.4375 29.0383 41.3782 28.8952 41.2727 28.7898L40.875 29.1875ZM40.875 40.4375L41.2727 40.8352C41.3782 40.7298 41.4375 40.5867 41.4375 40.4375H40.875ZM40.3125 41V41.5625C40.4617 41.5625 40.6048 41.5032 40.7102 41.3977L40.3125 41ZM25.6875 41L25.2898 41.3977C25.3952 41.5032 25.5383 41.5625 25.6875 41.5625V41ZM25.125 40.4375H24.5625C24.5625 40.5867 24.6218 40.7298 24.7273 40.8352L25.125 40.4375ZM25.125 29.1875L24.7273 28.7898C24.6218 28.8952 24.5625 29.0383 24.5625 29.1875H25.125ZM25.6875 28.625V28.0625C25.5383 28.0625 25.3952 28.1218 25.2898 28.2273L25.6875 28.625ZM28.5 28.625V29.1875C28.8107 29.1875 29.0625 28.9357 29.0625 28.625H28.5ZM36.375 28.625V29.1875C36.6857 29.1875 36.9375 28.9357 36.9375 28.625H36.375ZM29.625 28.625H29.0625C29.0625 28.9357 29.3143 29.1875 29.625 29.1875V28.625ZM26.25 39.875H25.6875C25.6875 40.1857 25.9393 40.4375 26.25 40.4375V39.875ZM26.25 29.75V29.1875C25.9393 29.1875 25.6875 29.4393 25.6875 29.75H26.25ZM39.75 39.875V40.4375C40.0607 40.4375 40.3125 40.1857 40.3125 39.875H39.75ZM39.75 29.75H40.3125C40.3125 29.4393 40.0607 29.1875 39.75 29.1875V29.75ZM33 22.4375C30.2041 22.4375 27.9375 24.7041 27.9375 27.5H29.0625C29.0625 25.3254 30.8254 23.5625 33 23.5625V22.4375ZM38.0625 27.5C38.0625 24.7041 35.7959 22.4375 33 22.4375V23.5625C35.1746 23.5625 36.9375 25.3254 36.9375 27.5H38.0625ZM38.0625 28.625V27.5H36.9375V28.625H38.0625ZM40.3125 28.0625H37.5V29.1875H40.3125V28.0625ZM41.2727 28.7898L40.7102 28.2273L39.9148 29.0227L40.4773 29.5852L41.2727 28.7898ZM41.4375 40.4375V29.1875H40.3125V40.4375H41.4375ZM40.7102 41.3977L41.2727 40.8352L40.4773 40.0398L39.9148 40.6023L40.7102 41.3977ZM25.6875 41.5625H40.3125V40.4375H25.6875V41.5625ZM24.7273 40.8352L25.2898 41.3977L26.0852 40.6023L25.5227 40.0398L24.7273 40.8352ZM24.5625 29.1875V40.4375H25.6875V29.1875H24.5625ZM25.2898 28.2273L24.7273 28.7898L25.5227 29.5852L26.0852 29.0227L25.2898 28.2273ZM28.5 28.0625H25.6875V29.1875H28.5V28.0625ZM27.9375 27.5V28.625H29.0625V27.5H27.9375ZM36.9375 28.625V27.5H35.8125V28.625H36.9375ZM29.625 29.1875H36.375V28.0625H29.625V29.1875ZM29.0625 27.5V28.625H30.1875V27.5H29.0625ZM33 23.5625C30.8254 23.5625 29.0625 25.3254 29.0625 27.5H30.1875C30.1875 25.9467 31.4467 24.6875 33 24.6875V23.5625ZM36.9375 27.5C36.9375 25.3254 35.1746 23.5625 33 23.5625V24.6875C34.5533 24.6875 35.8125 25.9467 35.8125 27.5H36.9375ZM26.8125 39.875V29.75H25.6875V39.875H26.8125ZM39.75 39.3125H26.25V40.4375H39.75V39.3125ZM39.1875 29.75V39.875H40.3125V29.75H39.1875ZM26.25 30.3125H39.75V29.1875H26.25V30.3125ZM33 36.5C33.932 36.5 34.6875 35.7445 34.6875 34.8125H33.5625C33.5625 35.1232 33.3107 35.375 33 35.375V36.5ZM31.3125 34.8125C31.3125 35.7445 32.068 36.5 33 36.5V35.375C32.6893 35.375 32.4375 35.1232 32.4375 34.8125H31.3125ZM33 33.125C32.068 33.125 31.3125 33.8805 31.3125 34.8125H32.4375C32.4375 34.5018 32.6893 34.25 33 34.25V33.125ZM34.6875 34.8125C34.6875 33.8805 33.932 33.125 33 33.125V34.25C33.3107 34.25 33.5625 34.5018 33.5625 34.8125H34.6875Z" fill="black"/>
</svg>
