<svg xmlns="http://www.w3.org/2000/svg" viewBox="0 0 40 40" fill="none">
  <path stroke="#502274" stroke-linecap="round" stroke-linejoin="round" stroke-width="2.5" d="M22.5 35V22.5c0-.69.56-1.25 1.25-1.25h5c.69 0 1.25.56 1.25 1.25V35m-7.5 0H3.935M22.5 35H30m0 0h6.065m-2.315 0V15.581M6.25 35V15.582m0 0a5.002 5.002 0 006.25-1.025 4.988 4.988 0 003.75 1.693A4.988 4.988 0 0020 14.557a4.988 4.988 0 003.75 1.693 4.988 4.988 0 003.75-1.692 5.002 5.002 0 006.25 1.024m-27.5 0a5 5 0 01-1.036-7.867l1.983-1.983A2.5 2.5 0 018.964 5h22.071a2.5 2.5 0 011.768.732l1.982 1.982a5 5 0 01-1.035 7.867M11.25 30h6.25c.69 0 1.25-.56 1.25-1.25V22.5c0-.69-.56-1.25-1.25-1.25h-6.25c-.69 0-1.25.56-1.25 1.25v6.25c0 .69.56 1.25 1.25 1.25z"/>
</svg>