<svg width="65" height="65" viewBox="0 0 65 65" fill="none" xmlns="http://www.w3.org/2000/svg">
<rect x="0.335938" y="0.277344" width="64" height="64" rx="32" fill="#D2E823"/>
<path d="M24.456 39.108C27.2187 37.596 29.4587 36.2053 31.176 34.936C32.912 33.6667 34.1907 32.4813 35.012 31.38C35.852 30.2787 36.272 29.2147 36.272 28.188C36.272 27.18 35.9267 26.3867 35.236 25.808C34.564 25.2107 33.6493 24.912 32.492 24.912C31.2787 24.912 30.2893 25.276 29.524 26.004C28.7587 26.7133 28.3853 27.6373 28.404 28.776H24.344C24.3067 27.376 24.6427 26.1067 25.352 24.968C26.0613 23.8107 27.0413 22.9053 28.292 22.252C29.5427 21.58 30.9333 21.244 32.464 21.244C34.0133 21.244 35.376 21.5427 36.552 22.14C37.728 22.7187 38.6427 23.54 39.296 24.604C39.968 25.6493 40.304 26.844 40.304 28.188C40.304 29.644 39.8187 31.1093 38.848 32.584C37.896 34.04 36.5147 35.4587 34.704 36.84C32.8933 38.2213 30.7187 39.5 28.18 40.676V39.444H40.416V43H24.456V39.108Z" fill="#1E2330"/>
</svg>
