<svg width="65" height="65" viewBox="0 0 65 65" fill="none" xmlns="http://www.w3.org/2000/svg">
<rect x="0.666748" y="0.744141" width="64" height="64" rx="32" fill="#D2E823"/>
<path fill-rule="evenodd" clip-rule="evenodd" d="M26.6547 23.7441H26.9732H39.0246H39.3431L39.5069 24.0173L41.9172 28.0354L41.9973 28.1689V28.3247V29.5295V29.5301V29.5339V29.5383V29.5427V29.5471V29.5516V29.5561V29.5606V29.5651V29.5697V29.5743V29.579V29.5836V29.5883V29.5931V29.5978V29.6026V29.6074V29.6122V29.6171V29.622V29.6269V29.6319V29.6369V29.6419V29.6469V29.6519V29.657V29.6621V29.6673V29.6724V29.6776V29.6828V29.6881V29.6934V29.6986V29.704V29.7093V29.7147V29.7201V29.7255V29.7309V29.7364V29.7419V29.7474V29.7529V29.7585V29.7641V29.7697V29.7753V29.781V29.7866V29.7923V29.7981V29.8038V29.8096V29.8154V29.8212V29.827V29.8329V29.8387V29.8446V29.8506V29.8565V29.8625V29.8684V29.8744V29.8805V29.8865V29.8926V29.8987V29.9048V29.9109V29.917V29.9232V29.9294V29.9356V29.9418V29.948V29.9543V29.9606V29.9669V29.9732V29.9795V29.9859V29.9922V29.9986V30.005V30.0114V30.0179V30.0243V30.0308V30.0373V30.0438V30.0503V30.0568V30.0634V30.0699V30.0765V30.0831V30.0897V30.0964V30.103V30.1097V30.1164V30.123V30.1297V30.1365V30.1432V30.1499V30.1567V30.1635V30.1703V30.1771V30.1839V30.1907V30.1976V30.2044V30.2113V30.2182V30.225V30.232V30.2389V30.2458V30.2527V30.2597V30.2667V30.2736V30.2806V30.2876V30.2946V30.3016V30.3087V30.3157V30.3228V30.3298V30.3369V30.344V30.3511V30.3582V30.3653V30.3724V30.3795V30.3866V30.3938V30.4009V30.4081V30.4153V30.4225V30.4296V30.4368V30.444V30.4512V30.4585V30.4657V30.4729V30.4802V30.4874V30.4947V30.5019V30.5092V30.5164V30.5237V30.531V30.5383V30.5456V30.5529V30.5602V30.5675V30.5748V30.5821V30.5895V30.5968V30.6041V30.6115V30.6188V30.6261V30.6335V30.6408V30.6482V30.6556V30.6629V30.6703V30.6776V30.685V30.6924V30.6998V30.7071V30.7145V30.7219V30.7293V30.7367V30.7441V30.7514V30.7588V30.7662V30.7736V30.781V30.7884V30.7958V30.8032V30.8106V30.818V30.8254V30.8328V30.8401V30.8475V30.8549V30.8623V30.8697V30.8771V30.8845V30.8919V30.8992V30.9066V30.914V30.9214V30.9287V30.9361V30.9435V30.9509V30.9582V30.9656V30.9729V30.9803V30.9876V30.995V31.0023V31.0097V31.017V31.0243V31.0316V31.039V31.0463V31.0536V31.0609V31.0682V31.0755V31.0828V31.0901V31.0973V31.1046V31.1119V31.1191V31.1264V31.1336V31.1409V31.1481V31.1553V31.1625V31.1697V31.1769V31.1841V31.1913V31.1985V31.2057V31.2128V31.22V31.2271V31.2343V31.2414V31.2485V31.2556V31.2627V31.2698V31.2769V31.284V31.291V31.2981V31.3051V31.3122V31.3192V31.3262V31.3332V31.3402V31.3471V31.3541V31.3611V31.368V31.3749V31.3819V31.3888V31.3957V31.4025V31.4094V31.4163V31.4231V31.4299V31.4367V31.4435V31.4503V31.4571V31.4639V31.4706V31.4774V31.4841V31.4908V31.4975V31.5042V31.5108V31.5175V31.5241V31.5307V31.5373V31.5439V31.5505V31.557V31.5636V31.5701V31.5766V31.5831V31.5895V31.596V31.6024V31.6088V31.6153V31.6216V31.628V31.6344V31.6407V31.647V31.6533V31.6596V31.6658V31.6721V31.6783V31.6845V31.6907V31.6968V31.703V31.7091V31.7152V31.7213V31.7274V31.7334V31.7394V31.7454V31.7514V31.7574V31.7633V31.7693V31.7752V31.781V31.7869V31.7927V31.7985V31.8043V31.8101V31.8159V31.8216V31.8273V31.833V31.8386V31.8442V31.8499V31.8554V31.861V31.8665V31.8721V31.8775V31.883V31.8885V31.8939V31.8993V31.9046V31.91V31.9153V31.9206V31.9259V31.9311V31.9363V31.9415V31.9467V31.9518V31.9569V31.962V31.9671V31.9721V31.9771V31.9821V31.9871V31.992V31.9969V32.0017V32.0066V32.0114V32.0162V32.0209V32.0257V32.0304V32.035V32.0397V32.0443V32.0489V32.0534V32.058V32.0625V32.0669V32.0714V32.0758V32.0801V32.0845V32.0888V32.0931V32.0973V32.1016V32.1058V32.1099V32.114V32.1181V32.1222V32.1262V32.1302V32.1342V32.1381V32.1421V32.1459V32.1498V32.1536V32.1573V32.1611V32.1648V32.1685V32.1721V32.1757V32.1793V32.1828V32.1863V32.1898V32.1932V32.1966V32.2V32.2033V32.2066V32.2098V32.2131V32.2162V32.2194V32.2225V32.2256V32.2286V32.2316V32.2346V32.2375V32.2404V32.2433V32.2461V32.2489V32.2516V32.2543V32.257V32.2596V32.2622V32.2648V32.2673V32.2698V32.2722V32.2746V32.277V32.2793V32.2816V32.2838V32.286V32.2882V32.2903V32.2924V32.2944V32.2964V32.2984V32.3003V32.3022V32.304V32.3058V32.3076V32.3093V32.311V32.3126V32.3142V32.3158V32.3173V32.3187V32.3201V32.3215V32.3229V32.3241V32.3254V32.3266V32.3278V32.3289V32.3299V32.331V32.332V32.3329V32.3338V32.3347V32.3355V32.3362V32.3369V32.3376V32.3382V32.3388V32.3394V32.3398V32.3403V32.3407V32.341V32.3413V32.3416V32.3418V32.342V32.3421V32.3422L41.4348 32.9047H41.1947V41.1827L40.6322 41.7452H25.3672L24.8047 41.1827V32.9047H24.8006H24.794H24.7875H24.781H24.7746H24.7683H24.7621H24.756H24.75H24.744H24.7382H24.7324H24.7268H24.7212H24.7157H24.7103H24.7049H24.6997H24.6946H24.6895H24.6846H24.6797H24.675H24.6703H24.6657H24.6612H24.6568H24.6525H24.6483H24.6442H24.6402H24.6363H24.6325H24.6288H24.6252H24.6217H24.6182H24.6149H24.6117H24.6086H24.6055H24.6026H24.5998H24.5971H24.5944H24.5919H24.5895H24.5872H24.585H24.5829H24.5809H24.579H24.5772H24.5755H24.5739H24.5725H24.5711H24.5698H24.5687H24.5676H24.5667H24.5659H24.5652H24.5645H24.5641H24.5637H24.5634H24.5632L24.5632 32.3422L24.0007 32.3422V32.3422V32.3419L24.0007 32.3408L24.0007 32.3365L24.0007 32.3196L24.0007 32.2549L24.0006 32.0177L24.0006 31.2424L24.0005 29.5301V29.5295V28.3247V28.1689L24.0806 28.0354L26.4909 24.0173L26.6547 23.7441ZM24.5632 32.3422V32.9047L24.0007 32.3422L24.5632 32.3422ZM25.1255 29.5295V29.5301L25.1256 31.2423L25.1256 31.7797H25.1308H25.1405H25.1504H25.1602H25.1702H25.1802H25.1903H25.2005H25.2107H25.221H25.2314H25.2418H25.2523H25.2628H25.2734H25.2841H25.2948H25.3056H25.3165H25.3274H25.3384H25.3494H25.3605H25.3717H25.3829H25.3942H25.4055H25.4169H25.4284H25.4399H25.4514H25.463H25.4747H25.4864H25.4982H25.5101H25.522H25.5339H25.5459H25.558H25.5701H25.5822H25.5944H25.6067H25.619H25.6314H25.6438H25.6562H25.6688H25.6813H25.6939H25.7066H25.7193H25.732H25.7448H25.7577H25.7706H25.7835H25.7965H25.8095H25.8226H25.8357H25.8488H25.862H25.8753H25.8886H25.9019H25.9153H25.9287H25.9421H25.9556H25.9692H25.9827H25.9963H26.01H26.0237H26.0374H26.0512H26.065H26.0788H26.0927H26.1066H26.1205H26.1345H26.1485H26.1626H26.1766H26.1908H26.2049H26.2191H26.2333H26.2476H26.2618H26.2761H26.2905H26.3048H26.3192H26.3337H26.3481H26.3626H26.3771H26.3917H26.4062H26.4208H26.4355H26.4501H26.4648H26.4795H26.4942H26.509H26.5237H26.5385H26.5534H26.5682H26.5831H26.598H26.6129H26.6278H26.6428H26.6577H26.6727H26.6877H26.7028H26.7178H26.7329H26.748H26.7631H26.7782H26.7933H26.8085H26.8237H26.8389H26.8541H26.8693H26.8845H26.8998H26.915H26.9303H26.9456H26.9609H26.9762H26.9915H27.0069H27.0222H27.0376H27.0529H27.0683H27.0837H27.0991H27.1145H27.1299H27.1453H27.1607H27.1762H27.1916H27.207H27.2225H27.238H27.2534H27.2689H27.2843H27.2998H27.3153H27.3308H27.3462H27.3617H27.3772H27.3927H27.4082H27.4237H27.4392H27.4546H27.4701H27.4856H27.5011H27.5166H27.532H27.5475H27.563H27.5785H27.5939H27.6094H27.6248H27.6403H27.6557H27.6712H27.6866H27.702H27.7174H27.7328H27.7482H27.7636H27.779H27.7944H27.8097H27.8251H27.8404H27.8558H27.8711H27.8864H27.9017H27.917H27.9322H27.9475H27.9627H27.978H27.9932H28.0084H28.0236H28.0387H28.0539H28.069H28.0841H28.0992H28.1143H28.1294H28.1444H28.1595H28.1745H28.1895H28.2044H28.2194H28.2343H28.2492H28.2641H28.2789H28.2938H28.3086H28.3234H28.3381H28.3529H28.3676H28.3823H28.397H28.4116H28.4262H28.4408H28.4554H28.4699H28.4844H28.4989H28.5133H28.5277H28.5421H28.5565H28.5708H28.5851H28.5994H28.6136H28.6278H28.642H28.6561H28.6702H28.6843H28.6984H28.7124H28.7263H28.7403H28.7542H28.768H28.7818H28.7956H28.8094H28.8231H28.8368H28.8504H28.864H28.8776H28.8911H28.9046H28.918H28.9314H28.9448H28.9581H28.9713H28.9846H28.9978H29.0109H29.024H29.0371H29.0501H29.063H29.076H29.0888H29.1017H29.1144H29.1272H29.1399H29.1525H29.1651H29.1776H29.1901H29.2026H29.215H29.2273H29.2396H29.2519H29.2641H29.2762H29.2883H29.3003H29.3123H29.3242H29.3361H29.3479H29.3597H29.3714H29.3831H29.3947H29.4062H29.4177H29.4291H29.4405H29.4518H29.4631H29.4743H29.4854H29.4965H29.5075H29.5185H29.5294H29.5402H29.551H29.5617H29.5724H29.5829H29.5935H29.6039H29.6143H29.6211V28.7297H30.7461V31.7797H35.2461V28.7297H36.3711V31.7797H40.8723V31.7752V31.7693V31.7633V31.7574V31.7514V31.7454V31.7394V31.7334V31.7274V31.7213V31.7152V31.7091V31.703V31.6968V31.6907V31.6845V31.6783V31.6721V31.6658V31.6596V31.6533V31.647V31.6407V31.6344V31.628V31.6216V31.6153V31.6088V31.6024V31.596V31.5895V31.5831V31.5766V31.5701V31.5636V31.557V31.5505V31.5439V31.5373V31.5307V31.5241V31.5175V31.5108V31.5042V31.4975V31.4908V31.4841V31.4774V31.4706V31.4639V31.4571V31.4503V31.4435V31.4367V31.4299V31.4231V31.4163V31.4094V31.4025V31.3957V31.3888V31.3819V31.3749V31.368V31.3611V31.3541V31.3471V31.3402V31.3332V31.3262V31.3192V31.3122V31.3051V31.2981V31.291V31.284V31.2769V31.2698V31.2627V31.2556V31.2485V31.2414V31.2343V31.2271V31.22V31.2128V31.2057V31.1985V31.1913V31.1841V31.1769V31.1697V31.1625V31.1553V31.1481V31.1409V31.1336V31.1264V31.1191V31.1119V31.1046V31.0973V31.0901V31.0828V31.0755V31.0682V31.0609V31.0536V31.0463V31.039V31.0316V31.0243V31.017V31.0097V31.0023V30.995V30.9876V30.9803V30.9729V30.9656V30.9582V30.9509V30.9435V30.9361V30.9287V30.9214V30.914V30.9066V30.8992V30.8919V30.8845V30.8771V30.8697V30.8623V30.8549V30.8475V30.8401V30.8328V30.8254V30.818V30.8106V30.8032V30.7958V30.7884V30.781V30.7736V30.7662V30.7588V30.7514V30.7441V30.7367V30.7293V30.7219V30.7145V30.7071V30.6998V30.6924V30.685V30.6776V30.6703V30.6629V30.6556V30.6482V30.6408V30.6335V30.6261V30.6188V30.6115V30.6041V30.5968V30.5895V30.5821V30.5748V30.5675V30.5602V30.5529V30.5456V30.5383V30.531V30.5237V30.5164V30.5092V30.5019V30.4947V30.4874V30.4802V30.4729V30.4657V30.4585V30.4512V30.444V30.4368V30.4296V30.4225V30.4153V30.4081V30.4009V30.3938V30.3866V30.3795V30.3724V30.3653V30.3582V30.3511V30.344V30.3369V30.3298V30.3228V30.3157V30.3087V30.3016V30.2946V30.2876V30.2806V30.2736V30.2667V30.2597V30.2527V30.2458V30.2389V30.232V30.225V30.2182V30.2113V30.2044V30.1976V30.1907V30.1839V30.1771V30.1703V30.1635V30.1567V30.1499V30.1432V30.1365V30.1297V30.123V30.1164V30.1097V30.103V30.0964V30.0897V30.0831V30.0765V30.0699V30.0634V30.0568V30.0503V30.0438V30.0373V30.0308V30.0243V30.0179V30.0114V30.005V29.9986V29.9922V29.9859V29.9795V29.9732V29.9669V29.9606V29.9543V29.948V29.9418V29.9356V29.9294V29.9232V29.917V29.9109V29.9048V29.8987V29.8926V29.8865V29.8805V29.8744V29.8684V29.8625V29.8565V29.8506V29.8446V29.8387V29.8329V29.827V29.8212V29.8154V29.8096V29.8038V29.7981V29.7923V29.7866V29.781V29.7753V29.7697V29.7641V29.7585V29.7529V29.7474V29.7419V29.7364V29.7309V29.7255V29.7201V29.7147V29.7093V29.704V29.6986V29.6934V29.6881V29.6828V29.6776V29.6724V29.6673V29.6621V29.657V29.6519V29.6469V29.6419V29.6369V29.6319V29.6269V29.622V29.6171V29.6122V29.6074V29.6026V29.5978V29.5931V29.5883V29.5836V29.579V29.5743V29.5697V29.5651V29.5606V29.5561V29.5516V29.5471V29.5427V29.5383V29.5339V29.5301V29.5295V28.4805L38.706 24.8691H27.2918L25.1255 28.4805V29.5295ZM25.9297 32.9047V40.6202H40.0697V32.9047H30.1869H30.1826H30.1781H30.1736H30.1689H30.1642H30.1594H30.1544H30.1494H30.1443H30.1391H30.1338H30.1285H30.123H30.1174H30.1118H30.1061H30.1002H30.0943H30.0883H30.0822H30.076H30.0698H30.0634H30.057H30.0505H30.0439H30.0372H30.0304H30.0236H30.0166H30.0096H30.0025H29.9953H29.988H29.9807H29.9733H29.9658H29.9582H29.9505H29.9427H29.9349H29.927H29.919H29.911H29.9028H29.8946H29.8863H29.8779H29.8695H29.861H29.8524H29.8437H29.835H29.8261H29.8172H29.8083H29.7992H29.7901H29.781H29.7717H29.7624H29.753H29.7435H29.734H29.7244H29.7147H29.705H29.6952H29.6853H29.6754H29.6654H29.6553H29.6451H29.6349H29.6247H29.6143H29.6039H29.5935H29.5829H29.5724H29.5617H29.551H29.5402H29.5294H29.5185H29.5075H29.4965H29.4854H29.4743H29.4631H29.4518H29.4405H29.4291H29.4177H29.4062H29.3947H29.3831H29.3714H29.3597H29.3479H29.3361H29.3242H29.3123H29.3003H29.2883H29.2762H29.2641H29.2519H29.2396H29.2273H29.215H29.2026H29.1901H29.1776H29.1651H29.1525H29.1399H29.1272H29.1144H29.1017H29.0888H29.076H29.063H29.0501H29.0371H29.024H29.0109H28.9978H28.9846H28.9713H28.9581H28.9448H28.9314H28.918H28.9046H28.8911H28.8776H28.864H28.8504H28.8368H28.8231H28.8094H28.7956H28.7818H28.768H28.7542H28.7403H28.7263H28.7124H28.6984H28.6843H28.6702H28.6561H28.642H28.6278H28.6136H28.5994H28.5851H28.5708H28.5565H28.5421H28.5277H28.5133H28.4989H28.4844H28.4699H28.4554H28.4408H28.4262H28.4116H28.397H28.3823H28.3676H28.3529H28.3381H28.3234H28.3086H28.2938H28.2789H28.2641H28.2492H28.2343H28.2194H28.2044H28.1895H28.1745H28.1595H28.1444H28.1294H28.1143H28.0992H28.0841H28.069H28.0539H28.0387H28.0236H28.0084H27.9932H27.978H27.9627H27.9475H27.9322H27.917H27.9017H27.8864H27.8711H27.8558H27.8404H27.8251H27.8097H27.7944H27.779H27.7636H27.7482H27.7328H27.7174H27.702H27.6866H27.6712H27.6557H27.6403H27.6248H27.6094H27.5939H27.5785H27.563H27.5475H27.532H27.5166H27.5011H27.4856H27.4701H27.4546H27.4392H27.4237H27.4082H27.3927H27.3772H27.3617H27.3462H27.3308H27.3153H27.2998H27.2843H27.2689H27.2534H27.238H27.2225H27.207H27.1916H27.1762H27.1607H27.1453H27.1299H27.1145H27.0991H27.0837H27.0683H27.0529H27.0376H27.0222H27.0069H26.9915H26.9762H26.9609H26.9456H26.9303H26.915H26.8998H26.8845H26.8693H26.8541H26.8389H26.8237H26.8085H26.7933H26.7782H26.7631H26.748H26.7329H26.7178H26.7028H26.6877H26.6727H26.6577H26.6428H26.6278H26.6129H26.598H26.5831H26.5682H26.5534H26.5385H26.5237H26.509H26.4942H26.4795H26.4648H26.4501H26.4355H26.4208H26.4062H26.3917H26.3771H26.3626H26.3481H26.3337H26.3192H26.3048H26.2905H26.2761H26.2618H26.2476H26.2333H26.2191H26.2049H26.1908H26.1766H26.1626H26.1485H26.1345H26.1205H26.1066H26.0927H26.0788H26.065H26.0512H26.0374H26.0237H26.01H25.9963H25.9827H25.9692H25.9556H25.9421H25.9297Z" fill="#1E2330"/>
<path d="M26.6547 23.7441V23.1816H26.3362L26.1724 23.4548L26.6547 23.7441ZM39.3431 23.7441L39.8254 23.4548L39.6616 23.1816H39.3431V23.7441ZM39.5069 24.0173L39.9893 23.7279V23.7279L39.5069 24.0173ZM41.9172 28.0354L41.4348 28.3247V28.3247L41.9172 28.0354ZM41.9973 28.1689H42.5598V28.0132L42.4797 27.8796L41.9973 28.1689ZM41.9973 32.3422L42.3951 32.7399L42.5598 32.5752V32.3422H41.9973ZM41.4348 32.9047V33.4672H41.6678L41.8326 33.3024L41.4348 32.9047ZM41.1947 32.9047V32.3422H40.6322V32.9047H41.1947ZM41.1947 41.1827L41.5924 41.5804L41.7572 41.4157V41.1827H41.1947ZM40.6322 41.7452V42.3077H40.8652L41.0299 42.1429L40.6322 41.7452ZM25.3672 41.7452L24.9694 42.1429L25.1342 42.3077H25.3672V41.7452ZM24.8047 41.1827H24.2422V41.4157L24.4069 41.5804L24.8047 41.1827ZM24.8047 32.9047H25.3672V32.3422H24.8047V32.9047ZM24.5632 32.9047L24.0007 32.9048L24.0008 33.4672H24.5632V32.9047ZM24.5632 32.3422L25.1257 32.3421L25.1256 31.7797L24.5631 31.7797L24.5632 32.3422ZM24.0007 32.3422H23.4382V32.9047L24.0007 32.9047L24.0007 32.3422ZM24.0007 32.3419H24.5632V32.3418L24.0007 32.3419ZM24.0007 32.3408L23.4382 32.3408V32.3409L24.0007 32.3408ZM24.0007 32.3365L24.5632 32.3364V32.3364L24.0007 32.3365ZM24.0007 32.3196L23.4382 32.3197V32.3197L24.0007 32.3196ZM24.0007 32.2549L23.4382 32.255V32.255L24.0007 32.2549ZM24.0006 32.0177L23.4381 32.0177V32.0177L24.0006 32.0177ZM24.0006 31.2424L23.4381 31.2424V31.2424L24.0006 31.2424ZM24.0005 29.5301H23.438V29.5302L24.0005 29.5301ZM24.0005 28.1689L23.5181 27.8796L23.438 28.0132V28.1689H24.0005ZM24.0806 28.0354L23.5982 27.746H23.5982L24.0806 28.0354ZM26.4909 24.0173L26.9732 24.3066L26.4909 24.0173ZM24.5632 32.9047L24.1654 33.3025L25.1257 34.2626V32.9047H24.5632ZM24.0007 32.3422L24.0006 31.7797L22.6427 31.7799L23.6029 32.74L24.0007 32.3422ZM25.1255 29.5301H24.563V29.5302L25.1255 29.5301ZM25.1256 31.2423L24.5631 31.2423V31.2424L25.1256 31.2423ZM25.1256 31.7797L24.5631 31.7797L24.5632 32.3422H25.1256V31.7797ZM29.6211 31.7797V32.3422H30.1836V31.7797H29.6211ZM29.6211 28.7297V28.1672H29.0586V28.7297H29.6211ZM30.7461 28.7297H31.3086V28.1672H30.7461V28.7297ZM30.7461 31.7797H30.1836V32.3422H30.7461V31.7797ZM35.2461 31.7797V32.3422H35.8086V31.7797H35.2461ZM35.2461 28.7297V28.1672H34.6836V28.7297H35.2461ZM36.3711 28.7297H36.9336V28.1672H36.3711V28.7297ZM36.3711 31.7797H35.8086V32.3422H36.3711V31.7797ZM40.8723 31.7797V32.3422H41.4348V31.7797H40.8723ZM40.8723 28.4805H41.4348V28.3247L41.3547 28.1911L40.8723 28.4805ZM38.706 24.8691L39.1884 24.5798L39.0246 24.3066H38.706V24.8691ZM27.2918 24.8691V24.3066H26.9732L26.8094 24.5798L27.2918 24.8691ZM25.1255 28.4805L24.6431 28.1911L24.563 28.3247V28.4805H25.1255ZM25.9297 40.6202H25.3672V41.1827H25.9297V40.6202ZM25.9297 32.9047V32.3422H25.3672V32.9047H25.9297ZM40.0697 40.6202V41.1827H40.6322V40.6202H40.0697ZM40.0697 32.9047H40.6322V32.3422H40.0697V32.9047ZM26.9732 23.1816H26.6547V24.3066H26.9732V23.1816ZM39.0246 23.1816H26.9732V24.3066H39.0246V23.1816ZM39.3431 23.1816H39.0246V24.3066H39.3431V23.1816ZM39.9893 23.7279L39.8254 23.4548L38.8607 24.0335L39.0246 24.3066L39.9893 23.7279ZM42.3996 27.746L39.9893 23.7279L39.0246 24.3066L41.4348 28.3247L42.3996 27.746ZM42.4797 27.8796L42.3996 27.746L41.4348 28.3247L41.5149 28.4583L42.4797 27.8796ZM42.5598 28.3247V28.1689H41.4348V28.3247H42.5598ZM42.5598 29.5295V28.3247H41.4348V29.5295H42.5598ZM42.5598 29.5301V29.5295H41.4348V29.5301H42.5598ZM42.5598 29.5339V29.5301H41.4348V29.5339H42.5598ZM42.5598 29.5383V29.5339H41.4348V29.5383H42.5598ZM42.5598 29.5427V29.5383H41.4348V29.5427H42.5598ZM42.5598 29.5471V29.5427H41.4348V29.5471H42.5598ZM42.5598 29.5516V29.5471H41.4348V29.5516H42.5598ZM42.5598 29.5561V29.5516H41.4348V29.5561H42.5598ZM42.5598 29.5606V29.5561H41.4348V29.5606H42.5598ZM42.5598 29.5651V29.5606H41.4348V29.5651H42.5598ZM42.5598 29.5697V29.5651H41.4348V29.5697H42.5598ZM42.5598 29.5743V29.5697H41.4348V29.5743H42.5598ZM42.5598 29.579V29.5743H41.4348V29.579H42.5598ZM42.5598 29.5836V29.579H41.4348V29.5836H42.5598ZM42.5598 29.5883V29.5836H41.4348V29.5883H42.5598ZM42.5598 29.5931V29.5883H41.4348V29.5931H42.5598ZM42.5598 29.5978V29.5931H41.4348V29.5978H42.5598ZM42.5598 29.6026V29.5978H41.4348V29.6026H42.5598ZM42.5598 29.6074V29.6026H41.4348V29.6074H42.5598ZM42.5598 29.6122V29.6074H41.4348V29.6122H42.5598ZM42.5598 29.6171V29.6122H41.4348V29.6171H42.5598ZM42.5598 29.622V29.6171H41.4348V29.622H42.5598ZM42.5598 29.6269V29.622H41.4348V29.6269H42.5598ZM42.5598 29.6319V29.6269H41.4348V29.6319H42.5598ZM42.5598 29.6369V29.6319H41.4348V29.6369H42.5598ZM42.5598 29.6419V29.6369H41.4348V29.6419H42.5598ZM42.5598 29.6469V29.6419H41.4348V29.6469H42.5598ZM42.5598 29.6519V29.6469H41.4348V29.6519H42.5598ZM42.5598 29.657V29.6519H41.4348V29.657H42.5598ZM42.5598 29.6621V29.657H41.4348V29.6621H42.5598ZM42.5598 29.6673V29.6621H41.4348V29.6673H42.5598ZM42.5598 29.6724V29.6673H41.4348V29.6724H42.5598ZM42.5598 29.6776V29.6724H41.4348V29.6776H42.5598ZM42.5598 29.6828V29.6776H41.4348V29.6828H42.5598ZM42.5598 29.6881V29.6828H41.4348V29.6881H42.5598ZM42.5598 29.6934V29.6881H41.4348V29.6934H42.5598ZM42.5598 29.6986V29.6934H41.4348V29.6986H42.5598ZM42.5598 29.704V29.6986H41.4348V29.704H42.5598ZM42.5598 29.7093V29.704H41.4348V29.7093H42.5598ZM42.5598 29.7147V29.7093H41.4348V29.7147H42.5598ZM42.5598 29.7201V29.7147H41.4348V29.7201H42.5598ZM42.5598 29.7255V29.7201H41.4348V29.7255H42.5598ZM42.5598 29.7309V29.7255H41.4348V29.7309H42.5598ZM42.5598 29.7364V29.7309H41.4348V29.7364H42.5598ZM42.5598 29.7419V29.7364H41.4348V29.7419H42.5598ZM42.5598 29.7474V29.7419H41.4348V29.7474H42.5598ZM42.5598 29.7529V29.7474H41.4348V29.7529H42.5598ZM42.5598 29.7585V29.7529H41.4348V29.7585H42.5598ZM42.5598 29.7641V29.7585H41.4348V29.7641H42.5598ZM42.5598 29.7697V29.7641H41.4348V29.7697H42.5598ZM42.5598 29.7753V29.7697H41.4348V29.7753H42.5598ZM42.5598 29.781V29.7753H41.4348V29.781H42.5598ZM42.5598 29.7866V29.781H41.4348V29.7866H42.5598ZM42.5598 29.7923V29.7866H41.4348V29.7923H42.5598ZM42.5598 29.7981V29.7923H41.4348V29.7981H42.5598ZM42.5598 29.8038V29.7981H41.4348V29.8038H42.5598ZM42.5598 29.8096V29.8038H41.4348V29.8096H42.5598ZM42.5598 29.8154V29.8096H41.4348V29.8154H42.5598ZM42.5598 29.8212V29.8154H41.4348V29.8212H42.5598ZM42.5598 29.827V29.8212H41.4348V29.827H42.5598ZM42.5598 29.8329V29.827H41.4348V29.8329H42.5598ZM42.5598 29.8387V29.8329H41.4348V29.8387H42.5598ZM42.5598 29.8446V29.8387H41.4348V29.8446H42.5598ZM42.5598 29.8506V29.8446H41.4348V29.8506H42.5598ZM42.5598 29.8565V29.8506H41.4348V29.8565H42.5598ZM42.5598 29.8625V29.8565H41.4348V29.8625H42.5598ZM42.5598 29.8684V29.8625H41.4348V29.8684H42.5598ZM42.5598 29.8744V29.8684H41.4348V29.8744H42.5598ZM42.5598 29.8805V29.8744H41.4348V29.8805H42.5598ZM42.5598 29.8865V29.8805H41.4348V29.8865H42.5598ZM42.5598 29.8926V29.8865H41.4348V29.8926H42.5598ZM42.5598 29.8987V29.8926H41.4348V29.8987H42.5598ZM42.5598 29.9048V29.8987H41.4348V29.9048H42.5598ZM42.5598 29.9109V29.9048H41.4348V29.9109H42.5598ZM42.5598 29.917V29.9109H41.4348V29.917H42.5598ZM42.5598 29.9232V29.917H41.4348V29.9232H42.5598ZM42.5598 29.9294V29.9232H41.4348V29.9294H42.5598ZM42.5598 29.9356V29.9294H41.4348V29.9356H42.5598ZM42.5598 29.9418V29.9356H41.4348V29.9418H42.5598ZM42.5598 29.948V29.9418H41.4348V29.948H42.5598ZM42.5598 29.9543V29.948H41.4348V29.9543H42.5598ZM42.5598 29.9606V29.9543H41.4348V29.9606H42.5598ZM42.5598 29.9669V29.9606H41.4348V29.9669H42.5598ZM42.5598 29.9732V29.9669H41.4348V29.9732H42.5598ZM42.5598 29.9795V29.9732H41.4348V29.9795H42.5598ZM42.5598 29.9859V29.9795H41.4348V29.9859H42.5598ZM42.5598 29.9922V29.9859H41.4348V29.9922H42.5598ZM42.5598 29.9986V29.9922H41.4348V29.9986H42.5598ZM42.5598 30.005V29.9986H41.4348V30.005H42.5598ZM42.5598 30.0114V30.005H41.4348V30.0114H42.5598ZM42.5598 30.0179V30.0114H41.4348V30.0179H42.5598ZM42.5598 30.0243V30.0179H41.4348V30.0243H42.5598ZM42.5598 30.0308V30.0243H41.4348V30.0308H42.5598ZM42.5598 30.0373V30.0308H41.4348V30.0373H42.5598ZM42.5598 30.0438V30.0373H41.4348V30.0438H42.5598ZM42.5598 30.0503V30.0438H41.4348V30.0503H42.5598ZM42.5598 30.0568V30.0503H41.4348V30.0568H42.5598ZM42.5598 30.0634V30.0568H41.4348V30.0634H42.5598ZM42.5598 30.0699V30.0634H41.4348V30.0699H42.5598ZM42.5598 30.0765V30.0699H41.4348V30.0765H42.5598ZM42.5598 30.0831V30.0765H41.4348V30.0831H42.5598ZM42.5598 30.0897V30.0831H41.4348V30.0897H42.5598ZM42.5598 30.0964V30.0897H41.4348V30.0964H42.5598ZM42.5598 30.103V30.0964H41.4348V30.103H42.5598ZM42.5598 30.1097V30.103H41.4348V30.1097H42.5598ZM42.5598 30.1164V30.1097H41.4348V30.1164H42.5598ZM42.5598 30.123V30.1164H41.4348V30.123H42.5598ZM42.5598 30.1297V30.123H41.4348V30.1297H42.5598ZM42.5598 30.1365V30.1297H41.4348V30.1365H42.5598ZM42.5598 30.1432V30.1365H41.4348V30.1432H42.5598ZM42.5598 30.1499V30.1432H41.4348V30.1499H42.5598ZM42.5598 30.1567V30.1499H41.4348V30.1567H42.5598ZM42.5598 30.1635V30.1567H41.4348V30.1635H42.5598ZM42.5598 30.1703V30.1635H41.4348V30.1703H42.5598ZM42.5598 30.1771V30.1703H41.4348V30.1771H42.5598ZM42.5598 30.1839V30.1771H41.4348V30.1839H42.5598ZM42.5598 30.1907V30.1839H41.4348V30.1907H42.5598ZM42.5598 30.1976V30.1907H41.4348V30.1976H42.5598ZM42.5598 30.2044V30.1976H41.4348V30.2044H42.5598ZM42.5598 30.2113V30.2044H41.4348V30.2113H42.5598ZM42.5598 30.2182V30.2113H41.4348V30.2182H42.5598ZM42.5598 30.225V30.2182H41.4348V30.225H42.5598ZM42.5598 30.232V30.225H41.4348V30.232H42.5598ZM42.5598 30.2389V30.232H41.4348V30.2389H42.5598ZM42.5598 30.2458V30.2389H41.4348V30.2458H42.5598ZM42.5598 30.2527V30.2458H41.4348V30.2527H42.5598ZM42.5598 30.2597V30.2527H41.4348V30.2597H42.5598ZM42.5598 30.2667V30.2597H41.4348V30.2667H42.5598ZM42.5598 30.2736V30.2667H41.4348V30.2736H42.5598ZM42.5598 30.2806V30.2736H41.4348V30.2806H42.5598ZM42.5598 30.2876V30.2806H41.4348V30.2876H42.5598ZM42.5598 30.2946V30.2876H41.4348V30.2946H42.5598ZM42.5598 30.3016V30.2946H41.4348V30.3016H42.5598ZM42.5598 30.3087V30.3016H41.4348V30.3087H42.5598ZM42.5598 30.3157V30.3087H41.4348V30.3157H42.5598ZM42.5598 30.3228V30.3157H41.4348V30.3228H42.5598ZM42.5598 30.3298V30.3228H41.4348V30.3298H42.5598ZM42.5598 30.3369V30.3298H41.4348V30.3369H42.5598ZM42.5598 30.344V30.3369H41.4348V30.344H42.5598ZM42.5598 30.3511V30.344H41.4348V30.3511H42.5598ZM42.5598 30.3582V30.3511H41.4348V30.3582H42.5598ZM42.5598 30.3653V30.3582H41.4348V30.3653H42.5598ZM42.5598 30.3724V30.3653H41.4348V30.3724H42.5598ZM42.5598 30.3795V30.3724H41.4348V30.3795H42.5598ZM42.5598 30.3866V30.3795H41.4348V30.3866H42.5598ZM42.5598 30.3938V30.3866H41.4348V30.3938H42.5598ZM42.5598 30.4009V30.3938H41.4348V30.4009H42.5598ZM42.5598 30.4081V30.4009H41.4348V30.4081H42.5598ZM42.5598 30.4153V30.4081H41.4348V30.4153H42.5598ZM42.5598 30.4225V30.4153H41.4348V30.4225H42.5598ZM42.5598 30.4296V30.4225H41.4348V30.4296H42.5598ZM42.5598 30.4368V30.4296H41.4348V30.4368H42.5598ZM42.5598 30.444V30.4368H41.4348V30.444H42.5598ZM42.5598 30.4512V30.444H41.4348V30.4512H42.5598ZM42.5598 30.4585V30.4512H41.4348V30.4585H42.5598ZM42.5598 30.4657V30.4585H41.4348V30.4657H42.5598ZM42.5598 30.4729V30.4657H41.4348V30.4729H42.5598ZM42.5598 30.4802V30.4729H41.4348V30.4802H42.5598ZM42.5598 30.4874V30.4802H41.4348V30.4874H42.5598ZM42.5598 30.4947V30.4874H41.4348V30.4947H42.5598ZM42.5598 30.5019V30.4947H41.4348V30.5019H42.5598ZM42.5598 30.5092V30.5019H41.4348V30.5092H42.5598ZM42.5598 30.5164V30.5092H41.4348V30.5164H42.5598ZM42.5598 30.5237V30.5164H41.4348V30.5237H42.5598ZM42.5598 30.531V30.5237H41.4348V30.531H42.5598ZM42.5598 30.5383V30.531H41.4348V30.5383H42.5598ZM42.5598 30.5456V30.5383H41.4348V30.5456H42.5598ZM42.5598 30.5529V30.5456H41.4348V30.5529H42.5598ZM42.5598 30.5602V30.5529H41.4348V30.5602H42.5598ZM42.5598 30.5675V30.5602H41.4348V30.5675H42.5598ZM42.5598 30.5748V30.5675H41.4348V30.5748H42.5598ZM42.5598 30.5821V30.5748H41.4348V30.5821H42.5598ZM42.5598 30.5895V30.5821H41.4348V30.5895H42.5598ZM42.5598 30.5968V30.5895H41.4348V30.5968H42.5598ZM42.5598 30.6041V30.5968H41.4348V30.6041H42.5598ZM42.5598 30.6115V30.6041H41.4348V30.6115H42.5598ZM42.5598 30.6188V30.6115H41.4348V30.6188H42.5598ZM42.5598 30.6261V30.6188H41.4348V30.6261H42.5598ZM42.5598 30.6335V30.6261H41.4348V30.6335H42.5598ZM42.5598 30.6408V30.6335H41.4348V30.6408H42.5598ZM42.5598 30.6482V30.6408H41.4348V30.6482H42.5598ZM42.5598 30.6556V30.6482H41.4348V30.6556H42.5598ZM42.5598 30.6629V30.6556H41.4348V30.6629H42.5598ZM42.5598 30.6703V30.6629H41.4348V30.6703H42.5598ZM42.5598 30.6776V30.6703H41.4348V30.6776H42.5598ZM42.5598 30.685V30.6776H41.4348V30.685H42.5598ZM42.5598 30.6924V30.685H41.4348V30.6924H42.5598ZM42.5598 30.6998V30.6924H41.4348V30.6998H42.5598ZM42.5598 30.7071V30.6998H41.4348V30.7071H42.5598ZM42.5598 30.7145V30.7071H41.4348V30.7145H42.5598ZM42.5598 30.7219V30.7145H41.4348V30.7219H42.5598ZM42.5598 30.7293V30.7219H41.4348V30.7293H42.5598ZM42.5598 30.7367V30.7293H41.4348V30.7367H42.5598ZM42.5598 30.7441V30.7367H41.4348V30.7441H42.5598ZM42.5598 30.7514V30.7441H41.4348V30.7514H42.5598ZM42.5598 30.7588V30.7514H41.4348V30.7588H42.5598ZM42.5598 30.7662V30.7588H41.4348V30.7662H42.5598ZM42.5598 30.7736V30.7662H41.4348V30.7736H42.5598ZM42.5598 30.781V30.7736H41.4348V30.781H42.5598ZM42.5598 30.7884V30.781H41.4348V30.7884H42.5598ZM42.5598 30.7958V30.7884H41.4348V30.7958H42.5598ZM42.5598 30.8032V30.7958H41.4348V30.8032H42.5598ZM42.5598 30.8106V30.8032H41.4348V30.8106H42.5598ZM42.5598 30.818V30.8106H41.4348V30.818H42.5598ZM42.5598 30.8254V30.818H41.4348V30.8254H42.5598ZM42.5598 30.8328V30.8254H41.4348V30.8328H42.5598ZM42.5598 30.8401V30.8328H41.4348V30.8401H42.5598ZM42.5598 30.8475V30.8401H41.4348V30.8475H42.5598ZM42.5598 30.8549V30.8475H41.4348V30.8549H42.5598ZM42.5598 30.8623V30.8549H41.4348V30.8623H42.5598ZM42.5598 30.8697V30.8623H41.4348V30.8697H42.5598ZM42.5598 30.8771V30.8697H41.4348V30.8771H42.5598ZM42.5598 30.8845V30.8771H41.4348V30.8845H42.5598ZM42.5598 30.8919V30.8845H41.4348V30.8919H42.5598ZM42.5598 30.8992V30.8919H41.4348V30.8992H42.5598ZM42.5598 30.9066V30.8992H41.4348V30.9066H42.5598ZM42.5598 30.914V30.9066H41.4348V30.914H42.5598ZM42.5598 30.9214V30.914H41.4348V30.9214H42.5598ZM42.5598 30.9287V30.9214H41.4348V30.9287H42.5598ZM42.5598 30.9361V30.9287H41.4348V30.9361H42.5598ZM42.5598 30.9435V30.9361H41.4348V30.9435H42.5598ZM42.5598 30.9509V30.9435H41.4348V30.9509H42.5598ZM42.5598 30.9582V30.9509H41.4348V30.9582H42.5598ZM42.5598 30.9656V30.9582H41.4348V30.9656H42.5598ZM42.5598 30.9729V30.9656H41.4348V30.9729H42.5598ZM42.5598 30.9803V30.9729H41.4348V30.9803H42.5598ZM42.5598 30.9876V30.9803H41.4348V30.9876H42.5598ZM42.5598 30.995V30.9876H41.4348V30.995H42.5598ZM42.5598 31.0023V30.995H41.4348V31.0023H42.5598ZM42.5598 31.0097V31.0023H41.4348V31.0097H42.5598ZM42.5598 31.017V31.0097H41.4348V31.017H42.5598ZM42.5598 31.0243V31.017H41.4348V31.0243H42.5598ZM42.5598 31.0316V31.0243H41.4348V31.0316H42.5598ZM42.5598 31.039V31.0316H41.4348V31.039H42.5598ZM42.5598 31.0463V31.039H41.4348V31.0463H42.5598ZM42.5598 31.0536V31.0463H41.4348V31.0536H42.5598ZM42.5598 31.0609V31.0536H41.4348V31.0609H42.5598ZM42.5598 31.0682V31.0609H41.4348V31.0682H42.5598ZM42.5598 31.0755V31.0682H41.4348V31.0755H42.5598ZM42.5598 31.0828V31.0755H41.4348V31.0828H42.5598ZM42.5598 31.0901V31.0828H41.4348V31.0901H42.5598ZM42.5598 31.0973V31.0901H41.4348V31.0973H42.5598ZM42.5598 31.1046V31.0973H41.4348V31.1046H42.5598ZM42.5598 31.1119V31.1046H41.4348V31.1119H42.5598ZM42.5598 31.1191V31.1119H41.4348V31.1191H42.5598ZM42.5598 31.1264V31.1191H41.4348V31.1264H42.5598ZM42.5598 31.1336V31.1264H41.4348V31.1336H42.5598ZM42.5598 31.1409V31.1336H41.4348V31.1409H42.5598ZM42.5598 31.1481V31.1409H41.4348V31.1481H42.5598ZM42.5598 31.1553V31.1481H41.4348V31.1553H42.5598ZM42.5598 31.1625V31.1553H41.4348V31.1625H42.5598ZM42.5598 31.1697V31.1625H41.4348V31.1697H42.5598ZM42.5598 31.1769V31.1697H41.4348V31.1769H42.5598ZM42.5598 31.1841V31.1769H41.4348V31.1841H42.5598ZM42.5598 31.1913V31.1841H41.4348V31.1913H42.5598ZM42.5598 31.1985V31.1913H41.4348V31.1985H42.5598ZM42.5598 31.2057V31.1985H41.4348V31.2057H42.5598ZM42.5598 31.2128V31.2057H41.4348V31.2128H42.5598ZM42.5598 31.22V31.2128H41.4348V31.22H42.5598ZM42.5598 31.2271V31.22H41.4348V31.2271H42.5598ZM42.5598 31.2343V31.2271H41.4348V31.2343H42.5598ZM42.5598 31.2414V31.2343H41.4348V31.2414H42.5598ZM42.5598 31.2485V31.2414H41.4348V31.2485H42.5598ZM42.5598 31.2556V31.2485H41.4348V31.2556H42.5598ZM42.5598 31.2627V31.2556H41.4348V31.2627H42.5598ZM42.5598 31.2698V31.2627H41.4348V31.2698H42.5598ZM42.5598 31.2769V31.2698H41.4348V31.2769H42.5598ZM42.5598 31.284V31.2769H41.4348V31.284H42.5598ZM42.5598 31.291V31.284H41.4348V31.291H42.5598ZM42.5598 31.2981V31.291H41.4348V31.2981H42.5598ZM42.5598 31.3051V31.2981H41.4348V31.3051H42.5598ZM42.5598 31.3122V31.3051H41.4348V31.3122H42.5598ZM42.5598 31.3192V31.3122H41.4348V31.3192H42.5598ZM42.5598 31.3262V31.3192H41.4348V31.3262H42.5598ZM42.5598 31.3332V31.3262H41.4348V31.3332H42.5598ZM42.5598 31.3402V31.3332H41.4348V31.3402H42.5598ZM42.5598 31.3471V31.3402H41.4348V31.3471H42.5598ZM42.5598 31.3541V31.3471H41.4348V31.3541H42.5598ZM42.5598 31.3611V31.3541H41.4348V31.3611H42.5598ZM42.5598 31.368V31.3611H41.4348V31.368H42.5598ZM42.5598 31.3749V31.368H41.4348V31.3749H42.5598ZM42.5598 31.3819V31.3749H41.4348V31.3819H42.5598ZM42.5598 31.3888V31.3819H41.4348V31.3888H42.5598ZM42.5598 31.3957V31.3888H41.4348V31.3957H42.5598ZM42.5598 31.4025V31.3957H41.4348V31.4025H42.5598ZM42.5598 31.4094V31.4025H41.4348V31.4094H42.5598ZM42.5598 31.4163V31.4094H41.4348V31.4163H42.5598ZM42.5598 31.4231V31.4163H41.4348V31.4231H42.5598ZM42.5598 31.4299V31.4231H41.4348V31.4299H42.5598ZM42.5598 31.4367V31.4299H41.4348V31.4367H42.5598ZM42.5598 31.4435V31.4367H41.4348V31.4435H42.5598ZM42.5598 31.4503V31.4435H41.4348V31.4503H42.5598ZM42.5598 31.4571V31.4503H41.4348V31.4571H42.5598ZM42.5598 31.4639V31.4571H41.4348V31.4639H42.5598ZM42.5598 31.4706V31.4639H41.4348V31.4706H42.5598ZM42.5598 31.4774V31.4706H41.4348V31.4774H42.5598ZM42.5598 31.4841V31.4774H41.4348V31.4841H42.5598ZM42.5598 31.4908V31.4841H41.4348V31.4908H42.5598ZM42.5598 31.4975V31.4908H41.4348V31.4975H42.5598ZM42.5598 31.5042V31.4975H41.4348V31.5042H42.5598ZM42.5598 31.5108V31.5042H41.4348V31.5108H42.5598ZM42.5598 31.5175V31.5108H41.4348V31.5175H42.5598ZM42.5598 31.5241V31.5175H41.4348V31.5241H42.5598ZM42.5598 31.5307V31.5241H41.4348V31.5307H42.5598ZM42.5598 31.5373V31.5307H41.4348V31.5373H42.5598ZM42.5598 31.5439V31.5373H41.4348V31.5439H42.5598ZM42.5598 31.5505V31.5439H41.4348V31.5505H42.5598ZM42.5598 31.557V31.5505H41.4348V31.557H42.5598ZM42.5598 31.5636V31.557H41.4348V31.5636H42.5598ZM42.5598 31.5701V31.5636H41.4348V31.5701H42.5598ZM42.5598 31.5766V31.5701H41.4348V31.5766H42.5598ZM42.5598 31.5831V31.5766H41.4348V31.5831H42.5598ZM42.5598 31.5895V31.5831H41.4348V31.5895H42.5598ZM42.5598 31.596V31.5895H41.4348V31.596H42.5598ZM42.5598 31.6024V31.596H41.4348V31.6024H42.5598ZM42.5598 31.6088V31.6024H41.4348V31.6088H42.5598ZM42.5598 31.6153V31.6088H41.4348V31.6153H42.5598ZM42.5598 31.6216V31.6153H41.4348V31.6216H42.5598ZM42.5598 31.628V31.6216H41.4348V31.628H42.5598ZM42.5598 31.6344V31.628H41.4348V31.6344H42.5598ZM42.5598 31.6407V31.6344H41.4348V31.6407H42.5598ZM42.5598 31.647V31.6407H41.4348V31.647H42.5598ZM42.5598 31.6533V31.647H41.4348V31.6533H42.5598ZM42.5598 31.6596V31.6533H41.4348V31.6596H42.5598ZM42.5598 31.6658V31.6596H41.4348V31.6658H42.5598ZM42.5598 31.6721V31.6658H41.4348V31.6721H42.5598ZM42.5598 31.6783V31.6721H41.4348V31.6783H42.5598ZM42.5598 31.6845V31.6783H41.4348V31.6845H42.5598ZM42.5598 31.6907V31.6845H41.4348V31.6907H42.5598ZM42.5598 31.6968V31.6907H41.4348V31.6968H42.5598ZM42.5598 31.703V31.6968H41.4348V31.703H42.5598ZM42.5598 31.7091V31.703H41.4348V31.7091H42.5598ZM42.5598 31.7152V31.7091H41.4348V31.7152H42.5598ZM42.5598 31.7213V31.7152H41.4348V31.7213H42.5598ZM42.5598 31.7274V31.7213H41.4348V31.7274H42.5598ZM42.5598 31.7334V31.7274H41.4348V31.7334H42.5598ZM42.5598 31.7394V31.7334H41.4348V31.7394H42.5598ZM42.5598 31.7454V31.7394H41.4348V31.7454H42.5598ZM42.5598 31.7514V31.7454H41.4348V31.7514H42.5598ZM42.5598 31.7574V31.7514H41.4348V31.7574H42.5598ZM42.5598 31.7633V31.7574H41.4348V31.7633H42.5598ZM42.5598 31.7693V31.7633H41.4348V31.7693H42.5598ZM42.5598 31.7752V31.7693H41.4348V31.7752H42.5598ZM42.5598 31.781V31.7752H41.4348V31.781H42.5598ZM42.5598 31.7869V31.781H41.4348V31.7869H42.5598ZM42.5598 31.7927V31.7869H41.4348V31.7927H42.5598ZM42.5598 31.7985V31.7927H41.4348V31.7985H42.5598ZM42.5598 31.8043V31.7985H41.4348V31.8043H42.5598ZM42.5598 31.8101V31.8043H41.4348V31.8101H42.5598ZM42.5598 31.8159V31.8101H41.4348V31.8159H42.5598ZM42.5598 31.8216V31.8159H41.4348V31.8216H42.5598ZM42.5598 31.8273V31.8216H41.4348V31.8273H42.5598ZM42.5598 31.833V31.8273H41.4348V31.833H42.5598ZM42.5598 31.8386V31.833H41.4348V31.8386H42.5598ZM42.5598 31.8442V31.8386H41.4348V31.8442H42.5598ZM42.5598 31.8499V31.8442H41.4348V31.8499H42.5598ZM42.5598 31.8554V31.8499H41.4348V31.8554H42.5598ZM42.5598 31.861V31.8554H41.4348V31.861H42.5598ZM42.5598 31.8665V31.861H41.4348V31.8665H42.5598ZM42.5598 31.8721V31.8665H41.4348V31.8721H42.5598ZM42.5598 31.8775V31.8721H41.4348V31.8775H42.5598ZM42.5598 31.883V31.8775H41.4348V31.883H42.5598ZM42.5598 31.8885V31.883H41.4348V31.8885H42.5598ZM42.5598 31.8939V31.8885H41.4348V31.8939H42.5598ZM42.5598 31.8993V31.8939H41.4348V31.8993H42.5598ZM42.5598 31.9046V31.8993H41.4348V31.9046H42.5598ZM42.5598 31.91V31.9046H41.4348V31.91H42.5598ZM42.5598 31.9153V31.91H41.4348V31.9153H42.5598ZM42.5598 31.9206V31.9153H41.4348V31.9206H42.5598ZM42.5598 31.9259V31.9206H41.4348V31.9259H42.5598ZM42.5598 31.9311V31.9259H41.4348V31.9311H42.5598ZM42.5598 31.9363V31.9311H41.4348V31.9363H42.5598ZM42.5598 31.9415V31.9363H41.4348V31.9415H42.5598ZM42.5598 31.9467V31.9415H41.4348V31.9467H42.5598ZM42.5598 31.9518V31.9467H41.4348V31.9518H42.5598ZM42.5598 31.9569V31.9518H41.4348V31.9569H42.5598ZM42.5598 31.962V31.9569H41.4348V31.962H42.5598ZM42.5598 31.9671V31.962H41.4348V31.9671H42.5598ZM42.5598 31.9721V31.9671H41.4348V31.9721H42.5598ZM42.5598 31.9771V31.9721H41.4348V31.9771H42.5598ZM42.5598 31.9821V31.9771H41.4348V31.9821H42.5598ZM42.5598 31.9871V31.9821H41.4348V31.9871H42.5598ZM42.5598 31.992V31.9871H41.4348V31.992H42.5598ZM42.5598 31.9969V31.992H41.4348V31.9969H42.5598ZM42.5598 32.0017V31.9969H41.4348V32.0017H42.5598ZM42.5598 32.0066V32.0017H41.4348V32.0066H42.5598ZM42.5598 32.0114V32.0066H41.4348V32.0114H42.5598ZM42.5598 32.0162V32.0114H41.4348V32.0162H42.5598ZM42.5598 32.0209V32.0162H41.4348V32.0209H42.5598ZM42.5598 32.0257V32.0209H41.4348V32.0257H42.5598ZM42.5598 32.0304V32.0257H41.4348V32.0304H42.5598ZM42.5598 32.035V32.0304H41.4348V32.035H42.5598ZM42.5598 32.0397V32.035H41.4348V32.0397H42.5598ZM42.5598 32.0443V32.0397H41.4348V32.0443H42.5598ZM42.5598 32.0489V32.0443H41.4348V32.0489H42.5598ZM42.5598 32.0534V32.0489H41.4348V32.0534H42.5598ZM42.5598 32.058V32.0534H41.4348V32.058H42.5598ZM42.5598 32.0625V32.058H41.4348V32.0625H42.5598ZM42.5598 32.0669V32.0625H41.4348V32.0669H42.5598ZM42.5598 32.0714V32.0669H41.4348V32.0714H42.5598ZM42.5598 32.0758V32.0714H41.4348V32.0758H42.5598ZM42.5598 32.0801V32.0758H41.4348V32.0801H42.5598ZM42.5598 32.0845V32.0801H41.4348V32.0845H42.5598ZM42.5598 32.0888V32.0845H41.4348V32.0888H42.5598ZM42.5598 32.0931V32.0888H41.4348V32.0931H42.5598ZM42.5598 32.0973V32.0931H41.4348V32.0973H42.5598ZM42.5598 32.1016V32.0973H41.4348V32.1016H42.5598ZM42.5598 32.1058V32.1016H41.4348V32.1058H42.5598ZM42.5598 32.1099V32.1058H41.4348V32.1099H42.5598ZM42.5598 32.114V32.1099H41.4348V32.114H42.5598ZM42.5598 32.1181V32.114H41.4348V32.1181H42.5598ZM42.5598 32.1222V32.1181H41.4348V32.1222H42.5598ZM42.5598 32.1262V32.1222H41.4348V32.1262H42.5598ZM42.5598 32.1302V32.1262H41.4348V32.1302H42.5598ZM42.5598 32.1342V32.1302H41.4348V32.1342H42.5598ZM42.5598 32.1381V32.1342H41.4348V32.1381H42.5598ZM42.5598 32.1421V32.1381H41.4348V32.1421H42.5598ZM42.5598 32.1459V32.1421H41.4348V32.1459H42.5598ZM42.5598 32.1498V32.1459H41.4348V32.1498H42.5598ZM42.5598 32.1536V32.1498H41.4348V32.1536H42.5598ZM42.5598 32.1573V32.1536H41.4348V32.1573H42.5598ZM42.5598 32.1611V32.1573H41.4348V32.1611H42.5598ZM42.5598 32.1648V32.1611H41.4348V32.1648H42.5598ZM42.5598 32.1685V32.1648H41.4348V32.1685H42.5598ZM42.5598 32.1721V32.1685H41.4348V32.1721H42.5598ZM42.5598 32.1757V32.1721H41.4348V32.1757H42.5598ZM42.5598 32.1793V32.1757H41.4348V32.1793H42.5598ZM42.5598 32.1828V32.1793H41.4348V32.1828H42.5598ZM42.5598 32.1863V32.1828H41.4348V32.1863H42.5598ZM42.5598 32.1898V32.1863H41.4348V32.1898H42.5598ZM42.5598 32.1932V32.1898H41.4348V32.1932H42.5598ZM42.5598 32.1966V32.1932H41.4348V32.1966H42.5598ZM42.5598 32.2V32.1966H41.4348V32.2H42.5598ZM42.5598 32.2033V32.2H41.4348V32.2033H42.5598ZM42.5598 32.2066V32.2033H41.4348V32.2066H42.5598ZM42.5598 32.2098V32.2066H41.4348V32.2098H42.5598ZM42.5598 32.2131V32.2098H41.4348V32.2131H42.5598ZM42.5598 32.2162V32.2131H41.4348V32.2162H42.5598ZM42.5598 32.2194V32.2162H41.4348V32.2194H42.5598ZM42.5598 32.2225V32.2194H41.4348V32.2225H42.5598ZM42.5598 32.2256V32.2225H41.4348V32.2256H42.5598ZM42.5598 32.2286V32.2256H41.4348V32.2286H42.5598ZM42.5598 32.2316V32.2286H41.4348V32.2316H42.5598ZM42.5598 32.2346V32.2316H41.4348V32.2346H42.5598ZM42.5598 32.2375V32.2346H41.4348V32.2375H42.5598ZM42.5598 32.2404V32.2375H41.4348V32.2404H42.5598ZM42.5598 32.2433V32.2404H41.4348V32.2433H42.5598ZM42.5598 32.2461V32.2433H41.4348V32.2461H42.5598ZM42.5598 32.2489V32.2461H41.4348V32.2489H42.5598ZM42.5598 32.2516V32.2489H41.4348V32.2516H42.5598ZM42.5598 32.2543V32.2516H41.4348V32.2543H42.5598ZM42.5598 32.257V32.2543H41.4348V32.257H42.5598ZM42.5598 32.2596V32.257H41.4348V32.2596H42.5598ZM42.5598 32.2622V32.2596H41.4348V32.2622H42.5598ZM42.5598 32.2648V32.2622H41.4348V32.2648H42.5598ZM42.5598 32.2673V32.2648H41.4348V32.2673H42.5598ZM42.5598 32.2698V32.2673H41.4348V32.2698H42.5598ZM42.5598 32.2722V32.2698H41.4348V32.2722H42.5598ZM42.5598 32.2746V32.2722H41.4348V32.2746H42.5598ZM42.5598 32.277V32.2746H41.4348V32.277H42.5598ZM42.5598 32.2793V32.277H41.4348V32.2793H42.5598ZM42.5598 32.2816V32.2793H41.4348V32.2816H42.5598ZM42.5598 32.2838V32.2816H41.4348V32.2838H42.5598ZM42.5598 32.286V32.2838H41.4348V32.286H42.5598ZM42.5598 32.2882V32.286H41.4348V32.2882H42.5598ZM42.5598 32.2903V32.2882H41.4348V32.2903H42.5598ZM42.5598 32.2924V32.2903H41.4348V32.2924H42.5598ZM42.5598 32.2944V32.2924H41.4348V32.2944H42.5598ZM42.5598 32.2964V32.2944H41.4348V32.2964H42.5598ZM42.5598 32.2984V32.2964H41.4348V32.2984H42.5598ZM42.5598 32.3003V32.2984H41.4348V32.3003H42.5598ZM42.5598 32.3022V32.3003H41.4348V32.3022H42.5598ZM42.5598 32.304V32.3022H41.4348V32.304H42.5598ZM42.5598 32.3058V32.304H41.4348V32.3058H42.5598ZM42.5598 32.3076V32.3058H41.4348V32.3076H42.5598ZM42.5598 32.3093V32.3076H41.4348V32.3093H42.5598ZM42.5598 32.311V32.3093H41.4348V32.311H42.5598ZM42.5598 32.3126V32.311H41.4348V32.3126H42.5598ZM42.5598 32.3142V32.3126H41.4348V32.3142H42.5598ZM42.5598 32.3158V32.3142H41.4348V32.3158H42.5598ZM42.5598 32.3173V32.3158H41.4348V32.3173H42.5598ZM42.5598 32.3187V32.3173H41.4348V32.3187H42.5598ZM42.5598 32.3201V32.3187H41.4348V32.3201H42.5598ZM42.5598 32.3215V32.3201H41.4348V32.3215H42.5598ZM42.5598 32.3229V32.3215H41.4348V32.3229H42.5598ZM42.5598 32.3241V32.3229H41.4348V32.3241H42.5598ZM42.5598 32.3254V32.3241H41.4348V32.3254H42.5598ZM42.5598 32.3266V32.3254H41.4348V32.3266H42.5598ZM42.5598 32.3278V32.3266H41.4348V32.3278H42.5598ZM42.5598 32.3289V32.3278H41.4348V32.3289H42.5598ZM42.5598 32.3299V32.3289H41.4348V32.3299H42.5598ZM42.5598 32.331V32.3299H41.4348V32.331H42.5598ZM42.5598 32.332V32.331H41.4348V32.332H42.5598ZM42.5598 32.3329V32.332H41.4348V32.3329H42.5598ZM42.5598 32.3338V32.3329H41.4348V32.3338H42.5598ZM42.5598 32.3347V32.3338H41.4348V32.3347H42.5598ZM42.5598 32.3355V32.3347H41.4348V32.3355H42.5598ZM42.5598 32.3362V32.3355H41.4348V32.3362H42.5598ZM42.5598 32.3369V32.3362H41.4348V32.3369H42.5598ZM42.5598 32.3376V32.3369H41.4348V32.3376H42.5598ZM42.5598 32.3382V32.3376H41.4348V32.3382H42.5598ZM42.5598 32.3388V32.3382H41.4348V32.3388H42.5598ZM42.5598 32.3394V32.3388H41.4348V32.3394H42.5598ZM42.5598 32.3398V32.3394H41.4348V32.3398H42.5598ZM42.5598 32.3403V32.3398H41.4348V32.3403H42.5598ZM42.5598 32.3407V32.3403H41.4348V32.3407H42.5598ZM42.5598 32.341V32.3407H41.4348V32.341H42.5598ZM42.5598 32.3413V32.341H41.4348V32.3413H42.5598ZM42.5598 32.3416V32.3413H41.4348V32.3416H42.5598ZM42.5598 32.3418V32.3416H41.4348V32.3418H42.5598ZM42.5598 32.342V32.3418H41.4348V32.342H42.5598ZM42.5598 32.3421V32.342H41.4348V32.3421H42.5598ZM42.5598 32.3422V32.3421H41.4348V32.3422H42.5598ZM41.8326 33.3024L42.3951 32.7399L41.5996 31.9444L41.0371 32.507L41.8326 33.3024ZM41.1947 33.4672H41.4348V32.3422H41.1947V33.4672ZM41.7572 41.1827V32.9047H40.6322V41.1827H41.7572ZM41.0299 42.1429L41.5924 41.5804L40.7969 40.7849L40.2344 41.3474L41.0299 42.1429ZM25.3672 42.3077H40.6322V41.1827H25.3672V42.3077ZM24.4069 41.5804L24.9694 42.1429L25.7649 41.3474L25.2024 40.7849L24.4069 41.5804ZM24.2422 32.9047V41.1827H25.3672V32.9047H24.2422ZM24.8006 33.4672H24.8047V32.3422H24.8006V33.4672ZM24.794 33.4672H24.8006V32.3422H24.794V33.4672ZM24.7875 33.4672H24.794V32.3422H24.7875V33.4672ZM24.781 33.4672H24.7875V32.3422H24.781V33.4672ZM24.7746 33.4672H24.781V32.3422H24.7746V33.4672ZM24.7683 33.4672H24.7746V32.3422H24.7683V33.4672ZM24.7621 33.4672H24.7683V32.3422H24.7621V33.4672ZM24.756 33.4672H24.7621V32.3422H24.756V33.4672ZM24.75 33.4672H24.756V32.3422H24.75V33.4672ZM24.744 33.4672H24.75V32.3422H24.744V33.4672ZM24.7382 33.4672H24.744V32.3422H24.7382V33.4672ZM24.7324 33.4672H24.7382V32.3422H24.7324V33.4672ZM24.7268 33.4672H24.7324V32.3422H24.7268V33.4672ZM24.7212 33.4672H24.7268V32.3422H24.7212V33.4672ZM24.7157 33.4672H24.7212V32.3422H24.7157V33.4672ZM24.7103 33.4672H24.7157V32.3422H24.7103V33.4672ZM24.7049 33.4672H24.7103V32.3422H24.7049V33.4672ZM24.6997 33.4672H24.7049V32.3422H24.6997V33.4672ZM24.6946 33.4672H24.6997V32.3422H24.6946V33.4672ZM24.6895 33.4672H24.6946V32.3422H24.6895V33.4672ZM24.6846 33.4672H24.6895V32.3422H24.6846V33.4672ZM24.6797 33.4672H24.6846V32.3422H24.6797V33.4672ZM24.675 33.4672H24.6797V32.3422H24.675V33.4672ZM24.6703 33.4672H24.675V32.3422H24.6703V33.4672ZM24.6657 33.4672H24.6703V32.3422H24.6657V33.4672ZM24.6612 33.4672H24.6657V32.3422H24.6612V33.4672ZM24.6568 33.4672H24.6612V32.3422H24.6568V33.4672ZM24.6525 33.4672H24.6568V32.3422H24.6525V33.4672ZM24.6483 33.4672H24.6525V32.3422H24.6483V33.4672ZM24.6442 33.4672H24.6483V32.3422H24.6442V33.4672ZM24.6402 33.4672H24.6442V32.3422H24.6402V33.4672ZM24.6363 33.4672H24.6402V32.3422H24.6363V33.4672ZM24.6325 33.4672H24.6363V32.3422H24.6325V33.4672ZM24.6288 33.4672H24.6325V32.3422H24.6288V33.4672ZM24.6252 33.4672H24.6288V32.3422H24.6252V33.4672ZM24.6217 33.4672H24.6252V32.3422H24.6217V33.4672ZM24.6182 33.4672H24.6217V32.3422H24.6182V33.4672ZM24.6149 33.4672H24.6182V32.3422H24.6149V33.4672ZM24.6117 33.4672H24.6149V32.3422H24.6117V33.4672ZM24.6086 33.4672H24.6117V32.3422H24.6086V33.4672ZM24.6055 33.4672H24.6086V32.3422H24.6055V33.4672ZM24.6026 33.4672H24.6055V32.3422H24.6026V33.4672ZM24.5998 33.4672H24.6026V32.3422H24.5998V33.4672ZM24.5971 33.4672H24.5998V32.3422H24.5971V33.4672ZM24.5944 33.4672H24.5971V32.3422H24.5944V33.4672ZM24.5919 33.4672H24.5944V32.3422H24.5919V33.4672ZM24.5895 33.4672H24.5919V32.3422H24.5895V33.4672ZM24.5872 33.4672H24.5895V32.3422H24.5872V33.4672ZM24.585 33.4672H24.5872V32.3422H24.585V33.4672ZM24.5829 33.4672H24.585V32.3422H24.5829V33.4672ZM24.5809 33.4672H24.5829V32.3422H24.5809V33.4672ZM24.579 33.4672H24.5809V32.3422H24.579V33.4672ZM24.5772 33.4672H24.579V32.3422H24.5772V33.4672ZM24.5755 33.4672H24.5772V32.3422H24.5755V33.4672ZM24.5739 33.4672H24.5755V32.3422H24.5739V33.4672ZM24.5725 33.4672H24.5739V32.3422H24.5725V33.4672ZM24.5711 33.4672H24.5725V32.3422H24.5711V33.4672ZM24.5698 33.4672H24.5711V32.3422H24.5698V33.4672ZM24.5687 33.4672H24.5698V32.3422H24.5687V33.4672ZM24.5676 33.4672H24.5687V32.3422H24.5676V33.4672ZM24.5667 33.4672H24.5676V32.3422H24.5667V33.4672ZM24.5659 33.4672H24.5667V32.3422H24.5659V33.4672ZM24.5652 33.4672H24.5659V32.3422H24.5652V33.4672ZM24.5645 33.4672H24.5652V32.3422H24.5645V33.4672ZM24.5641 33.4672H24.5645V32.3422H24.5641V33.4672ZM24.5637 33.4672H24.5641V32.3422H24.5637V33.4672ZM24.5634 33.4672H24.5637V32.3422H24.5634V33.4672ZM24.5632 33.4672H24.5634V32.3422H24.5632V33.4672ZM24.0007 32.3423L24.0007 32.9048L25.1257 32.9046L25.1257 32.3421L24.0007 32.3423ZM24.0007 32.9047L24.5632 32.9047L24.5631 31.7797L24.0006 31.7797L24.0007 32.9047ZM23.4382 32.3422V32.3422H24.5632V32.3422H23.4382ZM23.4382 32.3419V32.3422H24.5632V32.3419H23.4382ZM23.4382 32.3409L23.4382 32.3419L24.5632 32.3418L24.5632 32.3407L23.4382 32.3409ZM23.4382 32.3365L23.4382 32.3408L24.5632 32.3407L24.5632 32.3364L23.4382 32.3365ZM23.4382 32.3197L23.4382 32.3365L24.5632 32.3364L24.5632 32.3196L23.4382 32.3197ZM23.4382 32.255L23.4382 32.3197L24.5632 32.3196L24.5632 32.2549L23.4382 32.255ZM23.4381 32.0177L23.4382 32.255L24.5632 32.2549L24.5631 32.0177L23.4381 32.0177ZM23.4381 31.2424L23.4381 32.0177L24.5631 32.0177L24.5631 31.2424L23.4381 31.2424ZM23.438 29.5302L23.4381 31.2424L24.5631 31.2424L24.563 29.5301L23.438 29.5302ZM23.438 29.5295V29.5301H24.563V29.5295H23.438ZM23.438 28.3247V29.5295H24.563V28.3247H23.438ZM23.438 28.1689V28.3247H24.563V28.1689H23.438ZM23.5982 27.746L23.5181 27.8796L24.4829 28.4583L24.563 28.3247L23.5982 27.746ZM26.0085 23.7279L23.5982 27.746L24.563 28.3247L26.9732 24.3066L26.0085 23.7279ZM26.1724 23.4548L26.0085 23.7279L26.9732 24.3066L27.1371 24.0335L26.1724 23.4548ZM25.1257 32.9047V32.3422H24.0007V32.9047H25.1257ZM23.6029 32.74L24.1654 33.3025L24.9609 32.5069L24.3984 31.9445L23.6029 32.74ZM24.5631 31.7797L24.0006 31.7797L24.0007 32.9047L24.5632 32.9047L24.5631 31.7797ZM25.688 29.5301V29.5295H24.563V29.5301H25.688ZM25.6881 31.2423L25.688 29.5301L24.563 29.5302L24.5631 31.2423L25.6881 31.2423ZM25.6881 31.7797L25.6881 31.2423L24.5631 31.2424L24.5631 31.7797L25.6881 31.7797ZM25.1308 31.2172H25.1256V32.3422H25.1308V31.2172ZM25.1405 31.2172H25.1308V32.3422H25.1405V31.2172ZM25.1504 31.2172H25.1405V32.3422H25.1504V31.2172ZM25.1602 31.2172H25.1504V32.3422H25.1602V31.2172ZM25.1702 31.2172H25.1602V32.3422H25.1702V31.2172ZM25.1802 31.2172H25.1702V32.3422H25.1802V31.2172ZM25.1903 31.2172H25.1802V32.3422H25.1903V31.2172ZM25.2005 31.2172H25.1903V32.3422H25.2005V31.2172ZM25.2107 31.2172H25.2005V32.3422H25.2107V31.2172ZM25.221 31.2172H25.2107V32.3422H25.221V31.2172ZM25.2314 31.2172H25.221V32.3422H25.2314V31.2172ZM25.2418 31.2172H25.2314V32.3422H25.2418V31.2172ZM25.2523 31.2172H25.2418V32.3422H25.2523V31.2172ZM25.2628 31.2172H25.2523V32.3422H25.2628V31.2172ZM25.2734 31.2172H25.2628V32.3422H25.2734V31.2172ZM25.2841 31.2172H25.2734V32.3422H25.2841V31.2172ZM25.2948 31.2172H25.2841V32.3422H25.2948V31.2172ZM25.3056 31.2172H25.2948V32.3422H25.3056V31.2172ZM25.3165 31.2172H25.3056V32.3422H25.3165V31.2172ZM25.3274 31.2172H25.3165V32.3422H25.3274V31.2172ZM25.3384 31.2172H25.3274V32.3422H25.3384V31.2172ZM25.3494 31.2172H25.3384V32.3422H25.3494V31.2172ZM25.3605 31.2172H25.3494V32.3422H25.3605V31.2172ZM25.3717 31.2172H25.3605V32.3422H25.3717V31.2172ZM25.3829 31.2172H25.3717V32.3422H25.3829V31.2172ZM25.3942 31.2172H25.3829V32.3422H25.3942V31.2172ZM25.4055 31.2172H25.3942V32.3422H25.4055V31.2172ZM25.4169 31.2172H25.4055V32.3422H25.4169V31.2172ZM25.4284 31.2172H25.4169V32.3422H25.4284V31.2172ZM25.4399 31.2172H25.4284V32.3422H25.4399V31.2172ZM25.4514 31.2172H25.4399V32.3422H25.4514V31.2172ZM25.463 31.2172H25.4514V32.3422H25.463V31.2172ZM25.4747 31.2172H25.463V32.3422H25.4747V31.2172ZM25.4864 31.2172H25.4747V32.3422H25.4864V31.2172ZM25.4982 31.2172H25.4864V32.3422H25.4982V31.2172ZM25.5101 31.2172H25.4982V32.3422H25.5101V31.2172ZM25.522 31.2172H25.5101V32.3422H25.522V31.2172ZM25.5339 31.2172H25.522V32.3422H25.5339V31.2172ZM25.5459 31.2172H25.5339V32.3422H25.5459V31.2172ZM25.558 31.2172H25.5459V32.3422H25.558V31.2172ZM25.5701 31.2172H25.558V32.3422H25.5701V31.2172ZM25.5822 31.2172H25.5701V32.3422H25.5822V31.2172ZM25.5944 31.2172H25.5822V32.3422H25.5944V31.2172ZM25.6067 31.2172H25.5944V32.3422H25.6067V31.2172ZM25.619 31.2172H25.6067V32.3422H25.619V31.2172ZM25.6314 31.2172H25.619V32.3422H25.6314V31.2172ZM25.6438 31.2172H25.6314V32.3422H25.6438V31.2172ZM25.6562 31.2172H25.6438V32.3422H25.6562V31.2172ZM25.6688 31.2172H25.6562V32.3422H25.6688V31.2172ZM25.6813 31.2172H25.6688V32.3422H25.6813V31.2172ZM25.6939 31.2172H25.6813V32.3422H25.6939V31.2172ZM25.7066 31.2172H25.6939V32.3422H25.7066V31.2172ZM25.7193 31.2172H25.7066V32.3422H25.7193V31.2172ZM25.732 31.2172H25.7193V32.3422H25.732V31.2172ZM25.7448 31.2172H25.732V32.3422H25.7448V31.2172ZM25.7577 31.2172H25.7448V32.3422H25.7577V31.2172ZM25.7706 31.2172H25.7577V32.3422H25.7706V31.2172ZM25.7835 31.2172H25.7706V32.3422H25.7835V31.2172ZM25.7965 31.2172H25.7835V32.3422H25.7965V31.2172ZM25.8095 31.2172H25.7965V32.3422H25.8095V31.2172ZM25.8226 31.2172H25.8095V32.3422H25.8226V31.2172ZM25.8357 31.2172H25.8226V32.3422H25.8357V31.2172ZM25.8488 31.2172H25.8357V32.3422H25.8488V31.2172ZM25.862 31.2172H25.8488V32.3422H25.862V31.2172ZM25.8753 31.2172H25.862V32.3422H25.8753V31.2172ZM25.8886 31.2172H25.8753V32.3422H25.8886V31.2172ZM25.9019 31.2172H25.8886V32.3422H25.9019V31.2172ZM25.9153 31.2172H25.9019V32.3422H25.9153V31.2172ZM25.9287 31.2172H25.9153V32.3422H25.9287V31.2172ZM25.9421 31.2172H25.9287V32.3422H25.9421V31.2172ZM25.9556 31.2172H25.9421V32.3422H25.9556V31.2172ZM25.9692 31.2172H25.9556V32.3422H25.9692V31.2172ZM25.9827 31.2172H25.9692V32.3422H25.9827V31.2172ZM25.9963 31.2172H25.9827V32.3422H25.9963V31.2172ZM26.01 31.2172H25.9963V32.3422H26.01V31.2172ZM26.0237 31.2172H26.01V32.3422H26.0237V31.2172ZM26.0374 31.2172H26.0237V32.3422H26.0374V31.2172ZM26.0512 31.2172H26.0374V32.3422H26.0512V31.2172ZM26.065 31.2172H26.0512V32.3422H26.065V31.2172ZM26.0788 31.2172H26.065V32.3422H26.0788V31.2172ZM26.0927 31.2172H26.0788V32.3422H26.0927V31.2172ZM26.1066 31.2172H26.0927V32.3422H26.1066V31.2172ZM26.1205 31.2172H26.1066V32.3422H26.1205V31.2172ZM26.1345 31.2172H26.1205V32.3422H26.1345V31.2172ZM26.1485 31.2172H26.1345V32.3422H26.1485V31.2172ZM26.1626 31.2172H26.1485V32.3422H26.1626V31.2172ZM26.1766 31.2172H26.1626V32.3422H26.1766V31.2172ZM26.1908 31.2172H26.1766V32.3422H26.1908V31.2172ZM26.2049 31.2172H26.1908V32.3422H26.2049V31.2172ZM26.2191 31.2172H26.2049V32.3422H26.2191V31.2172ZM26.2333 31.2172H26.2191V32.3422H26.2333V31.2172ZM26.2476 31.2172H26.2333V32.3422H26.2476V31.2172ZM26.2618 31.2172H26.2476V32.3422H26.2618V31.2172ZM26.2761 31.2172H26.2618V32.3422H26.2761V31.2172ZM26.2905 31.2172H26.2761V32.3422H26.2905V31.2172ZM26.3048 31.2172H26.2905V32.3422H26.3048V31.2172ZM26.3192 31.2172H26.3048V32.3422H26.3192V31.2172ZM26.3337 31.2172H26.3192V32.3422H26.3337V31.2172ZM26.3481 31.2172H26.3337V32.3422H26.3481V31.2172ZM26.3626 31.2172H26.3481V32.3422H26.3626V31.2172ZM26.3771 31.2172H26.3626V32.3422H26.3771V31.2172ZM26.3917 31.2172H26.3771V32.3422H26.3917V31.2172ZM26.4062 31.2172H26.3917V32.3422H26.4062V31.2172ZM26.4208 31.2172H26.4062V32.3422H26.4208V31.2172ZM26.4355 31.2172H26.4208V32.3422H26.4355V31.2172ZM26.4501 31.2172H26.4355V32.3422H26.4501V31.2172ZM26.4648 31.2172H26.4501V32.3422H26.4648V31.2172ZM26.4795 31.2172H26.4648V32.3422H26.4795V31.2172ZM26.4942 31.2172H26.4795V32.3422H26.4942V31.2172ZM26.509 31.2172H26.4942V32.3422H26.509V31.2172ZM26.5237 31.2172H26.509V32.3422H26.5237V31.2172ZM26.5385 31.2172H26.5237V32.3422H26.5385V31.2172ZM26.5534 31.2172H26.5385V32.3422H26.5534V31.2172ZM26.5682 31.2172H26.5534V32.3422H26.5682V31.2172ZM26.5831 31.2172H26.5682V32.3422H26.5831V31.2172ZM26.598 31.2172H26.5831V32.3422H26.598V31.2172ZM26.6129 31.2172H26.598V32.3422H26.6129V31.2172ZM26.6278 31.2172H26.6129V32.3422H26.6278V31.2172ZM26.6428 31.2172H26.6278V32.3422H26.6428V31.2172ZM26.6577 31.2172H26.6428V32.3422H26.6577V31.2172ZM26.6727 31.2172H26.6577V32.3422H26.6727V31.2172ZM26.6877 31.2172H26.6727V32.3422H26.6877V31.2172ZM26.7028 31.2172H26.6877V32.3422H26.7028V31.2172ZM26.7178 31.2172H26.7028V32.3422H26.7178V31.2172ZM26.7329 31.2172H26.7178V32.3422H26.7329V31.2172ZM26.748 31.2172H26.7329V32.3422H26.748V31.2172ZM26.7631 31.2172H26.748V32.3422H26.7631V31.2172ZM26.7782 31.2172H26.7631V32.3422H26.7782V31.2172ZM26.7933 31.2172H26.7782V32.3422H26.7933V31.2172ZM26.8085 31.2172H26.7933V32.3422H26.8085V31.2172ZM26.8237 31.2172H26.8085V32.3422H26.8237V31.2172ZM26.8389 31.2172H26.8237V32.3422H26.8389V31.2172ZM26.8541 31.2172H26.8389V32.3422H26.8541V31.2172ZM26.8693 31.2172H26.8541V32.3422H26.8693V31.2172ZM26.8845 31.2172H26.8693V32.3422H26.8845V31.2172ZM26.8998 31.2172H26.8845V32.3422H26.8998V31.2172ZM26.915 31.2172H26.8998V32.3422H26.915V31.2172ZM26.9303 31.2172H26.915V32.3422H26.9303V31.2172ZM26.9456 31.2172H26.9303V32.3422H26.9456V31.2172ZM26.9609 31.2172H26.9456V32.3422H26.9609V31.2172ZM26.9762 31.2172H26.9609V32.3422H26.9762V31.2172ZM26.9915 31.2172H26.9762V32.3422H26.9915V31.2172ZM27.0069 31.2172H26.9915V32.3422H27.0069V31.2172ZM27.0222 31.2172H27.0069V32.3422H27.0222V31.2172ZM27.0376 31.2172H27.0222V32.3422H27.0376V31.2172ZM27.0529 31.2172H27.0376V32.3422H27.0529V31.2172ZM27.0683 31.2172H27.0529V32.3422H27.0683V31.2172ZM27.0837 31.2172H27.0683V32.3422H27.0837V31.2172ZM27.0991 31.2172H27.0837V32.3422H27.0991V31.2172ZM27.1145 31.2172H27.0991V32.3422H27.1145V31.2172ZM27.1299 31.2172H27.1145V32.3422H27.1299V31.2172ZM27.1453 31.2172H27.1299V32.3422H27.1453V31.2172ZM27.1607 31.2172H27.1453V32.3422H27.1607V31.2172ZM27.1762 31.2172H27.1607V32.3422H27.1762V31.2172ZM27.1916 31.2172H27.1762V32.3422H27.1916V31.2172ZM27.207 31.2172H27.1916V32.3422H27.207V31.2172ZM27.2225 31.2172H27.207V32.3422H27.2225V31.2172ZM27.238 31.2172H27.2225V32.3422H27.238V31.2172ZM27.2534 31.2172H27.238V32.3422H27.2534V31.2172ZM27.2689 31.2172H27.2534V32.3422H27.2689V31.2172ZM27.2843 31.2172H27.2689V32.3422H27.2843V31.2172ZM27.2998 31.2172H27.2843V32.3422H27.2998V31.2172ZM27.3153 31.2172H27.2998V32.3422H27.3153V31.2172ZM27.3308 31.2172H27.3153V32.3422H27.3308V31.2172ZM27.3462 31.2172H27.3308V32.3422H27.3462V31.2172ZM27.3617 31.2172H27.3462V32.3422H27.3617V31.2172ZM27.3772 31.2172H27.3617V32.3422H27.3772V31.2172ZM27.3927 31.2172H27.3772V32.3422H27.3927V31.2172ZM27.4082 31.2172H27.3927V32.3422H27.4082V31.2172ZM27.4237 31.2172H27.4082V32.3422H27.4237V31.2172ZM27.4392 31.2172H27.4237V32.3422H27.4392V31.2172ZM27.4546 31.2172H27.4392V32.3422H27.4546V31.2172ZM27.4701 31.2172H27.4546V32.3422H27.4701V31.2172ZM27.4856 31.2172H27.4701V32.3422H27.4856V31.2172ZM27.5011 31.2172H27.4856V32.3422H27.5011V31.2172ZM27.5166 31.2172H27.5011V32.3422H27.5166V31.2172ZM27.532 31.2172H27.5166V32.3422H27.532V31.2172ZM27.5475 31.2172H27.532V32.3422H27.5475V31.2172ZM27.563 31.2172H27.5475V32.3422H27.563V31.2172ZM27.5785 31.2172H27.563V32.3422H27.5785V31.2172ZM27.5939 31.2172H27.5785V32.3422H27.5939V31.2172ZM27.6094 31.2172H27.5939V32.3422H27.6094V31.2172ZM27.6248 31.2172H27.6094V32.3422H27.6248V31.2172ZM27.6403 31.2172H27.6248V32.3422H27.6403V31.2172ZM27.6557 31.2172H27.6403V32.3422H27.6557V31.2172ZM27.6712 31.2172H27.6557V32.3422H27.6712V31.2172ZM27.6866 31.2172H27.6712V32.3422H27.6866V31.2172ZM27.702 31.2172H27.6866V32.3422H27.702V31.2172ZM27.7174 31.2172H27.702V32.3422H27.7174V31.2172ZM27.7328 31.2172H27.7174V32.3422H27.7328V31.2172ZM27.7482 31.2172H27.7328V32.3422H27.7482V31.2172ZM27.7636 31.2172H27.7482V32.3422H27.7636V31.2172ZM27.779 31.2172H27.7636V32.3422H27.779V31.2172ZM27.7944 31.2172H27.779V32.3422H27.7944V31.2172ZM27.8097 31.2172H27.7944V32.3422H27.8097V31.2172ZM27.8251 31.2172H27.8097V32.3422H27.8251V31.2172ZM27.8404 31.2172H27.8251V32.3422H27.8404V31.2172ZM27.8558 31.2172H27.8404V32.3422H27.8558V31.2172ZM27.8711 31.2172H27.8558V32.3422H27.8711V31.2172ZM27.8864 31.2172H27.8711V32.3422H27.8864V31.2172ZM27.9017 31.2172H27.8864V32.3422H27.9017V31.2172ZM27.917 31.2172H27.9017V32.3422H27.917V31.2172ZM27.9322 31.2172H27.917V32.3422H27.9322V31.2172ZM27.9475 31.2172H27.9322V32.3422H27.9475V31.2172ZM27.9627 31.2172H27.9475V32.3422H27.9627V31.2172ZM27.978 31.2172H27.9627V32.3422H27.978V31.2172ZM27.9932 31.2172H27.978V32.3422H27.9932V31.2172ZM28.0084 31.2172H27.9932V32.3422H28.0084V31.2172ZM28.0236 31.2172H28.0084V32.3422H28.0236V31.2172ZM28.0387 31.2172H28.0236V32.3422H28.0387V31.2172ZM28.0539 31.2172H28.0387V32.3422H28.0539V31.2172ZM28.069 31.2172H28.0539V32.3422H28.069V31.2172ZM28.0841 31.2172H28.069V32.3422H28.0841V31.2172ZM28.0992 31.2172H28.0841V32.3422H28.0992V31.2172ZM28.1143 31.2172H28.0992V32.3422H28.1143V31.2172ZM28.1294 31.2172H28.1143V32.3422H28.1294V31.2172ZM28.1444 31.2172H28.1294V32.3422H28.1444V31.2172ZM28.1595 31.2172H28.1444V32.3422H28.1595V31.2172ZM28.1745 31.2172H28.1595V32.3422H28.1745V31.2172ZM28.1895 31.2172H28.1745V32.3422H28.1895V31.2172ZM28.2044 31.2172H28.1895V32.3422H28.2044V31.2172ZM28.2194 31.2172H28.2044V32.3422H28.2194V31.2172ZM28.2343 31.2172H28.2194V32.3422H28.2343V31.2172ZM28.2492 31.2172H28.2343V32.3422H28.2492V31.2172ZM28.2641 31.2172H28.2492V32.3422H28.2641V31.2172ZM28.2789 31.2172H28.2641V32.3422H28.2789V31.2172ZM28.2938 31.2172H28.2789V32.3422H28.2938V31.2172ZM28.3086 31.2172H28.2938V32.3422H28.3086V31.2172ZM28.3234 31.2172H28.3086V32.3422H28.3234V31.2172ZM28.3381 31.2172H28.3234V32.3422H28.3381V31.2172ZM28.3529 31.2172H28.3381V32.3422H28.3529V31.2172ZM28.3676 31.2172H28.3529V32.3422H28.3676V31.2172ZM28.3823 31.2172H28.3676V32.3422H28.3823V31.2172ZM28.397 31.2172H28.3823V32.3422H28.397V31.2172ZM28.4116 31.2172H28.397V32.3422H28.4116V31.2172ZM28.4262 31.2172H28.4116V32.3422H28.4262V31.2172ZM28.4408 31.2172H28.4262V32.3422H28.4408V31.2172ZM28.4554 31.2172H28.4408V32.3422H28.4554V31.2172ZM28.4699 31.2172H28.4554V32.3422H28.4699V31.2172ZM28.4844 31.2172H28.4699V32.3422H28.4844V31.2172ZM28.4989 31.2172H28.4844V32.3422H28.4989V31.2172ZM28.5133 31.2172H28.4989V32.3422H28.5133V31.2172ZM28.5277 31.2172H28.5133V32.3422H28.5277V31.2172ZM28.5421 31.2172H28.5277V32.3422H28.5421V31.2172ZM28.5565 31.2172H28.5421V32.3422H28.5565V31.2172ZM28.5708 31.2172H28.5565V32.3422H28.5708V31.2172ZM28.5851 31.2172H28.5708V32.3422H28.5851V31.2172ZM28.5994 31.2172H28.5851V32.3422H28.5994V31.2172ZM28.6136 31.2172H28.5994V32.3422H28.6136V31.2172ZM28.6278 31.2172H28.6136V32.3422H28.6278V31.2172ZM28.642 31.2172H28.6278V32.3422H28.642V31.2172ZM28.6561 31.2172H28.642V32.3422H28.6561V31.2172ZM28.6702 31.2172H28.6561V32.3422H28.6702V31.2172ZM28.6843 31.2172H28.6702V32.3422H28.6843V31.2172ZM28.6984 31.2172H28.6843V32.3422H28.6984V31.2172ZM28.7124 31.2172H28.6984V32.3422H28.7124V31.2172ZM28.7263 31.2172H28.7124V32.3422H28.7263V31.2172ZM28.7403 31.2172H28.7263V32.3422H28.7403V31.2172ZM28.7542 31.2172H28.7403V32.3422H28.7542V31.2172ZM28.768 31.2172H28.7542V32.3422H28.768V31.2172ZM28.7818 31.2172H28.768V32.3422H28.7818V31.2172ZM28.7956 31.2172H28.7818V32.3422H28.7956V31.2172ZM28.8094 31.2172H28.7956V32.3422H28.8094V31.2172ZM28.8231 31.2172H28.8094V32.3422H28.8231V31.2172ZM28.8368 31.2172H28.8231V32.3422H28.8368V31.2172ZM28.8504 31.2172H28.8368V32.3422H28.8504V31.2172ZM28.864 31.2172H28.8504V32.3422H28.864V31.2172ZM28.8776 31.2172H28.864V32.3422H28.8776V31.2172ZM28.8911 31.2172H28.8776V32.3422H28.8911V31.2172ZM28.9046 31.2172H28.8911V32.3422H28.9046V31.2172ZM28.918 31.2172H28.9046V32.3422H28.918V31.2172ZM28.9314 31.2172H28.918V32.3422H28.9314V31.2172ZM28.9448 31.2172H28.9314V32.3422H28.9448V31.2172ZM28.9581 31.2172H28.9448V32.3422H28.9581V31.2172ZM28.9713 31.2172H28.9581V32.3422H28.9713V31.2172ZM28.9846 31.2172H28.9713V32.3422H28.9846V31.2172ZM28.9978 31.2172H28.9846V32.3422H28.9978V31.2172ZM29.0109 31.2172H28.9978V32.3422H29.0109V31.2172ZM29.024 31.2172H29.0109V32.3422H29.024V31.2172ZM29.0371 31.2172H29.024V32.3422H29.0371V31.2172ZM29.0501 31.2172H29.0371V32.3422H29.0501V31.2172ZM29.063 31.2172H29.0501V32.3422H29.063V31.2172ZM29.076 31.2172H29.063V32.3422H29.076V31.2172ZM29.0888 31.2172H29.076V32.3422H29.0888V31.2172ZM29.1017 31.2172H29.0888V32.3422H29.1017V31.2172ZM29.1144 31.2172H29.1017V32.3422H29.1144V31.2172ZM29.1272 31.2172H29.1144V32.3422H29.1272V31.2172ZM29.1399 31.2172H29.1272V32.3422H29.1399V31.2172ZM29.1525 31.2172H29.1399V32.3422H29.1525V31.2172ZM29.1651 31.2172H29.1525V32.3422H29.1651V31.2172ZM29.1776 31.2172H29.1651V32.3422H29.1776V31.2172ZM29.1901 31.2172H29.1776V32.3422H29.1901V31.2172ZM29.2026 31.2172H29.1901V32.3422H29.2026V31.2172ZM29.215 31.2172H29.2026V32.3422H29.215V31.2172ZM29.2273 31.2172H29.215V32.3422H29.2273V31.2172ZM29.2396 31.2172H29.2273V32.3422H29.2396V31.2172ZM29.2519 31.2172H29.2396V32.3422H29.2519V31.2172ZM29.2641 31.2172H29.2519V32.3422H29.2641V31.2172ZM29.2762 31.2172H29.2641V32.3422H29.2762V31.2172ZM29.2883 31.2172H29.2762V32.3422H29.2883V31.2172ZM29.3003 31.2172H29.2883V32.3422H29.3003V31.2172ZM29.3123 31.2172H29.3003V32.3422H29.3123V31.2172ZM29.3242 31.2172H29.3123V32.3422H29.3242V31.2172ZM29.3361 31.2172H29.3242V32.3422H29.3361V31.2172ZM29.3479 31.2172H29.3361V32.3422H29.3479V31.2172ZM29.3597 31.2172H29.3479V32.3422H29.3597V31.2172ZM29.3714 31.2172H29.3597V32.3422H29.3714V31.2172ZM29.3831 31.2172H29.3714V32.3422H29.3831V31.2172ZM29.3947 31.2172H29.3831V32.3422H29.3947V31.2172ZM29.4062 31.2172H29.3947V32.3422H29.4062V31.2172ZM29.4177 31.2172H29.4062V32.3422H29.4177V31.2172ZM29.4291 31.2172H29.4177V32.3422H29.4291V31.2172ZM29.4405 31.2172H29.4291V32.3422H29.4405V31.2172ZM29.4518 31.2172H29.4405V32.3422H29.4518V31.2172ZM29.4631 31.2172H29.4518V32.3422H29.4631V31.2172ZM29.4743 31.2172H29.4631V32.3422H29.4743V31.2172ZM29.4854 31.2172H29.4743V32.3422H29.4854V31.2172ZM29.4965 31.2172H29.4854V32.3422H29.4965V31.2172ZM29.5075 31.2172H29.4965V32.3422H29.5075V31.2172ZM29.5185 31.2172H29.5075V32.3422H29.5185V31.2172ZM29.5294 31.2172H29.5185V32.3422H29.5294V31.2172ZM29.5402 31.2172H29.5294V32.3422H29.5402V31.2172ZM29.551 31.2172H29.5402V32.3422H29.551V31.2172ZM29.5617 31.2172H29.551V32.3422H29.5617V31.2172ZM29.5724 31.2172H29.5617V32.3422H29.5724V31.2172ZM29.5829 31.2172H29.5724V32.3422H29.5829V31.2172ZM29.5935 31.2172H29.5829V32.3422H29.5935V31.2172ZM29.6039 31.2172H29.5935V32.3422H29.6039V31.2172ZM29.6143 31.2172H29.6039V32.3422H29.6143V31.2172ZM29.6211 31.2172H29.6143V32.3422H29.6211V31.2172ZM29.0586 28.7297V31.7797H30.1836V28.7297H29.0586ZM30.7461 28.1672H29.6211V29.2922H30.7461V28.1672ZM31.3086 31.7797V28.7297H30.1836V31.7797H31.3086ZM35.2461 31.2172H30.7461V32.3422H35.2461V31.2172ZM35.8086 31.7797V28.7297H34.6836V31.7797H35.8086ZM35.2461 29.2922H36.3711V28.1672H35.2461V29.2922ZM35.8086 28.7297V31.7797H36.9336V28.7297H35.8086ZM40.8723 31.2172H36.3711V32.3422H40.8723V31.2172ZM40.3098 31.7752V31.7797H41.4348V31.7752H40.3098ZM40.3098 31.7693V31.7752H41.4348V31.7693H40.3098ZM40.3098 31.7633V31.7693H41.4348V31.7633H40.3098ZM40.3098 31.7574V31.7633H41.4348V31.7574H40.3098ZM40.3098 31.7514V31.7574H41.4348V31.7514H40.3098ZM40.3098 31.7454V31.7514H41.4348V31.7454H40.3098ZM40.3098 31.7394V31.7454H41.4348V31.7394H40.3098ZM40.3098 31.7334V31.7394H41.4348V31.7334H40.3098ZM40.3098 31.7274V31.7334H41.4348V31.7274H40.3098ZM40.3098 31.7213V31.7274H41.4348V31.7213H40.3098ZM40.3098 31.7152V31.7213H41.4348V31.7152H40.3098ZM40.3098 31.7091V31.7152H41.4348V31.7091H40.3098ZM40.3098 31.703V31.7091H41.4348V31.703H40.3098ZM40.3098 31.6968V31.703H41.4348V31.6968H40.3098ZM40.3098 31.6907V31.6968H41.4348V31.6907H40.3098ZM40.3098 31.6845V31.6907H41.4348V31.6845H40.3098ZM40.3098 31.6783V31.6845H41.4348V31.6783H40.3098ZM40.3098 31.6721V31.6783H41.4348V31.6721H40.3098ZM40.3098 31.6658V31.6721H41.4348V31.6658H40.3098ZM40.3098 31.6596V31.6658H41.4348V31.6596H40.3098ZM40.3098 31.6533V31.6596H41.4348V31.6533H40.3098ZM40.3098 31.647V31.6533H41.4348V31.647H40.3098ZM40.3098 31.6407V31.647H41.4348V31.6407H40.3098ZM40.3098 31.6344V31.6407H41.4348V31.6344H40.3098ZM40.3098 31.628V31.6344H41.4348V31.628H40.3098ZM40.3098 31.6216V31.628H41.4348V31.6216H40.3098ZM40.3098 31.6153V31.6216H41.4348V31.6153H40.3098ZM40.3098 31.6088V31.6153H41.4348V31.6088H40.3098ZM40.3098 31.6024V31.6088H41.4348V31.6024H40.3098ZM40.3098 31.596V31.6024H41.4348V31.596H40.3098ZM40.3098 31.5895V31.596H41.4348V31.5895H40.3098ZM40.3098 31.5831V31.5895H41.4348V31.5831H40.3098ZM40.3098 31.5766V31.5831H41.4348V31.5766H40.3098ZM40.3098 31.5701V31.5766H41.4348V31.5701H40.3098ZM40.3098 31.5636V31.5701H41.4348V31.5636H40.3098ZM40.3098 31.557V31.5636H41.4348V31.557H40.3098ZM40.3098 31.5505V31.557H41.4348V31.5505H40.3098ZM40.3098 31.5439V31.5505H41.4348V31.5439H40.3098ZM40.3098 31.5373V31.5439H41.4348V31.5373H40.3098ZM40.3098 31.5307V31.5373H41.4348V31.5307H40.3098ZM40.3098 31.5241V31.5307H41.4348V31.5241H40.3098ZM40.3098 31.5175V31.5241H41.4348V31.5175H40.3098ZM40.3098 31.5108V31.5175H41.4348V31.5108H40.3098ZM40.3098 31.5042V31.5108H41.4348V31.5042H40.3098ZM40.3098 31.4975V31.5042H41.4348V31.4975H40.3098ZM40.3098 31.4908V31.4975H41.4348V31.4908H40.3098ZM40.3098 31.4841V31.4908H41.4348V31.4841H40.3098ZM40.3098 31.4774V31.4841H41.4348V31.4774H40.3098ZM40.3098 31.4706V31.4774H41.4348V31.4706H40.3098ZM40.3098 31.4639V31.4706H41.4348V31.4639H40.3098ZM40.3098 31.4571V31.4639H41.4348V31.4571H40.3098ZM40.3098 31.4503V31.4571H41.4348V31.4503H40.3098ZM40.3098 31.4435V31.4503H41.4348V31.4435H40.3098ZM40.3098 31.4367V31.4435H41.4348V31.4367H40.3098ZM40.3098 31.4299V31.4367H41.4348V31.4299H40.3098ZM40.3098 31.4231V31.4299H41.4348V31.4231H40.3098ZM40.3098 31.4163V31.4231H41.4348V31.4163H40.3098ZM40.3098 31.4094V31.4163H41.4348V31.4094H40.3098ZM40.3098 31.4025V31.4094H41.4348V31.4025H40.3098ZM40.3098 31.3957V31.4025H41.4348V31.3957H40.3098ZM40.3098 31.3888V31.3957H41.4348V31.3888H40.3098ZM40.3098 31.3819V31.3888H41.4348V31.3819H40.3098ZM40.3098 31.3749V31.3819H41.4348V31.3749H40.3098ZM40.3098 31.368V31.3749H41.4348V31.368H40.3098ZM40.3098 31.3611V31.368H41.4348V31.3611H40.3098ZM40.3098 31.3541V31.3611H41.4348V31.3541H40.3098ZM40.3098 31.3471V31.3541H41.4348V31.3471H40.3098ZM40.3098 31.3402V31.3471H41.4348V31.3402H40.3098ZM40.3098 31.3332V31.3402H41.4348V31.3332H40.3098ZM40.3098 31.3262V31.3332H41.4348V31.3262H40.3098ZM40.3098 31.3192V31.3262H41.4348V31.3192H40.3098ZM40.3098 31.3122V31.3192H41.4348V31.3122H40.3098ZM40.3098 31.3051V31.3122H41.4348V31.3051H40.3098ZM40.3098 31.2981V31.3051H41.4348V31.2981H40.3098ZM40.3098 31.291V31.2981H41.4348V31.291H40.3098ZM40.3098 31.284V31.291H41.4348V31.284H40.3098ZM40.3098 31.2769V31.284H41.4348V31.2769H40.3098ZM40.3098 31.2698V31.2769H41.4348V31.2698H40.3098ZM40.3098 31.2627V31.2698H41.4348V31.2627H40.3098ZM40.3098 31.2556V31.2627H41.4348V31.2556H40.3098ZM40.3098 31.2485V31.2556H41.4348V31.2485H40.3098ZM40.3098 31.2414V31.2485H41.4348V31.2414H40.3098ZM40.3098 31.2343V31.2414H41.4348V31.2343H40.3098ZM40.3098 31.2271V31.2343H41.4348V31.2271H40.3098ZM40.3098 31.22V31.2271H41.4348V31.22H40.3098ZM40.3098 31.2128V31.22H41.4348V31.2128H40.3098ZM40.3098 31.2057V31.2128H41.4348V31.2057H40.3098ZM40.3098 31.1985V31.2057H41.4348V31.1985H40.3098ZM40.3098 31.1913V31.1985H41.4348V31.1913H40.3098ZM40.3098 31.1841V31.1913H41.4348V31.1841H40.3098ZM40.3098 31.1769V31.1841H41.4348V31.1769H40.3098ZM40.3098 31.1697V31.1769H41.4348V31.1697H40.3098ZM40.3098 31.1625V31.1697H41.4348V31.1625H40.3098ZM40.3098 31.1553V31.1625H41.4348V31.1553H40.3098ZM40.3098 31.1481V31.1553H41.4348V31.1481H40.3098ZM40.3098 31.1409V31.1481H41.4348V31.1409H40.3098ZM40.3098 31.1336V31.1409H41.4348V31.1336H40.3098ZM40.3098 31.1264V31.1336H41.4348V31.1264H40.3098ZM40.3098 31.1191V31.1264H41.4348V31.1191H40.3098ZM40.3098 31.1119V31.1191H41.4348V31.1119H40.3098ZM40.3098 31.1046V31.1119H41.4348V31.1046H40.3098ZM40.3098 31.0973V31.1046H41.4348V31.0973H40.3098ZM40.3098 31.0901V31.0973H41.4348V31.0901H40.3098ZM40.3098 31.0828V31.0901H41.4348V31.0828H40.3098ZM40.3098 31.0755V31.0828H41.4348V31.0755H40.3098ZM40.3098 31.0682V31.0755H41.4348V31.0682H40.3098ZM40.3098 31.0609V31.0682H41.4348V31.0609H40.3098ZM40.3098 31.0536V31.0609H41.4348V31.0536H40.3098ZM40.3098 31.0463V31.0536H41.4348V31.0463H40.3098ZM40.3098 31.039V31.0463H41.4348V31.039H40.3098ZM40.3098 31.0316V31.039H41.4348V31.0316H40.3098ZM40.3098 31.0243V31.0316H41.4348V31.0243H40.3098ZM40.3098 31.017V31.0243H41.4348V31.017H40.3098ZM40.3098 31.0097V31.017H41.4348V31.0097H40.3098ZM40.3098 31.0023V31.0097H41.4348V31.0023H40.3098ZM40.3098 30.995V31.0023H41.4348V30.995H40.3098ZM40.3098 30.9876V30.995H41.4348V30.9876H40.3098ZM40.3098 30.9803V30.9876H41.4348V30.9803H40.3098ZM40.3098 30.9729V30.9803H41.4348V30.9729H40.3098ZM40.3098 30.9656V30.9729H41.4348V30.9656H40.3098ZM40.3098 30.9582V30.9656H41.4348V30.9582H40.3098ZM40.3098 30.9509V30.9582H41.4348V30.9509H40.3098ZM40.3098 30.9435V30.9509H41.4348V30.9435H40.3098ZM40.3098 30.9361V30.9435H41.4348V30.9361H40.3098ZM40.3098 30.9287V30.9361H41.4348V30.9287H40.3098ZM40.3098 30.9214V30.9287H41.4348V30.9214H40.3098ZM40.3098 30.914V30.9214H41.4348V30.914H40.3098ZM40.3098 30.9066V30.914H41.4348V30.9066H40.3098ZM40.3098 30.8992V30.9066H41.4348V30.8992H40.3098ZM40.3098 30.8919V30.8992H41.4348V30.8919H40.3098ZM40.3098 30.8845V30.8919H41.4348V30.8845H40.3098ZM40.3098 30.8771V30.8845H41.4348V30.8771H40.3098ZM40.3098 30.8697V30.8771H41.4348V30.8697H40.3098ZM40.3098 30.8623V30.8697H41.4348V30.8623H40.3098ZM40.3098 30.8549V30.8623H41.4348V30.8549H40.3098ZM40.3098 30.8475V30.8549H41.4348V30.8475H40.3098ZM40.3098 30.8401V30.8475H41.4348V30.8401H40.3098ZM40.3098 30.8328V30.8401H41.4348V30.8328H40.3098ZM40.3098 30.8254V30.8328H41.4348V30.8254H40.3098ZM40.3098 30.818V30.8254H41.4348V30.818H40.3098ZM40.3098 30.8106V30.818H41.4348V30.8106H40.3098ZM40.3098 30.8032V30.8106H41.4348V30.8032H40.3098ZM40.3098 30.7958V30.8032H41.4348V30.7958H40.3098ZM40.3098 30.7884V30.7958H41.4348V30.7884H40.3098ZM40.3098 30.781V30.7884H41.4348V30.781H40.3098ZM40.3098 30.7736V30.781H41.4348V30.7736H40.3098ZM40.3098 30.7662V30.7736H41.4348V30.7662H40.3098ZM40.3098 30.7588V30.7662H41.4348V30.7588H40.3098ZM40.3098 30.7514V30.7588H41.4348V30.7514H40.3098ZM40.3098 30.7441V30.7514H41.4348V30.7441H40.3098ZM40.3098 30.7367V30.7441H41.4348V30.7367H40.3098ZM40.3098 30.7293V30.7367H41.4348V30.7293H40.3098ZM40.3098 30.7219V30.7293H41.4348V30.7219H40.3098ZM40.3098 30.7145V30.7219H41.4348V30.7145H40.3098ZM40.3098 30.7071V30.7145H41.4348V30.7071H40.3098ZM40.3098 30.6998V30.7071H41.4348V30.6998H40.3098ZM40.3098 30.6924V30.6998H41.4348V30.6924H40.3098ZM40.3098 30.685V30.6924H41.4348V30.685H40.3098ZM40.3098 30.6776V30.685H41.4348V30.6776H40.3098ZM40.3098 30.6703V30.6776H41.4348V30.6703H40.3098ZM40.3098 30.6629V30.6703H41.4348V30.6629H40.3098ZM40.3098 30.6556V30.6629H41.4348V30.6556H40.3098ZM40.3098 30.6482V30.6556H41.4348V30.6482H40.3098ZM40.3098 30.6408V30.6482H41.4348V30.6408H40.3098ZM40.3098 30.6335V30.6408H41.4348V30.6335H40.3098ZM40.3098 30.6261V30.6335H41.4348V30.6261H40.3098ZM40.3098 30.6188V30.6261H41.4348V30.6188H40.3098ZM40.3098 30.6115V30.6188H41.4348V30.6115H40.3098ZM40.3098 30.6041V30.6115H41.4348V30.6041H40.3098ZM40.3098 30.5968V30.6041H41.4348V30.5968H40.3098ZM40.3098 30.5895V30.5968H41.4348V30.5895H40.3098ZM40.3098 30.5821V30.5895H41.4348V30.5821H40.3098ZM40.3098 30.5748V30.5821H41.4348V30.5748H40.3098ZM40.3098 30.5675V30.5748H41.4348V30.5675H40.3098ZM40.3098 30.5602V30.5675H41.4348V30.5602H40.3098ZM40.3098 30.5529V30.5602H41.4348V30.5529H40.3098ZM40.3098 30.5456V30.5529H41.4348V30.5456H40.3098ZM40.3098 30.5383V30.5456H41.4348V30.5383H40.3098ZM40.3098 30.531V30.5383H41.4348V30.531H40.3098ZM40.3098 30.5237V30.531H41.4348V30.5237H40.3098ZM40.3098 30.5164V30.5237H41.4348V30.5164H40.3098ZM40.3098 30.5092V30.5164H41.4348V30.5092H40.3098ZM40.3098 30.5019V30.5092H41.4348V30.5019H40.3098ZM40.3098 30.4947V30.5019H41.4348V30.4947H40.3098ZM40.3098 30.4874V30.4947H41.4348V30.4874H40.3098ZM40.3098 30.4802V30.4874H41.4348V30.4802H40.3098ZM40.3098 30.4729V30.4802H41.4348V30.4729H40.3098ZM40.3098 30.4657V30.4729H41.4348V30.4657H40.3098ZM40.3098 30.4585V30.4657H41.4348V30.4585H40.3098ZM40.3098 30.4512V30.4585H41.4348V30.4512H40.3098ZM40.3098 30.444V30.4512H41.4348V30.444H40.3098ZM40.3098 30.4368V30.444H41.4348V30.4368H40.3098ZM40.3098 30.4296V30.4368H41.4348V30.4296H40.3098ZM40.3098 30.4225V30.4296H41.4348V30.4225H40.3098ZM40.3098 30.4153V30.4225H41.4348V30.4153H40.3098ZM40.3098 30.4081V30.4153H41.4348V30.4081H40.3098ZM40.3098 30.4009V30.4081H41.4348V30.4009H40.3098ZM40.3098 30.3938V30.4009H41.4348V30.3938H40.3098ZM40.3098 30.3866V30.3938H41.4348V30.3866H40.3098ZM40.3098 30.3795V30.3866H41.4348V30.3795H40.3098ZM40.3098 30.3724V30.3795H41.4348V30.3724H40.3098ZM40.3098 30.3653V30.3724H41.4348V30.3653H40.3098ZM40.3098 30.3582V30.3653H41.4348V30.3582H40.3098ZM40.3098 30.3511V30.3582H41.4348V30.3511H40.3098ZM40.3098 30.344V30.3511H41.4348V30.344H40.3098ZM40.3098 30.3369V30.344H41.4348V30.3369H40.3098ZM40.3098 30.3298V30.3369H41.4348V30.3298H40.3098ZM40.3098 30.3228V30.3298H41.4348V30.3228H40.3098ZM40.3098 30.3157V30.3228H41.4348V30.3157H40.3098ZM40.3098 30.3087V30.3157H41.4348V30.3087H40.3098ZM40.3098 30.3016V30.3087H41.4348V30.3016H40.3098ZM40.3098 30.2946V30.3016H41.4348V30.2946H40.3098ZM40.3098 30.2876V30.2946H41.4348V30.2876H40.3098ZM40.3098 30.2806V30.2876H41.4348V30.2806H40.3098ZM40.3098 30.2736V30.2806H41.4348V30.2736H40.3098ZM40.3098 30.2667V30.2736H41.4348V30.2667H40.3098ZM40.3098 30.2597V30.2667H41.4348V30.2597H40.3098ZM40.3098 30.2527V30.2597H41.4348V30.2527H40.3098ZM40.3098 30.2458V30.2527H41.4348V30.2458H40.3098ZM40.3098 30.2389V30.2458H41.4348V30.2389H40.3098ZM40.3098 30.232V30.2389H41.4348V30.232H40.3098ZM40.3098 30.225V30.232H41.4348V30.225H40.3098ZM40.3098 30.2182V30.225H41.4348V30.2182H40.3098ZM40.3098 30.2113V30.2182H41.4348V30.2113H40.3098ZM40.3098 30.2044V30.2113H41.4348V30.2044H40.3098ZM40.3098 30.1976V30.2044H41.4348V30.1976H40.3098ZM40.3098 30.1907V30.1976H41.4348V30.1907H40.3098ZM40.3098 30.1839V30.1907H41.4348V30.1839H40.3098ZM40.3098 30.1771V30.1839H41.4348V30.1771H40.3098ZM40.3098 30.1703V30.1771H41.4348V30.1703H40.3098ZM40.3098 30.1635V30.1703H41.4348V30.1635H40.3098ZM40.3098 30.1567V30.1635H41.4348V30.1567H40.3098ZM40.3098 30.1499V30.1567H41.4348V30.1499H40.3098ZM40.3098 30.1432V30.1499H41.4348V30.1432H40.3098ZM40.3098 30.1365V30.1432H41.4348V30.1365H40.3098ZM40.3098 30.1297V30.1365H41.4348V30.1297H40.3098ZM40.3098 30.123V30.1297H41.4348V30.123H40.3098ZM40.3098 30.1164V30.123H41.4348V30.1164H40.3098ZM40.3098 30.1097V30.1164H41.4348V30.1097H40.3098ZM40.3098 30.103V30.1097H41.4348V30.103H40.3098ZM40.3098 30.0964V30.103H41.4348V30.0964H40.3098ZM40.3098 30.0897V30.0964H41.4348V30.0897H40.3098ZM40.3098 30.0831V30.0897H41.4348V30.0831H40.3098ZM40.3098 30.0765V30.0831H41.4348V30.0765H40.3098ZM40.3098 30.0699V30.0765H41.4348V30.0699H40.3098ZM40.3098 30.0634V30.0699H41.4348V30.0634H40.3098ZM40.3098 30.0568V30.0634H41.4348V30.0568H40.3098ZM40.3098 30.0503V30.0568H41.4348V30.0503H40.3098ZM40.3098 30.0438V30.0503H41.4348V30.0438H40.3098ZM40.3098 30.0373V30.0438H41.4348V30.0373H40.3098ZM40.3098 30.0308V30.0373H41.4348V30.0308H40.3098ZM40.3098 30.0243V30.0308H41.4348V30.0243H40.3098ZM40.3098 30.0179V30.0243H41.4348V30.0179H40.3098ZM40.3098 30.0114V30.0179H41.4348V30.0114H40.3098ZM40.3098 30.005V30.0114H41.4348V30.005H40.3098ZM40.3098 29.9986V30.005H41.4348V29.9986H40.3098ZM40.3098 29.9922V29.9986H41.4348V29.9922H40.3098ZM40.3098 29.9859V29.9922H41.4348V29.9859H40.3098ZM40.3098 29.9795V29.9859H41.4348V29.9795H40.3098ZM40.3098 29.9732V29.9795H41.4348V29.9732H40.3098ZM40.3098 29.9669V29.9732H41.4348V29.9669H40.3098ZM40.3098 29.9606V29.9669H41.4348V29.9606H40.3098ZM40.3098 29.9543V29.9606H41.4348V29.9543H40.3098ZM40.3098 29.948V29.9543H41.4348V29.948H40.3098ZM40.3098 29.9418V29.948H41.4348V29.9418H40.3098ZM40.3098 29.9356V29.9418H41.4348V29.9356H40.3098ZM40.3098 29.9294V29.9356H41.4348V29.9294H40.3098ZM40.3098 29.9232V29.9294H41.4348V29.9232H40.3098ZM40.3098 29.917V29.9232H41.4348V29.917H40.3098ZM40.3098 29.9109V29.917H41.4348V29.9109H40.3098ZM40.3098 29.9048V29.9109H41.4348V29.9048H40.3098ZM40.3098 29.8987V29.9048H41.4348V29.8987H40.3098ZM40.3098 29.8926V29.8987H41.4348V29.8926H40.3098ZM40.3098 29.8865V29.8926H41.4348V29.8865H40.3098ZM40.3098 29.8805V29.8865H41.4348V29.8805H40.3098ZM40.3098 29.8744V29.8805H41.4348V29.8744H40.3098ZM40.3098 29.8684V29.8744H41.4348V29.8684H40.3098ZM40.3098 29.8625V29.8684H41.4348V29.8625H40.3098ZM40.3098 29.8565V29.8625H41.4348V29.8565H40.3098ZM40.3098 29.8506V29.8565H41.4348V29.8506H40.3098ZM40.3098 29.8446V29.8506H41.4348V29.8446H40.3098ZM40.3098 29.8387V29.8446H41.4348V29.8387H40.3098ZM40.3098 29.8329V29.8387H41.4348V29.8329H40.3098ZM40.3098 29.827V29.8329H41.4348V29.827H40.3098ZM40.3098 29.8212V29.827H41.4348V29.8212H40.3098ZM40.3098 29.8154V29.8212H41.4348V29.8154H40.3098ZM40.3098 29.8096V29.8154H41.4348V29.8096H40.3098ZM40.3098 29.8038V29.8096H41.4348V29.8038H40.3098ZM40.3098 29.7981V29.8038H41.4348V29.7981H40.3098ZM40.3098 29.7923V29.7981H41.4348V29.7923H40.3098ZM40.3098 29.7866V29.7923H41.4348V29.7866H40.3098ZM40.3098 29.781V29.7866H41.4348V29.781H40.3098ZM40.3098 29.7753V29.781H41.4348V29.7753H40.3098ZM40.3098 29.7697V29.7753H41.4348V29.7697H40.3098ZM40.3098 29.7641V29.7697H41.4348V29.7641H40.3098ZM40.3098 29.7585V29.7641H41.4348V29.7585H40.3098ZM40.3098 29.7529V29.7585H41.4348V29.7529H40.3098ZM40.3098 29.7474V29.7529H41.4348V29.7474H40.3098ZM40.3098 29.7419V29.7474H41.4348V29.7419H40.3098ZM40.3098 29.7364V29.7419H41.4348V29.7364H40.3098ZM40.3098 29.7309V29.7364H41.4348V29.7309H40.3098ZM40.3098 29.7255V29.7309H41.4348V29.7255H40.3098ZM40.3098 29.7201V29.7255H41.4348V29.7201H40.3098ZM40.3098 29.7147V29.7201H41.4348V29.7147H40.3098ZM40.3098 29.7093V29.7147H41.4348V29.7093H40.3098ZM40.3098 29.704V29.7093H41.4348V29.704H40.3098ZM40.3098 29.6986V29.704H41.4348V29.6986H40.3098ZM40.3098 29.6934V29.6986H41.4348V29.6934H40.3098ZM40.3098 29.6881V29.6934H41.4348V29.6881H40.3098ZM40.3098 29.6828V29.6881H41.4348V29.6828H40.3098ZM40.3098 29.6776V29.6828H41.4348V29.6776H40.3098ZM40.3098 29.6724V29.6776H41.4348V29.6724H40.3098ZM40.3098 29.6673V29.6724H41.4348V29.6673H40.3098ZM40.3098 29.6621V29.6673H41.4348V29.6621H40.3098ZM40.3098 29.657V29.6621H41.4348V29.657H40.3098ZM40.3098 29.6519V29.657H41.4348V29.6519H40.3098ZM40.3098 29.6469V29.6519H41.4348V29.6469H40.3098ZM40.3098 29.6419V29.6469H41.4348V29.6419H40.3098ZM40.3098 29.6369V29.6419H41.4348V29.6369H40.3098ZM40.3098 29.6319V29.6369H41.4348V29.6319H40.3098ZM40.3098 29.6269V29.6319H41.4348V29.6269H40.3098ZM40.3098 29.622V29.6269H41.4348V29.622H40.3098ZM40.3098 29.6171V29.622H41.4348V29.6171H40.3098ZM40.3098 29.6122V29.6171H41.4348V29.6122H40.3098ZM40.3098 29.6074V29.6122H41.4348V29.6074H40.3098ZM40.3098 29.6026V29.6074H41.4348V29.6026H40.3098ZM40.3098 29.5978V29.6026H41.4348V29.5978H40.3098ZM40.3098 29.5931V29.5978H41.4348V29.5931H40.3098ZM40.3098 29.5883V29.5931H41.4348V29.5883H40.3098ZM40.3098 29.5836V29.5883H41.4348V29.5836H40.3098ZM40.3098 29.579V29.5836H41.4348V29.579H40.3098ZM40.3098 29.5743V29.579H41.4348V29.5743H40.3098ZM40.3098 29.5697V29.5743H41.4348V29.5697H40.3098ZM40.3098 29.5651V29.5697H41.4348V29.5651H40.3098ZM40.3098 29.5606V29.5651H41.4348V29.5606H40.3098ZM40.3098 29.5561V29.5606H41.4348V29.5561H40.3098ZM40.3098 29.5516V29.5561H41.4348V29.5516H40.3098ZM40.3098 29.5471V29.5516H41.4348V29.5471H40.3098ZM40.3098 29.5427V29.5471H41.4348V29.5427H40.3098ZM40.3098 29.5383V29.5427H41.4348V29.5383H40.3098ZM40.3098 29.5339V29.5383H41.4348V29.5339H40.3098ZM40.3098 29.5301V29.5339H41.4348V29.5301H40.3098ZM40.3098 29.5295V29.5301H41.4348V29.5295H40.3098ZM40.3098 28.4805V29.5295H41.4348V28.4805H40.3098ZM38.2237 25.1585L40.3899 28.7698L41.3547 28.1911L39.1884 24.5798L38.2237 25.1585ZM27.2918 25.4316H38.706V24.3066H27.2918V25.4316ZM25.6079 28.7698L27.7741 25.1585L26.8094 24.5798L24.6431 28.1911L25.6079 28.7698ZM25.688 29.5295V28.4805H24.563V29.5295H25.688ZM26.4922 40.6202V32.9047H25.3672V40.6202H26.4922ZM40.0697 40.0577H25.9297V41.1827H40.0697V40.0577ZM39.5072 32.9047V40.6202H40.6322V32.9047H39.5072ZM30.1869 33.4672H40.0697V32.3422H30.1869V33.4672ZM30.1826 33.4672H30.1869V32.3422H30.1826V33.4672ZM30.1781 33.4672H30.1826V32.3422H30.1781V33.4672ZM30.1736 33.4672H30.1781V32.3422H30.1736V33.4672ZM30.1689 33.4672H30.1736V32.3422H30.1689V33.4672ZM30.1642 33.4672H30.1689V32.3422H30.1642V33.4672ZM30.1594 33.4672H30.1642V32.3422H30.1594V33.4672ZM30.1544 33.4672H30.1594V32.3422H30.1544V33.4672ZM30.1494 33.4672H30.1544V32.3422H30.1494V33.4672ZM30.1443 33.4672H30.1494V32.3422H30.1443V33.4672ZM30.1391 33.4672H30.1443V32.3422H30.1391V33.4672ZM30.1338 33.4672H30.1391V32.3422H30.1338V33.4672ZM30.1285 33.4672H30.1338V32.3422H30.1285V33.4672ZM30.123 33.4672H30.1285V32.3422H30.123V33.4672ZM30.1174 33.4672H30.123V32.3422H30.1174V33.4672ZM30.1118 33.4672H30.1174V32.3422H30.1118V33.4672ZM30.1061 33.4672H30.1118V32.3422H30.1061V33.4672ZM30.1002 33.4672H30.1061V32.3422H30.1002V33.4672ZM30.0943 33.4672H30.1002V32.3422H30.0943V33.4672ZM30.0883 33.4672H30.0943V32.3422H30.0883V33.4672ZM30.0822 33.4672H30.0883V32.3422H30.0822V33.4672ZM30.076 33.4672H30.0822V32.3422H30.076V33.4672ZM30.0698 33.4672H30.076V32.3422H30.0698V33.4672ZM30.0634 33.4672H30.0698V32.3422H30.0634V33.4672ZM30.057 33.4672H30.0634V32.3422H30.057V33.4672ZM30.0505 33.4672H30.057V32.3422H30.0505V33.4672ZM30.0439 33.4672H30.0505V32.3422H30.0439V33.4672ZM30.0372 33.4672H30.0439V32.3422H30.0372V33.4672ZM30.0304 33.4672H30.0372V32.3422H30.0304V33.4672ZM30.0236 33.4672H30.0304V32.3422H30.0236V33.4672ZM30.0166 33.4672H30.0236V32.3422H30.0166V33.4672ZM30.0096 33.4672H30.0166V32.3422H30.0096V33.4672ZM30.0025 33.4672H30.0096V32.3422H30.0025V33.4672ZM29.9953 33.4672H30.0025V32.3422H29.9953V33.4672ZM29.988 33.4672H29.9953V32.3422H29.988V33.4672ZM29.9807 33.4672H29.988V32.3422H29.9807V33.4672ZM29.9733 33.4672H29.9807V32.3422H29.9733V33.4672ZM29.9658 33.4672H29.9733V32.3422H29.9658V33.4672ZM29.9582 33.4672H29.9658V32.3422H29.9582V33.4672ZM29.9505 33.4672H29.9582V32.3422H29.9505V33.4672ZM29.9427 33.4672H29.9505V32.3422H29.9427V33.4672ZM29.9349 33.4672H29.9427V32.3422H29.9349V33.4672ZM29.927 33.4672H29.9349V32.3422H29.927V33.4672ZM29.919 33.4672H29.927V32.3422H29.919V33.4672ZM29.911 33.4672H29.919V32.3422H29.911V33.4672ZM29.9028 33.4672H29.911V32.3422H29.9028V33.4672ZM29.8946 33.4672H29.9028V32.3422H29.8946V33.4672ZM29.8863 33.4672H29.8946V32.3422H29.8863V33.4672ZM29.8779 33.4672H29.8863V32.3422H29.8779V33.4672ZM29.8695 33.4672H29.8779V32.3422H29.8695V33.4672ZM29.861 33.4672H29.8695V32.3422H29.861V33.4672ZM29.8524 33.4672H29.861V32.3422H29.8524V33.4672ZM29.8437 33.4672H29.8524V32.3422H29.8437V33.4672ZM29.835 33.4672H29.8437V32.3422H29.835V33.4672ZM29.8261 33.4672H29.835V32.3422H29.8261V33.4672ZM29.8172 33.4672H29.8261V32.3422H29.8172V33.4672ZM29.8083 33.4672H29.8172V32.3422H29.8083V33.4672ZM29.7992 33.4672H29.8083V32.3422H29.7992V33.4672ZM29.7901 33.4672H29.7992V32.3422H29.7901V33.4672ZM29.781 33.4672H29.7901V32.3422H29.781V33.4672ZM29.7717 33.4672H29.781V32.3422H29.7717V33.4672ZM29.7624 33.4672H29.7717V32.3422H29.7624V33.4672ZM29.753 33.4672H29.7624V32.3422H29.753V33.4672ZM29.7435 33.4672H29.753V32.3422H29.7435V33.4672ZM29.734 33.4672H29.7435V32.3422H29.734V33.4672ZM29.7244 33.4672H29.734V32.3422H29.7244V33.4672ZM29.7147 33.4672H29.7244V32.3422H29.7147V33.4672ZM29.705 33.4672H29.7147V32.3422H29.705V33.4672ZM29.6952 33.4672H29.705V32.3422H29.6952V33.4672ZM29.6853 33.4672H29.6952V32.3422H29.6853V33.4672ZM29.6754 33.4672H29.6853V32.3422H29.6754V33.4672ZM29.6654 33.4672H29.6754V32.3422H29.6654V33.4672ZM29.6553 33.4672H29.6654V32.3422H29.6553V33.4672ZM29.6451 33.4672H29.6553V32.3422H29.6451V33.4672ZM29.6349 33.4672H29.6451V32.3422H29.6349V33.4672ZM29.6247 33.4672H29.6349V32.3422H29.6247V33.4672ZM29.6143 33.4672H29.6247V32.3422H29.6143V33.4672ZM29.6039 33.4672H29.6143V32.3422H29.6039V33.4672ZM29.5935 33.4672H29.6039V32.3422H29.5935V33.4672ZM29.5829 33.4672H29.5935V32.3422H29.5829V33.4672ZM29.5724 33.4672H29.5829V32.3422H29.5724V33.4672ZM29.5617 33.4672H29.5724V32.3422H29.5617V33.4672ZM29.551 33.4672H29.5617V32.3422H29.551V33.4672ZM29.5402 33.4672H29.551V32.3422H29.5402V33.4672ZM29.5294 33.4672H29.5402V32.3422H29.5294V33.4672ZM29.5185 33.4672H29.5294V32.3422H29.5185V33.4672ZM29.5075 33.4672H29.5185V32.3422H29.5075V33.4672ZM29.4965 33.4672H29.5075V32.3422H29.4965V33.4672ZM29.4854 33.4672H29.4965V32.3422H29.4854V33.4672ZM29.4743 33.4672H29.4854V32.3422H29.4743V33.4672ZM29.4631 33.4672H29.4743V32.3422H29.4631V33.4672ZM29.4518 33.4672H29.4631V32.3422H29.4518V33.4672ZM29.4405 33.4672H29.4518V32.3422H29.4405V33.4672ZM29.4291 33.4672H29.4405V32.3422H29.4291V33.4672ZM29.4177 33.4672H29.4291V32.3422H29.4177V33.4672ZM29.4062 33.4672H29.4177V32.3422H29.4062V33.4672ZM29.3947 33.4672H29.4062V32.3422H29.3947V33.4672ZM29.3831 33.4672H29.3947V32.3422H29.3831V33.4672ZM29.3714 33.4672H29.3831V32.3422H29.3714V33.4672ZM29.3597 33.4672H29.3714V32.3422H29.3597V33.4672ZM29.3479 33.4672H29.3597V32.3422H29.3479V33.4672ZM29.3361 33.4672H29.3479V32.3422H29.3361V33.4672ZM29.3242 33.4672H29.3361V32.3422H29.3242V33.4672ZM29.3123 33.4672H29.3242V32.3422H29.3123V33.4672ZM29.3003 33.4672H29.3123V32.3422H29.3003V33.4672ZM29.2883 33.4672H29.3003V32.3422H29.2883V33.4672ZM29.2762 33.4672H29.2883V32.3422H29.2762V33.4672ZM29.2641 33.4672H29.2762V32.3422H29.2641V33.4672ZM29.2519 33.4672H29.2641V32.3422H29.2519V33.4672ZM29.2396 33.4672H29.2519V32.3422H29.2396V33.4672ZM29.2273 33.4672H29.2396V32.3422H29.2273V33.4672ZM29.215 33.4672H29.2273V32.3422H29.215V33.4672ZM29.2026 33.4672H29.215V32.3422H29.2026V33.4672ZM29.1901 33.4672H29.2026V32.3422H29.1901V33.4672ZM29.1776 33.4672H29.1901V32.3422H29.1776V33.4672ZM29.1651 33.4672H29.1776V32.3422H29.1651V33.4672ZM29.1525 33.4672H29.1651V32.3422H29.1525V33.4672ZM29.1399 33.4672H29.1525V32.3422H29.1399V33.4672ZM29.1272 33.4672H29.1399V32.3422H29.1272V33.4672ZM29.1144 33.4672H29.1272V32.3422H29.1144V33.4672ZM29.1017 33.4672H29.1144V32.3422H29.1017V33.4672ZM29.0888 33.4672H29.1017V32.3422H29.0888V33.4672ZM29.076 33.4672H29.0888V32.3422H29.076V33.4672ZM29.063 33.4672H29.076V32.3422H29.063V33.4672ZM29.0501 33.4672H29.063V32.3422H29.0501V33.4672ZM29.0371 33.4672H29.0501V32.3422H29.0371V33.4672ZM29.024 33.4672H29.0371V32.3422H29.024V33.4672ZM29.0109 33.4672H29.024V32.3422H29.0109V33.4672ZM28.9978 33.4672H29.0109V32.3422H28.9978V33.4672ZM28.9846 33.4672H28.9978V32.3422H28.9846V33.4672ZM28.9713 33.4672H28.9846V32.3422H28.9713V33.4672ZM28.9581 33.4672H28.9713V32.3422H28.9581V33.4672ZM28.9448 33.4672H28.9581V32.3422H28.9448V33.4672ZM28.9314 33.4672H28.9448V32.3422H28.9314V33.4672ZM28.918 33.4672H28.9314V32.3422H28.918V33.4672ZM28.9046 33.4672H28.918V32.3422H28.9046V33.4672ZM28.8911 33.4672H28.9046V32.3422H28.8911V33.4672ZM28.8776 33.4672H28.8911V32.3422H28.8776V33.4672ZM28.864 33.4672H28.8776V32.3422H28.864V33.4672ZM28.8504 33.4672H28.864V32.3422H28.8504V33.4672ZM28.8368 33.4672H28.8504V32.3422H28.8368V33.4672ZM28.8231 33.4672H28.8368V32.3422H28.8231V33.4672ZM28.8094 33.4672H28.8231V32.3422H28.8094V33.4672ZM28.7956 33.4672H28.8094V32.3422H28.7956V33.4672ZM28.7818 33.4672H28.7956V32.3422H28.7818V33.4672ZM28.768 33.4672H28.7818V32.3422H28.768V33.4672ZM28.7542 33.4672H28.768V32.3422H28.7542V33.4672ZM28.7403 33.4672H28.7542V32.3422H28.7403V33.4672ZM28.7263 33.4672H28.7403V32.3422H28.7263V33.4672ZM28.7124 33.4672H28.7263V32.3422H28.7124V33.4672ZM28.6984 33.4672H28.7124V32.3422H28.6984V33.4672ZM28.6843 33.4672H28.6984V32.3422H28.6843V33.4672ZM28.6702 33.4672H28.6843V32.3422H28.6702V33.4672ZM28.6561 33.4672H28.6702V32.3422H28.6561V33.4672ZM28.642 33.4672H28.6561V32.3422H28.642V33.4672ZM28.6278 33.4672H28.642V32.3422H28.6278V33.4672ZM28.6136 33.4672H28.6278V32.3422H28.6136V33.4672ZM28.5994 33.4672H28.6136V32.3422H28.5994V33.4672ZM28.5851 33.4672H28.5994V32.3422H28.5851V33.4672ZM28.5708 33.4672H28.5851V32.3422H28.5708V33.4672ZM28.5565 33.4672H28.5708V32.3422H28.5565V33.4672ZM28.5421 33.4672H28.5565V32.3422H28.5421V33.4672ZM28.5277 33.4672H28.5421V32.3422H28.5277V33.4672ZM28.5133 33.4672H28.5277V32.3422H28.5133V33.4672ZM28.4989 33.4672H28.5133V32.3422H28.4989V33.4672ZM28.4844 33.4672H28.4989V32.3422H28.4844V33.4672ZM28.4699 33.4672H28.4844V32.3422H28.4699V33.4672ZM28.4554 33.4672H28.4699V32.3422H28.4554V33.4672ZM28.4408 33.4672H28.4554V32.3422H28.4408V33.4672ZM28.4262 33.4672H28.4408V32.3422H28.4262V33.4672ZM28.4116 33.4672H28.4262V32.3422H28.4116V33.4672ZM28.397 33.4672H28.4116V32.3422H28.397V33.4672ZM28.3823 33.4672H28.397V32.3422H28.3823V33.4672ZM28.3676 33.4672H28.3823V32.3422H28.3676V33.4672ZM28.3529 33.4672H28.3676V32.3422H28.3529V33.4672ZM28.3381 33.4672H28.3529V32.3422H28.3381V33.4672ZM28.3234 33.4672H28.3381V32.3422H28.3234V33.4672ZM28.3086 33.4672H28.3234V32.3422H28.3086V33.4672ZM28.2938 33.4672H28.3086V32.3422H28.2938V33.4672ZM28.2789 33.4672H28.2938V32.3422H28.2789V33.4672ZM28.2641 33.4672H28.2789V32.3422H28.2641V33.4672ZM28.2492 33.4672H28.2641V32.3422H28.2492V33.4672ZM28.2343 33.4672H28.2492V32.3422H28.2343V33.4672ZM28.2194 33.4672H28.2343V32.3422H28.2194V33.4672ZM28.2044 33.4672H28.2194V32.3422H28.2044V33.4672ZM28.1895 33.4672H28.2044V32.3422H28.1895V33.4672ZM28.1745 33.4672H28.1895V32.3422H28.1745V33.4672ZM28.1595 33.4672H28.1745V32.3422H28.1595V33.4672ZM28.1444 33.4672H28.1595V32.3422H28.1444V33.4672ZM28.1294 33.4672H28.1444V32.3422H28.1294V33.4672ZM28.1143 33.4672H28.1294V32.3422H28.1143V33.4672ZM28.0992 33.4672H28.1143V32.3422H28.0992V33.4672ZM28.0841 33.4672H28.0992V32.3422H28.0841V33.4672ZM28.069 33.4672H28.0841V32.3422H28.069V33.4672ZM28.0539 33.4672H28.069V32.3422H28.0539V33.4672ZM28.0387 33.4672H28.0539V32.3422H28.0387V33.4672ZM28.0236 33.4672H28.0387V32.3422H28.0236V33.4672ZM28.0084 33.4672H28.0236V32.3422H28.0084V33.4672ZM27.9932 33.4672H28.0084V32.3422H27.9932V33.4672ZM27.978 33.4672H27.9932V32.3422H27.978V33.4672ZM27.9627 33.4672H27.978V32.3422H27.9627V33.4672ZM27.9475 33.4672H27.9627V32.3422H27.9475V33.4672ZM27.9322 33.4672H27.9475V32.3422H27.9322V33.4672ZM27.917 33.4672H27.9322V32.3422H27.917V33.4672ZM27.9017 33.4672H27.917V32.3422H27.9017V33.4672ZM27.8864 33.4672H27.9017V32.3422H27.8864V33.4672ZM27.8711 33.4672H27.8864V32.3422H27.8711V33.4672ZM27.8558 33.4672H27.8711V32.3422H27.8558V33.4672ZM27.8404 33.4672H27.8558V32.3422H27.8404V33.4672ZM27.8251 33.4672H27.8404V32.3422H27.8251V33.4672ZM27.8097 33.4672H27.8251V32.3422H27.8097V33.4672ZM27.7944 33.4672H27.8097V32.3422H27.7944V33.4672ZM27.779 33.4672H27.7944V32.3422H27.779V33.4672ZM27.7636 33.4672H27.779V32.3422H27.7636V33.4672ZM27.7482 33.4672H27.7636V32.3422H27.7482V33.4672ZM27.7328 33.4672H27.7482V32.3422H27.7328V33.4672ZM27.7174 33.4672H27.7328V32.3422H27.7174V33.4672ZM27.702 33.4672H27.7174V32.3422H27.702V33.4672ZM27.6866 33.4672H27.702V32.3422H27.6866V33.4672ZM27.6712 33.4672H27.6866V32.3422H27.6712V33.4672ZM27.6557 33.4672H27.6712V32.3422H27.6557V33.4672ZM27.6403 33.4672H27.6557V32.3422H27.6403V33.4672ZM27.6248 33.4672H27.6403V32.3422H27.6248V33.4672ZM27.6094 33.4672H27.6248V32.3422H27.6094V33.4672ZM27.5939 33.4672H27.6094V32.3422H27.5939V33.4672ZM27.5785 33.4672H27.5939V32.3422H27.5785V33.4672ZM27.563 33.4672H27.5785V32.3422H27.563V33.4672ZM27.5475 33.4672H27.563V32.3422H27.5475V33.4672ZM27.532 33.4672H27.5475V32.3422H27.532V33.4672ZM27.5166 33.4672H27.532V32.3422H27.5166V33.4672ZM27.5011 33.4672H27.5166V32.3422H27.5011V33.4672ZM27.4856 33.4672H27.5011V32.3422H27.4856V33.4672ZM27.4701 33.4672H27.4856V32.3422H27.4701V33.4672ZM27.4546 33.4672H27.4701V32.3422H27.4546V33.4672ZM27.4392 33.4672H27.4546V32.3422H27.4392V33.4672ZM27.4237 33.4672H27.4392V32.3422H27.4237V33.4672ZM27.4082 33.4672H27.4237V32.3422H27.4082V33.4672ZM27.3927 33.4672H27.4082V32.3422H27.3927V33.4672ZM27.3772 33.4672H27.3927V32.3422H27.3772V33.4672ZM27.3617 33.4672H27.3772V32.3422H27.3617V33.4672ZM27.3462 33.4672H27.3617V32.3422H27.3462V33.4672ZM27.3308 33.4672H27.3462V32.3422H27.3308V33.4672ZM27.3153 33.4672H27.3308V32.3422H27.3153V33.4672ZM27.2998 33.4672H27.3153V32.3422H27.2998V33.4672ZM27.2843 33.4672H27.2998V32.3422H27.2843V33.4672ZM27.2689 33.4672H27.2843V32.3422H27.2689V33.4672ZM27.2534 33.4672H27.2689V32.3422H27.2534V33.4672ZM27.238 33.4672H27.2534V32.3422H27.238V33.4672ZM27.2225 33.4672H27.238V32.3422H27.2225V33.4672ZM27.207 33.4672H27.2225V32.3422H27.207V33.4672ZM27.1916 33.4672H27.207V32.3422H27.1916V33.4672ZM27.1762 33.4672H27.1916V32.3422H27.1762V33.4672ZM27.1607 33.4672H27.1762V32.3422H27.1607V33.4672ZM27.1453 33.4672H27.1607V32.3422H27.1453V33.4672ZM27.1299 33.4672H27.1453V32.3422H27.1299V33.4672ZM27.1145 33.4672H27.1299V32.3422H27.1145V33.4672ZM27.0991 33.4672H27.1145V32.3422H27.0991V33.4672ZM27.0837 33.4672H27.0991V32.3422H27.0837V33.4672ZM27.0683 33.4672H27.0837V32.3422H27.0683V33.4672ZM27.0529 33.4672H27.0683V32.3422H27.0529V33.4672ZM27.0376 33.4672H27.0529V32.3422H27.0376V33.4672ZM27.0222 33.4672H27.0376V32.3422H27.0222V33.4672ZM27.0069 33.4672H27.0222V32.3422H27.0069V33.4672ZM26.9915 33.4672H27.0069V32.3422H26.9915V33.4672ZM26.9762 33.4672H26.9915V32.3422H26.9762V33.4672ZM26.9609 33.4672H26.9762V32.3422H26.9609V33.4672ZM26.9456 33.4672H26.9609V32.3422H26.9456V33.4672ZM26.9303 33.4672H26.9456V32.3422H26.9303V33.4672ZM26.915 33.4672H26.9303V32.3422H26.915V33.4672ZM26.8998 33.4672H26.915V32.3422H26.8998V33.4672ZM26.8845 33.4672H26.8998V32.3422H26.8845V33.4672ZM26.8693 33.4672H26.8845V32.3422H26.8693V33.4672ZM26.8541 33.4672H26.8693V32.3422H26.8541V33.4672ZM26.8389 33.4672H26.8541V32.3422H26.8389V33.4672ZM26.8237 33.4672H26.8389V32.3422H26.8237V33.4672ZM26.8085 33.4672H26.8237V32.3422H26.8085V33.4672ZM26.7933 33.4672H26.8085V32.3422H26.7933V33.4672ZM26.7782 33.4672H26.7933V32.3422H26.7782V33.4672ZM26.7631 33.4672H26.7782V32.3422H26.7631V33.4672ZM26.748 33.4672H26.7631V32.3422H26.748V33.4672ZM26.7329 33.4672H26.748V32.3422H26.7329V33.4672ZM26.7178 33.4672H26.7329V32.3422H26.7178V33.4672ZM26.7028 33.4672H26.7178V32.3422H26.7028V33.4672ZM26.6877 33.4672H26.7028V32.3422H26.6877V33.4672ZM26.6727 33.4672H26.6877V32.3422H26.6727V33.4672ZM26.6577 33.4672H26.6727V32.3422H26.6577V33.4672ZM26.6428 33.4672H26.6577V32.3422H26.6428V33.4672ZM26.6278 33.4672H26.6428V32.3422H26.6278V33.4672ZM26.6129 33.4672H26.6278V32.3422H26.6129V33.4672ZM26.598 33.4672H26.6129V32.3422H26.598V33.4672ZM26.5831 33.4672H26.598V32.3422H26.5831V33.4672ZM26.5682 33.4672H26.5831V32.3422H26.5682V33.4672ZM26.5534 33.4672H26.5682V32.3422H26.5534V33.4672ZM26.5385 33.4672H26.5534V32.3422H26.5385V33.4672ZM26.5237 33.4672H26.5385V32.3422H26.5237V33.4672ZM26.509 33.4672H26.5237V32.3422H26.509V33.4672ZM26.4942 33.4672H26.509V32.3422H26.4942V33.4672ZM26.4795 33.4672H26.4942V32.3422H26.4795V33.4672ZM26.4648 33.4672H26.4795V32.3422H26.4648V33.4672ZM26.4501 33.4672H26.4648V32.3422H26.4501V33.4672ZM26.4355 33.4672H26.4501V32.3422H26.4355V33.4672ZM26.4208 33.4672H26.4355V32.3422H26.4208V33.4672ZM26.4062 33.4672H26.4208V32.3422H26.4062V33.4672ZM26.3917 33.4672H26.4062V32.3422H26.3917V33.4672ZM26.3771 33.4672H26.3917V32.3422H26.3771V33.4672ZM26.3626 33.4672H26.3771V32.3422H26.3626V33.4672ZM26.3481 33.4672H26.3626V32.3422H26.3481V33.4672ZM26.3337 33.4672H26.3481V32.3422H26.3337V33.4672ZM26.3192 33.4672H26.3337V32.3422H26.3192V33.4672ZM26.3048 33.4672H26.3192V32.3422H26.3048V33.4672ZM26.2905 33.4672H26.3048V32.3422H26.2905V33.4672ZM26.2761 33.4672H26.2905V32.3422H26.2761V33.4672ZM26.2618 33.4672H26.2761V32.3422H26.2618V33.4672ZM26.2476 33.4672H26.2618V32.3422H26.2476V33.4672ZM26.2333 33.4672H26.2476V32.3422H26.2333V33.4672ZM26.2191 33.4672H26.2333V32.3422H26.2191V33.4672ZM26.2049 33.4672H26.2191V32.3422H26.2049V33.4672ZM26.1908 33.4672H26.2049V32.3422H26.1908V33.4672ZM26.1766 33.4672H26.1908V32.3422H26.1766V33.4672ZM26.1626 33.4672H26.1766V32.3422H26.1626V33.4672ZM26.1485 33.4672H26.1626V32.3422H26.1485V33.4672ZM26.1345 33.4672H26.1485V32.3422H26.1345V33.4672ZM26.1205 33.4672H26.1345V32.3422H26.1205V33.4672ZM26.1066 33.4672H26.1205V32.3422H26.1066V33.4672ZM26.0927 33.4672H26.1066V32.3422H26.0927V33.4672ZM26.0788 33.4672H26.0927V32.3422H26.0788V33.4672ZM26.065 33.4672H26.0788V32.3422H26.065V33.4672ZM26.0512 33.4672H26.065V32.3422H26.0512V33.4672ZM26.0374 33.4672H26.0512V32.3422H26.0374V33.4672ZM26.0237 33.4672H26.0374V32.3422H26.0237V33.4672ZM26.01 33.4672H26.0237V32.3422H26.01V33.4672ZM25.9963 33.4672H26.01V32.3422H25.9963V33.4672ZM25.9827 33.4672H25.9963V32.3422H25.9827V33.4672ZM25.9692 33.4672H25.9827V32.3422H25.9692V33.4672ZM25.9556 33.4672H25.9692V32.3422H25.9556V33.4672ZM25.9421 33.4672H25.9556V32.3422H25.9421V33.4672ZM25.9297 33.4672H25.9421V32.3422H25.9297V33.4672Z" fill="#1E2330"/>
</svg>
