<?xml version="1.0" encoding="UTF-8"?>
<svg id="Layer_2" data-name="Layer 2" xmlns="http://www.w3.org/2000/svg" viewBox="0 0 11.41 11.41">
  <defs>
    <style>
      .cls-1 {
        fill: #fff;
        stroke-width: 0px;
      }
    </style>
  </defs>
  <g id="Layer_1-2" data-name="Layer 1">
    <path class="cls-1" d="M11.06,1.06l.35-.35-.71-.71-.35.35.71.71ZM.35,10.35l-.35.35.71.71.35-.35-.71-.71ZM1.06.35l-.35-.35-.71.71.35.35.71-.71ZM10.35,11.06l.35.35.71-.71-.35-.35-.71.71ZM10.35.35L.35,10.35l.71.71L11.06,1.06l-.71-.71ZM.35,1.06l10,10,.71-.71L1.06.35l-.71.71Z"/>
  </g>
</svg>