<svg width="64" height="64" viewBox="0 0 64 64" fill="none" xmlns="http://www.w3.org/2000/svg">
<rect width="64" height="64" rx="32" fill="#D2E823"/>
<path d="M30.4699 21.6619H32.8763V42.6138H30.4699V21.6619ZM31.922 40.3112C30.6359 40.3112 29.5018 40.0899 28.5199 39.6473C27.538 39.2048 26.7705 38.5686 26.2173 37.7388C25.6641 36.9091 25.3668 35.941 25.3253 34.8346H28.0428C28.0843 35.8304 28.4715 36.6256 29.2045 37.2202C29.9513 37.8011 30.9194 38.0915 32.1087 38.0915C33.2013 38.0915 34.0725 37.8841 34.7225 37.4692C35.3725 37.0543 35.6975 36.4942 35.6975 35.7889C35.6975 35.2219 35.497 34.7447 35.0959 34.3575C34.7087 33.9703 33.9688 33.6591 32.8763 33.424L30.2417 32.8224C28.6375 32.4767 27.4896 31.958 26.7981 31.2666C26.1066 30.5751 25.7609 29.6347 25.7609 28.4453C25.7609 27.5602 26.0098 26.7719 26.5077 26.0804C27.0056 25.389 27.704 24.8496 28.6029 24.4624C29.5018 24.0751 30.5183 23.8815 31.6523 23.8815C32.7311 23.8815 33.7337 24.1235 34.6603 24.6076C35.5869 25.0916 36.3268 25.7278 36.88 26.5161C37.447 27.2905 37.7512 28.1203 37.7927 29.0054H35.1374C35.0959 28.4799 34.9023 28.0097 34.5566 27.5948C34.2247 27.1799 33.7821 26.8549 33.2289 26.6198C32.6896 26.3847 32.088 26.2671 31.4242 26.2671C30.4976 26.2671 29.7369 26.4538 29.1423 26.8272C28.5614 27.2006 28.271 27.7331 28.271 28.4246C28.271 28.9501 28.4992 29.3996 28.9556 29.773C29.4258 30.1325 30.1657 30.4437 31.1752 30.7065L33.9757 31.4533C35.331 31.8128 36.3406 32.3522 37.0044 33.0713C37.6821 33.7905 38.0209 34.7378 38.0209 35.9133C38.0209 36.8123 37.772 37.5936 37.2741 38.2575C36.7901 38.9213 36.0848 39.433 35.1582 39.7926C34.2454 40.1383 33.1667 40.3112 31.922 40.3112Z" fill="#1E2330"/>
</svg>
