<svg width="185" height="40" viewBox="0 0 185 40" fill="none" xmlns="http://www.w3.org/2000/svg">
<g clip-path="url(#clip0_9742_71652)">
<path d="M20.7818 0C21.3798 0.080229 21.9803 0.145061 22.576 0.241498C28.7504 1.2472 33.4401 4.45798 36.6274 9.82117C38.5205 13.0068 39.3414 16.4996 39.232 20.1983C38.9654 29.2528 32.4231 36.9726 23.5306 38.7312C22.7389 38.8876 21.9293 38.9516 21.1286 39.0618C21.0111 39.078 20.8968 39.1145 20.7809 39.142H18.5929C18.477 39.1153 18.3619 39.0715 18.2452 39.0634C15.4737 38.8722 12.8488 38.1412 10.4282 36.7854C4.78943 33.6257 1.41333 28.8517 0.359007 22.4593C0.260139 21.8644 0.196928 21.2631 0.116699 20.6651C0.116699 19.9357 0.116699 19.2063 0.116699 18.477C0.143442 18.3611 0.187204 18.246 0.195307 18.1285C0.387371 15.357 1.11754 12.7321 2.47414 10.3115C5.63305 4.67273 10.4079 1.29663 16.7995 0.242308C17.3951 0.14344 17.9956 0.080229 18.5937 0C19.323 0 20.0524 0 20.7818 0ZM19.695 32.8048C26.9805 32.7934 32.9004 26.8751 32.9206 19.5832C32.9417 12.3066 26.961 6.32432 19.6788 6.33728C12.3926 6.34944 6.47343 12.2669 6.45317 19.5589C6.43372 26.8362 12.412 32.8169 19.695 32.8048Z" fill="#1E2330"/>
<path d="M184.397 10.2921H176.291V32.3202H170.72V10.2986H162.633V5.60557C162.795 5.60557 162.963 5.60557 163.132 5.60557C170.044 5.60557 176.958 5.60557 183.871 5.60557C184.046 5.60557 184.221 5.59666 184.397 5.5918V10.2921H184.397Z" fill="#1E2330"/>
<path d="M138.095 32.3246H134.441C134.257 31.2306 134.078 30.1584 133.883 28.9947C133.693 29.1965 133.547 29.3416 133.412 29.4972C132.038 31.0944 130.389 32.2671 128.303 32.7233C122.378 34.0208 115.842 31.3449 113.857 24.074C112.702 19.8413 112.896 15.637 114.842 11.6426C116.678 7.87422 119.748 5.70074 123.898 5.11483C126.867 4.69586 129.782 4.91709 132.509 6.27126C135.414 7.71376 137.26 10.021 137.909 13.2334C137.951 13.4424 137.963 13.6588 137.991 13.8995H132.471C132.279 12.9975 131.808 12.2236 131.179 11.5413C129.377 9.58496 126.621 8.99662 123.912 9.98935C122.125 10.6441 120.779 11.8354 120.014 13.5567C118.448 17.0762 118.382 20.6882 119.813 24.2531C120.837 26.8042 122.945 27.9931 125.608 28.2962C126.894 28.4428 128.141 28.314 129.328 27.7759C131.302 26.8796 132.409 25.2677 133.017 23.2547C133.09 23.0124 133.14 22.7628 133.215 22.4589H127.016V18.0179H138.095V32.3246Z" fill="#1E2330"/>
<path d="M90.17 5.60973H90.5882C94.991 5.60973 99.3939 5.60244 103.797 5.61378C105.226 5.61783 106.62 5.8415 107.928 6.45416C110.572 7.69163 112.201 10.4891 112.053 13.5046C111.952 15.5687 111.269 17.3604 109.598 18.6644C109.128 19.0315 108.572 19.2876 108.037 19.6052C108.187 19.679 108.338 19.7625 108.497 19.8297C110.06 20.491 110.952 21.6977 111.111 23.3493C111.277 25.0786 111.283 26.8226 111.372 28.5601C111.404 29.1784 111.453 29.7976 111.533 30.411C111.6 30.9305 111.87 31.3244 112.334 31.6129C112.467 31.6947 112.486 31.9921 112.506 32.1963C112.51 32.236 112.282 32.3446 112.162 32.3454C110.338 32.3552 108.515 32.3479 106.692 32.3568C106.44 32.3584 106.317 32.2717 106.285 32.027C106.127 30.8397 105.919 29.6566 105.821 28.4645C105.73 27.3494 105.768 26.2245 105.722 25.1054C105.64 23.0916 104.76 22.081 102.755 21.9829C100.423 21.8695 98.0843 21.9197 95.7488 21.9011C95.7107 21.9011 95.6734 21.923 95.5859 21.9505V32.3195C95.4092 32.3333 95.2795 32.3511 95.1499 32.3511C93.6239 32.3527 92.0971 32.3446 90.5711 32.3584C90.2454 32.3617 90.1279 32.279 90.1287 31.9321C90.1376 23.2885 90.1352 14.6448 90.1368 6.00115C90.1368 5.88364 90.1554 5.76614 90.1684 5.60973H90.17ZM95.5713 10.2282V10.6366C95.5713 12.7566 95.581 14.8766 95.5624 16.9958C95.5591 17.3718 95.6888 17.4391 96.0275 17.4366C98.0665 17.4228 100.105 17.4407 102.144 17.4228C102.708 17.418 103.278 17.3677 103.832 17.2664C105.08 17.0379 106.003 16.3896 106.336 15.0994C106.43 14.7364 106.471 14.3563 106.497 13.9803C106.62 12.1739 105.676 10.7881 104.026 10.383C103.584 10.2744 103.12 10.216 102.665 10.212C100.438 10.1941 98.2099 10.2022 95.9821 10.203C95.8638 10.203 95.7455 10.2168 95.5705 10.2282H95.5713Z" fill="#1E2330"/>
<path d="M160.036 5.63086V10.2801H146.882V15.9715H158.852V20.6539H146.885V27.6485H160.629C160.647 27.8041 160.673 27.9191 160.673 28.0334C160.675 29.343 160.67 30.6534 160.678 31.963C160.68 32.2191 160.636 32.356 160.329 32.356C154.104 32.3487 147.879 32.3504 141.654 32.3487C141.588 32.3487 141.521 32.335 141.422 32.3236V5.63086H160.036H160.036Z" fill="#1E2330"/>
<path d="M63.1451 32.3516C66.3397 23.3895 69.5059 14.5067 72.6737 5.61914H79.1091C82.2396 14.5059 85.3685 23.3887 88.5137 32.3151C88.3605 32.3297 88.2479 32.35 88.1352 32.35C86.3791 32.3516 84.6238 32.3451 82.8677 32.3573C82.5751 32.3597 82.4519 32.2681 82.366 31.9829C81.8863 30.3824 81.3741 28.7916 80.8919 27.191C80.8068 26.9082 80.6837 26.8126 80.3862 26.8134C77.3343 26.8239 74.2815 26.8239 71.2288 26.8134C70.9508 26.8126 70.8309 26.9009 70.7442 27.1643C70.2223 28.751 69.6696 30.3281 69.155 31.9181C69.0423 32.2673 68.8762 32.363 68.5237 32.3589C66.9029 32.3395 65.2821 32.3508 63.6613 32.3508C63.5146 32.3508 63.3671 32.3508 63.1443 32.3508L63.1451 32.3516ZM79.2071 22.2047C78.0953 18.6584 76.9939 15.1469 75.8926 11.6355C75.8545 11.6339 75.8164 11.6323 75.7783 11.6315C74.6397 15.1421 73.5019 18.6527 72.3504 22.2047H79.2071Z" fill="#1E2330"/>
<path d="M68.2263 5.62891V10.2684H60.1685V32.3152H54.5809C54.5809 32.1345 54.5809 31.9635 54.5809 31.7933C54.5809 24.8126 54.5809 17.8318 54.5809 10.8511C54.5809 10.4767 54.3901 10.2892 54.0087 10.2887C51.6732 10.2887 49.3368 10.2887 47.0012 10.2887H46.5037V5.62891H68.2271H68.2263Z" fill="#1E2330"/>
<path d="M181.078 29.4219C182.085 29.4251 182.853 30.1837 182.852 31.1756C182.852 32.1562 182.064 32.9422 181.077 32.9455C180.064 32.9487 179.283 32.1659 179.289 31.1545C179.295 30.1585 180.059 29.4186 181.078 29.4219ZM181.073 32.6756C181.901 32.674 182.542 32.0168 182.542 31.1691C182.542 30.3417 181.865 29.6512 181.062 29.661C180.234 29.6707 179.604 30.3279 179.607 31.1804C179.609 32.0395 180.235 32.6772 181.073 32.6756Z" fill="#1E2330"/>
<path d="M19.6872 12.582C23.5252 12.5837 26.6687 15.7256 26.6736 19.5644C26.6784 23.4178 23.5155 26.5727 19.6612 26.5605C15.8232 26.5476 12.6878 23.3959 12.6951 19.5587C12.7024 15.7207 15.8491 12.5812 19.6872 12.582Z" fill="#1E2330"/>
<path d="M180.664 32.1796C180.371 32.0459 180.288 31.0288 180.446 30.1609C180.647 30.1609 180.857 30.1593 181.068 30.1609C181.4 30.1641 181.745 30.169 181.852 30.5717C181.955 30.9599 181.725 31.1763 181.361 31.3149C181.532 31.5953 181.692 31.8562 181.853 32.1172C181.832 32.1447 181.812 32.1715 181.791 32.199C181.69 32.1318 181.564 32.0848 181.494 31.994C181.356 31.8133 181.263 31.5961 181.121 31.4194C181.058 31.3424 180.908 31.2817 180.817 31.3027C180.749 31.3181 180.682 31.4713 180.669 31.5693C180.646 31.7533 180.663 31.9429 180.663 32.1788L180.664 32.1796ZM180.686 31.152C181.023 31.0402 181.289 30.9648 181.54 30.8538C181.571 30.84 181.549 30.5572 181.504 30.5418C181.248 30.4534 180.977 30.4089 180.686 30.344V31.152Z" fill="#1E2330"/>
</g>
<defs>
<clipPath id="clip0_9742_71652">
<rect width="184.284" height="39.142" fill="white" transform="translate(0.116943)"/>
</clipPath>
</defs>
</svg>
