<svg width="17" height="17" viewBox="0 0 17 17" fill="none" xmlns="http://www.w3.org/2000/svg">
<path d="M14.0236 4.03405L14.3771 3.6805L13.67 2.97339L13.3164 3.32694L14.0236 4.03405ZM3.31644 13.3269L2.96288 13.6805L3.66999 14.3876L4.02354 14.034L3.31644 13.3269ZM4.02354 3.32694L3.66999 2.97339L2.96288 3.6805L3.31644 4.03405L4.02354 3.32694ZM13.3164 14.034L13.67 14.3876L14.3771 13.6805L14.0236 13.3269L13.3164 14.034ZM13.3164 3.32694L3.31644 13.3269L4.02354 14.034L14.0236 4.03405L13.3164 3.32694ZM3.31644 4.03405L13.3164 14.034L14.0236 13.3269L4.02354 3.32694L3.31644 4.03405Z" fill="#70764D"/>
</svg>
