<svg width="139" height="35" viewBox="0 0 139 35" fill="none" xmlns="http://www.w3.org/2000/svg">
<path d="M117.451 19.0353C117.358 20.7939 116.986 22.4632 116.062 23.9733C114.763 26.0972 112.864 27.4119 110.434 27.8707C107.435 28.4356 104.625 27.9344 102.179 26.0144C100.31 24.5468 99.271 22.5716 98.9099 20.2374C98.5616 17.9946 98.9078 15.8664 100.104 13.9188C101.463 11.71 103.47 10.3889 105.97 9.80912C107.909 9.36098 109.852 9.31 111.73 10.0788C114.826 11.3489 116.608 13.7064 117.235 16.9581C117.367 17.6378 117.384 18.3387 117.451 19.031V19.0353ZM112.677 22.3698C112.654 22.3677 112.63 22.3634 112.607 22.3613C112.56 21.0763 112.38 19.8084 112.048 18.5659C111.534 16.631 110.793 14.7981 109.565 13.1925C109.009 12.464 108.37 11.8226 107.524 11.4254C106.118 10.767 104.782 11.264 104.15 12.6785C103.854 13.339 103.738 14.0399 103.699 14.7557C103.621 16.2254 103.803 17.6696 104.158 19.0948C104.615 20.9213 105.292 22.6523 106.439 24.1666C107.106 25.048 107.9 25.7744 108.973 26.1376C110.625 26.6983 111.972 26.0123 112.407 24.3238C112.571 23.6909 112.59 23.0197 112.675 22.3655L112.677 22.3698Z" fill="#1E2330"/>
<path d="M138.157 19.032C138.089 19.5098 138.036 19.9898 137.949 20.4635C137.58 22.4769 136.813 24.3013 135.348 25.7753C134.058 27.0709 132.478 27.7803 130.679 28.0012C129.139 28.1902 127.629 28.0649 126.172 27.4978C126.002 27.432 125.835 27.3555 125.66 27.2812C125.646 27.3279 125.631 27.3491 125.631 27.3725C125.646 28.8911 125.55 30.4139 125.784 31.9261C125.93 32.867 126.27 33.6911 127.115 34.2305C127.364 34.3898 127.205 34.6447 127.243 34.8719H118.951C118.883 34.5427 118.911 34.2921 119.231 34.0861C119.86 33.6783 120.189 33.0433 120.296 32.3275C120.419 31.4992 120.523 30.6581 120.529 29.8213C120.555 26.5845 120.54 23.3477 120.54 20.113C120.54 18.9237 120.567 17.7343 120.531 16.547C120.495 15.4044 120.102 14.404 119.157 13.684C119.055 13.6076 118.932 13.5566 118.841 13.4716C118.771 13.4079 118.696 13.3102 118.69 13.221C118.66 12.843 118.673 12.8515 119.051 12.7389C121.079 12.1336 122.906 11.1439 124.552 9.82279C124.817 9.60828 125.072 9.53394 125.42 9.61253V12.278C125.55 12.1739 125.624 12.1145 125.701 12.0529C127.069 10.9697 128.557 10.1265 130.274 9.73784C133.179 9.08156 135.938 10.4557 137.193 13.1658C137.72 14.3042 138.002 15.5021 138.113 16.7445C138.119 16.8274 138.145 16.9081 138.162 16.9909V19.0299L138.157 19.032ZM125.622 18.0868C125.622 18.7155 125.609 19.3442 125.624 19.9707C125.648 20.9371 125.646 21.9077 125.741 22.8677C125.843 23.9084 126.157 24.9003 126.841 25.7265C127.536 26.5675 128.424 26.9753 129.52 26.7799C130.437 26.6164 131.049 26.0089 131.527 25.255C132.049 24.433 132.329 23.5176 132.501 22.5682C132.805 20.901 132.79 19.2231 132.593 17.5474C132.463 16.4472 132.211 15.3768 131.688 14.3849C130.356 11.8532 127.64 11.9148 125.909 13.5438C125.709 13.7329 125.609 13.9474 125.614 14.2384C125.629 15.5212 125.62 16.8019 125.62 18.0847L125.622 18.0868Z" fill="#1E2330"/>
<path d="M0.734375 26.4253C0.989242 25.6268 1.24411 24.8282 1.49473 24.0296C1.70712 23.3499 1.91526 22.6682 2.12127 21.9843C2.16588 21.8377 2.2211 21.74 2.39738 21.7634C2.56942 21.7868 2.74145 21.7103 2.84552 21.9694C3.53791 23.694 4.59773 25.1319 6.24162 26.0664C7.27171 26.6526 8.37825 26.8968 9.55064 26.5761C10.2898 26.3744 10.8929 25.9666 11.1181 25.1871C11.3496 24.3843 11.0798 23.6983 10.5064 23.1206C9.90958 22.5195 9.16834 22.1372 8.41223 21.7868C7.11029 21.1857 5.78923 20.6186 4.50003 19.99C3.54853 19.5248 2.68623 18.9153 2.02145 18.07C0.577207 16.2328 0.761986 13.4335 2.41225 11.745C3.57826 10.5535 5.02251 9.9206 6.63241 9.66149C9.30852 9.23034 11.8699 9.71034 14.3464 10.7468C14.408 10.7723 14.4674 10.8063 14.5269 10.8402C14.5482 10.853 14.5673 10.87 14.6119 10.9018C14.5906 10.9719 14.5715 11.0526 14.5439 11.127C14.0915 12.3801 13.6264 13.631 13.1931 14.8926C13.0997 15.1666 12.9361 15.139 12.7301 15.156C12.5092 15.1751 12.488 15.0307 12.4413 14.8841C12.0207 13.5843 11.3708 12.4332 10.2175 11.6473C8.98993 10.8084 7.64126 10.5896 6.24162 11.1227C4.76127 11.6877 4.50853 13.287 5.68728 14.3489C6.27773 14.8799 6.97011 15.2388 7.69011 15.5468C8.9071 16.0714 10.1496 16.5408 11.3453 17.1057C12.1163 17.471 12.8682 17.9064 13.5499 18.4162C15.557 19.922 15.8034 22.048 15.1131 23.9935C14.5694 25.5248 13.4331 26.5145 11.9974 27.1899C10.7719 27.7655 9.46993 28.0268 8.12338 28.0607C5.8041 28.1181 3.55702 27.7485 1.40128 26.8799C1.17402 26.7885 0.957383 26.6781 0.734375 26.5761C0.734375 26.5252 0.734375 26.4742 0.734375 26.4232L0.734375 26.4253Z" fill="#1E2330"/>
<path d="M23.7007 12.2528C23.8111 12.1233 23.8748 12.0489 23.9386 11.9746C25.7417 9.78487 29.0104 8.91195 31.6143 9.92292C33.443 10.6344 34.5559 12.2549 34.558 14.2238C34.5601 16.8829 34.541 19.542 34.5686 22.2011C34.5771 23.0634 34.6706 23.9278 34.7853 24.7838C34.8978 25.6185 35.312 26.2981 36.0362 26.7675C36.3038 26.9416 36.1042 27.1986 36.1913 27.428H27.8954C27.7849 27.0139 27.8125 26.8907 28.1269 26.6698C28.8384 26.1685 29.1654 25.4401 29.2759 24.6181C29.3778 23.862 29.4522 23.0974 29.4607 22.337C29.4819 19.8139 29.4713 17.2907 29.4649 14.7675C29.4649 14.5063 29.4479 14.2387 29.4033 13.9817C29.1782 12.7073 28.3775 12.0447 27.0883 12.1148C25.8862 12.1785 24.8646 12.6861 24.0108 13.5293C23.7899 13.748 23.6901 13.9944 23.6922 14.3236C23.7049 17.0762 23.6922 19.8287 23.7028 22.5813C23.707 23.4733 23.7623 24.3632 24.0256 25.2277C24.2019 25.8075 24.4971 26.3151 25.0132 26.6358C25.3446 26.8418 25.3403 27.1009 25.2872 27.4429H25.009C22.4348 27.4429 19.8607 27.4429 17.2865 27.4386C17.1888 27.4386 17.0041 27.3919 17.0041 27.3643C17.0041 27.1795 17.0402 26.9926 17.0656 26.8078C17.0656 26.8015 17.0784 26.7972 17.0848 26.793C18.0596 26.194 18.3697 25.2319 18.4844 24.1763C18.5439 23.6114 18.5906 23.0422 18.5906 22.473C18.5991 17.5795 18.597 12.6861 18.5948 7.79266C18.5948 7.02381 18.4313 6.29107 18.032 5.62417C17.7559 5.16541 17.3991 4.77674 16.9191 4.53036C16.6579 4.39656 16.7619 4.17992 16.7662 3.99727C16.7662 3.93355 16.9127 3.84222 17.0062 3.81461C19.2002 3.1732 21.1966 2.15373 22.9998 0.74772C23.1612 0.62241 23.4309 0.637276 23.6943 0.575684V12.2507L23.7007 12.2528Z" fill="#1E2330"/>
<path d="M64.0132 27.2993C64.0132 28.1956 63.9835 29.0706 64.0217 29.9435C64.0578 30.7379 64.1343 31.5343 64.2553 32.3202C64.3764 33.106 64.7672 33.758 65.4574 34.1913C65.7463 34.374 65.5743 34.631 65.6358 34.871H57.3272C57.2911 34.5715 57.2614 34.3187 57.5863 34.1063C58.3233 33.6285 58.6291 32.866 58.7396 32.0356C58.8352 31.3049 58.9052 30.5658 58.9095 29.8288C58.9286 26.7704 58.9159 23.712 58.918 20.6558C58.918 19.4154 58.935 18.1751 58.9329 16.9368C58.9329 16.1722 58.8182 15.431 58.4486 14.7471C58.1598 14.2119 57.769 13.768 57.2274 13.4834C56.964 13.3453 57.0808 13.1308 57.0787 12.9482C57.0787 12.8908 57.2146 12.8016 57.3038 12.7761C59.3937 12.1814 61.2543 11.1556 62.9555 9.81968C63.2889 9.55844 63.2953 9.54358 63.7966 9.60729V12.2707C63.9112 12.1878 63.9771 12.1432 64.0387 12.0944C65.3916 11.0069 66.8741 10.1574 68.5753 9.75809C71.6443 9.04022 74.4266 10.4845 75.7031 13.4367C76.2489 14.7004 76.4889 16.0299 76.542 17.3998C76.6164 19.3241 76.3657 21.1952 75.6011 22.975C74.7664 24.9184 73.4581 26.4285 71.5105 27.3248C70.4486 27.8133 69.3208 28.0384 68.1548 28.0745C66.7509 28.1191 65.398 27.9088 64.1194 27.3057C64.1003 27.2972 64.0727 27.3014 64.0174 27.2993H64.0132ZM64.0047 18.1623C64.0174 18.1623 64.0323 18.1623 64.0451 18.1623C64.0451 19.511 64.0132 20.8618 64.0557 22.2105C64.0897 23.2533 64.3254 24.2642 64.8543 25.1818C65.3937 26.1184 66.1583 26.7471 67.2755 26.8235C68.2588 26.8915 69.0107 26.4327 69.6033 25.6915C70.4422 24.6423 70.7778 23.3935 70.9711 22.0958C71.1834 20.6685 71.1665 19.2349 71.0157 17.8034C70.8925 16.6416 70.6567 15.5053 70.1151 14.4561C69.6903 13.6321 69.1042 12.9652 68.2227 12.6168C66.5746 11.9669 64.9689 12.8186 64.2043 13.6618C64.0875 13.7914 64.0174 14.0101 64.0153 14.1864C64.0004 15.5117 64.0068 16.8349 64.0068 18.1602L64.0047 18.1623Z" fill="#1E2330"/>
<path d="M84.1228 0.57373V12.1935C84.2099 12.1213 84.2608 12.081 84.3075 12.0385C85.6605 10.8151 87.1982 9.92309 89.029 9.70221C92.2254 9.31778 95.0396 10.641 96.127 14.0987C97.0551 17.0487 97.0254 20.0222 95.7935 22.8958C94.5787 25.7269 92.3783 27.3772 89.3518 27.9061C87.5337 28.2225 85.7242 28.163 83.9741 27.5259C81.2937 26.5489 79.7561 24.5907 79.2357 21.8211C79.0998 21.0905 79.0403 20.3365 79.0361 19.5932C79.0169 15.6512 79.0318 11.7093 79.0254 7.76734C79.0254 6.71177 78.7238 5.75389 77.9529 4.99354C77.7787 4.82363 77.5812 4.66009 77.3646 4.5539C77.0906 4.42009 77.1946 4.20133 77.1777 4.00593C77.1585 3.80204 77.3391 3.83815 77.4431 3.80629C79.6286 3.16912 81.6166 2.14966 83.4155 0.752136C83.5769 0.626827 83.8488 0.637447 84.1228 0.57373ZM84.1164 18.0746C84.1313 18.0746 84.144 18.0746 84.1589 18.0746C84.1589 19.3723 84.1164 20.6742 84.1716 21.9698C84.2226 23.1825 84.4753 24.3634 85.1401 25.4147C86.2445 27.1627 88.5808 27.3326 89.8785 25.7546C90.4753 25.0282 90.7727 24.1616 90.9659 23.2569C91.3546 21.4282 91.361 19.5825 91.1571 17.7326C91.0339 16.6048 90.7939 15.5025 90.2736 14.481C89.8997 13.7482 89.4049 13.1174 88.6552 12.7372C86.9284 11.8601 85.0721 12.7712 84.1992 13.8693C84.1398 13.9457 84.1228 14.0732 84.1228 14.1772C84.1185 15.4771 84.1185 16.7748 84.1185 18.0746H84.1164Z" fill="#1E2330"/>
<path d="M55.8327 19.6131C55.7902 21.3313 55.1658 23.4764 53.5559 25.252C52.0776 26.8831 50.2086 27.7773 48.0338 28.0088C45.9077 28.236 43.8582 27.9345 41.9658 26.9001C39.3959 25.4984 37.9134 23.2959 37.3931 20.4414C36.9895 18.2283 37.2911 16.1044 38.421 14.1419C39.7697 11.7971 41.8341 10.4124 44.4359 9.80282C45.81 9.48211 47.2076 9.36954 48.6051 9.63928C51.5318 10.2021 53.6132 11.8779 54.9152 14.5327C55.6012 15.9302 55.8688 17.4276 55.8327 19.6109V19.6131ZM51.0561 22.5419C51.0794 22.5377 51.1007 22.5355 51.124 22.5313C50.9838 21.5054 50.8925 20.4711 50.6929 19.458C50.2723 17.3299 49.5184 15.3249 48.2674 13.5345C47.6685 12.6764 46.9718 11.9161 46.0118 11.4446C44.6037 10.7501 43.204 11.2683 42.586 12.7125C42.2844 13.4177 42.1697 14.1653 42.1442 14.9235C42.0763 16.8732 42.4267 18.7614 43.0554 20.5985C43.5481 22.0385 44.2023 23.3978 45.209 24.5575C45.9247 25.3837 46.7594 26.0272 47.8638 26.2523C49.2231 26.5327 50.2978 25.9465 50.7736 24.6467C51.0221 23.9649 51.0709 23.2555 51.0603 22.5398L51.0561 22.5419Z" fill="#1E2330"/>
</svg>
