<svg width="48" height="48" viewBox="0 0 48 48" fill="none" xmlns="http://www.w3.org/2000/svg">
<rect width="48" height="48" rx="16" fill="#DFE1E2"/>
<path d="M19.6665 22.8151V18.4818C19.6665 17.3325 20.123 16.2303 20.9357 15.4176C21.7484 14.605 22.8506 14.1484 23.9998 14.1484C25.1491 14.1484 26.2513 14.605 27.064 15.4176C27.8766 16.2303 28.3332 17.3325 28.3332 18.4818V22.8151M18.5832 22.8151H29.4165C30.6131 22.8151 31.5832 23.7852 31.5832 24.9818V31.4818C31.5832 32.6784 30.6131 33.6484 29.4165 33.6484H18.5832C17.3866 33.6484 16.4165 32.6784 16.4165 31.4818V24.9818C16.4165 23.7852 17.3866 22.8151 18.5832 22.8151ZM25.0832 28.2318C25.0832 28.8301 24.5981 29.3151 23.9998 29.3151C23.4015 29.3151 22.9165 28.8301 22.9165 28.2318C22.9165 27.6335 23.4015 27.1484 23.9998 27.1484C24.5981 27.1484 25.0832 27.6335 25.0832 28.2318Z" stroke="#808080" stroke-width="2" stroke-linecap="square"/>
</svg>
