<svg width="65" height="65" viewBox="0 0 65 65" fill="none" xmlns="http://www.w3.org/2000/svg">
<rect x="0.666748" y="0.744141" width="64" height="64" rx="32" fill="#D2E823"/>
<path d="M28.0026 36.9108C27.0821 36.9108 26.3359 37.657 26.3359 38.5775C26.3359 39.4979 27.0821 40.2441 28.0026 40.2441C28.9231 40.2441 29.6693 39.4979 29.6693 38.5775C29.6693 37.657 28.9231 36.9108 28.0026 36.9108ZM28.0026 36.9108H37.1693M28.0026 36.9108V25.2441H26.3359M37.1693 36.9108C36.2488 36.9108 35.5026 37.657 35.5026 38.5775C35.5026 39.4979 36.2488 40.2441 37.1693 40.2441C38.0897 40.2441 38.8359 39.4979 38.8359 38.5775C38.8359 37.657 38.0897 36.9108 37.1693 36.9108ZM28.0026 26.9108L33.0068 27.2683M38.9551 32.7458L38.8359 33.5775H28.0026M35.5026 27.7441H40.5026M38.0026 25.2441V30.2441" stroke="#1E2330" stroke-width="2.2" stroke-linecap="square"/>
</svg>
