<svg width="160" height="159" viewBox="0 0 160 159" fill="none" xmlns="http://www.w3.org/2000/svg">
<g filter="url(#filter0_d_7209_33501)">
<mask id="mask0_7209_33501" style="mask-type:alpha" maskUnits="userSpaceOnUse" x="9" y="5" width="142" height="148">
<path d="M68.4805 10.3261C74.7202 4.28986 84.6227 4.28987 90.8624 10.3261L93.7125 13.0834C97.2806 16.5352 102.242 18.1472 107.158 17.4519L111.084 16.8965C119.68 15.6807 127.691 21.5013 129.191 30.0523L129.876 33.9582C130.734 38.848 133.801 43.0684 138.186 45.3952L141.689 47.2538C149.358 51.3228 152.418 60.7407 148.605 68.5403L146.864 72.1029C144.684 76.5631 144.684 81.7798 146.864 86.2399L148.605 89.8026C152.418 97.6022 149.358 107.02 141.689 111.089L138.186 112.948C133.801 115.274 130.734 119.495 129.876 124.385L129.191 128.291C127.691 136.842 119.68 142.662 111.084 141.446L107.158 140.891C102.242 140.196 97.2806 141.808 93.7125 145.26L90.8624 148.017C84.6227 154.053 74.7202 154.053 68.4805 148.017L65.6304 145.26C62.0622 141.808 57.1009 140.196 52.1853 140.891L48.2588 141.446C39.6628 142.662 31.6515 136.842 30.1515 128.291L29.4664 124.385C28.6086 119.495 25.5423 115.274 21.1569 112.948L17.6538 111.089C9.98485 107.02 6.92481 97.6022 10.7375 89.8026L12.479 86.2399C14.6593 81.7798 14.6592 76.5631 12.479 72.1029L10.7375 68.5403C6.9248 60.7407 9.98486 51.3228 17.6539 47.2538L21.1569 45.3952C25.5423 43.0684 28.6086 38.848 29.4664 33.9582L30.1515 30.0523C31.6515 21.5012 39.6628 15.6807 48.2588 16.8965L52.1853 17.4519C57.1009 18.1472 62.0622 16.5351 65.6304 13.0833L68.4805 10.3261Z" fill="#E0E2D9"/>
</mask>
<g mask="url(#mask0_7209_33501)">
<circle cx="81.6493" cy="78.9539" r="79.9539" fill="#D6A336"/>
<rect x="124.3" y="6.28125" width="44.2633" height="181.38" transform="rotate(45 124.3 6.28125)" fill="#DFBF3A"/>
<rect x="167.131" y="34.9844" width="15.5823" height="181.38" transform="rotate(45 167.131 34.9844)" fill="#DFBF3A"/>
<path d="M54.8688 90.4499C52.8094 90.4499 51.0098 89.96 49.4702 88.9803C47.9306 88.0005 46.7409 86.6209 45.9011 84.8413C45.0813 83.0418 44.6714 80.9423 44.6714 78.5429C44.6714 76.1635 45.1513 74.084 46.1111 72.3045C47.0708 70.505 48.4305 69.1253 50.19 68.1655C51.9696 67.1858 54.039 66.6959 56.3984 66.6959C58.4379 66.6959 60.2575 67.0658 61.8571 67.8056C63.4766 68.5255 64.7663 69.5352 65.7261 70.8349C66.6858 72.1345 67.2357 73.6342 67.3757 75.3337H59.9975C59.8376 74.4739 59.4277 73.8041 58.7678 73.3242C58.128 72.8244 57.3382 72.5744 56.3984 72.5744C55.5187 72.5744 54.7489 72.8144 54.089 73.2942C53.4492 73.7741 52.9593 74.4639 52.6194 75.3637C52.2795 76.2435 52.1095 77.3032 52.1095 78.5429C52.1095 79.8026 52.2995 80.8823 52.6794 81.7821C53.0793 82.6619 53.6491 83.3417 54.3889 83.8216C55.1288 84.2815 56.0085 84.5114 57.0283 84.5114C57.7681 84.5114 58.4279 84.3814 59.0078 84.1215C59.5876 83.8616 60.0375 83.4917 60.3574 83.0118C60.6774 82.5319 60.8373 81.972 60.8373 81.3322H61.887C61.887 83.3117 61.6171 84.9813 61.0773 86.3409C60.5374 87.6806 59.7476 88.7003 58.7079 89.4002C57.6681 90.1 56.3884 90.4499 54.8688 90.4499ZM61.3172 80.3425L62.6668 81.7221H55.7086V76.8333H67.4356V90H61.3172V80.3425ZM77.7673 90.4499C75.8678 90.4499 74.2082 90.09 72.7886 89.3702C71.3889 88.6503 70.2992 87.6306 69.5194 86.3109C68.7596 84.9913 68.3797 83.4417 68.3797 81.6621C68.3797 79.8826 68.7596 78.333 69.5194 77.0133C70.2992 75.6736 71.3889 74.6539 72.7886 73.9541C74.2082 73.2343 75.8678 72.8743 77.7673 72.8743C79.6668 72.8743 81.3164 73.2343 82.716 73.9541C84.1357 74.6739 85.2254 75.7036 85.9852 77.0433C86.765 78.363 87.1549 79.9126 87.1549 81.6921C87.1549 83.4517 86.765 84.9913 85.9852 86.3109C85.2254 87.6306 84.1357 88.6503 82.716 89.3702C81.3164 90.09 79.6668 90.4499 77.7673 90.4499ZM77.7673 85.4112C78.3472 85.4112 78.847 85.2612 79.2669 84.9613C79.6868 84.6614 80.0067 84.2315 80.2267 83.6716C80.4666 83.1117 80.5866 82.4519 80.5866 81.6921C80.5866 80.8923 80.4666 80.2125 80.2267 79.6526C80.0067 79.0928 79.6868 78.6629 79.2669 78.363C78.847 78.043 78.3472 77.8831 77.7673 77.8831C77.2074 77.8831 76.7176 78.033 76.2977 78.333C75.8778 78.6329 75.5479 79.0728 75.3079 79.6526C75.088 80.2125 74.978 80.8823 74.978 81.6621C74.978 82.4419 75.088 83.1117 75.3079 83.6716C75.5479 84.2315 75.8778 84.6614 76.2977 84.9613C76.7176 85.2612 77.2074 85.4112 77.7673 85.4112ZM88.3837 67.1458H94.922V90H88.3837V67.1458ZM103.257 90.4499C101.817 90.4499 100.558 90.09 99.4778 89.3702C98.3981 88.6503 97.5583 87.6306 96.9584 86.3109C96.3786 84.9713 96.0887 83.4117 96.0887 81.6321C96.0887 79.8726 96.3786 78.333 96.9584 77.0133C97.5583 75.6736 98.3981 74.6539 99.4778 73.9541C100.558 73.2343 101.817 72.8743 103.257 72.8743C104.696 72.8743 105.946 73.2343 107.006 73.9541C108.086 74.6539 108.915 75.6736 109.495 77.0133C110.075 78.333 110.365 79.8826 110.365 81.6621C110.365 83.4417 110.075 85.0013 109.495 86.3409C108.915 87.6606 108.086 88.6803 107.006 89.4002C105.946 90.1 104.696 90.4499 103.257 90.4499ZM105.866 85.4112C106.426 85.4112 106.916 85.2612 107.336 84.9613C107.756 84.6614 108.076 84.2315 108.296 83.6716C108.516 83.1117 108.625 82.4419 108.625 81.6621C108.625 80.8823 108.516 80.2125 108.296 79.6526C108.076 79.0728 107.756 78.6329 107.336 78.333C106.916 78.033 106.426 77.8831 105.866 77.8831C105.286 77.8831 104.786 78.033 104.367 78.333C103.947 78.6329 103.627 79.0628 103.407 79.6226C103.187 80.1825 103.077 80.8523 103.077 81.6321C103.077 82.4119 103.187 83.0918 103.407 83.6716C103.627 84.2315 103.947 84.6614 104.367 84.9613C104.786 85.2612 105.286 85.4112 105.866 85.4112ZM108.625 86.041V67.1458H115.164V90H108.625V86.041Z" fill="#4C2E05"/>
</g>
</g>
<defs>
<filter id="filter0_d_7209_33501" x="0" y="-0.5" width="163.343" height="163.344" filterUnits="userSpaceOnUse" color-interpolation-filters="sRGB">
<feFlood flood-opacity="0" result="BackgroundImageFix"/>
<feColorMatrix in="SourceAlpha" type="matrix" values="0 0 0 0 0 0 0 0 0 0 0 0 0 0 0 0 0 0 127 0" result="hardAlpha"/>
<feOffset dx="4" dy="4"/>
<feComposite in2="hardAlpha" operator="out"/>
<feColorMatrix type="matrix" values="0 0 0 0 0 0 0 0 0 0 0 0 0 0 0 0 0 0 0.25 0"/>
<feBlend mode="normal" in2="BackgroundImageFix" result="effect1_dropShadow_7209_33501"/>
<feBlend mode="normal" in="SourceGraphic" in2="effect1_dropShadow_7209_33501" result="shape"/>
</filter>
</defs>
</svg>
