<svg width="160" height="159" viewBox="0 0 160 159" fill="none" xmlns="http://www.w3.org/2000/svg">
<g filter="url(#filter0_d_7209_33474)">
<mask id="mask0_7209_33474" style="mask-type:alpha" maskUnits="userSpaceOnUse" x="9" y="5" width="142" height="148">
<path d="M68.4805 10.3261C74.7202 4.28986 84.6227 4.28987 90.8624 10.3261L93.7125 13.0834C97.2806 16.5352 102.242 18.1472 107.158 17.4519L111.084 16.8965C119.68 15.6807 127.691 21.5013 129.191 30.0523L129.876 33.9582C130.734 38.848 133.801 43.0684 138.186 45.3952L141.689 47.2538C149.358 51.3228 152.418 60.7407 148.605 68.5403L146.864 72.1029C144.684 76.5631 144.684 81.7798 146.864 86.2399L148.605 89.8026C152.418 97.6022 149.358 107.02 141.689 111.089L138.186 112.948C133.801 115.274 130.734 119.495 129.876 124.385L129.191 128.291C127.691 136.842 119.68 142.662 111.084 141.446L107.158 140.891C102.242 140.196 97.2806 141.808 93.7125 145.26L90.8624 148.017C84.6227 154.053 74.7202 154.053 68.4805 148.017L65.6304 145.26C62.0622 141.808 57.1009 140.196 52.1853 140.891L48.2588 141.446C39.6628 142.662 31.6515 136.842 30.1515 128.291L29.4664 124.385C28.6086 119.495 25.5423 115.274 21.1569 112.948L17.6538 111.089C9.98485 107.02 6.92481 97.6022 10.7375 89.8026L12.479 86.2399C14.6593 81.7798 14.6592 76.5631 12.479 72.1029L10.7375 68.5403C6.9248 60.7407 9.98486 51.3228 17.6539 47.2538L21.1569 45.3952C25.5423 43.0684 28.6086 38.848 29.4664 33.9582L30.1515 30.0523C31.6515 21.5012 39.6628 15.6807 48.2588 16.8965L52.1853 17.4519C57.1009 18.1472 62.0622 16.5351 65.6304 13.0833L68.4805 10.3261Z" fill="#E0E2D9"/>
</mask>
<g mask="url(#mask0_7209_33474)">
<circle cx="81.9539" cy="78.9539" r="79.9539" fill="#D9D9D9"/>
<rect x="124.3" y="6.28125" width="44.2633" height="181.38" transform="rotate(45 124.3 6.28125)" fill="#ECECEC"/>
<rect x="167.131" y="34.9844" width="15.5823" height="181.38" transform="rotate(45 167.131 34.9844)" fill="#ECECEC"/>
<path d="M46.9462 90.4499C44.6668 90.4499 42.6973 90.11 41.0377 89.4301C39.3781 88.7503 38.1584 87.8106 37.3786 86.6109C36.5988 85.4112 36.3589 84.0415 36.6588 82.5019H44.007C44.007 83.0018 44.1469 83.4317 44.4269 83.7916C44.7268 84.1315 45.1167 84.4014 45.5966 84.6014C46.0964 84.8013 46.6663 84.9013 47.3061 84.9013C48.2859 84.9013 49.0257 84.7313 49.5256 84.3914C50.0454 84.0315 50.3054 83.5916 50.3054 83.0718C50.3054 82.5319 50.0754 82.112 49.6155 81.8121C49.1557 81.4922 48.3758 81.2322 47.2761 81.0323L44.1869 80.4624C41.5876 79.9825 39.6681 79.1827 38.4284 78.063C37.2087 76.9233 36.5988 75.4237 36.5988 73.5642C36.5988 72.2445 37.0287 71.0648 37.8885 70.0251C38.7483 68.9853 39.938 68.1755 41.4576 67.5957C42.9772 66.9958 44.7068 66.6959 46.6463 66.6959C48.6058 66.6959 50.3653 67.0358 51.9249 67.7157C53.5045 68.3755 54.7342 69.2953 55.614 70.475C56.4938 71.6547 56.9037 72.9743 56.8437 74.434H49.5855C49.5256 74.0341 49.3556 73.6841 49.0757 73.3842C48.7957 73.0643 48.4358 72.8244 47.9959 72.6644C47.5561 72.4844 47.0762 72.3945 46.5563 72.3945C45.8165 72.3945 45.2167 72.5544 44.7568 72.8743C44.2969 73.1743 44.0669 73.5942 44.0669 74.134C44.0669 74.5539 44.2669 74.9138 44.6668 75.2138C45.0667 75.4937 45.7065 75.7236 46.5863 75.9036L49.7955 76.5634C52.4748 77.0633 54.4643 77.8831 55.764 79.0228C57.0636 80.1425 57.7135 81.5821 57.7135 83.3417C57.7135 84.8613 57.3036 86.151 56.4838 87.2107C55.664 88.2704 54.4443 89.0802 52.8247 89.6401C51.2251 90.18 49.2656 90.4499 46.9462 90.4499ZM58.614 73.3242H65.1523V90H58.614V73.3242ZM61.9131 72.3645C60.8534 72.3645 59.9836 72.1045 59.3038 71.5847C58.6439 71.0648 58.314 70.395 58.314 69.5752C58.314 68.7554 58.6439 68.0856 59.3038 67.5657C59.9836 67.0458 60.8534 66.7859 61.9131 66.7859C62.9728 66.7859 63.8326 67.0458 64.4925 67.5657C65.1723 68.0856 65.5122 68.7554 65.5122 69.5752C65.5122 70.395 65.1723 71.0648 64.4925 71.5847C63.8326 72.1045 62.9728 72.3645 61.9131 72.3645ZM67.006 67.1458H73.5443V90H67.006V67.1458ZM74.1997 73.3242H80.3781L85.3568 89.0402H83.1074L88.0562 73.3242H94.2346L88.626 90H79.8382L74.1997 73.3242ZM102.973 90.4499C100.994 90.4499 99.3143 90.09 97.9347 89.3702C96.555 88.6303 95.5053 87.6006 94.7855 86.2809C94.0656 84.9413 93.7057 83.4017 93.7057 81.6621C93.7057 80.0025 94.0457 78.5129 94.7255 77.1933C95.4253 75.8736 96.465 74.8239 97.8447 74.0441C99.2243 73.2643 100.914 72.8743 102.913 72.8743C104.693 72.8743 106.263 73.1943 107.622 73.8341C109.002 74.4539 110.092 75.4637 110.891 76.8633C111.691 78.243 112.091 80.0125 112.091 82.172V82.7718H98.7145V79.9825H106.333L105.403 80.6724C105.403 80.0725 105.303 79.5427 105.103 79.0828C104.903 78.6229 104.603 78.253 104.203 77.9731C103.823 77.6931 103.383 77.5532 102.883 77.5532C102.324 77.5532 101.854 77.7231 101.474 78.063C101.094 78.4029 100.804 78.8828 100.604 79.5027C100.404 80.1025 100.304 80.8223 100.304 81.6621C100.304 82.5019 100.404 83.2017 100.604 83.7616C100.824 84.3014 101.134 84.7213 101.534 85.0213C101.954 85.3012 102.464 85.4412 103.063 85.4412C103.723 85.4412 104.263 85.2912 104.683 84.9913C105.123 84.6714 105.393 84.2415 105.493 83.7016H111.911C111.991 84.9013 111.681 86.021 110.981 87.0607C110.302 88.0805 109.272 88.9003 107.892 89.5201C106.532 90.14 104.893 90.4499 102.973 90.4499ZM118.366 81.6621C118.366 79.8426 118.606 78.273 119.086 76.9533C119.566 75.6336 120.246 74.6239 121.126 73.9241C122.025 73.2243 123.085 72.8743 124.305 72.8743C124.765 72.8743 125.175 72.9143 125.534 72.9943C125.914 73.0743 126.204 73.1843 126.404 73.3242V78.9928C126.184 78.8328 125.834 78.7029 125.355 78.6029C124.895 78.5029 124.465 78.4529 124.065 78.4529C122.645 78.4529 121.595 78.8728 120.916 79.7126C120.256 80.5324 119.926 81.8121 119.926 83.5516L118.366 81.6621ZM113.388 73.3242H119.926V77.6431V90H113.388V73.3242Z" fill="#1E2330"/>
</g>
</g>
<defs>
<filter id="filter0_d_7209_33474" x="0" y="-0.5" width="163.343" height="163.344" filterUnits="userSpaceOnUse" color-interpolation-filters="sRGB">
<feFlood flood-opacity="0" result="BackgroundImageFix"/>
<feColorMatrix in="SourceAlpha" type="matrix" values="0 0 0 0 0 0 0 0 0 0 0 0 0 0 0 0 0 0 127 0" result="hardAlpha"/>
<feOffset dx="4" dy="4"/>
<feComposite in2="hardAlpha" operator="out"/>
<feColorMatrix type="matrix" values="0 0 0 0 0 0 0 0 0 0 0 0 0 0 0 0 0 0 0.25 0"/>
<feBlend mode="normal" in2="BackgroundImageFix" result="effect1_dropShadow_7209_33474"/>
<feBlend mode="normal" in="SourceGraphic" in2="effect1_dropShadow_7209_33474" result="shape"/>
</filter>
</defs>
</svg>
