<svg width="65" height="64" viewBox="0 0 65 64" fill="none" xmlns="http://www.w3.org/2000/svg">
<rect x="0.332031" width="64" height="64" rx="32" fill="#D2E823"/>
<path fill-rule="evenodd" clip-rule="evenodd" d="M27.6017 23L27.0392 23.5625L27.0391 39.5625V39.5626L27.0392 40.4376L27.6017 41H37.7266L38.2891 40.4375V23.5625L37.7266 23L27.6017 23ZM28.1641 39.5624L28.1642 24.125L37.1641 24.125V39.875H28.1641L28.1641 39.5625V39.5624ZM33.7891 36.5C33.7891 37.1213 33.2854 37.625 32.6641 37.625C32.0427 37.625 31.5391 37.1213 31.5391 36.5C31.5391 35.8787 32.0427 35.375 32.6641 35.375C33.2854 35.375 33.7891 35.8787 33.7891 36.5Z" fill="black"/>
<path d="M27.0392 23.5625L26.6414 23.1647C26.536 23.2702 26.4767 23.4133 26.4767 23.5625L27.0392 23.5625ZM27.6017 23L27.6017 22.4375C27.4525 22.4375 27.3094 22.4968 27.2039 22.6023L27.6017 23ZM27.0391 39.5625L26.4766 39.5625V39.5625H27.0391ZM27.0391 39.5626H26.4766V39.5627L27.0391 39.5626ZM27.0392 40.4376L26.4767 40.4377C26.4767 40.5868 26.536 40.7299 26.6415 40.8354L27.0392 40.4376ZM27.6017 41L27.204 41.3978C27.3095 41.5032 27.4525 41.5625 27.6017 41.5625V41ZM37.7266 41V41.5625C37.8757 41.5625 38.0188 41.5032 38.1243 41.3977L37.7266 41ZM38.2891 40.4375L38.6868 40.8352C38.7923 40.7298 38.8516 40.5867 38.8516 40.4375H38.2891ZM38.2891 23.5625H38.8516C38.8516 23.4133 38.7923 23.2702 38.6868 23.1648L38.2891 23.5625ZM37.7266 23L38.1243 22.6023C38.0188 22.4968 37.8757 22.4375 37.7266 22.4375V23ZM28.1642 24.125L28.1642 23.5625C27.8535 23.5625 27.6017 23.8143 27.6017 24.125L28.1642 24.125ZM28.1641 39.5624L27.6016 39.5624V39.5624H28.1641ZM37.1641 24.125H37.7266C37.7266 23.8143 37.4747 23.5625 37.1641 23.5625V24.125ZM37.1641 39.875V40.4375C37.4747 40.4375 37.7266 40.1857 37.7266 39.875H37.1641ZM28.1641 39.875L27.6016 39.8751C27.6017 40.1857 27.8535 40.4375 28.1641 40.4375V39.875ZM28.1641 39.5625H27.6016V39.5626L28.1641 39.5625ZM27.4369 23.9602L27.9994 23.3977L27.2039 22.6023L26.6414 23.1647L27.4369 23.9602ZM27.6016 39.5625L27.6017 23.5625L26.4767 23.5625L26.4766 39.5625L27.6016 39.5625ZM27.6016 39.5626V39.5625H26.4766V39.5626H27.6016ZM27.6017 40.4375L27.6016 39.5625L26.4766 39.5627L26.4767 40.4377L27.6017 40.4375ZM27.9994 40.6022L27.4369 40.0398L26.6415 40.8354L27.204 41.3978L27.9994 40.6022ZM37.7266 40.4375H27.6017V41.5625H37.7266V40.4375ZM37.8913 40.0398L37.3288 40.6023L38.1243 41.3977L38.6868 40.8352L37.8913 40.0398ZM37.7266 23.5625V40.4375H38.8516V23.5625H37.7266ZM37.3288 23.3978L37.8913 23.9603L38.6868 23.1648L38.1243 22.6023L37.3288 23.3978ZM27.6017 23.5625L37.7266 23.5625V22.4375L27.6017 22.4375L27.6017 23.5625ZM27.6017 24.125L27.6016 39.5624L28.7266 39.5624L28.7267 24.125L27.6017 24.125ZM37.1641 23.5625L28.1642 23.5625L28.1642 24.6875L37.1641 24.6875V23.5625ZM37.7266 39.875V24.125H36.6016V39.875H37.7266ZM28.1641 40.4375H37.1641V39.3125H28.1641V40.4375ZM27.6016 39.5626L27.6016 39.8751L28.7266 39.8749L28.7266 39.5624L27.6016 39.5626ZM27.6016 39.5624V39.5625H28.7266V39.5624H27.6016ZM32.6641 38.1875C33.596 38.1875 34.3516 37.432 34.3516 36.5H33.2266C33.2266 36.8107 32.9747 37.0625 32.6641 37.0625V38.1875ZM30.9766 36.5C30.9766 37.432 31.7321 38.1875 32.6641 38.1875V37.0625C32.3534 37.0625 32.1016 36.8107 32.1016 36.5H30.9766ZM32.6641 34.8125C31.7321 34.8125 30.9766 35.568 30.9766 36.5H32.1016C32.1016 36.1893 32.3534 35.9375 32.6641 35.9375V34.8125ZM34.3516 36.5C34.3516 35.568 33.596 34.8125 32.6641 34.8125V35.9375C32.9747 35.9375 33.2266 36.1893 33.2266 36.5H34.3516Z" fill="black"/>
</svg>
