<?xml version="1.0" encoding="UTF-8"?>
<svg id="Layer_2" data-name="Layer 2" xmlns="http://www.w3.org/2000/svg" viewBox="0 0 200 200" width="48" height="48">
  <defs>
    <style>
      .cls-1 {
        fill: #fff;
      }
    </style>
  </defs>
  <g id="Layer_1-2" data-name="Layer 1">
    <path d="M160,0H40C17.91,0,0,17.91,0,40v120c0,22.09,17.91,40,40,40h120c22.09,0,40-17.91,40-40V40c0-22.09-17.91-40-40-40Z"/>
    <g>
      <path class="cls-1" d="M122.46,121.95h.03l-13.38-23.19-.09-.17c-1.96-3.26-4.95-5.06-8.66-5.06s-6.9,1.96-8.76,5.23l-13.4,23.21-.08.13c-2.53,4.54-.96,10.27,3.56,12.89,4.55,2.65,10.37,1.09,13.02-3.48l.59-1.03,1.48-2.54.83-1.43,1.24-2.1.41-.69,1.11-1.85.13-.23,5.43,9.8.08.13c2.7,4.49,8.46,5.99,12.97,3.37h.01c4.53-2.61,6.09-8.34,3.56-12.88l-.07-.13ZM102.12,112.02l-.12.17-.19.28-.28.41-.31.45-.16.25-.35.53-.56.88-.4.64-.76,1.22-.95,1.56-.64,1.07-.97,1.63-.81,1.37-.83,1.4-.84,1.43-1.16,1.98-1.41,2.42c-1.64,2.68-5.1,3.57-7.83,1.98-2.78-1.61-3.73-5.13-2.12-7.9l13.38-23.19.08-.13c1.23-2.06,3.16-3.22,5.42-3.22h.16c2.41.04,4.06,1.15,5.35,3.36l4.46,7.74-.16-.03h.03c-3-.37-5.85.76-7.84,3.4l-.21.29ZM117.09,131.72c-2.77,1.61-6.29.67-7.9-2.1l-6.45-11.63h-.01l.69-1.12.51-.81.39-.6.28-.43.25-.37.17-.25.2-.29.09-.12c1.21-1.63,2.85-2.21,4.66-1.88l.15.03c1.65.35,3.21,1.45,3.98,2.78l5.11,8.88h-.03.01s.07.13.07.13c1.5,2.74.55,6.19-2.18,7.78Z"/>
      <path class="cls-1" d="M154.07,153.87l-.72-12.73c0-.19.03-.37.03-.56,0-.28,0-.57-.02-.85l-4.33-77.38c-.15-2.57-2.29-4.58-4.87-4.58h-19.48v-14.61c0-13.45-10.9-24.35-24.35-24.35s-24.35,10.9-24.35,24.35v14.61h-19.48c-2.58,0-4.71,2-4.87,4.58l-4.29,77.38c-.01.21,0,.41,0,.62l-.76,13.52c-.46,8.06,5.78,14.96,13.95,15.41.29.02.58.02.86.02h77.86c8.18.01,14.82-6.52,14.84-14.59,0-.28,0-.57-.02-.85ZM119.99,63.23c2.83,0,5.12,2.29,5.12,5.12s-2.29,5.12-5.12,5.12-5.12-2.29-5.12-5.12,2.29-5.12,5.12-5.12ZM85.71,43.17c0-8.07,6.54-14.61,14.61-14.61s14.61,6.54,14.61,14.61v14.61h-29.22v-14.61ZM80.67,63.23c2.83,0,5.12,2.29,5.12,5.12s-2.29,5.12-5.12,5.12-5.12-2.29-5.12-5.12,2.29-5.12,5.12-5.12ZM100.32,157.72c-22.07,0-39.95-17.89-39.95-39.95s17.89-39.95,39.95-39.95,39.95,17.89,39.95,39.95-17.89,39.95-39.95,39.95Z"/>
    </g>
  </g>
</svg>
