<svg width="64" height="64" viewBox="0 0 64 64" fill="none" xmlns="http://www.w3.org/2000/svg">
<rect width="64" height="64" rx="32" fill="#D2E823"/>
<path d="M24 40V38.1111C24 37.1092 24.398 36.1483 25.1065 35.4398C25.815 34.7314 26.7758 34.3333 27.7778 34.3333H31.5556C32.5575 34.3333 33.5184 34.7314 34.2268 35.4398C34.9353 36.1483 35.3333 37.1092 35.3333 38.1111V40M36.2778 23.1228C37.0904 23.3308 37.8106 23.8034 38.325 24.4661C38.8393 25.1287 39.1185 25.9437 39.1185 26.7825C39.1185 27.6213 38.8393 28.4363 38.325 29.0989C37.8106 29.7616 37.0904 30.2342 36.2778 30.4422M41 40V38.1111C40.9952 37.2773 40.7147 36.4686 40.2022 35.8108C39.6897 35.1531 38.974 34.6835 38.1667 34.475M33.4444 26.7778C33.4444 28.8642 31.7531 30.5556 29.6667 30.5556C27.5803 30.5556 25.8889 28.8642 25.8889 26.7778C25.8889 24.6914 27.5803 23 29.6667 23C31.7531 23 33.4444 24.6914 33.4444 26.7778Z" stroke="#1E2330" stroke-width="2" stroke-linecap="square"/>
</svg>
