<svg xmlns="http://www.w3.org/2000/svg" viewBox="0 0 40 40" fill="none">
  <path stroke="#502274" stroke-linecap="round" stroke-linejoin="round" stroke-width="2.5" d="M25.984 23.95c.174.738.266 1.508.266 2.3 0 5.523-4.477 10-10 10v-8m9.734-4.3c6.223-4.548 10.266-11.902 10.266-20.2-8.298 0-15.65 4.043-20.198 10.266m9.932 9.933a24.876 24.876 0 01-9.734 4.301m-.198-14.234a10.024 10.024 0 00-2.302-.266c-5.523 0-10 4.477-10 10h8.001m4.301-9.734a24.878 24.878 0 00-4.3 9.734m4.498 4.5c-.172.035-.345.069-.519.1a25.15 25.15 0 01-4.08-4.08c.032-.174.065-.347.1-.52M8.02 27.735a7.489 7.489 0 00-2.93 7.176 7.489 7.489 0 007.176-2.93M27.5 15a2.5 2.5 0 11-5 0 2.5 2.5 0 015 0z"/>
</svg>