<svg width="64" height="64" viewBox="0 0 64 64" fill="none" xmlns="http://www.w3.org/2000/svg">
<rect width="64" height="64" rx="32" fill="#E9C0E9"/>
<path fill-rule="evenodd" clip-rule="evenodd" d="M23.3321 23.5625L23.8946 23L40.7695 23L41.332 23.5625V40.4375L40.7695 41H23.8945L23.332 40.4375L23.3321 23.5625ZM24.4571 24.125L24.457 39.875H40.207V24.125L24.4571 24.125ZM32.332 26.375C31.0894 26.375 30.082 27.3824 30.082 28.625C30.082 29.8676 31.0894 30.875 32.332 30.875C33.5747 30.875 34.582 29.8676 34.582 28.625C34.582 27.3824 33.5747 26.375 32.332 26.375ZM28.957 28.625C28.957 26.761 30.4681 25.25 32.332 25.25C34.196 25.25 35.707 26.761 35.707 28.625C35.707 30.489 34.196 32 32.332 32C30.4681 32 28.957 30.489 28.957 28.625ZM27.2695 33.125L26.707 33.6875V38.75H27.832V34.25H36.832V38.75H37.957V33.6875L37.3945 33.125H27.2695Z" fill="#502274"/>
<path d="M23.8946 23L23.8946 22.4375L23.6616 22.4375L23.4969 22.6023L23.8946 23ZM23.3321 23.5625L22.9344 23.1647L22.7696 23.3295L22.7696 23.5625L23.3321 23.5625ZM40.7695 23L41.1673 22.6023L41.0025 22.4375L40.7695 22.4375V23ZM41.332 23.5625H41.8945V23.3295L41.7298 23.1648L41.332 23.5625ZM41.332 40.4375L41.7298 40.8352L41.8945 40.6705V40.4375H41.332ZM40.7695 41V41.5625H41.0025L41.1673 41.3977L40.7695 41ZM23.8945 41L23.4968 41.3977L23.6615 41.5625H23.8945V41ZM23.332 40.4375L22.7695 40.4375L22.7695 40.6705L22.9343 40.8352L23.332 40.4375ZM24.457 39.875L23.8945 39.875L23.8945 40.4375H24.457V39.875ZM24.4571 24.125L24.4571 23.5625L23.8946 23.5625L23.8946 24.125L24.4571 24.125ZM40.207 39.875V40.4375H40.7695V39.875H40.207ZM40.207 24.125H40.7695V23.5625L40.207 23.5625V24.125ZM26.707 33.6875L26.3093 33.2898L26.1445 33.4545V33.6875H26.707ZM27.2695 33.125V32.5625H27.0365L26.8718 32.7273L27.2695 33.125ZM26.707 38.75H26.1445V39.3125H26.707V38.75ZM27.832 38.75V39.3125H28.3945V38.75H27.832ZM27.832 34.25V33.6875H27.2695V34.25H27.832ZM36.832 34.25H37.3945V33.6875H36.832V34.25ZM36.832 38.75H36.2695V39.3125H36.832V38.75ZM37.957 38.75V39.3125H38.5195V38.75H37.957ZM37.957 33.6875H38.5195V33.4545L38.3548 33.2898L37.957 33.6875ZM37.3945 33.125L37.7923 32.7273L37.6275 32.5625H37.3945V33.125ZM23.4969 22.6023L22.9344 23.1647L23.7299 23.9602L24.2924 23.3977L23.4969 22.6023ZM40.7695 22.4375L23.8946 22.4375L23.8946 23.5625L40.7695 23.5625V22.4375ZM41.7298 23.1648L41.1673 22.6023L40.3718 23.3978L40.9343 23.9603L41.7298 23.1648ZM41.8945 40.4375V23.5625H40.7695V40.4375H41.8945ZM41.1673 41.3977L41.7298 40.8352L40.9343 40.0398L40.3718 40.6023L41.1673 41.3977ZM23.8945 41.5625H40.7695V40.4375H23.8945V41.5625ZM22.9343 40.8352L23.4968 41.3977L24.2923 40.6023L23.7298 40.0398L22.9343 40.8352ZM22.7696 23.5625L22.7695 40.4375L23.8945 40.4375L23.8946 23.5625L22.7696 23.5625ZM25.0195 39.875L25.0196 24.125L23.8946 24.125L23.8945 39.875L25.0195 39.875ZM40.207 39.3125H24.457V40.4375H40.207V39.3125ZM39.6445 24.125V39.875H40.7695V24.125H39.6445ZM24.4571 24.6875L40.207 24.6875V23.5625L24.4571 23.5625L24.4571 24.6875ZM30.6445 28.625C30.6445 27.693 31.4001 26.9375 32.332 26.9375V25.8125C30.7787 25.8125 29.5195 27.0717 29.5195 28.625H30.6445ZM32.332 30.3125C31.4001 30.3125 30.6445 29.557 30.6445 28.625H29.5195C29.5195 30.1783 30.7787 31.4375 32.332 31.4375V30.3125ZM34.0195 28.625C34.0195 29.557 33.264 30.3125 32.332 30.3125V31.4375C33.8853 31.4375 35.1445 30.1783 35.1445 28.625H34.0195ZM32.332 26.9375C33.264 26.9375 34.0195 27.693 34.0195 28.625H35.1445C35.1445 27.0717 33.8853 25.8125 32.332 25.8125V26.9375ZM32.332 24.6875C30.1574 24.6875 28.3945 26.4504 28.3945 28.625H29.5195C29.5195 27.0717 30.7787 25.8125 32.332 25.8125V24.6875ZM36.2695 28.625C36.2695 26.4504 34.5067 24.6875 32.332 24.6875V25.8125C33.8853 25.8125 35.1445 27.0717 35.1445 28.625H36.2695ZM32.332 32.5625C34.5067 32.5625 36.2695 30.7996 36.2695 28.625H35.1445C35.1445 30.1783 33.8853 31.4375 32.332 31.4375V32.5625ZM28.3945 28.625C28.3945 30.7996 30.1574 32.5625 32.332 32.5625V31.4375C30.7787 31.4375 29.5195 30.1783 29.5195 28.625H28.3945ZM27.1048 34.0852L27.6673 33.5227L26.8718 32.7273L26.3093 33.2898L27.1048 34.0852ZM27.2695 38.75V33.6875H26.1445V38.75H27.2695ZM27.832 38.1875H26.707V39.3125H27.832V38.1875ZM27.2695 34.25V38.75H28.3945V34.25H27.2695ZM36.832 33.6875H27.832V34.8125H36.832V33.6875ZM37.3945 38.75V34.25H36.2695V38.75H37.3945ZM37.957 38.1875H36.832V39.3125H37.957V38.1875ZM37.3945 33.6875V38.75H38.5195V33.6875H37.3945ZM36.9968 33.5227L37.5593 34.0852L38.3548 33.2898L37.7923 32.7273L36.9968 33.5227ZM27.2695 33.6875H37.3945V32.5625H27.2695V33.6875Z" fill="#421664"/>
</svg>
