<svg width="856" height="704" viewBox="0 0 856 704" fill="none" xmlns="http://www.w3.org/2000/svg">
<g filter="url(#filter0_d_7209_30981)">
<rect x="212.857" y="130.055" width="423.765" height="423.765" rx="58.6752" fill="white"/>
</g>
<path d="M460.597 212.009C460.597 208.151 457.354 205.023 453.353 205.023H402.646C398.646 205.023 395.402 208.151 395.402 212.009M460.597 212.009V246.934C460.597 250.792 457.354 253.919 453.353 253.919H402.646C398.646 253.919 395.402 250.792 395.402 246.934V212.009M460.597 212.009L428 232.964L395.402 212.009" stroke="#1E2330" stroke-width="4.8896" stroke-linecap="square"/>
<path d="M372.072 304.798H379.202L393.288 327.823H391.131V304.798H396.731V331.301H389.566L375.133 307.963H377.671V331.301H372.072V304.798ZM409.874 331.822C407.857 331.822 406.072 331.405 404.518 330.57C402.988 329.712 401.794 328.518 400.936 326.988C400.078 325.458 399.649 323.695 399.649 321.701C399.649 319.707 400.078 317.957 400.936 316.45C401.794 314.919 402.988 313.725 404.518 312.867C406.072 312.009 407.857 311.58 409.874 311.58C411.892 311.58 413.665 312.009 415.196 312.867C416.749 313.725 417.955 314.919 418.813 316.45C419.671 317.957 420.1 319.707 420.1 321.701C420.1 323.695 419.671 325.458 418.813 326.988C417.955 328.518 416.749 329.712 415.196 330.57C413.665 331.405 411.892 331.822 409.874 331.822ZM409.874 327.301C410.848 327.301 411.706 327.069 412.448 326.605C413.213 326.142 413.793 325.481 414.187 324.623C414.604 323.765 414.813 322.791 414.813 321.701C414.813 320.612 414.604 319.638 414.187 318.78C413.77 317.922 413.19 317.261 412.448 316.797C411.706 316.334 410.848 316.102 409.874 316.102C408.9 316.102 408.042 316.334 407.301 316.797C406.559 317.261 405.979 317.922 405.562 318.78C405.144 319.615 404.935 320.588 404.935 321.701C404.935 322.791 405.144 323.765 405.562 324.623C405.979 325.481 406.559 326.142 407.301 326.605C408.042 327.069 408.9 327.301 409.874 327.301ZM429.957 331.822C428.125 331.822 426.711 331.301 425.714 330.257C424.717 329.214 424.218 327.742 424.218 325.84V307.233H429.54V324.866C429.54 325.748 429.702 326.385 430.026 326.779C430.374 327.174 430.931 327.371 431.696 327.371C432.206 327.371 432.681 327.278 433.122 327.092C433.562 326.907 433.968 326.652 434.339 326.327V330.188C433.922 330.652 433.296 331.034 432.461 331.336C431.65 331.66 430.815 331.822 429.957 331.822ZM421.227 312.102H434.339V316.554H421.227V312.102ZM436.859 312.102H442.18V331.301H436.859V312.102ZM439.537 310.363C438.632 310.363 437.867 310.085 437.241 309.528C436.638 308.972 436.337 308.288 436.337 307.476C436.337 306.688 436.638 306.027 437.241 305.494C437.867 304.937 438.632 304.659 439.537 304.659C440.464 304.659 441.229 304.926 441.832 305.459C442.435 305.992 442.736 306.665 442.736 307.476C442.736 308.288 442.435 308.972 441.832 309.528C441.229 310.085 440.464 310.363 439.537 310.363ZM446.972 310.224C446.972 308.346 447.47 306.885 448.467 305.842C449.487 304.798 450.902 304.276 452.71 304.276C453.591 304.276 454.438 304.427 455.249 304.729C456.061 305.03 456.687 305.413 457.127 305.876V309.667C456.756 309.32 456.339 309.053 455.875 308.867C455.435 308.682 454.959 308.589 454.449 308.589C453.707 308.589 453.162 308.786 452.815 309.181C452.467 309.575 452.293 310.212 452.293 311.093V331.301H446.972V310.224ZM444.12 312.102H457.127V316.554H444.12V312.102ZM466.296 329.84V334.118L457.705 312.102H462.991L468.904 328.24H467.061L473.391 312.102H478.747L467.304 339.578H462.122L466.296 329.84Z" fill="#1E2330"/>
<path d="M340.434 471.99C338.626 471.99 337.026 471.689 335.635 471.086C334.244 470.46 333.188 469.602 332.47 468.512C331.774 467.423 331.496 466.205 331.635 464.86H336.956C336.91 465.718 337.235 466.426 337.93 466.982C338.626 467.539 339.542 467.817 340.678 467.817C341.675 467.817 342.452 467.655 343.008 467.33C343.588 466.982 343.878 466.53 343.878 465.973C343.878 465.533 343.657 465.15 343.217 464.826C342.776 464.501 342.092 464.223 341.165 463.991L338.139 463.295C336.075 462.855 334.522 462.159 333.478 461.209C332.458 460.258 331.948 459.064 331.948 457.626C331.948 456.49 332.284 455.481 332.957 454.6C333.652 453.696 334.614 453 335.843 452.513C337.095 452.003 338.521 451.748 340.121 451.748C341.721 451.748 343.17 452.061 344.469 452.687C345.791 453.29 346.811 454.113 347.53 455.157C348.248 456.2 348.585 457.348 348.538 458.6H343.321C343.368 457.858 343.078 457.244 342.452 456.757C341.826 456.247 340.979 455.992 339.913 455.992C339.078 455.992 338.406 456.154 337.895 456.478C337.385 456.803 337.13 457.232 337.13 457.765C337.13 458.159 337.339 458.507 337.756 458.809C338.197 459.11 338.892 459.377 339.843 459.609L343.043 460.409C344.944 460.826 346.405 461.545 347.425 462.565C348.469 463.585 348.99 464.791 348.99 466.182C348.99 467.388 348.654 468.431 347.982 469.312C347.309 470.17 346.324 470.831 345.025 471.295C343.727 471.759 342.197 471.99 340.434 471.99ZM359.577 471.99C357.977 471.99 356.586 471.631 355.403 470.912C354.244 470.17 353.351 469.115 352.725 467.747C352.099 466.356 351.786 464.71 351.786 462.808V452.27H357.107V462.6C357.107 464.13 357.478 465.336 358.22 466.217C358.962 467.075 359.983 467.504 361.281 467.504C362.649 467.504 363.693 467.063 364.411 466.182C365.153 465.301 365.524 464.026 365.524 462.356L367.298 463.713C367.298 465.359 366.973 466.808 366.324 468.06C365.698 469.312 364.806 470.286 363.646 470.982C362.487 471.654 361.13 471.99 359.577 471.99ZM365.524 467.573V452.27H370.846V471.469H365.524V467.573ZM386.024 471.99C384.354 471.99 382.87 471.573 381.572 470.738C380.296 469.904 379.299 468.721 378.581 467.191C377.862 465.637 377.502 463.863 377.502 461.869C377.502 459.898 377.862 458.148 378.581 456.618C379.299 455.087 380.296 453.893 381.572 453.035C382.87 452.177 384.354 451.748 386.024 451.748C387.763 451.748 389.293 452.177 390.615 453.035C391.959 453.87 392.991 455.064 393.71 456.618C394.452 458.148 394.823 459.898 394.823 461.869C394.823 463.863 394.452 465.626 393.71 467.156C392.991 468.686 391.959 469.88 390.615 470.738C389.293 471.573 387.763 471.99 386.024 471.99ZM374.511 444.966H379.833V467.295V471.469H374.511V444.966ZM384.632 467.469C385.583 467.469 386.418 467.237 387.136 466.773C387.878 466.31 388.447 465.649 388.841 464.791C389.235 463.933 389.432 462.948 389.432 461.835C389.432 460.745 389.235 459.783 388.841 458.948C388.447 458.09 387.878 457.429 387.136 456.965C386.418 456.502 385.583 456.27 384.632 456.27C383.705 456.27 382.87 456.502 382.128 456.965C381.409 457.429 380.841 458.09 380.424 458.948C380.03 459.783 379.833 460.756 379.833 461.869C379.833 462.959 380.03 463.933 380.424 464.791C380.841 465.649 381.409 466.31 382.128 466.773C382.87 467.237 383.705 467.469 384.632 467.469ZM407.267 471.99C405.32 471.99 403.581 471.561 402.05 470.704C400.543 469.846 399.361 468.652 398.503 467.121C397.645 465.591 397.216 463.84 397.216 461.869C397.216 460.014 397.622 458.322 398.433 456.791C399.245 455.238 400.416 454.009 401.946 453.105C403.476 452.2 405.25 451.748 407.267 451.748C408.914 451.748 410.421 452.073 411.789 452.722C413.18 453.348 414.305 454.229 415.163 455.365C416.021 456.502 416.542 457.812 416.728 459.296H411.337C411.151 458.368 410.676 457.638 409.911 457.104C409.169 456.548 408.288 456.27 407.267 456.27C406.34 456.27 405.517 456.502 404.798 456.965C404.079 457.429 403.511 458.09 403.094 458.948C402.7 459.806 402.503 460.78 402.503 461.869C402.503 462.982 402.711 463.968 403.129 464.826C403.546 465.66 404.114 466.31 404.833 466.773C405.552 467.237 406.363 467.469 407.267 467.469C408.334 467.469 409.238 467.191 409.98 466.634C410.746 466.078 411.209 465.324 411.372 464.374H416.728C416.565 465.834 416.055 467.144 415.197 468.304C414.339 469.44 413.227 470.344 411.858 471.017C410.49 471.666 408.96 471.99 407.267 471.99ZM423.278 459.922C423.278 458.345 423.556 456.942 424.113 455.713C424.692 454.461 425.469 453.487 426.443 452.792C427.44 452.096 428.541 451.748 429.747 451.748C430.327 451.748 430.802 451.795 431.173 451.887C431.544 451.98 431.892 452.119 432.216 452.305V457.348C431.938 457.116 431.544 456.931 431.034 456.791C430.547 456.652 430.072 456.583 429.608 456.583C427.915 456.583 426.652 457.139 425.817 458.252C424.982 459.342 424.565 460.965 424.565 463.121L423.278 459.922ZM419.243 452.27H424.565V457.035V471.469H419.243V452.27ZM434.63 452.27H439.951V471.469H434.63V452.27ZM437.308 450.531C436.403 450.531 435.638 450.253 435.012 449.696C434.409 449.14 434.108 448.456 434.108 447.644C434.108 446.856 434.409 446.195 435.012 445.662C435.638 445.105 436.403 444.827 437.308 444.827C438.235 444.827 439 445.094 439.603 445.627C440.206 446.16 440.507 446.833 440.507 447.644C440.507 448.456 440.206 449.14 439.603 449.696C439 450.253 438.235 450.531 437.308 450.531ZM455.346 471.99C453.677 471.99 452.193 471.573 450.894 470.738C449.619 469.904 448.622 468.721 447.903 467.191C447.185 465.637 446.825 463.863 446.825 461.869C446.825 459.898 447.185 458.148 447.903 456.618C448.622 455.087 449.619 453.893 450.894 453.035C452.193 452.177 453.677 451.748 455.346 451.748C457.085 451.748 458.616 452.177 459.937 453.035C461.282 453.87 462.314 455.064 463.033 456.618C463.775 458.148 464.146 459.898 464.146 461.869C464.146 463.863 463.775 465.626 463.033 467.156C462.314 468.686 461.282 469.88 459.937 470.738C458.616 471.573 457.085 471.99 455.346 471.99ZM443.834 444.966H449.155V467.295V471.469H443.834V444.966ZM453.955 467.469C454.906 467.469 455.741 467.237 456.459 466.773C457.201 466.31 457.769 465.649 458.164 464.791C458.558 463.933 458.755 462.948 458.755 461.835C458.755 460.745 458.558 459.783 458.164 458.948C457.769 458.09 457.201 457.429 456.459 456.965C455.741 456.502 454.906 456.27 453.955 456.27C453.028 456.27 452.193 456.502 451.451 456.965C450.732 457.429 450.164 458.09 449.747 458.948C449.353 459.783 449.155 460.756 449.155 461.869C449.155 462.959 449.353 463.933 449.747 464.791C450.164 465.649 450.732 466.31 451.451 466.773C452.193 467.237 453.028 467.469 453.955 467.469ZM476.59 471.99C474.504 471.99 472.707 471.585 471.199 470.773C469.715 469.938 468.568 468.756 467.756 467.226C466.945 465.695 466.539 463.91 466.539 461.869C466.539 459.991 466.921 458.287 467.687 456.757C468.475 455.226 469.611 454.009 471.095 453.105C472.579 452.2 474.33 451.748 476.347 451.748C478.132 451.748 479.767 452.108 481.251 452.827C482.735 453.545 483.929 454.705 484.833 456.305C485.738 457.881 486.19 459.898 486.19 462.356V462.982H469.53V459.609H482.746L480.799 461.139C480.799 460.142 480.613 459.272 480.242 458.53C479.894 457.765 479.373 457.174 478.677 456.757C478.005 456.339 477.228 456.131 476.347 456.131C475.419 456.131 474.619 456.374 473.947 456.861C473.275 457.348 472.753 458.032 472.382 458.913C472.011 459.771 471.825 460.756 471.825 461.869C471.825 463.075 472.011 464.095 472.382 464.93C472.753 465.765 473.286 466.402 473.982 466.843C474.701 467.26 475.582 467.469 476.625 467.469C477.645 467.469 478.538 467.226 479.303 466.739C480.068 466.229 480.544 465.579 480.729 464.791H486.051C486.004 466.089 485.564 467.295 484.729 468.408C483.894 469.521 482.758 470.402 481.32 471.051C479.906 471.677 478.329 471.99 476.59 471.99ZM493.382 459.922C493.382 458.345 493.66 456.942 494.217 455.713C494.796 454.461 495.573 453.487 496.547 452.792C497.544 452.096 498.645 451.748 499.851 451.748C500.431 451.748 500.906 451.795 501.277 451.887C501.648 451.98 501.996 452.119 502.32 452.305V457.348C502.042 457.116 501.648 456.931 501.138 456.791C500.651 456.652 500.176 456.583 499.712 456.583C498.019 456.583 496.756 457.139 495.921 458.252C495.086 459.342 494.669 460.965 494.669 463.121L493.382 459.922ZM489.347 452.27H494.669V457.035V471.469H489.347V452.27ZM512.502 471.99C510.693 471.99 509.093 471.689 507.702 471.086C506.311 470.46 505.256 469.602 504.537 468.512C503.842 467.423 503.563 466.205 503.702 464.86H509.024C508.977 465.718 509.302 466.426 509.998 466.982C510.693 467.539 511.609 467.817 512.745 467.817C513.742 467.817 514.519 467.655 515.076 467.33C515.655 466.982 515.945 466.53 515.945 465.973C515.945 465.533 515.725 465.15 515.284 464.826C514.844 464.501 514.16 464.223 513.232 463.991L510.206 463.295C508.143 462.855 506.589 462.159 505.546 461.209C504.526 460.258 504.015 459.064 504.015 457.626C504.015 456.49 504.352 455.481 505.024 454.6C505.72 453.696 506.682 453 507.911 452.513C509.163 452.003 510.589 451.748 512.189 451.748C513.789 451.748 515.238 452.061 516.536 452.687C517.858 453.29 518.878 454.113 519.597 455.157C520.316 456.2 520.652 457.348 520.606 458.6H515.389C515.435 457.858 515.145 457.244 514.519 456.757C513.893 456.247 513.047 455.992 511.98 455.992C511.145 455.992 510.473 456.154 509.963 456.478C509.453 456.803 509.198 457.232 509.198 457.765C509.198 458.159 509.406 458.507 509.824 458.809C510.264 459.11 510.96 459.377 511.911 459.609L515.11 460.409C517.012 460.826 518.472 461.545 519.493 462.565C520.536 463.585 521.058 464.791 521.058 466.182C521.058 467.388 520.722 468.431 520.049 469.312C519.377 470.17 518.391 470.831 517.093 471.295C515.794 471.759 514.264 471.99 512.502 471.99Z" fill="#1E2330"/>
<path d="M365.738 425.156C360.305 425.156 355.552 424.232 351.477 422.385C347.402 420.538 344.333 417.957 342.268 414.643C340.204 411.275 339.307 407.418 339.579 403.071H356.937C356.774 405.625 357.535 407.635 359.219 409.102C360.957 410.569 363.402 411.275 366.553 411.221C368.4 411.166 370.003 410.895 371.361 410.406C372.719 409.862 373.752 409.102 374.458 408.124C375.164 407.092 375.517 405.924 375.517 404.62C375.517 402.935 374.838 401.523 373.48 400.382C372.122 399.241 370.139 398.372 367.531 397.774C364.923 397.122 361.745 396.796 357.996 396.796V386.61C361.365 386.61 364.217 386.338 366.553 385.795C368.944 385.251 370.736 384.491 371.932 383.513C373.181 382.481 373.806 381.285 373.806 379.927C373.806 378.243 373.073 376.885 371.606 375.853C370.193 374.82 368.346 374.304 366.064 374.304C363.293 374.304 361.12 374.956 359.545 376.26C358.023 377.564 357.344 379.275 357.507 381.394H341.372C340.991 377.537 341.779 374.033 343.735 370.881C345.691 367.676 348.543 365.177 352.292 363.384C356.04 361.537 360.332 360.613 365.168 360.613C370.057 360.613 374.349 361.347 378.044 362.814C381.738 364.281 384.617 366.318 386.682 368.926C388.746 371.533 389.779 374.549 389.779 377.971C389.779 380.959 388.964 383.622 387.334 385.958C385.704 388.294 383.422 390.114 380.488 391.418C377.609 392.722 374.241 393.401 370.383 393.455V389.706C374.784 389.761 378.614 390.467 381.874 391.825C385.188 393.129 387.714 395.003 389.453 397.448C391.246 399.893 392.142 402.745 392.142 406.005C392.142 409.808 391.028 413.149 388.801 416.029C386.628 418.908 383.531 421.163 379.511 422.793C375.545 424.368 370.954 425.156 365.738 425.156ZM396.415 407.472C404.292 404.321 410.703 401.36 415.647 398.589C420.591 395.764 424.231 393.075 426.567 390.521C428.903 387.914 430.071 385.333 430.071 382.779C430.071 380.715 429.338 379.085 427.871 377.89C426.459 376.64 424.557 376.016 422.167 376.016C419.341 376.016 417.141 376.939 415.566 378.786C414.044 380.579 413.528 382.834 414.017 385.55H396.007C395.464 380.769 396.197 376.505 398.208 372.756C400.272 368.953 403.342 365.992 407.416 363.873C411.491 361.7 416.272 360.613 421.759 360.613C426.975 360.613 431.538 361.537 435.45 363.384C439.416 365.231 442.458 367.839 444.577 371.207C446.75 374.576 447.837 378.488 447.837 382.942C447.837 387.669 446.234 392.178 443.029 396.47C439.878 400.708 435.477 404.348 429.827 407.39C424.177 410.379 417.766 412.497 410.594 413.747V409.02H447.755V423.934H396.415V407.472ZM455.9 361.836H473.258V392.396H467.553L494.12 361.836H515.39L488.334 392.314L489.964 387.017L517.264 423.934H497.543L478.799 397.041L484.015 396.633L471.791 410.976L473.258 403.479V423.934H455.9V361.836Z" fill="#1E2330"/>
<g filter="url(#filter1_d_7209_30981)">
<path d="M664.392 492.451L672.795 485.946L666.311 477.57L674.769 471.023L668.285 462.647L701.95 436.584L695.423 428.154L687.021 434.659L680.537 426.284L672.079 432.832L665.552 424.401L657.15 430.907L650.666 422.531L642.263 429.036L635.779 420.661L627.321 427.209L620.795 418.779L612.392 425.284L605.908 416.909L597.506 423.414L662.516 507.386L670.919 500.881L664.392 492.451Z" fill="#43E660"/>
</g>
<defs>
<filter id="filter0_d_7209_30981" x="212.857" y="130.055" width="430.285" height="430.285" filterUnits="userSpaceOnUse" color-interpolation-filters="sRGB">
<feFlood flood-opacity="0" result="BackgroundImageFix"/>
<feColorMatrix in="SourceAlpha" type="matrix" values="0 0 0 0 0 0 0 0 0 0 0 0 0 0 0 0 0 0 127 0" result="hardAlpha"/>
<feOffset dx="6.51946" dy="6.51946"/>
<feComposite in2="hardAlpha" operator="out"/>
<feColorMatrix type="matrix" values="0 0 0 0 0 0 0 0 0 0 0 0 0 0 0 0 0 0 1 0"/>
<feBlend mode="normal" in2="BackgroundImageFix" result="effect1_dropShadow_7209_30981"/>
<feBlend mode="normal" in="SourceGraphic" in2="effect1_dropShadow_7209_30981" result="shape"/>
</filter>
<filter id="filter1_d_7209_30981" x="597.506" y="416.91" width="110.14" height="96.1733" filterUnits="userSpaceOnUse" color-interpolation-filters="sRGB">
<feFlood flood-opacity="0" result="BackgroundImageFix"/>
<feColorMatrix in="SourceAlpha" type="matrix" values="0 0 0 0 0 0 0 0 0 0 0 0 0 0 0 0 0 0 127 0" result="hardAlpha"/>
<feOffset dx="5.69677" dy="5.69677"/>
<feComposite in2="hardAlpha" operator="out"/>
<feColorMatrix type="matrix" values="0 0 0 0 0 0 0 0 0 0 0 0 0 0 0 0 0 0 1 0"/>
<feBlend mode="normal" in2="BackgroundImageFix" result="effect1_dropShadow_7209_30981"/>
<feBlend mode="normal" in="SourceGraphic" in2="effect1_dropShadow_7209_30981" result="shape"/>
</filter>
</defs>
</svg>
