<svg width="64" height="64" viewBox="0 0 64 64" fill="none" xmlns="http://www.w3.org/2000/svg">
<rect width="64" height="64" rx="32" fill="#E9C0E9"/>
<path fill-rule="evenodd" clip-rule="evenodd" d="M35.707 24.125L34.582 25.25V27.5H30.082L28.957 28.625V30.875H24.457L23.332 32V38.75L24.457 39.875H28.957L29.5195 39.3125L30.082 39.875H34.582L35.1445 39.3125L35.707 39.875H40.207L41.332 38.75V25.25L40.207 24.125H35.707ZM35.707 38.75H36.832H39.082H40.207V37.625V26.375V25.25H39.082H36.832H35.707V26.375V28.625V37.625V38.75ZM34.582 28.625H33.457H31.207H30.082V29.75V32V37.625V38.75H31.207H33.457H34.582V37.625V29.75V28.625ZM27.832 32H28.957V33.125V37.625V38.75H27.832H25.582H24.457V37.625V33.125V32H25.582H27.832Z" fill="#502274"/>
<path d="M34.582 25.25L34.1843 24.8523L34.0195 25.017V25.25H34.582ZM35.707 24.125V23.5625H35.474L35.3093 23.7273L35.707 24.125ZM34.582 27.5V28.0625H35.1445V27.5H34.582ZM30.082 27.5V26.9375H29.849L29.6843 27.1023L30.082 27.5ZM28.957 28.625L28.5593 28.2273L28.3945 28.392V28.625H28.957ZM28.957 30.875V31.4375H29.5195V30.875H28.957ZM24.457 30.875V30.3125H24.224L24.0593 30.4773L24.457 30.875ZM23.332 32L22.9343 31.6023L22.7695 31.767V32H23.332ZM23.332 38.75H22.7695V38.983L22.9343 39.1477L23.332 38.75ZM24.457 39.875L24.0593 40.2727L24.224 40.4375H24.457V39.875ZM28.957 39.875V40.4375H29.19L29.3548 40.2727L28.957 39.875ZM29.5195 39.3125L29.9173 38.9148L29.5195 38.517L29.1218 38.9148L29.5195 39.3125ZM30.082 39.875L29.6843 40.2727L29.849 40.4375H30.082V39.875ZM34.582 39.875V40.4375H34.815L34.9798 40.2727L34.582 39.875ZM35.1445 39.3125L35.5423 38.9148L35.1445 38.517L34.7468 38.9148L35.1445 39.3125ZM35.707 39.875L35.3093 40.2727L35.474 40.4375H35.707V39.875ZM40.207 39.875V40.4375H40.44L40.6048 40.2727L40.207 39.875ZM41.332 38.75L41.7298 39.1477L41.8945 38.983V38.75H41.332ZM41.332 25.25H41.8945V25.017L41.7298 24.8523L41.332 25.25ZM40.207 24.125L40.6048 23.7273L40.44 23.5625H40.207V24.125ZM35.707 38.75H35.1445V39.3125H35.707V38.75ZM40.207 38.75V39.3125H40.7695V38.75H40.207ZM40.207 25.25H40.7695V24.6875H40.207V25.25ZM35.707 25.25V24.6875H35.1445V25.25H35.707ZM34.582 28.625H35.1445V28.0625H34.582V28.625ZM30.082 28.625V28.0625H29.5195V28.625H30.082ZM30.082 38.75H29.5195V39.3125H30.082V38.75ZM34.582 38.75V39.3125H35.1445V38.75H34.582ZM28.957 32H29.5195V31.4375H28.957V32ZM28.957 38.75V39.3125H29.5195V38.75H28.957ZM24.457 38.75H23.8945V39.3125H24.457V38.75ZM24.457 32V31.4375H23.8945V32H24.457ZM34.9798 25.6477L36.1048 24.5227L35.3093 23.7273L34.1843 24.8523L34.9798 25.6477ZM35.1445 27.5V25.25H34.0195V27.5H35.1445ZM34.582 26.9375H30.082V28.0625H34.582V26.9375ZM29.6843 27.1023L28.5593 28.2273L29.3548 29.0227L30.4798 27.8977L29.6843 27.1023ZM28.3945 28.625V30.875H29.5195V28.625H28.3945ZM28.957 30.3125H24.457V31.4375H28.957V30.3125ZM24.0593 30.4773L22.9343 31.6023L23.7298 32.3977L24.8548 31.2727L24.0593 30.4773ZM22.7695 32V38.75H23.8945V32H22.7695ZM22.9343 39.1477L24.0593 40.2727L24.8548 39.4773L23.7298 38.3523L22.9343 39.1477ZM24.457 40.4375H28.957V39.3125H24.457V40.4375ZM29.3548 40.2727L29.9173 39.7102L29.1218 38.9148L28.5593 39.4773L29.3548 40.2727ZM29.1218 39.7102L29.6843 40.2727L30.4798 39.4773L29.9173 38.9148L29.1218 39.7102ZM30.082 40.4375H34.582V39.3125H30.082V40.4375ZM34.9798 40.2727L35.5423 39.7102L34.7468 38.9148L34.1843 39.4773L34.9798 40.2727ZM36.1048 39.4773L35.5423 38.9148L34.7468 39.7102L35.3093 40.2727L36.1048 39.4773ZM40.207 39.3125H35.707V40.4375H40.207V39.3125ZM40.9343 38.3523L39.8093 39.4773L40.6048 40.2727L41.7298 39.1477L40.9343 38.3523ZM40.7695 25.25V38.75H41.8945V25.25H40.7695ZM39.8093 24.5227L40.9343 25.6477L41.7298 24.8523L40.6048 23.7273L39.8093 24.5227ZM35.707 24.6875H40.207V23.5625H35.707V24.6875ZM35.707 39.3125H36.832V38.1875H35.707V39.3125ZM36.832 39.3125H39.082V38.1875H36.832V39.3125ZM39.082 39.3125H40.207V38.1875H39.082V39.3125ZM40.7695 38.75V37.625H39.6445V38.75H40.7695ZM40.7695 37.625V26.375H39.6445V37.625H40.7695ZM40.7695 26.375V25.25H39.6445V26.375H40.7695ZM40.207 24.6875H39.082V25.8125H40.207V24.6875ZM39.082 24.6875H36.832V25.8125H39.082V24.6875ZM36.832 24.6875H35.707V25.8125H36.832V24.6875ZM35.1445 25.25V26.375H36.2695V25.25H35.1445ZM35.1445 26.375V28.625H36.2695V26.375H35.1445ZM36.2695 37.625V28.625H35.1445V37.625H36.2695ZM36.2695 38.75V37.625H35.1445V38.75H36.2695ZM34.582 28.0625H33.457V29.1875H34.582V28.0625ZM33.457 28.0625H31.207V29.1875H33.457V28.0625ZM31.207 28.0625H30.082V29.1875H31.207V28.0625ZM29.5195 28.625V29.75H30.6445V28.625H29.5195ZM29.5195 29.75V32H30.6445V29.75H29.5195ZM29.5195 32V37.625H30.6445V32H29.5195ZM29.5195 37.625V38.75H30.6445V37.625H29.5195ZM30.082 39.3125H31.207V38.1875H30.082V39.3125ZM31.207 39.3125H33.457V38.1875H31.207V39.3125ZM33.457 39.3125H34.582V38.1875H33.457V39.3125ZM35.1445 38.75V37.625H34.0195V38.75H35.1445ZM35.1445 37.625V29.75H34.0195V37.625H35.1445ZM35.1445 29.75V28.625H34.0195V29.75H35.1445ZM28.957 31.4375H27.832V32.5625H28.957V31.4375ZM29.5195 33.125V32H28.3945V33.125H29.5195ZM29.5195 37.625V33.125H28.3945V37.625H29.5195ZM29.5195 38.75V37.625H28.3945V38.75H29.5195ZM27.832 39.3125H28.957V38.1875H27.832V39.3125ZM25.582 39.3125H27.832V38.1875H25.582V39.3125ZM24.457 39.3125H25.582V38.1875H24.457V39.3125ZM23.8945 37.625V38.75H25.0195V37.625H23.8945ZM23.8945 33.125V37.625H25.0195V33.125H23.8945ZM23.8945 32V33.125H25.0195V32H23.8945ZM25.582 31.4375H24.457V32.5625H25.582V31.4375ZM27.832 31.4375H25.582V32.5625H27.832V31.4375Z" fill="#421664"/>
</svg>
