<svg width="65" height="65" viewBox="0 0 65 65" fill="none" xmlns="http://www.w3.org/2000/svg">
<rect x="0.333496" y="0.744141" width="64" height="64" rx="32" fill="#D2E823"/>
<path d="M37.0272 26.8651C36.68 26.8647 36.3669 27.0736 36.2339 27.3942C36.1009 27.7149 36.1742 28.0841 36.4197 28.3295C36.6651 28.575 37.0343 28.6483 37.355 28.5153C37.6756 28.3823 37.8845 28.0692 37.8841 27.722C37.8832 27.2492 37.5001 26.8661 37.0272 26.8651Z" fill="#1E2330"/>
<path fill-rule="evenodd" clip-rule="evenodd" d="M32.0033 28.3108C29.5538 28.3108 27.5681 30.2965 27.5681 32.7459C27.5681 35.1954 29.5538 37.1811 32.0033 37.1811C34.4528 37.1811 36.4385 35.1954 36.4385 32.7459C36.436 30.2975 34.4517 28.3132 32.0033 28.3108ZM32.0033 36.2809C30.0509 36.2809 28.4683 34.6983 28.4683 32.7459C28.4683 30.7936 30.0509 29.2109 32.0033 29.2109C33.9556 29.2109 35.5383 30.7936 35.5383 32.7459C35.5358 34.6972 33.9546 36.2785 32.0033 36.2809Z" fill="#1E2330"/>
<path fill-rule="evenodd" clip-rule="evenodd" d="M40.5388 26.7291C40.7949 27.4195 40.9337 28.148 40.9493 28.8842C40.9943 29.878 41.0078 30.2047 41.0078 32.7414C41.0078 35.2781 40.997 35.613 40.952 36.6032C40.9364 37.3391 40.7977 38.0673 40.5415 38.7573C40.0933 39.9147 39.1783 40.8297 38.021 41.2778C37.3306 41.534 36.6022 41.6727 35.8659 41.6883C34.8721 41.7333 34.5409 41.7441 32.0042 41.7441C29.4675 41.7441 29.1326 41.7333 28.1424 41.6883C27.4065 41.6728 26.6783 41.5341 25.9883 41.2778C25.4111 41.0653 24.8884 40.727 24.458 40.2876C24.0193 39.8587 23.6812 39.3379 23.4678 38.7627C23.2116 38.0723 23.0729 37.3439 23.0573 36.6077C23.0123 35.6139 23.0015 35.2826 23.0015 32.7459C23.0015 30.2092 23.0123 29.878 23.0573 28.8842C23.074 28.1483 23.214 27.4205 23.4714 26.7309C23.6839 26.1538 24.0222 25.631 24.4616 25.2006C24.8905 24.762 25.4113 24.4239 25.9865 24.2104C26.6769 23.9543 27.4053 23.8156 28.1415 23.8C29.1362 23.7549 29.4675 23.7441 32.0033 23.7441C34.5391 23.7441 34.8703 23.7549 35.8641 23.8036C36.6001 23.8191 37.3282 23.9578 38.0183 24.214C38.5954 24.4266 39.1182 24.7648 39.5486 25.2042C39.9872 25.6332 40.3254 26.154 40.5388 26.7291ZM39.6998 38.436C39.9198 37.8366 40.0379 37.2047 40.0491 36.5663C40.0941 35.5896 40.1049 35.2664 40.1049 32.7459C40.1049 30.2254 40.0941 29.9023 40.0491 28.9256C40.0378 28.2869 39.9197 27.6547 39.6998 27.055C39.5303 26.5961 39.2599 26.1811 38.9085 25.8407C38.5679 25.4891 38.1526 25.2187 37.6933 25.0494C37.094 24.8294 36.462 24.7113 35.8236 24.7001C34.846 24.6551 34.5193 24.6443 32.0033 24.6443C29.4873 24.6443 29.1605 24.6551 28.1829 24.7001C27.5443 24.7114 26.912 24.8295 26.3123 25.0494C25.8534 25.219 25.4384 25.4894 25.098 25.8407C24.7465 26.1813 24.476 26.5966 24.3067 27.0559C24.0867 27.6553 23.9687 28.2872 23.9575 28.9256C23.9124 29.9023 23.9016 30.2254 23.9016 32.7459C23.9016 35.2664 23.9124 35.5896 23.9575 36.5663C23.9688 37.2049 24.0868 37.8372 24.3067 38.4369C24.4763 38.8958 24.7467 39.3108 25.098 39.6512C25.4386 40.0027 25.854 40.2732 26.3132 40.4425C26.9126 40.6625 27.5445 40.7805 28.1829 40.7917C29.1596 40.8368 29.4828 40.8476 32.0033 40.8476C34.5238 40.8476 34.8469 40.8368 35.8236 40.7917C36.4623 40.7804 37.0945 40.6624 37.6942 40.4425C38.6152 40.0856 39.3433 39.3572 39.6998 38.436Z" fill="#1E2330"/>
<path d="M37.0272 26.8651C36.68 26.8647 36.3669 27.0736 36.2339 27.3942C36.1009 27.7149 36.1742 28.0841 36.4197 28.3295C36.6651 28.575 37.0343 28.6483 37.355 28.5153C37.6756 28.3823 37.8845 28.0692 37.8841 27.722C37.8832 27.2492 37.5001 26.8661 37.0272 26.8651Z" stroke="#1E2330" stroke-width="1.14983"/>
<path fill-rule="evenodd" clip-rule="evenodd" d="M32.0033 28.3108C29.5538 28.3108 27.5681 30.2965 27.5681 32.7459C27.5681 35.1954 29.5538 37.1811 32.0033 37.1811C34.4528 37.1811 36.4385 35.1954 36.4385 32.7459C36.436 30.2975 34.4517 28.3132 32.0033 28.3108ZM32.0033 36.2809C30.0509 36.2809 28.4683 34.6983 28.4683 32.7459C28.4683 30.7936 30.0509 29.2109 32.0033 29.2109C33.9556 29.2109 35.5383 30.7936 35.5383 32.7459C35.5358 34.6972 33.9546 36.2785 32.0033 36.2809Z" stroke="#1E2330" stroke-width="1.14983"/>
<path fill-rule="evenodd" clip-rule="evenodd" d="M40.5388 26.7291C40.7949 27.4195 40.9337 28.148 40.9493 28.8842C40.9943 29.878 41.0078 30.2047 41.0078 32.7414C41.0078 35.2781 40.997 35.613 40.952 36.6032C40.9364 37.3391 40.7977 38.0673 40.5415 38.7573C40.0933 39.9147 39.1783 40.8297 38.021 41.2778C37.3306 41.534 36.6022 41.6727 35.8659 41.6883C34.8721 41.7333 34.5409 41.7441 32.0042 41.7441C29.4675 41.7441 29.1326 41.7333 28.1424 41.6883C27.4065 41.6728 26.6783 41.5341 25.9883 41.2778C25.4111 41.0653 24.8884 40.727 24.458 40.2876C24.0193 39.8587 23.6812 39.3379 23.4678 38.7627C23.2116 38.0723 23.0729 37.3439 23.0573 36.6077C23.0123 35.6139 23.0015 35.2826 23.0015 32.7459C23.0015 30.2092 23.0123 29.878 23.0573 28.8842C23.074 28.1483 23.214 27.4205 23.4714 26.7309C23.6839 26.1538 24.0222 25.631 24.4616 25.2006C24.8905 24.762 25.4113 24.4239 25.9865 24.2104C26.6769 23.9543 27.4053 23.8156 28.1415 23.8C29.1362 23.7549 29.4675 23.7441 32.0033 23.7441C34.5391 23.7441 34.8703 23.7549 35.8641 23.8036C36.6001 23.8191 37.3282 23.9578 38.0183 24.214C38.5954 24.4266 39.1182 24.7648 39.5486 25.2042C39.9872 25.6332 40.3254 26.154 40.5388 26.7291ZM39.6998 38.436C39.9198 37.8366 40.0379 37.2047 40.0491 36.5663C40.0941 35.5896 40.1049 35.2664 40.1049 32.7459C40.1049 30.2254 40.0941 29.9023 40.0491 28.9256C40.0378 28.2869 39.9197 27.6547 39.6998 27.055C39.5303 26.5961 39.2599 26.1811 38.9085 25.8407C38.5679 25.4891 38.1526 25.2187 37.6933 25.0494C37.094 24.8294 36.462 24.7113 35.8236 24.7001C34.846 24.6551 34.5193 24.6443 32.0033 24.6443C29.4873 24.6443 29.1605 24.6551 28.1829 24.7001C27.5443 24.7114 26.912 24.8295 26.3123 25.0494C25.8534 25.219 25.4384 25.4894 25.098 25.8407C24.7465 26.1813 24.476 26.5966 24.3067 27.0559C24.0867 27.6553 23.9687 28.2872 23.9575 28.9256C23.9124 29.9023 23.9016 30.2254 23.9016 32.7459C23.9016 35.2664 23.9124 35.5896 23.9575 36.5663C23.9688 37.2049 24.0868 37.8372 24.3067 38.4369C24.4763 38.8958 24.7467 39.3108 25.098 39.6512C25.4386 40.0027 25.854 40.2732 26.3132 40.4425C26.9126 40.6625 27.5445 40.7805 28.1829 40.7917C29.1596 40.8368 29.4828 40.8476 32.0033 40.8476C34.5238 40.8476 34.8469 40.8368 35.8236 40.7917C36.4623 40.7804 37.0945 40.6624 37.6942 40.4425C38.6152 40.0856 39.3433 39.3572 39.6998 38.436Z" stroke="#1E2330" stroke-width="1.14983"/>
</svg>
