<svg width="125" height="30" viewBox="0 0 125 30" fill="none" xmlns="http://www.w3.org/2000/svg">
<path d="M51.4282 7.4936H45.7928L39.6238 13.8191V0.78125H35.0898V25.0615H39.6238V19.2055L41.1351 17.6942L46.14 25.0601H51.4595L44.2189 14.6403L51.4282 7.4936Z" fill="#FAF7F2"/>
<path d="M50.1855 16.2914C50.1855 11.1953 53.7404 7.16943 58.9304 7.16943C61.3837 7.16943 63.0502 7.9877 64.2157 9.15036V7.48251H68.6827V21.2095C68.6827 23.0951 68.7382 25.0348 68.7382 25.0348H64.21C64.21 25.0348 64.2171 23.7654 64.2171 23.3669C63.053 24.6249 61.3866 25.4119 58.9318 25.4119C53.7105 25.4119 50.187 21.3547 50.187 16.2899L50.1855 16.2914ZM59.4654 21.3874C61.9501 21.3874 64.1203 19.4378 64.1203 16.2914C64.1203 13.1449 61.9501 11.1953 59.4654 11.1953C56.8555 11.1953 54.7792 13.1136 54.7792 16.2914C54.7792 19.4691 56.8555 21.3874 59.4654 21.3874Z" fill="#FAF7F2"/>
<path d="M77.2925 16.2615C77.2925 11.1654 80.8473 7.13953 86.0373 7.13953C88.4907 7.13953 90.1571 7.9578 91.3226 9.12045V7.4526H95.7897V21.1796C95.7897 23.0652 95.7953 25.0049 95.7953 25.0049H91.3326C91.3326 25.0049 91.3226 23.7355 91.3226 23.337C90.1585 24.595 88.4921 25.382 86.0373 25.382C80.816 25.382 77.2925 21.3233 77.2925 16.26V16.2615ZM86.5724 21.3575C89.0571 21.3575 91.2273 19.4079 91.2273 16.2615C91.2273 13.115 89.0571 11.1654 86.5724 11.1654C83.9624 11.1654 81.8862 13.0837 81.8862 16.2615C81.8862 19.4392 83.9624 21.3575 86.5724 21.3575Z" fill="#FAF7F2"/>
<path d="M73.2343 5.56708C74.7128 5.56708 75.9708 4.27777 75.9708 2.76789C75.9708 1.258 74.7128 0 73.2343 0C71.7557 0 70.4351 1.22669 70.4351 2.76789C70.4351 4.30908 71.7571 5.56708 73.2343 5.56708Z" fill="#FAF7F2"/>
<path d="M102.73 23.344C102.73 23.9715 102.712 25.0431 102.712 25.0431H98.1978C98.1978 25.0431 98.202 22.5413 98.202 21.5125L98.202 0.78125H102.732V9.18859C103.896 7.99321 105.595 7.17494 108.047 7.17494C113.237 7.17494 116.76 11.2008 116.76 16.2969C116.76 21.3929 113.27 25.4188 108.047 25.4188C105.593 25.4188 103.896 24.6318 102.732 23.3425L102.73 23.344ZM107.512 21.3929C110.122 21.3929 112.198 19.4433 112.198 16.2969C112.198 13.1504 110.122 11.2008 107.512 11.2008C104.902 11.2008 102.857 13.1504 102.857 16.2969C102.857 19.4433 105.027 21.3929 107.512 21.3929Z" fill="#FAF7F2"/>
<path d="M120.563 0C122.073 0 123.299 1.258 123.299 2.76789C123.299 4.27777 122.073 5.56708 120.563 5.56708C119.053 5.56708 117.764 4.30908 117.764 2.76789C117.764 1.22669 119.022 0 120.563 0Z" fill="#FAF7F2"/>
<path d="M118.422 7.48535H122.969V22.1729C122.969 22.7564 122.975 23.4921 123.308 24.0898C123.588 24.5922 124.2 24.9195 124.2 24.9195V25.0333H119.256C119.256 25.0333 118.872 24.8085 118.652 24.484C118.431 24.1596 118.408 23.902 118.408 23.1107C118.408 22.3195 118.422 7.48535 118.422 7.48535Z" fill="#FAF7F2"/>
<path d="M71.0641 7.48535H75.6251C75.6251 7.48535 75.6251 25.7619 75.6251 26.8421C75.6251 28.3078 74.5991 29.0749 73.9814 29.2399H69.3394V29.1261C69.3394 29.1261 69.984 28.8429 70.3839 28.2851C70.7838 27.7272 71.0641 26.7225 71.0641 25.2141V7.48535Z" fill="#FAF7F2"/>
<path d="M7.85837 24.9988H0.638089C0.196291 24.9988 -0.111534 24.5602 0.03839 24.1455L7.92855 0.78125H15.219L7.29057 24.1312C7.12948 24.5937 7.36394 24.9988 7.85837 24.9988Z" fill="#FAF7F2"/>
<path d="M0.584355 24.9987H7.83917C8.39551 24.9987 8.92467 24.7553 9.28917 24.3313L23.7716 7.47742H17.9588C17.524 7.47742 17.1067 7.65635 16.8046 7.97393L0.793781 24.8004C0.635512 24.9697 0.49323 24.981 0.334961 24.9488C0.477243 25.0068 0.584355 24.9987 0.584355 24.9987Z" fill="#FAF7F2"/>
<path d="M17.9232 7.47742H24.9564C26.0269 7.47742 26.171 8.49303 25.5645 9.1572C24.1322 10.7258 22.9288 11.9977 21.5574 14.5383C19.7907 17.8092 19.6099 25.4489 26.227 24.4687C24.8267 24.8669 23.4953 24.9991 22.6344 24.9991C21.5798 24.9991 19.0274 24.9991 19.0274 24.9991C18.7489 24.9991 17.7311 24.9104 17.2031 24.746C11.7862 23.0549 14.6074 13.3373 18.1184 9.1572C18.8257 8.3157 18.5217 7.56124 17.9488 7.48386C17.9168 7.47903 17.9584 7.47742 17.9248 7.47742H17.9232Z" fill="#FAF7F2"/>
<path d="M23.9975 19.3925H30.7313C30.2002 22.1054 28.1715 24.9987 22.5668 24.9987H19.1409C18.7374 24.9987 17.656 24.903 17.2397 24.7499C23.0086 24.5601 23.6721 21.1389 23.9991 19.3925H23.9975Z" fill="#FAF7F2"/>
</svg>
