<svg width="65" height="64" viewBox="0 0 65 64" fill="none" xmlns="http://www.w3.org/2000/svg">
<rect x="0.667969" width="64" height="64" rx="32" fill="#D2E823"/>
<path d="M25.5 39.5V37.8333C25.5 36.9493 25.8512 36.1014 26.4763 35.4763C27.1014 34.8512 27.9493 34.5 28.8333 34.5H32.1667C33.0507 34.5 33.8986 34.8512 34.5237 35.4763C35.1488 36.1014 35.5 36.9493 35.5 37.8333V39.5M36.3333 24.6083C37.0503 24.7919 37.6859 25.2089 38.1397 25.7936C38.5935 26.3783 38.8399 27.0974 38.8399 27.8375C38.8399 28.5776 38.5935 29.2967 38.1397 29.8814C37.6859 30.4661 37.0503 30.8831 36.3333 31.0667M40.5 39.5V37.8334C40.4958 37.0977 40.2483 36.384 39.7961 35.8037C39.3439 35.2234 38.7124 34.8089 38 34.625M33.8333 27.8333C33.8333 29.6743 32.3409 31.1667 30.5 31.1667C28.6591 31.1667 27.1667 29.6743 27.1667 27.8333C27.1667 25.9924 28.6591 24.5 30.5 24.5C32.3409 24.5 33.8333 25.9924 33.8333 27.8333Z" stroke="#1E2330" stroke-width="2.2" stroke-linecap="square"/>
</svg>
