<svg width="96" height="46" viewBox="0 0 96 46" fill="none" xmlns="http://www.w3.org/2000/svg">
<path d="M43.4627 32.3771C41.3797 32.3771 40.167 30.9789 40.167 27.3455V14.524L47.0913 15.0567L47.4432 11.7562L40.3287 12.1081V4.83183H38.2456C37.2184 10.5435 34.636 12.6217 31.1691 12.9736V14.7047H35.3018V29.2668C35.3018 33.2426 38.0982 35.3114 41.5461 35.3114C44.3282 35.3114 47.2625 34.0986 48.2898 31.6827L47.2578 30.47C46.7441 31.326 45.346 32.3771 43.4627 32.3771ZM26.8461 28.5582C25.448 31.8397 23.1985 32.0251 20.949 32.0251H13.6727C11.2568 32.0251 10.2058 31.1406 10.2058 29.0766V18.3381C10.2058 18.3381 15.3991 18.3381 17.1349 18.5236C18.5188 18.6901 19.2179 19.042 19.7316 20.7731L20.2452 23.2032H22.3282L22.1427 16.978L22.4946 10.9001H20.4306L19.7316 13.6823C19.3844 15.5798 19.0325 15.7653 17.1349 16.0982C14.719 16.2789 10.2058 16.2789 10.2058 16.2789V3.46693C10.2058 2.93429 10.2058 2.76784 11.0856 2.76784H21.981C23.8928 2.76784 24.9296 4.31821 25.6096 7.42846L26.3087 9.8634H28.2063C28.3918 2.93429 28.5582 0 28.5582 0C28.5582 0 23.8928 0.499353 21.1297 0.499353H7.27628L0 0.351924V2.24946L2.41591 2.75833C4.16127 3.11025 4.67489 3.45742 4.67489 5.00779C4.67489 5.00779 4.86036 9.68744 4.86036 17.4631C4.86036 25.2577 4.67489 29.9374 4.67489 29.9374C4.67489 31.3213 4.16127 31.8349 2.41591 32.1868L0 32.7242V34.6075L7.44273 34.441H19.917C22.6801 34.441 29.2621 34.6075 29.2621 34.6075C29.4237 32.8907 30.2893 25.2672 30.4748 24.4017H28.7247L26.8461 28.5582ZM55.5708 16.0887C55.5708 13.8344 57.649 12.9736 59.7321 12.9736C61.4441 12.9736 62.8376 13.6727 63.199 14.5193L64.4117 17.9862L66.1285 17.8197C66.1285 16.0887 66.3092 13.8344 66.6564 12.1081C65.0965 11.409 61.9815 11.0571 59.8985 11.0571C55.2189 11.0571 51.5902 13.1544 51.5902 17.6533C51.5902 25.6144 63.1942 23.8833 63.1942 29.7757C63.1942 31.6732 61.9768 33.2426 59.0282 33.2426C56.2651 33.2426 55.0477 31.8444 54.534 30.4605L53.1549 27.1648H51.4C51.5902 29.4285 51.7519 31.6732 51.4 33.7372C51.4 33.7372 55.0477 35.1354 58.681 35.1354C63.5414 35.1354 67.5172 32.7242 67.5172 28.2063C67.5172 20.2452 55.5708 21.4484 55.5708 16.0887ZM85.8601 11.5945V13.3256L87.0918 13.6775C88.2903 14.0104 88.8039 14.524 88.8039 15.4038C88.8039 15.9175 88.6422 16.0887 88.4567 16.7878C87.9431 18.1717 84.6426 26.3135 82.9305 29.9469C81.1008 25.3086 79.3677 20.6327 77.7325 15.9222C77.5661 15.575 77.5661 15.4086 77.5661 15.2279C77.5661 14.524 78.0654 13.8392 79.2829 13.6775L80.8475 13.3256V11.5945L74.4463 11.9417L69.234 11.7562V13.5063L70.1234 13.8344C71.317 14.1864 71.4882 14.3576 72.3538 16.2694C75.6495 23.5457 79.2829 33.0524 80.5146 36.0057C77.7373 40.8518 74.7887 42.2309 72.5393 42.2309C71.1553 42.2309 70.6417 41.5319 70.4705 40.6663L69.7762 37.0377L67.8739 37.2041C67.5267 39.4726 67.1748 41.8838 66.6612 43.7813C68.0261 44.6469 69.5907 45.1795 71.669 45.1748C74.9552 45.1748 79.6348 44.3092 84.1433 34.0844L91.7572 16.2646C92.4468 14.8712 92.6227 14.7 94.3538 14.0009L95.2241 13.3161V11.5945L90.7299 11.7562L85.8601 11.5945Z" fill="#1E2330"/>
</svg>
