<svg width="64" height="65" viewBox="0 0 64 65" fill="none" xmlns="http://www.w3.org/2000/svg">
<rect y="0.744141" width="64" height="64" rx="32" fill="#D2E823"/>
<path d="M26.4992 38.2453V38.2563M26.4992 27.2453V27.2563M37.4992 27.2453V27.2563M24.2992 23.9453H28.6992C29.3067 23.9453 29.7992 24.4378 29.7992 25.0453V29.4453C29.7992 30.0528 29.3067 30.5453 28.6992 30.5453H24.2992C23.6917 30.5453 23.1992 30.0528 23.1992 29.4453V25.0453C23.1992 24.4378 23.6917 23.9453 24.2992 23.9453ZM35.2992 23.9453H39.6992C40.3067 23.9453 40.7992 24.4378 40.7992 25.0453V29.4453C40.7992 30.0528 40.3067 30.5453 39.6992 30.5453H35.2992C34.6917 30.5453 34.1992 30.0528 34.1992 29.4453V25.0453C34.1992 24.4378 34.6917 23.9453 35.2992 23.9453ZM24.2992 34.9453H28.6992C29.3067 34.9453 29.7992 35.4378 29.7992 36.0453V40.4453C29.7992 41.0528 29.3067 41.5453 28.6992 41.5453H24.2992C23.6917 41.5453 23.1992 41.0528 23.1992 40.4453V36.0453C23.1992 35.4378 23.6917 34.9453 24.2992 34.9453ZM35.2992 34.9343H39.6992C40.3067 34.9343 40.7992 35.4268 40.7992 36.0343V40.4343C40.7992 41.0418 40.3067 41.5343 39.6992 41.5343H35.2992C34.6917 41.5343 34.1992 41.0418 34.1992 40.4343V36.0343C34.1992 35.4268 34.6917 34.9343 35.2992 34.9343Z" stroke="#1E2330" stroke-width="2.2" stroke-linecap="square"/>
</svg>
