<svg width="64" height="65" viewBox="0 0 64 65" fill="none" xmlns="http://www.w3.org/2000/svg">
<rect y="0.744141" width="64" height="64" rx="32" fill="#D2E823"/>
<path d="M26.4969 34.9492L29.7969 31.6492L31.9969 33.8492L35.2969 30.5492L37.4969 32.7492M23.1969 39.3492V26.1492C23.1969 25.5657 23.4287 25.0062 23.8413 24.5936C24.2538 24.181 24.8134 23.9492 25.3969 23.9492H38.5969C39.1804 23.9492 39.74 24.181 40.1525 24.5936C40.5651 25.0062 40.7969 25.5657 40.7969 26.1492V39.3492C40.7969 39.9327 40.5651 40.4923 40.1525 40.9049C39.74 41.3174 39.1804 41.5492 38.5969 41.5492H25.3969C24.8134 41.5492 24.2538 41.3174 23.8413 40.9049C23.4287 40.4923 23.1969 39.9327 23.1969 39.3492Z" stroke="#1E2330" stroke-width="2.2" stroke-linecap="square"/>
</svg>
