<svg width="64" height="64" viewBox="0 0 64 64" fill="none" xmlns="http://www.w3.org/2000/svg">
<rect width="64" height="64" rx="32" fill="#E9C0E9"/>
<path fill-rule="evenodd" clip-rule="evenodd" d="M27.2697 23L26.7072 23.5625L26.707 39.5625V39.5626L26.7072 40.4376L27.2697 41H37.3945L37.957 40.4375V23.5625L37.3945 23L27.2697 23ZM27.832 39.5624L27.8322 24.125L36.832 24.125V39.875H27.8321L27.832 39.5625V39.5624ZM33.457 36.5C33.457 37.1213 32.9534 37.625 32.332 37.625C31.7107 37.625 31.207 37.1213 31.207 36.5C31.207 35.8787 31.7107 35.375 32.332 35.375C32.9534 35.375 33.457 35.8787 33.457 36.5Z" fill="#502274"/>
<path d="M26.7072 23.5625L26.3094 23.1647C26.2039 23.2702 26.1447 23.4133 26.1447 23.5625L26.7072 23.5625ZM27.2697 23L27.2697 22.4375C27.1205 22.4375 26.9774 22.4968 26.8719 22.6023L27.2697 23ZM26.707 39.5625L26.1445 39.5625V39.5625H26.707ZM26.707 39.5626H26.1445V39.5627L26.707 39.5626ZM26.7072 40.4376L26.1447 40.4377C26.1447 40.5868 26.204 40.7299 26.3094 40.8354L26.7072 40.4376ZM27.2697 41L26.8719 41.3978C26.9774 41.5032 27.1205 41.5625 27.2697 41.5625V41ZM37.3945 41V41.5625C37.5437 41.5625 37.6868 41.5032 37.7923 41.3977L37.3945 41ZM37.957 40.4375L38.3548 40.8352C38.4603 40.7298 38.5195 40.5867 38.5195 40.4375H37.957ZM37.957 23.5625H38.5195C38.5195 23.4133 38.4603 23.2702 38.3548 23.1648L37.957 23.5625ZM37.3945 23L37.7923 22.6023C37.6868 22.4968 37.5437 22.4375 37.3945 22.4375V23ZM27.8322 24.125L27.8322 23.5625C27.5215 23.5625 27.2697 23.8143 27.2697 24.125L27.8322 24.125ZM27.832 39.5624L27.2695 39.5624V39.5624H27.832ZM36.832 24.125H37.3945C37.3945 23.8143 37.1427 23.5625 36.832 23.5625V24.125ZM36.832 39.875V40.4375C37.1427 40.4375 37.3945 40.1857 37.3945 39.875H36.832ZM27.8321 39.875L27.2696 39.8751C27.2696 40.1857 27.5215 40.4375 27.8321 40.4375V39.875ZM27.832 39.5625H27.2695V39.5626L27.832 39.5625ZM27.1049 23.9602L27.6674 23.3977L26.8719 22.6023L26.3094 23.1647L27.1049 23.9602ZM27.2695 39.5625L27.2697 23.5625L26.1447 23.5625L26.1445 39.5625L27.2695 39.5625ZM27.2695 39.5626V39.5625H26.1445V39.5626H27.2695ZM27.2697 40.4375L27.2695 39.5625L26.1445 39.5627L26.1447 40.4377L27.2697 40.4375ZM27.6674 40.6022L27.1049 40.0398L26.3094 40.8354L26.8719 41.3978L27.6674 40.6022ZM37.3945 40.4375H27.2697V41.5625H37.3945V40.4375ZM37.5593 40.0398L36.9968 40.6023L37.7923 41.3977L38.3548 40.8352L37.5593 40.0398ZM37.3945 23.5625V40.4375H38.5195V23.5625H37.3945ZM36.9968 23.3978L37.5593 23.9603L38.3548 23.1648L37.7923 22.6023L36.9968 23.3978ZM27.2697 23.5625L37.3945 23.5625V22.4375L27.2697 22.4375L27.2697 23.5625ZM27.2697 24.125L27.2695 39.5624L28.3945 39.5624L28.3947 24.125L27.2697 24.125ZM36.832 23.5625L27.8322 23.5625L27.8322 24.6875L36.832 24.6875V23.5625ZM37.3945 39.875V24.125H36.2695V39.875H37.3945ZM27.8321 40.4375H36.832V39.3125H27.8321V40.4375ZM27.2695 39.5626L27.2696 39.8751L28.3946 39.8749L28.3945 39.5624L27.2695 39.5626ZM27.2695 39.5624V39.5625H28.3945V39.5624H27.2695ZM32.332 38.1875C33.264 38.1875 34.0195 37.432 34.0195 36.5H32.8945C32.8945 36.8107 32.6427 37.0625 32.332 37.0625V38.1875ZM30.6445 36.5C30.6445 37.432 31.4001 38.1875 32.332 38.1875V37.0625C32.0214 37.0625 31.7695 36.8107 31.7695 36.5H30.6445ZM32.332 34.8125C31.4001 34.8125 30.6445 35.568 30.6445 36.5H31.7695C31.7695 36.1893 32.0214 35.9375 32.332 35.9375V34.8125ZM34.0195 36.5C34.0195 35.568 33.264 34.8125 32.332 34.8125V35.9375C32.6427 35.9375 32.8945 36.1893 32.8945 36.5H34.0195Z" fill="#421664"/>
</svg>
