<svg width="65" height="64" viewBox="0 0 65 64" fill="none" xmlns="http://www.w3.org/2000/svg">
<rect x="0.332031" width="64" height="64" rx="32" fill="#D2E823"/>
<path d="M35.6375 35.2938L39.3225 38.9788M29.0375 35.2938L25.3525 38.9788M25.3525 25.0088L29.0375 28.6938M39.3225 25.0088L35.6375 28.6938M36.7375 31.9938C36.7375 34.4238 34.7676 36.3938 32.3375 36.3938C29.9074 36.3938 27.9375 34.4238 27.9375 31.9938C27.9375 29.5637 29.9074 27.5938 32.3375 27.5938C34.7676 27.5938 36.7375 29.5637 36.7375 31.9938ZM42.2375 31.9938C42.2375 37.4614 37.8051 41.8938 32.3375 41.8938C26.8699 41.8938 22.4375 37.4614 22.4375 31.9938C22.4375 26.5261 26.8699 22.0938 32.3375 22.0938C37.8051 22.0938 42.2375 26.5261 42.2375 31.9938Z" stroke="#1E2330" stroke-width="2.2" stroke-linecap="square"/>
</svg>
