<svg width="127" height="52" viewBox="0 0 127 52" fill="none" xmlns="http://www.w3.org/2000/svg">
<g clip-path="url(#clip0_9742_71673)">
<path d="M50.4092 37.2134C50.4092 36.1317 50.4092 35.4826 50.301 34.6172C50.5174 34.6172 52.3564 34.6172 52.8973 34.6172C54.0872 34.6172 54.9526 35.0499 54.9526 36.0235C54.9526 36.9971 53.979 37.4298 53.33 37.538C53.979 37.538 55.169 37.9707 55.169 39.1606C55.169 40.4588 53.979 40.9996 52.7891 40.9996C52.2482 40.9996 50.5174 40.9996 50.301 40.9996C50.301 40.1342 50.4092 39.4852 50.4092 38.4034V37.2134ZM52.4646 35.1581C52.14 35.1581 52.14 35.1581 51.9237 35.1581C51.9237 35.5908 51.9237 36.1317 51.9237 36.4562C51.9237 36.7807 51.9237 37.1053 51.9237 37.4298H52.3564C52.8973 37.4298 53.5463 36.9971 53.5463 36.2398C53.5463 35.5908 53.2218 35.1581 52.4646 35.1581ZM52.3564 37.9707C52.14 37.9707 52.0319 37.9707 51.9237 37.9707C51.9237 38.187 51.9237 38.5116 51.9237 38.8361C51.9237 39.377 51.9237 40.1342 51.9237 40.4588C52.14 40.4588 52.2482 40.4588 52.4646 40.4588C53.0055 40.4588 53.5463 40.026 53.5463 39.1606C53.5463 38.4034 53.1136 37.9707 52.3564 37.9707Z" fill="#1E2330"/>
<path d="M65.1228 37.2134C65.1228 36.1317 65.1228 35.4826 65.0147 34.6172C65.6637 34.6172 68.6927 34.6172 68.909 34.6172C68.909 34.7254 68.909 35.2662 68.909 35.4826C68.1518 35.3744 66.8537 35.3744 66.5292 35.3744C66.5292 36.0235 66.5292 36.6726 66.5292 37.3216C67.3946 37.3216 68.0436 37.3216 68.8009 37.2134C68.8009 37.4298 68.8009 37.8625 68.8009 37.9707C68.0436 37.9707 67.2864 37.8625 66.5292 37.8625C66.5292 38.2952 66.5292 38.6197 66.5292 39.0525C66.5292 39.4852 66.5292 39.8097 66.5292 40.1342C67.2864 40.1342 68.0436 40.1342 68.8009 40.1342C68.8009 40.2424 68.8009 40.8915 68.8009 40.9996C68.4763 40.9996 65.1228 40.9996 64.9065 40.9996C65.0147 40.1342 65.0147 39.4852 65.0147 38.4034V37.2134H65.1228Z" fill="#1E2330"/>
<path d="M84.4858 41.1078C84.1612 41.1078 82.9713 41.1078 82.7549 41.1078C82.5386 40.4588 82.3222 39.8097 81.9977 39.1606C81.565 39.1606 80.0505 39.1606 79.6178 39.1606C79.2933 39.8097 79.0769 40.4588 78.8606 41.1078C78.7524 41.1078 78.1033 41.1078 77.887 41.1078C78.3197 40.026 79.8341 36.6726 80.8077 34.6172C80.9159 34.6172 81.4568 34.6172 81.565 34.6172C82.5386 36.6726 83.7285 39.5933 84.4858 41.1078ZM81.8895 38.6197C81.565 37.8625 81.3486 37.1053 81.0241 36.348C80.6996 37.1053 80.375 37.8625 80.0505 38.6197H81.8895Z" fill="#1E2330"/>
<path d="M92.4885 38.7279C92.4885 37.7543 92.4885 37.2134 92.4885 36.5644C92.4885 35.5908 92.4885 34.9417 92.4885 34.6172C92.8131 34.6172 93.0294 34.6172 93.3539 34.6172C93.5703 34.6172 93.8948 34.6172 94.2194 34.6172C94.1112 35.8071 94.1112 36.7807 94.1112 37.8625C94.1112 40.1342 94.8684 40.5669 96.1666 40.5669C97.7892 40.5669 97.8974 38.9443 97.8974 37.2134C97.8974 36.348 97.8974 35.4826 97.7892 34.6172C98.0056 34.6172 98.1137 34.6172 98.3301 34.6172C98.5464 34.6172 98.6546 34.6172 98.871 34.6172C98.7628 35.1581 98.7628 36.4562 98.7628 38.187C98.7628 40.3506 97.7892 41.216 95.842 41.216C93.7866 41.216 92.4885 40.4588 92.4885 38.7279Z" fill="#1E2330"/>
<path d="M109.148 36.1317C109.148 35.8071 109.148 35.4826 109.148 35.3744C108.823 35.3744 107.958 35.3744 107.309 35.4826C107.309 35.3744 107.309 34.8335 107.309 34.6172C108.174 34.6172 111.636 34.6172 112.501 34.6172C112.501 34.7254 112.501 35.2662 112.501 35.4826C111.96 35.4826 111.095 35.4826 110.662 35.4826C110.662 35.5908 110.662 35.9153 110.662 36.2398V38.6197C110.662 39.7015 110.662 40.3506 110.771 41.216C110.554 41.216 109.364 41.216 109.148 41.216C109.256 40.3506 109.256 39.7015 109.256 38.6197C109.148 38.5116 109.148 36.1317 109.148 36.1317Z" fill="#1E2330"/>
<path d="M124.514 37.4298C125.055 36.6726 125.596 35.5908 126.028 34.6172C126.245 34.6172 126.786 34.6172 127.002 34.6172C126.569 35.3744 125.487 37.1053 124.838 38.2952C124.838 38.6197 124.838 38.8361 124.838 39.1606C124.838 39.8097 124.838 40.4588 124.947 41.1078C124.622 41.1078 123.54 41.1078 123.216 41.1078C123.216 40.5669 123.324 39.9179 123.324 39.2688C123.324 38.9443 123.324 38.7279 123.324 38.4034C122.567 37.1053 121.485 35.1581 121.16 34.6172C121.485 34.6172 122.675 34.6172 122.999 34.6172C123.432 35.4826 124.189 36.9971 124.514 37.4298Z" fill="#1E2330"/>
<path d="M24.9906 3.78664C24.8824 7.24831 24.8824 11.6836 24.8824 15.6861C24.8824 23.0422 24.9906 24.6648 26.3969 26.5038C27.8032 28.3429 30.3994 29.3165 33.6447 29.3165C37.5391 29.3165 40.5681 27.3693 41.6498 24.5567C41.9744 23.5831 42.2989 22.0686 42.2989 18.2824C42.2989 12.2245 42.2989 6.16654 41.8662 0.216797C42.5153 0.324974 45.5442 0.324974 46.3015 0.216797L46.0851 2.38034C45.8688 6.3829 45.7606 15.9025 45.6524 20.5541C45.5442 26.0711 43.9216 28.5592 40.7844 30.5064C38.5127 31.9127 35.3756 32.4536 32.7793 32.4536C27.0459 32.4536 20.2308 30.7228 19.149 23.4749C19.0408 22.8258 19.0408 21.4195 19.0408 20.9868V8.54644C19.0408 6.16654 18.9326 2.59669 18.8245 0.216797C19.9062 0.324974 24.3415 0.324974 25.3151 0.216797L24.9906 3.78664Z" fill="#1E2330"/>
<path d="M53.3353 12.9829C53.3353 10.9275 53.3353 10.4948 53.2271 6.38409C53.1189 5.4105 53.0108 1.19159 52.9026 0.326172C54.0925 0.542526 58.3114 0.542526 59.5014 0.326172C59.1769 7.24951 59.0687 13.0911 59.0687 20.2308C59.0687 23.4761 59.1769 26.505 59.1769 28.9931H60.0423C61.4486 28.9931 68.2637 28.9931 71.0763 28.5604C70.86 29.1013 70.86 31.373 71.0763 32.0221C68.5883 31.9139 64.5857 31.8057 61.9895 31.8057C58.9605 31.8057 56.3643 31.9139 52.9026 32.1303C52.9026 31.373 53.2271 20.6635 53.2271 19.5817V12.9829H53.3353Z" fill="#1E2330"/>
<path d="M84.4882 25.6387C84.4882 29.1004 84.7046 30.6149 84.8128 31.913C83.4065 31.8048 79.8366 31.6967 78.1058 31.913C78.3221 28.4514 78.5385 24.8815 78.5385 21.3117V8.43857C78.5385 6.70774 78.5385 5.08508 78.4303 3.35425H76.0504C75.6177 3.35425 71.0743 3.46242 68.5862 3.67878C68.6944 3.13789 68.8025 0.541641 68.6944 0.000755303C72.4806 0.21711 77.6731 0.21711 81.3511 0.21711C85.3536 0.21711 89.5726 0.108932 94.116 -0.107422C94.0078 0.649818 93.8996 2.92154 94.116 3.67878C91.3034 3.35425 87.9499 3.35425 84.5964 3.35425C84.5964 4.9769 84.4882 6.81592 84.4882 8.54675V25.6387Z" fill="#1E2330"/>
<path d="M112.722 26.9385L110.775 22.0705C108.719 21.9624 100.822 21.9624 98.9834 22.0705C97.4689 25.6404 95.9545 29.4266 95.1972 32.0228C94.5482 31.9147 91.411 31.9147 90.762 32.0228L96.279 20.1233C101.147 9.73834 103.851 3.7886 104.933 0.21875H108.07C110.342 6.27667 113.155 12.7673 114.885 16.6617C116.724 20.6642 119.862 27.5876 121.917 32.0228C121.16 32.0228 115.535 32.0228 114.669 32.0228L112.722 26.9385ZM104.825 7.89933L99.957 19.1498C101.688 19.1498 103.202 19.2579 104.933 19.2579C105.907 19.2579 107.313 19.2579 109.368 19.1498L104.825 7.89933Z" fill="#1E2330"/>
<path d="M11.7916 1.62305C4.32733 6.70737 0.000244141 12.9817 0.000244141 20.7704C0.000244141 38.4033 21.203 51.3845 51.4926 51.3845C65.0147 51.3845 76.3733 47.9229 84.8111 43.5958H84.2703C74.2098 46.6247 63.933 47.9229 53.3316 47.9229C22.9338 47.8147 1.94743 33.5353 1.94743 20.3377C1.94743 12.9816 5.30093 6.70737 11.7916 2.05576V1.62305Z" fill="#1E2330"/>
<path d="M118.127 0.21875C119.101 0.21875 119.966 1.08417 119.966 2.16594C119.966 3.24771 119.101 4.11313 118.127 4.11313C117.045 4.11313 116.18 3.24771 116.18 2.16594C116.18 0.97599 117.154 0.21875 118.127 0.21875ZM118.127 3.68042C118.993 3.68042 119.642 2.92318 119.642 2.05776C119.642 1.19234 118.993 0.435104 118.127 0.435104C117.262 0.435104 116.504 1.19234 116.504 2.05776C116.613 3.03136 117.262 3.68042 118.127 3.68042ZM117.37 0.97599H118.235C118.776 0.97599 118.993 1.19234 118.993 1.62505C118.993 2.05776 118.776 2.16594 118.452 2.27412L119.101 3.24771H118.776L118.235 2.27412H117.803V3.24771H117.478V0.97599H117.37ZM117.694 1.94958H118.019C118.343 1.94958 118.56 1.94958 118.56 1.62505C118.56 1.30052 118.235 1.30052 118.019 1.30052H117.586V1.94958H117.694Z" fill="#1E2330"/>
</g>
<defs>
<clipPath id="clip0_9742_71673">
<rect width="127" height="51.3842" fill="white" transform="translate(0.000244141)"/>
</clipPath>
</defs>
</svg>
