<svg width="64" height="64" viewBox="0 0 64 64" fill="none" xmlns="http://www.w3.org/2000/svg">
<rect width="64" height="64" rx="32" fill="#D2E823"/>
<path d="M38.0374 38.9409L41.1076 35.8707C41.3113 35.667 41.4729 35.4252 41.5832 35.159C41.6935 34.8928 41.7502 34.6075 41.7502 34.3194C41.7502 34.0313 41.6935 33.746 41.5832 33.4798C41.4729 33.2136 41.3113 32.9718 41.1076 32.7681L33.3975 25.0591M25.5 28.75H25.4892M27.5139 25.5H24.4438C23.8619 25.5 23.3039 25.7311 22.8925 26.1425C22.4811 26.5539 22.25 27.1119 22.25 27.6938V30.7639C22.25 31.3457 22.4807 31.9036 22.8924 32.3153L29.5181 38.9409C29.7218 39.1447 29.9636 39.3063 30.2298 39.4165C30.496 39.5268 30.7813 39.5836 31.0694 39.5836C31.3575 39.5836 31.6428 39.5268 31.909 39.4165C32.1752 39.3063 32.417 39.1447 32.6208 38.9409L35.6909 35.8708C35.8947 35.667 36.0563 35.4252 36.1665 35.159C36.2768 34.8928 36.3336 34.6075 36.3336 34.3194C36.3336 34.0313 36.2768 33.746 36.1665 33.4798C36.0563 33.2136 35.8947 32.9718 35.6909 32.7681L29.0642 26.1424C28.653 25.7313 28.0954 25.5002 27.5139 25.5Z" stroke="#1E2330" stroke-width="2" stroke-linecap="square"/>
</svg>
