<svg width="64" height="64" viewBox="0 0 64 64" fill="none" xmlns="http://www.w3.org/2000/svg">
<rect width="64" height="64" rx="32" fill="#D2E823"/>
<path d="M26.4953 34.1953L29.7953 30.8953L31.9953 33.0953L35.2953 29.7953L37.4953 31.9953M23.1953 38.5953V25.3953C23.1953 24.8118 23.4271 24.2523 23.8397 23.8397C24.2523 23.4271 24.8118 23.1953 25.3953 23.1953H38.5953C39.1788 23.1953 39.7384 23.4271 40.1509 23.8397C40.5635 24.2523 40.7953 24.8118 40.7953 25.3953V38.5953C40.7953 39.1788 40.5635 39.7384 40.1509 40.1509C39.7384 40.5635 39.1788 40.7953 38.5953 40.7953H25.3953C24.8118 40.7953 24.2523 40.5635 23.8397 40.1509C23.4271 39.7384 23.1953 39.1788 23.1953 38.5953Z" stroke="#1E2330" stroke-width="2.2" stroke-linecap="square"/>
</svg>
