<svg width="420" height="325" viewBox="0 0 420 325" fill="none" xmlns="http://www.w3.org/2000/svg">
<path d="M46.3178 222.645C26.3224 222.645 8 290.126 8 314.523H148.712H411.31C386.729 233.159 366.397 233.159 347.885 233.159C329.373 233.159 316.626 261.055 301.367 261.055C286.107 261.055 276.591 225.15 247.874 222.645C219.156 220.14 213.228 217.902 202.3 206.671C178.73 182.447 184.775 112.281 148.712 112.281C112.649 112.281 118.032 231.589 93.8102 246.476C74.1726 258.545 66.3132 222.645 46.3178 222.645Z" fill="#D2E823"/>
<path d="M49.7101 281.734C33.7713 281.734 13.1181 306.608 8 314.523H153.644H411.31C411.31 309.435 388.513 261.447 365.142 261.447C341.77 261.447 333.832 294.848 312.963 294.848C292.093 294.848 277.581 275.11 257.946 268.279C238.311 261.447 214.689 267.42 203.818 261.447C183.419 250.241 177.527 221.577 153.644 225.532C129.76 229.487 124.633 290.073 100.993 294.848C73.2725 300.446 69.0272 281.734 49.7101 281.734Z" fill="#70764D"/>
<rect x="158.408" y="61" width="107.932" height="58.66" rx="29.33" fill="white"/>
<circle cx="181.834" cy="90.1587" r="6.0532" fill="#D2E823"/>
<path d="M197.015 84.9506H199.466L203.809 96.1187H203.312L207.654 84.9506H210.106L205.187 97.1602H201.934L197.015 84.9506ZM211.248 88.3315H213.491V97.1602H211.248V88.3315ZM212.385 87.4662C211.99 87.4662 211.659 87.3434 211.392 87.0977C211.125 86.852 210.991 86.5422 210.991 86.1684C210.991 85.8159 211.125 85.5168 211.392 85.2711C211.659 85.0254 211.99 84.9025 212.385 84.9025C212.78 84.9025 213.106 85.0254 213.363 85.2711C213.63 85.5168 213.763 85.8159 213.763 86.1684C213.763 86.5422 213.63 86.852 213.363 87.0977C213.106 87.3434 212.78 87.4662 212.385 87.4662ZM219.737 97.4005C218.807 97.4005 218.001 97.2136 217.317 96.8397C216.634 96.4551 216.105 95.9157 215.731 95.2214C215.368 94.5164 215.186 93.6885 215.186 92.7378C215.186 91.8832 215.362 91.1035 215.715 90.3984C216.067 89.6934 216.58 89.1326 217.253 88.716C217.926 88.2994 218.717 88.0911 219.625 88.0911C220.415 88.0911 221.147 88.2567 221.82 88.5878C222.493 88.919 223.037 89.4477 223.454 90.1741C223.871 90.9005 224.079 91.8298 224.079 92.9621V93.2345H216.292V91.6803H222.477L221.804 92.4334C221.804 91.9634 221.713 91.5468 221.531 91.1836C221.36 90.8097 221.109 90.5213 220.778 90.3183C220.447 90.1154 220.057 90.0139 219.609 90.0139C219.16 90.0139 218.77 90.1314 218.439 90.3664C218.108 90.5907 217.851 90.9112 217.67 91.3278C217.488 91.7444 217.397 92.2144 217.397 92.7378C217.397 93.3253 217.488 93.822 217.67 94.2279C217.851 94.6232 218.113 94.9276 218.455 95.1413C218.807 95.3442 219.24 95.4457 219.753 95.4457C220.255 95.4457 220.693 95.3229 221.067 95.0772C221.441 94.8315 221.676 94.5217 221.772 94.1478H224.031C223.988 94.7353 223.775 95.2801 223.39 95.7822C223.005 96.2842 222.493 96.6795 221.852 96.9679C221.211 97.2563 220.506 97.4005 219.737 97.4005ZM224.691 88.3315H226.87L229.386 96.7916H228.473L230.812 88.3315H233.408L235.715 96.7916H234.818L237.333 88.3315H239.513L236.725 97.1602H233.921L231.677 88.9724H232.543L230.283 97.1602H227.447L224.691 88.3315ZM243.925 97.4005C243.113 97.4005 242.398 97.2616 241.778 96.9839C241.158 96.7062 240.683 96.3163 240.352 95.8142C240.032 95.3122 239.898 94.746 239.951 94.1158H242.195C242.173 94.5537 242.334 94.9169 242.675 95.2053C243.017 95.4831 243.466 95.6219 244.021 95.6219C244.513 95.6219 244.908 95.5365 245.207 95.3656C245.506 95.184 245.656 94.9543 245.656 94.6766C245.656 94.4416 245.565 94.2493 245.383 94.0998C245.212 93.9502 244.849 93.8167 244.294 93.6992L242.884 93.4108C241.965 93.2292 241.276 92.9194 240.817 92.4814C240.357 92.0435 240.128 91.4773 240.128 90.783C240.128 90.2596 240.277 89.7949 240.576 89.389C240.875 88.9831 241.303 88.668 241.858 88.4436C242.414 88.2086 243.049 88.0911 243.765 88.0911C244.491 88.0911 245.143 88.2353 245.72 88.5238C246.307 88.8015 246.761 89.1807 247.082 89.6614C247.413 90.1314 247.568 90.6602 247.546 91.2477H245.335C245.357 90.8738 245.207 90.564 244.887 90.3183C244.577 90.062 244.171 89.9338 243.669 89.9338C243.252 89.9338 242.916 90.0139 242.659 90.1741C242.403 90.3344 242.275 90.548 242.275 90.815C242.275 91.0287 242.371 91.2103 242.563 91.3598C242.766 91.4987 243.113 91.6322 243.605 91.7604L245.127 92.1289C245.981 92.3319 246.628 92.6523 247.066 93.0903C247.504 93.5176 247.723 94.0731 247.723 94.7567C247.723 95.2801 247.562 95.7448 247.242 96.1507C246.932 96.5459 246.489 96.8557 245.912 97.08C245.335 97.2937 244.673 97.4005 243.925 97.4005Z" fill="#1E2330"/>
<rect x="158.408" y="126.66" width="204.226" height="59.4832" rx="29.7416" fill="white"/>
<circle cx="180.481" cy="155.819" r="6.0532" fill="#70764D"/>
<path d="M196.959 150.611H205.74V152.726H198.177L199.315 151.78V161.827L198.145 160.721H205.804V162.82H196.959V150.611ZM197.889 155.61H203.977V157.693H197.889V155.61ZM219.188 158.077C219.188 157.34 219.022 156.764 218.691 156.347C218.36 155.93 217.901 155.722 217.313 155.722C216.694 155.722 216.218 155.936 215.887 156.363C215.556 156.79 215.39 157.405 215.39 158.206L214.637 157.485C214.637 156.748 214.776 156.101 215.054 155.546C215.342 154.98 215.738 154.542 216.24 154.232C216.752 153.912 217.345 153.751 218.018 153.751C219.086 153.751 219.925 154.13 220.534 154.889C221.153 155.637 221.463 156.662 221.463 157.965V162.82H219.188V158.077ZM207.203 153.992H209.446V162.82H207.203V153.992ZM213.275 158.077C213.275 157.34 213.11 156.764 212.779 156.347C212.458 155.93 212.004 155.722 211.417 155.722C210.754 155.722 210.258 155.93 209.927 156.347C209.606 156.753 209.446 157.372 209.446 158.206L208.725 157.485C208.725 156.748 208.858 156.096 209.125 155.53C209.403 154.964 209.788 154.526 210.279 154.216C210.77 153.906 211.347 153.751 212.01 153.751C212.704 153.751 213.302 153.922 213.804 154.264C214.317 154.606 214.707 155.092 214.974 155.722C215.252 156.352 215.39 157.1 215.39 157.965V162.82H213.275V158.077ZM229.409 157.709C229.409 157.047 229.232 156.539 228.88 156.187C228.538 155.834 228.031 155.658 227.358 155.658C226.877 155.658 226.476 155.776 226.156 156.011C225.846 156.235 225.659 156.555 225.595 156.972H223.288C223.341 156.384 223.55 155.845 223.913 155.354C224.276 154.862 224.767 154.472 225.387 154.184C226.006 153.895 226.701 153.751 227.47 153.751C228.314 153.751 229.051 153.917 229.681 154.248C230.311 154.568 230.797 155.033 231.139 155.642C231.481 156.251 231.652 156.977 231.652 157.821V162.82H229.409V157.709ZM226.364 163.061C225.35 163.061 224.548 162.82 223.961 162.34C223.373 161.848 223.08 161.181 223.08 160.337C223.08 159.45 223.411 158.766 224.073 158.286C224.735 157.794 225.638 157.549 226.781 157.549H229.857V159.087H227.246C226.573 159.087 226.087 159.172 225.787 159.343C225.499 159.514 225.355 159.776 225.355 160.128C225.355 160.449 225.488 160.705 225.755 160.898C226.023 161.09 226.375 161.186 226.813 161.186C227.24 161.186 227.652 161.079 228.047 160.866C228.453 160.641 228.778 160.321 229.024 159.904C229.281 159.488 229.409 158.996 229.409 158.43H230.434C230.434 159.338 230.263 160.144 229.921 160.849C229.58 161.544 229.099 162.089 228.479 162.484C227.86 162.868 227.155 163.061 226.364 163.061ZM233.67 153.992H235.913V162.82H233.67V153.992ZM234.808 153.126C234.412 153.126 234.081 153.004 233.814 152.758C233.547 152.512 233.414 152.202 233.414 151.829C233.414 151.476 233.547 151.177 233.814 150.931C234.081 150.686 234.412 150.563 234.808 150.563C235.203 150.563 235.529 150.686 235.785 150.931C236.052 151.177 236.186 151.476 236.186 151.829C236.186 152.202 236.052 152.512 235.785 152.758C235.529 153.004 235.203 153.126 234.808 153.126ZM237.961 150.611H240.204V162.82H237.961V150.611ZM252.343 163.061C251.264 163.061 250.324 162.89 249.523 162.548C248.722 162.195 248.108 161.699 247.68 161.058C247.253 160.417 247.045 159.674 247.055 158.831H249.715C249.737 159.482 249.998 160.006 250.5 160.401C251.002 160.785 251.67 160.978 252.503 160.978C253.262 160.978 253.86 160.839 254.298 160.561C254.736 160.283 254.955 159.909 254.955 159.439C254.955 159.055 254.816 158.734 254.538 158.478C254.271 158.222 253.737 158.008 252.936 157.837L250.981 157.437C249.678 157.18 248.743 156.78 248.177 156.235C247.611 155.679 247.328 154.921 247.328 153.96C247.328 153.265 247.531 152.646 247.937 152.101C248.353 151.556 248.925 151.134 249.651 150.835C250.378 150.525 251.205 150.37 252.135 150.37C253.043 150.37 253.871 150.557 254.618 150.931C255.377 151.305 255.98 151.802 256.429 152.421C256.878 153.041 257.107 153.698 257.118 154.392H254.522C254.501 154.05 254.373 153.746 254.138 153.479C253.913 153.201 253.614 152.988 253.24 152.838C252.866 152.678 252.45 152.598 251.991 152.598C251.371 152.598 250.858 152.72 250.452 152.966C250.046 153.201 249.843 153.548 249.843 154.008C249.843 154.371 250.004 154.67 250.324 154.905C250.645 155.14 251.152 155.348 251.846 155.53L253.945 156.059C255.088 156.326 255.943 156.742 256.509 157.308C257.075 157.875 257.358 158.622 257.358 159.552C257.358 160.267 257.155 160.892 256.749 161.426C256.354 161.95 255.777 162.356 255.019 162.644C254.271 162.922 253.379 163.061 252.343 163.061ZM261.12 158.734C261.12 159.472 261.301 160.054 261.664 160.481C262.028 160.898 262.53 161.106 263.171 161.106C263.844 161.106 264.356 160.892 264.709 160.465C265.072 160.038 265.254 159.418 265.254 158.606L266.039 159.327C266.039 160.064 265.889 160.716 265.59 161.282C265.302 161.838 264.89 162.276 264.356 162.596C263.822 162.906 263.203 163.061 262.498 163.061C261.761 163.061 261.12 162.89 260.575 162.548C260.03 162.206 259.608 161.72 259.309 161.09C259.021 160.46 258.876 159.712 258.876 158.847V153.992H261.12V158.734ZM267.497 162.82H265.254V153.992H267.497V162.82ZM274.523 163.061C273.743 163.061 273.054 162.863 272.456 162.468C271.858 162.062 271.393 161.506 271.062 160.801C270.731 160.096 270.565 159.295 270.565 158.398C270.565 157.501 270.731 156.7 271.062 155.995C271.393 155.289 271.858 154.739 272.456 154.344C273.054 153.949 273.743 153.751 274.523 153.751C275.346 153.751 276.061 153.949 276.67 154.344C277.29 154.739 277.77 155.289 278.112 155.995C278.454 156.7 278.625 157.501 278.625 158.398C278.625 159.306 278.454 160.112 278.112 160.817C277.77 161.522 277.29 162.073 276.67 162.468C276.051 162.863 275.335 163.061 274.523 163.061ZM269.428 150.611H271.671V162.82H269.428V150.611ZM274.026 161.106C274.486 161.106 274.892 160.994 275.244 160.769C275.607 160.534 275.89 160.214 276.093 159.808C276.296 159.402 276.398 158.932 276.398 158.398C276.398 157.875 276.296 157.41 276.093 157.004C275.89 156.587 275.607 156.267 275.244 156.043C274.892 155.818 274.486 155.706 274.026 155.706C273.578 155.706 273.172 155.818 272.809 156.043C272.445 156.267 272.162 156.587 271.959 157.004C271.767 157.41 271.671 157.875 271.671 158.398C271.671 158.932 271.767 159.402 271.959 159.808C272.162 160.214 272.445 160.534 272.809 160.769C273.172 160.994 273.578 161.106 274.026 161.106ZM284.087 163.061C283.276 163.061 282.56 162.922 281.94 162.644C281.321 162.366 280.846 161.976 280.514 161.474C280.194 160.972 280.06 160.406 280.114 159.776H282.357C282.336 160.214 282.496 160.577 282.838 160.866C283.18 161.143 283.628 161.282 284.184 161.282C284.675 161.282 285.07 161.197 285.369 161.026C285.668 160.844 285.818 160.614 285.818 160.337C285.818 160.102 285.727 159.909 285.546 159.76C285.375 159.61 285.011 159.477 284.456 159.359L283.046 159.071C282.127 158.889 281.438 158.58 280.979 158.142C280.52 157.704 280.29 157.137 280.29 156.443C280.29 155.92 280.44 155.455 280.739 155.049C281.038 154.643 281.465 154.328 282.021 154.104C282.576 153.869 283.212 153.751 283.927 153.751C284.654 153.751 285.305 153.895 285.882 154.184C286.47 154.462 286.924 154.841 287.244 155.322C287.575 155.792 287.73 156.32 287.709 156.908H285.498C285.519 156.534 285.369 156.224 285.049 155.978C284.739 155.722 284.333 155.594 283.831 155.594C283.415 155.594 283.078 155.674 282.822 155.834C282.565 155.995 282.437 156.208 282.437 156.475C282.437 156.689 282.533 156.87 282.726 157.02C282.928 157.159 283.276 157.292 283.767 157.421L285.289 157.789C286.144 157.992 286.79 158.313 287.228 158.75C287.666 159.178 287.885 159.733 287.885 160.417C287.885 160.94 287.725 161.405 287.404 161.811C287.094 162.206 286.651 162.516 286.074 162.74C285.498 162.954 284.835 163.061 284.087 163.061ZM293.537 163.061C292.661 163.061 291.876 162.863 291.181 162.468C290.498 162.073 289.958 161.522 289.563 160.817C289.179 160.112 288.986 159.306 288.986 158.398C288.986 157.554 289.173 156.78 289.547 156.075C289.921 155.359 290.45 154.793 291.133 154.376C291.828 153.96 292.629 153.751 293.537 153.751C294.274 153.751 294.952 153.895 295.572 154.184C296.191 154.472 296.693 154.873 297.078 155.386C297.473 155.898 297.719 156.497 297.815 157.18H295.54C295.444 156.732 295.209 156.374 294.835 156.107C294.471 155.84 294.039 155.706 293.537 155.706C293.088 155.706 292.688 155.824 292.335 156.059C291.983 156.283 291.705 156.603 291.502 157.02C291.299 157.426 291.197 157.885 291.197 158.398C291.197 158.932 291.299 159.407 291.502 159.824C291.705 160.23 291.983 160.545 292.335 160.769C292.688 160.994 293.088 161.106 293.537 161.106C294.05 161.106 294.493 160.972 294.867 160.705C295.241 160.428 295.47 160.054 295.556 159.584H297.815C297.73 160.257 297.489 160.855 297.094 161.378C296.709 161.902 296.207 162.313 295.588 162.612C294.968 162.911 294.285 163.061 293.537 163.061ZM300.899 157.34C300.899 156.657 301.032 156.043 301.299 155.498C301.567 154.953 301.919 154.526 302.357 154.216C302.806 153.906 303.302 153.751 303.847 153.751C304.114 153.751 304.328 153.773 304.488 153.815C304.659 153.858 304.825 153.922 304.985 154.008V156.187C304.857 156.08 304.675 155.995 304.44 155.93C304.216 155.866 303.997 155.834 303.783 155.834C303.003 155.834 302.416 156.096 302.021 156.619C301.636 157.132 301.444 157.891 301.444 158.895L300.899 157.34ZM299.2 153.992H301.444V162.82H299.2V153.992ZM306.293 153.992H308.536V162.82H306.293V153.992ZM307.43 153.126C307.035 153.126 306.704 153.004 306.437 152.758C306.17 152.512 306.036 152.202 306.036 151.829C306.036 151.476 306.17 151.177 306.437 150.931C306.704 150.686 307.035 150.563 307.43 150.563C307.825 150.563 308.151 150.686 308.408 150.931C308.675 151.177 308.808 151.476 308.808 151.829C308.808 152.202 308.675 152.512 308.408 152.758C308.151 153.004 307.825 153.126 307.43 153.126ZM315.679 163.061C314.899 163.061 314.21 162.863 313.612 162.468C313.014 162.062 312.549 161.506 312.218 160.801C311.887 160.096 311.721 159.295 311.721 158.398C311.721 157.501 311.887 156.7 312.218 155.995C312.549 155.289 313.014 154.739 313.612 154.344C314.21 153.949 314.899 153.751 315.679 153.751C316.502 153.751 317.217 153.949 317.826 154.344C318.446 154.739 318.926 155.289 319.268 155.995C319.61 156.7 319.781 157.501 319.781 158.398C319.781 159.306 319.61 160.112 319.268 160.817C318.926 161.522 318.446 162.073 317.826 162.468C317.207 162.863 316.491 163.061 315.679 163.061ZM310.584 150.611H312.827V162.82H310.584V150.611ZM315.182 161.106C315.642 161.106 316.048 160.994 316.4 160.769C316.763 160.534 317.046 160.214 317.249 159.808C317.452 159.402 317.554 158.932 317.554 158.398C317.554 157.875 317.452 157.41 317.249 157.004C317.046 156.587 316.763 156.267 316.4 156.043C316.048 155.818 315.642 155.706 315.182 155.706C314.734 155.706 314.328 155.818 313.965 156.043C313.601 156.267 313.318 156.587 313.115 157.004C312.923 157.41 312.827 157.875 312.827 158.398C312.827 158.932 312.923 159.402 313.115 159.808C313.318 160.214 313.601 160.534 313.965 160.769C314.328 160.994 314.734 161.106 315.182 161.106ZM325.629 163.061C324.7 163.061 323.893 162.874 323.21 162.5C322.526 162.115 321.997 161.576 321.623 160.882C321.26 160.177 321.079 159.349 321.079 158.398C321.079 157.543 321.255 156.764 321.607 156.059C321.96 155.354 322.473 154.793 323.146 154.376C323.819 153.96 324.609 153.751 325.517 153.751C326.307 153.751 327.039 153.917 327.712 154.248C328.385 154.579 328.93 155.108 329.347 155.834C329.763 156.561 329.971 157.49 329.971 158.622V158.895H322.184V157.34H328.369L327.696 158.094C327.696 157.624 327.605 157.207 327.424 156.844C327.253 156.47 327.002 156.181 326.671 155.978C326.34 155.776 325.95 155.674 325.501 155.674C325.052 155.674 324.662 155.792 324.331 156.027C324 156.251 323.744 156.571 323.562 156.988C323.381 157.405 323.29 157.875 323.29 158.398C323.29 158.985 323.381 159.482 323.562 159.888C323.744 160.283 324.006 160.588 324.347 160.801C324.7 161.004 325.132 161.106 325.645 161.106C326.147 161.106 326.585 160.983 326.959 160.737C327.333 160.492 327.568 160.182 327.664 159.808H329.923C329.881 160.395 329.667 160.94 329.282 161.442C328.898 161.944 328.385 162.34 327.744 162.628C327.103 162.916 326.398 163.061 325.629 163.061ZM333.367 157.34C333.367 156.657 333.5 156.043 333.767 155.498C334.034 154.953 334.387 154.526 334.825 154.216C335.274 153.906 335.77 153.751 336.315 153.751C336.582 153.751 336.796 153.773 336.956 153.815C337.127 153.858 337.292 153.922 337.453 154.008V156.187C337.324 156.08 337.143 155.995 336.908 155.93C336.684 155.866 336.465 155.834 336.251 155.834C335.471 155.834 334.884 156.096 334.488 156.619C334.104 157.132 333.912 157.891 333.912 158.895L333.367 157.34ZM331.668 153.992H333.912V162.82H331.668V153.992ZM342.26 163.061C341.448 163.061 340.732 162.922 340.113 162.644C339.493 162.366 339.018 161.976 338.687 161.474C338.366 160.972 338.233 160.406 338.286 159.776H340.529C340.508 160.214 340.668 160.577 341.01 160.866C341.352 161.143 341.8 161.282 342.356 161.282C342.847 161.282 343.243 161.197 343.542 161.026C343.841 160.844 343.99 160.614 343.99 160.337C343.99 160.102 343.899 159.909 343.718 159.76C343.547 159.61 343.184 159.477 342.628 159.359L341.218 159.071C340.3 158.889 339.611 158.58 339.151 158.142C338.692 157.704 338.462 157.137 338.462 156.443C338.462 155.92 338.612 155.455 338.911 155.049C339.21 154.643 339.637 154.328 340.193 154.104C340.748 153.869 341.384 153.751 342.1 153.751C342.826 153.751 343.478 153.895 344.054 154.184C344.642 154.462 345.096 154.841 345.416 155.322C345.747 155.792 345.902 156.32 345.881 156.908H343.67C343.691 156.534 343.542 156.224 343.221 155.978C342.911 155.722 342.505 155.594 342.003 155.594C341.587 155.594 341.25 155.674 340.994 155.834C340.738 155.995 340.609 156.208 340.609 156.475C340.609 156.689 340.706 156.87 340.898 157.02C341.101 157.159 341.448 157.292 341.939 157.421L343.462 157.789C344.316 157.992 344.962 158.313 345.4 158.75C345.838 159.178 346.057 159.733 346.057 160.417C346.057 160.94 345.897 161.405 345.577 161.811C345.267 162.206 344.823 162.516 344.247 162.74C343.67 162.954 343.008 163.061 342.26 163.061Z" fill="#1E2330"/>
</svg>
