<svg width="122" height="26" viewBox="0 0 122 26" fill="none" xmlns="http://www.w3.org/2000/svg">
<path d="M0.84 21H2.96V8.24L7.88 21H10.42L15.32 8.28V21H17.44V5.76H14.14L9.16 18.94L4.16 5.76H0.84V21ZM23.034 21.3C24.794 21.3 26.274 20.52 27.234 19.22V21H29.274V14.74C29.274 11.62 27.294 9.74 24.274 9.74C21.554 9.74 19.634 11.42 19.314 13.42H21.414C21.694 12.24 22.714 11.58 24.114 11.58C26.094 11.58 27.174 12.66 27.234 14.56H23.614C20.714 14.56 18.994 15.8 18.994 18.04C18.994 20.06 20.534 21.3 23.034 21.3ZM21.014 17.88C21.014 16.82 21.894 16.24 23.994 16.24H27.174C26.834 18.3 25.074 19.5 23.294 19.5C21.914 19.5 21.014 18.86 21.014 17.88ZM31.443 21H33.483V15.7C33.483 13.24 34.523 11.66 36.483 11.66C37.103 11.66 37.663 11.86 37.923 12.1V10.04C37.523 9.84 37.143 9.74 36.463 9.74C35.223 9.74 34.103 10.46 33.483 11.58V10.04H31.443V21ZM39.27 21H41.31V18.2L43.65 15.82L47.25 21H49.61L44.97 14.48L49.37 10.04H46.71L41.31 15.56V5.76H39.27V21ZM55.263 21.3C57.863 21.3 60.023 19.58 60.363 17.4H58.283C57.923 18.62 56.703 19.44 55.263 19.44C53.203 19.44 51.883 18.12 51.723 15.98H60.483V15.6C60.483 11.62 57.903 9.74 55.083 9.74C51.843 9.74 49.743 12.26 49.743 15.52C49.743 19.02 51.943 21.3 55.263 21.3ZM51.843 14.28C52.243 12.66 53.443 11.58 55.083 11.58C56.803 11.58 58.023 12.64 58.283 14.28H51.843ZM65.65 21.3C66.47 21.3 67.27 20.98 67.65 20.5V18.82C67.27 19.18 66.75 19.42 66.17 19.42C65.27 19.42 64.91 18.94 64.91 17.78V11.74H67.77V10.04H64.91V7.28H62.87V10.04H61.03V11.74H62.87V18.24C62.87 20.16 63.91 21.3 65.65 21.3ZM74.918 21.3C78.018 21.3 80.118 18.8 80.118 15.5C80.118 12.2 78.018 9.74 74.918 9.74C73.378 9.74 72.118 10.36 71.218 11.4V10.04H69.178V25.76H71.218V19.62C72.118 20.66 73.378 21.3 74.918 21.3ZM71.218 15.5C71.218 13.2 72.598 11.56 74.658 11.56C76.738 11.56 78.178 13.26 78.178 15.5C78.178 17.76 76.738 19.46 74.658 19.46C72.598 19.46 71.218 17.82 71.218 15.5ZM81.907 21H83.947V5.76H81.907V21ZM89.837 21.3C91.597 21.3 93.077 20.52 94.037 19.22V21H96.077V14.74C96.077 11.62 94.097 9.74 91.077 9.74C88.357 9.74 86.437 11.42 86.117 13.42H88.217C88.497 12.24 89.517 11.58 90.917 11.58C92.897 11.58 93.977 12.66 94.037 14.56H90.417C87.517 14.56 85.797 15.8 85.797 18.04C85.797 20.06 87.337 21.3 89.837 21.3ZM87.817 17.88C87.817 16.82 88.697 16.24 90.797 16.24H93.977C93.637 18.3 91.877 19.5 90.097 19.5C88.717 19.5 87.817 18.86 87.817 17.88ZM103.168 21.3C105.808 21.3 107.828 19.64 108.308 17.22H106.228C105.888 18.6 104.668 19.44 103.168 19.44C101.148 19.44 99.648 17.82 99.648 15.5C99.648 13.22 101.128 11.58 103.168 11.58C104.628 11.58 105.848 12.4 106.208 13.74H108.308C107.828 11.3 105.748 9.74 103.168 9.74C99.948 9.74 97.688 12.24 97.688 15.5C97.688 18.92 100.048 21.3 103.168 21.3ZM114.981 21.3C117.581 21.3 119.741 19.58 120.081 17.4H118.001C117.641 18.62 116.421 19.44 114.981 19.44C112.921 19.44 111.601 18.12 111.441 15.98H120.201V15.6C120.201 11.62 117.621 9.74 114.801 9.74C111.561 9.74 109.461 12.26 109.461 15.52C109.461 19.02 111.661 21.3 114.981 21.3ZM111.561 14.28C111.961 12.66 113.161 11.58 114.801 11.58C116.521 11.58 117.741 12.64 118.001 14.28H111.561Z" fill="black"/>
</svg>
